{
  "accessors": [
    {
      "bufferView": 2,
      "componentType": 5126,
      "count": 9102,
      "max": [
        2.2684359550476074,
        5.565684795379639,
        4.614776134490967
      ],
      "min": [
        -3.049299955368042,
        -7.520429790019989e-07,
        -4.614776134490967
      ],
      "type": "VEC3"
    },
    {
      "bufferView": 2,
      "byteOffset": 109224,
      "componentType": 5126,
      "count": 9102,
      "max": [
        1.0,
        1.0,
        1.0
      ],
      "min": [
        -1.0,
        -1.0,
        -1.0
      ],
      "type": "VEC3"
    },
    {
      "bufferView": 1,
      "componentType": 5126,
      "count": 9102,
      "max": [
        0.8415820002555847,
        0.4095659852027893
      ],
      "min": [
        0.02943499945104122,
        0.031130999326705933
      ],
      "type": "VEC2"
    },
    {
      "bufferView": 0,
      "componentType": 5125,
      "count": 16350,
      "type": "SCALAR"
    },
    {
      "bufferView": 2,
      "byteOffset": 218448,
      "componentType": 5126,
      "count": 574,
      "max": [
        2.280461311340332,
        4.626709461212158,
        5.587709903717041
      ],
      "min": [
        -3.073972463607788,
        -4.626709461212158,
        0.0
      ],
      "type": "VEC3"
    },
    {
      "bufferView": 2,
      "byteOffset": 225336,
      "componentType": 5126,
      "count": 574,
      "max": [
        1.0,
        1.0,
        1.0
      ],
      "min": [
        -1.0,
        -1.0,
        -1.0
      ],
      "type": "VEC3"
    },
    {
      "bufferView": 1,
      "byteOffset": 72816,
      "componentType": 5126,
      "count": 574,
      "max": [
        0.875,
        1.0
      ],
      "min": [
        0.125,
        0.0
      ],
      "type": "VEC2"
    },
    {
      "bufferView": 0,
      "byteOffset": 65400,
      "componentType": 5125,
      "count": 1116,
      "type": "SCALAR"
    }
  ],
  "asset": {
    "extras": {
      "author": "assetfactory (https://sketchfab.com/assetfactory)",
      "license": "SKETCHFAB Standard (https://sketchfab.com/licenses)",
      "source": "https://sketchfab.com/3d-models/low-poly-cinema-54a7b023972f4dedb0c6b76dc03bc50c",
      "title": "Low poly cinema"
    },
    "generator": "Sketchfab-16.33.0",
    "version": "2.0"
  },
  "bufferViews": [
    {
      "buffer": 0,
      "byteLength": 69864,
      "name": "floatBufferViews",
      "target": 34963
    },
    {
      "buffer": 0,
      "byteLength": 77408,
      "byteOffset": 69864,
      "byteStride": 8,
      "name": "floatBufferViews",
      "target": 34962
    },
    {
      "buffer": 0,
      "byteLength": 232224,
      "byteOffset": 147272,
      "byteStride": 12,
      "name": "floatBufferViews",
      "target": 34962
    }
  ],
  "buffers": [
    {
      "byteLength": 379496,
      "uri": "scene.bin"
    }
  ],
  "images": [
    {
      "uri": "textures/Texture_buildings1_baseColor.png"
    }
  ],
  "materials": [
    {
      "doubleSided": true,
      "name": "Texture_buildings1",
      "pbrMetallicRoughness": {
        "baseColorTexture": {
          "index": 0
        },
        "metallicFactor": 0.0,
        "roughnessFactor": 0.8611067128702585
      }
    },
    {
      "alphaMode": "BLEND",
      "doubleSided": true,
      "name": "Collider",
      "pbrMetallicRoughness": {
        "baseColorFactor": [
          0.8,
          0.8,
          0.8,
          0.0
        ],
        "metallicFactor": 0.0,
        "roughnessFactor": 0.0
      }
    }
  ],
  "meshes": [
    {
      "name": "Cinema_Texture_buildings1_0",
      "primitives": [
        {
          "attributes": {
            "NORMAL": 1,
            "POSITION": 0,
            "TEXCOORD_0": 2
          },
          "indices": 3,
          "material": 0,
          "mode": 4
        }
      ]
    },
    {
      "name": "Collider_Collider_0",
      "primitives": [
        {
          "attributes": {
            "NORMAL": 5,
            "POSITION": 4,
            "TEXCOORD_0": 6
          },
          "indices": 7,
          "material": 1,
          "mode": 4
        }
      ]
    }
  ],
  "nodes": [
    {
      "children": [
        1
      ],
      "matrix": [
        2.220446049250313e-16,
        -2.220446049250313e-16,
        1.0,
        0.0,
        1.0,
        4.930380657631324e-32,
        -2.220446049250313e-16,
        0.0,
        0.0,
        1.0,
        2.220446049250313e-16,
        0.0,
        0.0,
        0.0,
        0.0,
        1.0
      ],
      "name": "Sketchfab_model"
    },
    {
      "children": [
        2
      ],
      "matrix": [
        0.009999999776482582,
        0.0,
        0.0,
        0.0,
        0.0,
        0.0,
        0.009999999776482582,
        0.0,
        0.0,
        -0.009999999776482582,
        0.0,
        0.0,
        0.0,
        0.0,
        0.0,
        1.0
      ],
      "name": "BusinessBuilding_CinemaC.fbx"
    },
    {
      "children": [
        3,
        5
      ],
      "name": "RootNode"
    },
    {
      "children": [
        4
      ],
      "matrix": [
        100.0,
        0.0,
        0.0,
        0.0,
        0.0,
        99.99999999999866,
        1.6292067073209114e-05,
        0.0,
        0.0,
        -1.6292067073209114e-05,
        99.99999999999866,
        0.0,
        0.0,
        0.0,
        0.0,
        1.0
      ],
      "name": "Cinema"
    },
    {
      "mesh": 0,
      "name": "Cinema_Texture_buildings1_0"
    },
    {
      "children": [
        6
      ],
      "matrix": [
        100.0,
        0.0,
        0.0,
        0.0,
        0.0,
        -1.629206793918314e-05,
        -99.99999999999868,
        0.0,
        0.0,
        99.99999999999868,
        -1.629206793918314e-05,
        0.0,
        0.0,
        0.0,
        0.0,
        1.0
      ],
      "name": "Collider"
    },
    {
      "mesh": 1,
      "name": "Collider_Collider_0"
    }
  ],
  "samplers": [
    {
      "magFilter": 9729,
      "minFilter": 9987,
      "wrapS": 10497,
      "wrapT": 10497
    }
  ],
  "scene": 0,
  "scenes": [
    {
      "name": "Sketchfab_Scene",
      "nodes": [
        0
      ]
    }
  ],
  "textures": [
    {
      "sampler": 0,
      "source": 0
    }
  ]
}
