{
  "accessors": [
    {
      "bufferView": 2,
      "componentType": 5126,
      "count": 8610,
      "max": [
        24.25713348388672,
        35.3116569519043,
        32.43328857421875
      ],
      "min": [
        -17.877483367919922,
        -35.3116569519043,
        0.0
      ],
      "type": "VEC3"
    },
    {
      "bufferView": 2,
      "byteOffset": 103320,
      "componentType": 5126,
      "count": 8610,
      "max": [
        1.0,
        1.0,
        1.0
      ],
      "min": [
        -1.0,
        -1.0,
        -1.0
      ],
      "type": "VEC3"
    },
    {
      "bufferView": 1,
      "componentType": 5126,
      "count": 8610,
      "max": [
        1.0,
        1.0
      ],
      "min": [
        0.0,
        0.0
      ],
      "type": "VEC2"
    },
    {
      "bufferView": 0,
      "componentType": 5125,
      "count": 13347,
      "type": "SCALAR"
    },
    {
      "bufferView": 2,
      "byteOffset": 206640,
      "componentType": 5126,
      "count": 6942,
      "max": [
        17.786670684814453,
        34.9808235168457,
        33.09022903442383
      ],
      "min": [
        -17.799894332885742,
        -35.0256233215332,
        -0.010804235935211182
      ],
      "type": "VEC3"
    },
    {
      "bufferView": 2,
      "byteOffset": 289944,
      "componentType": 5126,
      "count": 6942,
      "max": [
        1.0,
        1.0,
        1.0
      ],
      "min": [
        -1.0,
        -1.0,
        -1.0
      ],
      "type": "VEC3"
    },
    {
      "bufferView": 1,
      "byteOffset": 68880,
      "componentType": 5126,
      "count": 6942,
      "max": [
        0.875,
        1.0
      ],
      "min": [
        0.03269531577825546,
        0.0
      ],
      "type": "VEC2"
    },
    {
      "bufferView": 0,
      "byteOffset": 53388,
      "componentType": 5125,
      "count": 13236,
      "type": "SCALAR"
    },
    {
      "bufferView": 2,
      "byteOffset": 373248,
      "componentType": 5126,
      "count": 32504,
      "max": [
        24.323471069335938,
        35.3116569519043,
        32.418479919433594
      ],
      "min": [
        -17.877483367919922,
        -35.3116569519043,
        0.0
      ],
      "type": "VEC3"
    },
    {
      "bufferView": 2,
      "byteOffset": 763296,
      "componentType": 5126,
      "count": 32504,
      "max": [
        1.0,
        1.0,
        1.0
      ],
      "min": [
        -1.0,
        -1.0,
        -1.0
      ],
      "type": "VEC3"
    },
    {
      "bufferView": 1,
      "byteOffset": 124416,
      "componentType": 5126,
      "count": 32504,
      "max": [
        0.7169225811958313,
        0.9692739248275757
      ],
      "min": [
        0.03222668170928955,
        0.02834821678698063
      ],
      "type": "VEC2"
    },
    {
      "bufferView": 0,
      "byteOffset": 106332,
      "componentType": 5125,
      "count": 56082,
      "type": "SCALAR"
    },
    {
      "bufferView": 2,
      "byteOffset": 1153344,
      "componentType": 5126,
      "count": 9178,
      "max": [
        17.786670684814453,
        34.9808235168457,
        33.09022903442383
      ],
      "min": [
        -17.799894332885742,
        -35.0256233215332,
        -0.010804235935211182
      ],
      "type": "VEC3"
    },
    {
      "bufferView": 2,
      "byteOffset": 1263480,
      "componentType": 5126,
      "count": 9178,
      "max": [
        1.0,
        1.0,
        1.0
      ],
      "min": [
        -1.0,
        -1.0,
        -1.0
      ],
      "type": "VEC3"
    },
    {
      "bufferView": 1,
      "byteOffset": 384448,
      "componentType": 5126,
      "count": 9178,
      "max": [
        0.7169225811958313,
        0.8453124761581421
      ],
      "min": [
        0.03269531577825546,
        0.02943497896194458
      ],
      "type": "VEC2"
    },
    {
      "bufferView": 0,
      "byteOffset": 330660,
      "componentType": 5125,
      "count": 18492,
      "type": "SCALAR"
    }
  ],
  "asset": {
    "extras": {
      "author": "assetfactory (https://sketchfab.com/assetfactory)",
      "license": "SKETCHFAB Standard (https://sketchfab.com/licenses)",
      "source": "https://sketchfab.com/3d-models/airport-buildings-2d61fd7472cc484fa84792b15141f4a1",
      "title": "Airport Buildings"
    },
    "generator": "Sketchfab-16.33.0",
    "version": "2.0"
  },
  "bufferViews": [
    {
      "buffer": 0,
      "byteLength": 404628,
      "name": "floatBufferViews",
      "target": 34963
    },
    {
      "buffer": 0,
      "byteLength": 457872,
      "byteOffset": 404628,
      "byteStride": 8,
      "name": "floatBufferViews",
      "target": 34962
    },
    {
      "buffer": 0,
      "byteLength": 1373616,
      "byteOffset": 862500,
      "byteStride": 12,
      "name": "floatBufferViews",
      "target": 34962
    }
  ],
  "buffers": [
    {
      "byteLength": 2236116,
      "uri": "scene.bin"
    }
  ],
  "extensionsUsed": [
    "KHR_materials_specular"
  ],
  "images": [
    {
      "uri": "textures/AIRPORT_baseColor.png"
    }
  ],
  "materials": [
    {
      "alphaMode": "BLEND",
      "doubleSided": true,
      "name": "COLLIDERS",
      "pbrMetallicRoughness": {
        "baseColorFactor": [
          1.0,
          0.0,
          0.0,
          0.0
        ],
        "metallicFactor": 0.0,
        "roughnessFactor": 0.9524611947983544
      }
    },
    {
      "alphaMode": "BLEND",
      "doubleSided": true,
      "extensions": {
        "KHR_materials_specular": {
          "specularColorFactor": [
            1.0,
            1.0,
            1.0
          ],
          "specularFactor": 0.0
        }
      },
      "name": "AIRPORT",
      "pbrMetallicRoughness": {
        "baseColorTexture": {
          "index": 0
        },
        "metallicFactor": 0.0,
        "roughnessFactor": 0.7763932022500211
      }
    }
  ],
  "meshes": [
    {
      "name": "07.ColliderMod1_COLLIDERS_0",
      "primitives": [
        {
          "attributes": {
            "NORMAL": 1,
            "POSITION": 0,
            "TEXCOORD_0": 2
          },
          "indices": 3,
          "material": 0,
          "mode": 4
        }
      ]
    },
    {
      "name": "Cube.045_COLLIDERS_0",
      "primitives": [
        {
          "attributes": {
            "NORMAL": 5,
            "POSITION": 4,
            "TEXCOORD_0": 6
          },
          "indices": 7,
          "material": 0,
          "mode": 4
        }
      ]
    },
    {
      "name": "07.Modulo1_AIRPORT_0",
      "primitives": [
        {
          "attributes": {
            "NORMAL": 9,
            "POSITION": 8,
            "TEXCOORD_0": 10
          },
          "indices": 11,
          "material": 1,
          "mode": 4
        }
      ]
    },
    {
      "name": "07.Modulo2_AIRPORT_0",
      "primitives": [
        {
          "attributes": {
            "NORMAL": 13,
            "POSITION": 12,
            "TEXCOORD_0": 14
          },
          "indices": 15,
          "material": 1,
          "mode": 4
        }
      ]
    }
  ],
  "nodes": [
    {
      "children": [
        1
      ],
      "matrix": [
        1.0,
        0.0,
        0.0,
        0.0,
        0.0,
        2.220446049250313e-16,
        -1.0,
        0.0,
        0.0,
        1.0,
        2.220446049250313e-16,
        0.0,
        0.0,
        0.0,
        0.0,
        1.0
      ],
      "name": "Sketchfab_model"
    },
    {
      "children": [
        2
      ],
      "matrix": [
        0.009999999776482582,
        0.0,
        0.0,
        0.0,
        0.0,
        0.0,
        0.009999999776482582,
        0.0,
        0.0,
        -0.009999999776482582,
        0.0,
        0.0,
        0.0,
        0.0,
        0.0,
        1.0
      ],
      "name": "Airport_Buildings.fbx"
    },
    {
      "children": [
        3,
        5,
        7,
        9
      ],
      "name": "RootNode"
    },
    {
      "children": [
        4
      ],
      "matrix": [
        100.0,
        0.0,
        0.0,
        0.0,
        0.0,
        -1.629206793918314e-05,
        -99.99999999999868,
        0.0,
        0.0,
        99.99999999999868,
        -1.629206793918314e-05,
        0.0,
        20.12481689453125,
        1.205603003501892,
        -3756.705078125,
        1.0
      ],
      "name": "07.ColliderMod1"
    },
    {
      "mesh": 0,
      "name": "07.ColliderMod1_COLLIDERS_0"
    },
    {
      "children": [
        6
      ],
      "matrix": [
        100.0,
        0.0,
        0.0,
        0.0,
        0.0,
        -1.629206793918314e-05,
        -99.99999999999868,
        0.0,
        0.0,
        99.99999999999868,
        -1.629206793918314e-05,
        0.0,
        19.411468505859375,
        2.2857136726379395,
        4411.93408203125,
        1.0
      ],
      "name": "Cube.045"
    },
    {
      "mesh": 1,
      "name": "Cube.045_COLLIDERS_0"
    },
    {
      "children": [
        8
      ],
      "matrix": [
        100.0,
        0.0,
        0.0,
        0.0,
        0.0,
        -1.629206793918314e-05,
        -99.99999999999868,
        0.0,
        0.0,
        99.99999999999868,
        -1.629206793918314e-05,
        0.0,
        20.12481689453125,
        1.205603003501892,
        -3756.705078125,
        1.0
      ],
      "name": "07.Modulo1"
    },
    {
      "mesh": 2,
      "name": "07.Modulo1_AIRPORT_0"
    },
    {
      "children": [
        10
      ],
      "matrix": [
        100.0,
        0.0,
        0.0,
        0.0,
        0.0,
        -1.629206793918314e-05,
        -99.99999999999868,
        0.0,
        0.0,
        99.99999999999868,
        -1.629206793918314e-05,
        0.0,
        19.411468505859375,
        2.2857136726379395,
        4411.93408203125,
        1.0
      ],
      "name": "07.Modulo2"
    },
    {
      "mesh": 3,
      "name": "07.Modulo2_AIRPORT_0"
    }
  ],
  "samplers": [
    {
      "magFilter": 9729,
      "minFilter": 9987,
      "wrapS": 10497,
      "wrapT": 10497
    }
  ],
  "scene": 0,
  "scenes": [
    {
      "name": "Sketchfab_Scene",
      "nodes": [
        0
      ]
    }
  ],
  "textures": [
    {
      "sampler": 0,
      "source": 0
    }
  ]
}
