{
  "accessors": [
    {
      "bufferView": 2,
      "componentType": 5126,
      "count": 2504,
      "max": [
        1.5452710390090942,
        3.2740440368652344,
        2.546454906463623
      ],
      "min": [
        -1.0,
        -0.0,
        -2.546454906463623
      ],
      "type": "VEC3"
    },
    {
      "bufferView": 2,
      "byteOffset": 30048,
      "componentType": 5126,
      "count": 2504,
      "max": [
        1.0,
        1.0,
        1.0
      ],
      "min": [
        -1.0,
        -1.0,
        -1.0
      ],
      "type": "VEC3"
    },
    {
      "bufferView": 1,
      "componentType": 5126,
      "count": 2504,
      "max": [
        0.9049749970436096,
        0.7850099802017212
      ],
      "min": [
        0.03156299889087677,
        0.03145800158381462
      ],
      "type": "VEC2"
    },
    {
      "bufferView": 0,
      "componentType": 5125,
      "count": 6138,
      "type": "SCALAR"
    },
    {
      "bufferView": 2,
      "byteOffset": 60096,
      "componentType": 5126,
      "count": 4551,
      "max": [
        1.914592981338501,
        0.4775019884109497,
        3.0083730220794678
      ],
      "min": [
        -0.43164798617362976,
        0.0005370000144466758,
        -3.022402048110962
      ],
      "type": "VEC3"
    },
    {
      "bufferView": 2,
      "byteOffset": 114708,
      "componentType": 5126,
      "count": 4551,
      "max": [
        1.0,
        1.0,
        1.0
      ],
      "min": [
        -1.0,
        -1.0,
        -1.0
      ],
      "type": "VEC3"
    },
    {
      "bufferView": 1,
      "byteOffset": 20032,
      "componentType": 5126,
      "count": 4551,
      "max": [
        0.5313680171966553,
        0.7828779816627502
      ],
      "min": [
        0.3430750072002411,
        0.7799209952354431
      ],
      "type": "VEC2"
    },
    {
      "bufferView": 0,
      "byteOffset": 24552,
      "componentType": 5125,
      "count": 6768,
      "type": "SCALAR"
    },
    {
      "bufferView": 2,
      "byteOffset": 169320,
      "componentType": 5126,
      "count": 260,
      "max": [
        1.2985520362854004,
        2.0461130142211914,
        -2.187479019165039
      ],
      "min": [
        1.0974479913711548,
        -0.0008980000275187194,
        -2.388582944869995
      ],
      "type": "VEC3"
    },
    {
      "bufferView": 2,
      "byteOffset": 172440,
      "componentType": 5126,
      "count": 260,
      "max": [
        1.0,
        1.0,
        1.0
      ],
      "min": [
        -1.0,
        -1.0,
        -1.0
      ],
      "type": "VEC3"
    },
    {
      "bufferView": 1,
      "byteOffset": 56440,
      "componentType": 5126,
      "count": 260,
      "max": [
        0.09465199708938599,
        0.9069160223007202
      ],
      "min": [
        0.029901999980211258,
        0.9062399864196777
      ],
      "type": "VEC2"
    },
    {
      "bufferView": 0,
      "byteOffset": 51624,
      "componentType": 5125,
      "count": 390,
      "type": "SCALAR"
    },
    {
      "bufferView": 2,
      "byteOffset": 175560,
      "componentType": 5126,
      "count": 679,
      "max": [
        1.5403380393981934,
        0.5657359957695007,
        2.3443100452423096
      ],
      "min": [
        1.054555058479309,
        0.00023600000713486224,
        1.8819890022277832
      ],
      "type": "VEC3"
    },
    {
      "bufferView": 2,
      "byteOffset": 183708,
      "componentType": 5126,
      "count": 679,
      "max": [
        0.9053015112876892,
        1.0,
        0.9483281970024109
      ],
      "min": [
        -0.9053017497062683,
        -1.0,
        -0.9483070373535156
      ],
      "type": "VEC3"
    },
    {
      "bufferView": 1,
      "byteOffset": 58520,
      "componentType": 5126,
      "count": 679,
      "max": [
        0.7195079922676086,
        0.7834749817848206
      ],
      "min": [
        0.5938190221786499,
        0.7826269865036011
      ],
      "type": "VEC2"
    },
    {
      "bufferView": 0,
      "byteOffset": 53184,
      "componentType": 5125,
      "count": 936,
      "type": "SCALAR"
    },
    {
      "bufferView": 2,
      "byteOffset": 191856,
      "componentType": 5126,
      "count": 1314,
      "max": [
        3.524268388748169,
        5.510473251342773,
        3.2949378490448
      ],
      "min": [
        -1.8708045482635498,
        -5.483254432678223,
        0.0
      ],
      "type": "VEC3"
    },
    {
      "bufferView": 2,
      "byteOffset": 207624,
      "componentType": 5126,
      "count": 1314,
      "max": [
        0.999924898147583,
        0.999924898147583,
        1.0
      ],
      "min": [
        -0.999924898147583,
        -0.999924898147583,
        -1.0
      ],
      "type": "VEC3"
    },
    {
      "bufferView": 1,
      "byteOffset": 63952,
      "componentType": 5126,
      "count": 1314,
      "max": [
        1.0,
        1.0
      ],
      "min": [
        0.0,
        -0.0005790999275632203
      ],
      "type": "VEC2"
    },
    {
      "bufferView": 0,
      "byteOffset": 56928,
      "componentType": 5125,
      "count": 1968,
      "type": "SCALAR"
    }
  ],
  "asset": {
    "extras": {
      "author": "assetfactory (https://sketchfab.com/assetfactory)",
      "license": "SKETCHFAB Standard (https://sketchfab.com/licenses)",
      "source": "https://sketchfab.com/3d-models/low-poly-pizza-restaurant-a1793365c8c145c48128dd75d5a2d2bf",
      "title": "Low poly pizza restaurant"
    },
    "generator": "Sketchfab-16.33.0",
    "version": "2.0"
  },
  "bufferViews": [
    {
      "buffer": 0,
      "byteLength": 64800,
      "name": "floatBufferViews",
      "target": 34963
    },
    {
      "buffer": 0,
      "byteLength": 74464,
      "byteOffset": 64800,
      "byteStride": 8,
      "name": "floatBufferViews",
      "target": 34962
    },
    {
      "buffer": 0,
      "byteLength": 223392,
      "byteOffset": 139264,
      "byteStride": 12,
      "name": "floatBufferViews",
      "target": 34962
    }
  ],
  "buffers": [
    {
      "byteLength": 362656,
      "uri": "scene.bin"
    }
  ],
  "images": [
    {
      "uri": "textures/Texture_buildings1_baseColor.png"
    }
  ],
  "materials": [
    {
      "doubleSided": true,
      "name": "Texture_buildings1",
      "pbrMetallicRoughness": {
        "baseColorTexture": {
          "index": 0
        },
        "metallicFactor": 0.0,
        "roughnessFactor": 0.8611067128702585
      }
    },
    {
      "alphaMode": "BLEND",
      "doubleSided": true,
      "name": "Collider",
      "pbrMetallicRoughness": {
        "baseColorFactor": [
          0.8,
          0.8,
          0.8,
          0.0
        ],
        "metallicFactor": 0.0,
        "roughnessFactor": 0.0
      }
    }
  ],
  "meshes": [
    {
      "name": "PizzaBuilding_Texture_buildings1_0",
      "primitives": [
        {
          "attributes": {
            "NORMAL": 1,
            "POSITION": 0,
            "TEXCOORD_0": 2
          },
          "indices": 3,
          "material": 0,
          "mode": 4
        }
      ]
    },
    {
      "name": "PizzaTables_Texture_buildings1_0",
      "primitives": [
        {
          "attributes": {
            "NORMAL": 5,
            "POSITION": 4,
            "TEXCOORD_0": 6
          },
          "indices": 7,
          "material": 0,
          "mode": 4
        }
      ]
    },
    {
      "name": "PizzaLight_Texture_buildings1_0",
      "primitives": [
        {
          "attributes": {
            "NORMAL": 9,
            "POSITION": 8,
            "TEXCOORD_0": 10
          },
          "indices": 11,
          "material": 0,
          "mode": 4
        }
      ]
    },
    {
      "name": "PizzaBoard_Texture_buildings1_0",
      "primitives": [
        {
          "attributes": {
            "NORMAL": 13,
            "POSITION": 12,
            "TEXCOORD_0": 14
          },
          "indices": 15,
          "material": 0,
          "mode": 4
        }
      ]
    },
    {
      "name": "Collider_Collider_0",
      "primitives": [
        {
          "attributes": {
            "NORMAL": 17,
            "POSITION": 16,
            "TEXCOORD_0": 18
          },
          "indices": 19,
          "material": 1,
          "mode": 4
        }
      ]
    }
  ],
  "nodes": [
    {
      "children": [
        1
      ],
      "matrix": [
        2.220446049250313e-16,
        -2.220446049250313e-16,
        1.0,
        0.0,
        1.0,
        4.930380657631324e-32,
        -2.220446049250313e-16,
        0.0,
        0.0,
        1.0,
        2.220446049250313e-16,
        0.0,
        0.0,
        0.0,
        0.0,
        1.0
      ],
      "name": "Sketchfab_model"
    },
    {
      "children": [
        2
      ],
      "matrix": [
        0.009999999776482582,
        0.0,
        0.0,
        0.0,
        0.0,
        0.0,
        0.009999999776482582,
        0.0,
        0.0,
        -0.009999999776482582,
        0.0,
        0.0,
        0.0,
        0.0,
        0.0,
        1.0
      ],
      "name": "BusinessBuilding_PizzeriaC.fbx"
    },
    {
      "children": [
        3,
        5,
        7,
        9,
        11
      ],
      "name": "RootNode"
    },
    {
      "children": [
        4
      ],
      "matrix": [
        100.0,
        0.0,
        0.0,
        0.0,
        0.0,
        99.99999999999866,
        1.6292067073209114e-05,
        0.0,
        0.0,
        -1.6292067073209114e-05,
        99.99999999999866,
        0.0,
        0.0,
        0.0,
        0.0,
        1.0
      ],
      "name": "PizzaBuilding"
    },
    {
      "mesh": 0,
      "name": "PizzaBuilding_Texture_buildings1_0"
    },
    {
      "children": [
        6
      ],
      "matrix": [
        100.0,
        0.0,
        0.0,
        0.0,
        0.0,
        99.99999999999866,
        1.6292067073209114e-05,
        0.0,
        0.0,
        -1.6292067073209114e-05,
        99.99999999999866,
        0.0,
        0.0,
        0.0,
        0.0,
        1.0
      ],
      "name": "PizzaTables"
    },
    {
      "mesh": 1,
      "name": "PizzaTables_Texture_buildings1_0"
    },
    {
      "children": [
        8
      ],
      "matrix": [
        100.0,
        0.0,
        0.0,
        0.0,
        0.0,
        99.99999999999866,
        1.6292067073209114e-05,
        0.0,
        0.0,
        -1.6292067073209114e-05,
        99.99999999999866,
        0.0,
        0.0,
        0.0,
        0.0,
        1.0
      ],
      "name": "PizzaLight"
    },
    {
      "mesh": 2,
      "name": "PizzaLight_Texture_buildings1_0"
    },
    {
      "children": [
        10
      ],
      "matrix": [
        100.0,
        0.0,
        0.0,
        0.0,
        0.0,
        99.99999999999866,
        1.6292067073209114e-05,
        0.0,
        0.0,
        -1.6292067073209114e-05,
        99.99999999999866,
        0.0,
        0.0,
        0.0,
        0.0,
        1.0
      ],
      "name": "PizzaBoard"
    },
    {
      "mesh": 3,
      "name": "PizzaBoard_Texture_buildings1_0"
    },
    {
      "children": [
        12
      ],
      "matrix": [
        54.92645867576934,
        -2.838667623563299e-08,
        -0.6735057073944787,
        0.0,
        -0.6735057073944744,
        -8.948980599499217e-06,
        -54.92645867576861,
        0.0,
        -1.480763277619812e-07,
        99.99999999999865,
        -1.6290843274369138e-05,
        0.0,
        1.1920928955078125e-05,
        -1.4901161193847656e-06,
        -2.384185791015625e-05,
        1.0
      ],
      "name": "Collider"
    },
    {
      "mesh": 4,
      "name": "Collider_Collider_0"
    }
  ],
  "samplers": [
    {
      "magFilter": 9729,
      "minFilter": 9987,
      "wrapS": 10497,
      "wrapT": 10497
    }
  ],
  "scene": 0,
  "scenes": [
    {
      "name": "Sketchfab_Scene",
      "nodes": [
        0
      ]
    }
  ],
  "textures": [
    {
      "sampler": 0,
      "source": 0
    }
  ]
}
