{
  "accessors": [
    {
      "bufferView": 2,
      "componentType": 5126,
      "count": 208,
      "max": [
        0.4423030614852905,
        0.9174817204475403,
        0.44230321049690247
      ],
      "min": [
        -0.44442513585090637,
        -0.0010340992594137788,
        -0.44230324029922485
      ],
      "type": "VEC3"
    },
    {
      "bufferView": 2,
      "byteOffset": 2496,
      "componentType": 5126,
      "count": 208,
      "max": [
        1.0,
        1.0,
        1.0
      ],
      "min": [
        -1.0,
        -0.9938675165176392,
        -1.0
      ],
      "type": "VEC3"
    },
    {
      "bufferView": 1,
      "componentType": 5126,
      "count": 208,
      "max": [
        0.9835823774337769,
        0.9528231620788574
      ],
      "min": [
        0.017989307641983032,
        0.0017466105055063963
      ],
      "type": "VEC2"
    },
    {
      "bufferView": 0,
      "componentType": 5125,
      "count": 330,
      "type": "SCALAR"
    }
  ],
  "asset": {
    "extras": {
      "author": "Erfin (https://sketchfab.com/7162420)",
      "license": "SKETCHFAB Standard (https://sketchfab.com/licenses)",
      "source": "https://sketchfab.com/3d-models/russian-shoe-repair-shop-a60e52bd903843a49e9364ce43be8e2a",
      "title": "Russian shoe repair shop. Будка по ремонту обуви"
    },
    "generator": "Sketchfab-16.62.0",
    "version": "2.0"
  },
  "bufferViews": [
    {
      "buffer": 0,
      "byteLength": 1320,
      "name": "floatBufferViews",
      "target": 34963
    },
    {
      "buffer": 0,
      "byteLength": 1664,
      "byteOffset": 1320,
      "byteStride": 8,
      "name": "floatBufferViews",
      "target": 34962
    },
    {
      "buffer": 0,
      "byteLength": 4992,
      "byteOffset": 2984,
      "byteStride": 12,
      "name": "floatBufferViews",
      "target": 34962
    }
  ],
  "buffers": [
    {
      "byteLength": 7976,
      "uri": "scene.bin"
    }
  ],
  "extensionsUsed": [
    "KHR_materials_unlit"
  ],
  "images": [
    {
      "uri": "textures/RemontObuvi_baseColor.jpeg"
    }
  ],
  "materials": [
    {
      "doubleSided": true,
      "extensions": {
        "KHR_materials_unlit": {}
      },
      "name": "RemontObuvi",
      "pbrMetallicRoughness": {
        "baseColorTexture": {
          "index": 0
        },
        "metallicFactor": 0.0
      }
    }
  ],
  "meshes": [
    {
      "name": "RemontObuvi_LOD-0_RemontObuvi_0",
      "primitives": [
        {
          "attributes": {
            "NORMAL": 1,
            "POSITION": 0,
            "TEXCOORD_0": 2
          },
          "indices": 3,
          "material": 0,
          "mode": 4
        }
      ]
    }
  ],
  "nodes": [
    {
      "children": [
        1
      ],
      "matrix": [
        1.0,
        0.0,
        0.0,
        0.0,
        0.0,
        2.220446049250313e-16,
        -1.0,
        0.0,
        0.0,
        1.0,
        2.220446049250313e-16,
        0.0,
        0.0,
        0.0,
        0.0,
        1.0
      ],
      "name": "Sketchfab_model"
    },
    {
      "children": [
        2
      ],
      "matrix": [
        0.009999999776482582,
        0.0,
        0.0,
        0.0,
        0.0,
        0.0,
        0.009999999776482582,
        0.0,
        0.0,
        -0.009999999776482582,
        0.0,
        0.0,
        0.0,
        0.0,
        0.0,
        1.0
      ],
      "name": "Remont_Obuvi.fbx"
    },
    {
      "children": [
        3
      ],
      "name": "RootNode"
    },
    {
      "children": [
        4
      ],
      "matrix": [
        5.523350575797892e-05,
        0.0,
        99.99999999998475,
        0.0,
        -4.3711391839444925e-06,
        99.9999999999999,
        2.414333413550894e-12,
        0.0,
        -99.99999999998467,
        -4.371139183945159e-06,
        5.523350575797892e-05,
        0.0,
        0.0,
        0.0,
        0.0,
        1.0
      ],
      "name": "RemontObuvi_LOD-0"
    },
    {
      "mesh": 0,
      "name": "RemontObuvi_LOD-0_RemontObuvi_0"
    }
  ],
  "samplers": [
    {
      "magFilter": 9729,
      "minFilter": 9987,
      "wrapS": 10497,
      "wrapT": 10497
    }
  ],
  "scene": 0,
  "scenes": [
    {
      "name": "Sketchfab_Scene",
      "nodes": [
        0
      ]
    }
  ],
  "textures": [
    {
      "sampler": 0,
      "source": 0
    }
  ]
}
