{
  "accessors": [
    {
      "bufferView": 2,
      "componentType": 5126,
      "count": 65532,
      "max": [
        0.40213584899902344,
        0.40206578373908997,
        1.0000288486480713
      ],
      "min": [
        -0.40213581919670105,
        -0.4021357595920563,
        2.8908252716064453e-05
      ],
      "type": "VEC3"
    },
    {
      "bufferView": 2,
      "byteOffset": 786384,
      "componentType": 5126,
      "count": 65532,
      "max": [
        1.0,
        1.0,
        1.0
      ],
      "min": [
        -1.0,
        -1.0,
        -1.0
      ],
      "type": "VEC3"
    },
    {
      "bufferView": 1,
      "componentType": 5126,
      "count": 65532,
      "max": [
        0.9955338835716248,
        1.0
      ],
      "min": [
        0.0,
        -4.656612873077393e-10
      ],
      "type": "VEC2"
    },
    {
      "bufferView": 0,
      "componentType": 5125,
      "count": 170874,
      "type": "SCALAR"
    },
    {
      "bufferView": 2,
      "byteOffset": 1572768,
      "componentType": 5126,
      "count": 54158,
      "max": [
        0.4021357595920563,
        0.40213581919670105,
        1.0000288486480713
      ],
      "min": [
        -0.40213581919670105,
        -0.40213578939437866,
        2.8908252716064453e-05
      ],
      "type": "VEC3"
    },
    {
      "bufferView": 2,
      "byteOffset": 2222664,
      "componentType": 5126,
      "count": 54158,
      "max": [
        1.0,
        1.0,
        1.0
      ],
      "min": [
        -1.0,
        -1.0,
        -1.0
      ],
      "type": "VEC3"
    },
    {
      "bufferView": 1,
      "byteOffset": 524256,
      "componentType": 5126,
      "count": 54158,
      "max": [
        0.9955338835716248,
        1.0
      ],
      "min": [
        0.0,
        -4.656612873077393e-10
      ],
      "type": "VEC2"
    },
    {
      "bufferView": 0,
      "byteOffset": 683496,
      "componentType": 5125,
      "count": 125484,
      "type": "SCALAR"
    },
    {
      "bufferView": 2,
      "byteOffset": 2872560,
      "componentType": 5126,
      "count": 4944,
      "max": [
        0.37050333619117737,
        0.37050333619117737,
        0.7422482967376709
      ],
      "min": [
        -0.37050333619117737,
        -0.37050333619117737,
        0.06972605735063553
      ],
      "type": "VEC3"
    },
    {
      "bufferView": 2,
      "byteOffset": 2931888,
      "componentType": 5126,
      "count": 4944,
      "max": [
        1.0,
        1.0,
        1.8988208466907963e-05
      ],
      "min": [
        -1.0,
        -1.0,
        -3.4510633213358233e-06
      ],
      "type": "VEC3"
    },
    {
      "bufferView": 1,
      "byteOffset": 957520,
      "componentType": 5126,
      "count": 4944,
      "max": [
        0.7244038581848145,
        0.7254264950752258
      ],
      "min": [
        0.0446900837123394,
        0.00038040074286982417
      ],
      "type": "VEC2"
    },
    {
      "bufferView": 0,
      "byteOffset": 1185432,
      "componentType": 5125,
      "count": 12336,
      "type": "SCALAR"
    }
  ],
  "asset": {
    "extras": {
      "author": "falucskaiadam32 (https://sketchfab.com/falucskaiadam32)",
      "license": "SKETCHFAB Standard (https://sketchfab.com/licenses)",
      "source": "https://sketchfab.com/3d-models/low-polly-building-1c22cb68ffe348d899a3c86f159af26b",
      "title": "Low Polly building"
    },
    "generator": "Sketchfab-17.15.0",
    "version": "2.0"
  },
  "bufferViews": [
    {
      "buffer": 0,
      "byteLength": 1234776,
      "name": "floatBufferViews",
      "target": 34963
    },
    {
      "buffer": 0,
      "byteLength": 997072,
      "byteOffset": 1234776,
      "byteStride": 8,
      "name": "floatBufferViews",
      "target": 34962
    },
    {
      "buffer": 0,
      "byteLength": 2991216,
      "byteOffset": 2231848,
      "byteStride": 12,
      "name": "floatBufferViews",
      "target": 34962
    }
  ],
  "buffers": [
    {
      "byteLength": 5223064,
      "uri": "scene.bin"
    }
  ],
  "images": [
    {
      "uri": "textures/yellow_store_front_0_scale_baseColor.jpeg"
    }
  ],
  "materials": [
    {
      "doubleSided": true,
      "name": "yellow_store_front_0_scale",
      "pbrMetallicRoughness": {
        "baseColorTexture": {
          "index": 0
        },
        "metallicFactor": 0.0
      }
    },
    {
      "doubleSided": true,
      "name": "Material.001",
      "pbrMetallicRoughness": {
        "baseColorFactor": [
          0.008658039718364855,
          0.008658039718364855,
          0.008658039718364855,
          1.0
        ],
        "metallicFactor": 0.0,
        "roughnessFactor": 0.8040408205773457
      }
    }
  ],
  "meshes": [
    {
      "name": "yellow_store_front_0_scale.001_yellow_store_front_0_scale_0",
      "primitives": [
        {
          "attributes": {
            "NORMAL": 1,
            "POSITION": 0,
            "TEXCOORD_0": 2
          },
          "indices": 3,
          "material": 0,
          "mode": 4
        }
      ]
    },
    {
      "name": "yellow_store_front_0_scale.001_yellow_store_front_0_scale_0",
      "primitives": [
        {
          "attributes": {
            "NORMAL": 5,
            "POSITION": 4,
            "TEXCOORD_0": 6
          },
          "indices": 7,
          "material": 0,
          "mode": 4
        }
      ]
    },
    {
      "name": "yellow_store_front_0_scale.001_Material.001_0",
      "primitives": [
        {
          "attributes": {
            "NORMAL": 9,
            "POSITION": 8,
            "TEXCOORD_0": 10
          },
          "indices": 11,
          "material": 1,
          "mode": 4
        }
      ]
    }
  ],
  "nodes": [
    {
      "children": [
        1
      ],
      "matrix": [
        1.0,
        0.0,
        0.0,
        0.0,
        0.0,
        2.220446049250313e-16,
        -1.0,
        0.0,
        0.0,
        1.0,
        2.220446049250313e-16,
        0.0,
        0.0,
        0.0,
        0.0,
        1.0
      ],
      "name": "Sketchfab_model"
    },
    {
      "children": [
        2
      ],
      "matrix": [
        0.009999999776482582,
        0.0,
        0.0,
        0.0,
        0.0,
        0.0,
        0.009999999776482582,
        0.0,
        0.0,
        -0.009999999776482582,
        0.0,
        0.0,
        0.0,
        0.0,
        0.0,
        1.0
      ],
      "name": "building1.fbx"
    },
    {
      "children": [
        3
      ],
      "name": "RootNode"
    },
    {
      "children": [
        4,
        5,
        6
      ],
      "matrix": [
        100.0,
        0.0,
        0.0,
        0.0,
        0.0,
        -1.629206793918314e-05,
        -99.99999999999868,
        0.0,
        0.0,
        99.99999999999868,
        -1.629206793918314e-05,
        0.0,
        0.0,
        0.0,
        0.0,
        1.0
      ],
      "name": "yellow_store_front_0_scale.001"
    },
    {
      "mesh": 0,
      "name": "yellow_store_front_0_scale.001_yellow_store_front_0_scale_0"
    },
    {
      "mesh": 1,
      "name": "yellow_store_front_0_scale.001_yellow_store_front_0_scale_0"
    },
    {
      "mesh": 2,
      "name": "yellow_store_front_0_scale.001_Material.001_0"
    }
  ],
  "samplers": [
    {
      "magFilter": 9729,
      "minFilter": 9987,
      "wrapS": 10497,
      "wrapT": 10497
    }
  ],
  "scene": 0,
  "scenes": [
    {
      "name": "Sketchfab_Scene",
      "nodes": [
        0
      ]
    }
  ],
  "textures": [
    {
      "sampler": 0,
      "source": 0
    }
  ]
}
