{
  "accessors": [
    {
      "bufferView": 2,
      "componentType": 5126,
      "count": 23193,
      "max": [
        1.3137736320495605,
        1.0278507471084595,
        1.0205849409103394
      ],
      "min": [
        -6.846060752868652,
        -1.1195876598358154,
        -1.7669572830200195
      ],
      "type": "VEC3"
    },
    {
      "bufferView": 2,
      "byteOffset": 278316,
      "componentType": 5126,
      "count": 23193,
      "max": [
        0.9998507499694824,
        1.0,
        0.999939501285553
      ],
      "min": [
        -0.9998507499694824,
        -1.0,
        -0.9967055320739746
      ],
      "type": "VEC3"
    },
    {
      "bufferView": 1,
      "componentType": 5126,
      "count": 23193,
      "max": [
        0.37500014901161194,
        0.5
      ],
      "min": [
        0.125,
        0.24999970197677612
      ],
      "type": "VEC2"
    },
    {
      "bufferView": 0,
      "componentType": 5125,
      "count": 138240,
      "type": "SCALAR"
    },
    {
      "bufferView": 2,
      "byteOffset": 556632,
      "componentType": 5126,
      "count": 2184,
      "max": [
        8.264857292175293,
        5.183788776397705,
        0.8336783051490784
      ],
      "min": [
        -1.6616438627243042,
        -0.1878790259361267,
        -1.4949836730957031
      ],
      "type": "VEC3"
    },
    {
      "bufferView": 2,
      "byteOffset": 582840,
      "componentType": 5126,
      "count": 2184,
      "max": [
        1.0,
        1.0,
        1.0
      ],
      "min": [
        -1.0,
        -1.0,
        -1.0
      ],
      "type": "VEC3"
    },
    {
      "bufferView": 1,
      "byteOffset": 185544,
      "componentType": 5126,
      "count": 2184,
      "max": [
        0.875,
        1.0
      ],
      "min": [
        0.125,
        0.0
      ],
      "type": "VEC2"
    },
    {
      "bufferView": 0,
      "byteOffset": 552960,
      "componentType": 5125,
      "count": 3786,
      "type": "SCALAR"
    }
  ],
  "asset": {
    "extras": {
      "author": "Shayanxgamer (https://sketchfab.com/Shayanxgamer)",
      "license": "SKETCHFAB Standard (https://sketchfab.com/licenses)",
      "source": "https://sketchfab.com/3d-models/park-bench-chair-66038d009f844442ae9949a59a645ac7",
      "title": "Park Bench Chair"
    },
    "generator": "Sketchfab-17.15.0",
    "version": "2.0"
  },
  "bufferViews": [
    {
      "buffer": 0,
      "byteLength": 568104,
      "name": "floatBufferViews",
      "target": 34963
    },
    {
      "buffer": 0,
      "byteLength": 203016,
      "byteOffset": 568104,
      "byteStride": 8,
      "name": "floatBufferViews",
      "target": 34962
    },
    {
      "buffer": 0,
      "byteLength": 609048,
      "byteOffset": 771120,
      "byteStride": 12,
      "name": "floatBufferViews",
      "target": 34962
    }
  ],
  "buffers": [
    {
      "byteLength": 1380168,
      "uri": "scene.bin"
    }
  ],
  "materials": [
    {
      "doubleSided": true,
      "name": "Material.001",
      "pbrMetallicRoughness": {
        "baseColorFactor": [
          0.000228072,
          0.0198414,
          0.800007,
          1.0
        ],
        "metallicFactor": 0.62037,
        "roughnessFactor": 0.361111
      }
    },
    {
      "doubleSided": true,
      "name": "Material.002",
      "pbrMetallicRoughness": {
        "baseColorFactor": [
          0.167586,
          0.167586,
          0.167586,
          1.0
        ],
        "metallicFactor": 0.759259,
        "roughnessFactor": 0.0
      }
    }
  ],
  "meshes": [
    {
      "name": "Object_0",
      "primitives": [
        {
          "attributes": {
            "NORMAL": 1,
            "POSITION": 0,
            "TEXCOORD_0": 2
          },
          "indices": 3,
          "material": 0,
          "mode": 4
        }
      ]
    },
    {
      "name": "Object_1",
      "primitives": [
        {
          "attributes": {
            "NORMAL": 5,
            "POSITION": 4,
            "TEXCOORD_0": 6
          },
          "indices": 7,
          "material": 1,
          "mode": 4
        }
      ]
    }
  ],
  "nodes": [
    {
      "children": [
        1
      ],
      "matrix": [
        1.0,
        0.0,
        0.0,
        0.0,
        0.0,
        2.220446049250313e-16,
        -1.0,
        0.0,
        0.0,
        1.0,
        2.220446049250313e-16,
        0.0,
        0.0,
        0.0,
        0.0,
        1.0
      ],
      "name": "Sketchfab_model"
    },
    {
      "children": [
        2
      ],
      "name": "root"
    },
    {
      "children": [
        3,
        5
      ],
      "matrix": [
        1.0,
        0.0,
        0.0,
        0.0,
        0.0,
        2.220446049250313e-16,
        1.0,
        0.0,
        0.0,
        -1.0,
        2.220446049250313e-16,
        0.0,
        0.0,
        0.0,
        0.0,
        1.0
      ],
      "name": "GLTF_SceneRootNode"
    },
    {
      "children": [
        4
      ],
      "matrix": [
        1.0,
        0.0,
        0.0,
        0.0,
        0.0,
        1.0,
        0.0,
        0.0,
        0.0,
        0.0,
        1.0,
        0.0,
        5.532287120819092,
        1.9859933853149414,
        0.0,
        1.0
      ],
      "name": "Cube.002_0"
    },
    {
      "mesh": 0,
      "name": "Object_4"
    },
    {
      "children": [
        6
      ],
      "matrix": [
        0.8378175497055054,
        0.0,
        0.0,
        0.0,
        0.0,
        0.1892266869544983,
        0.0,
        0.0,
        0.0,
        0.0,
        1.0,
        0.0,
        0.0,
        0.0,
        0.35820695757865906,
        1.0
      ],
      "name": "Cube.003_1"
    },
    {
      "mesh": 1,
      "name": "Object_6"
    }
  ],
  "scene": 0,
  "scenes": [
    {
      "name": "Sketchfab_Scene",
      "nodes": [
        0
      ]
    }
  ]
}
