{
  "accessors": [
    {
      "bufferView": 2,
      "componentType": 5126,
      "count": 3764,
      "max": [
        2.973217010498047,
        2.148293972015381,
        5.352495193481445
      ],
      "min": [
        -2.973217010498047,
        -0.029252000153064728,
        -5.634568214416504
      ],
      "type": "VEC3"
    },
    {
      "bufferView": 2,
      "byteOffset": 45168,
      "componentType": 5126,
      "count": 3764,
      "max": [
        1.0,
        0.9994316697120667,
        0.9962084889411926
      ],
      "min": [
        -1.0,
        -0.9994316697120667,
        -0.9962080121040344
      ],
      "type": "VEC3"
    },
    {
      "bufferView": 3,
      "componentType": 5126,
      "count": 3764,
      "max": [
        0.9694613218307495,
        0.9962074756622314,
        0.999430775642395,
        1.0
      ],
      "min": [
        -0.9694589972496033,
        -0.9962074756622314,
        -0.999430775642395,
        1.0
      ],
      "type": "VEC4"
    },
    {
      "bufferView": 1,
      "componentType": 5126,
      "count": 3764,
      "max": [
        0.9900169968605042,
        0.9836159944534302
      ],
      "min": [
        0.008263999596238136,
        0.009282000362873077
      ],
      "type": "VEC2"
    },
    {
      "bufferView": 0,
      "componentType": 5125,
      "count": 12168,
      "type": "SCALAR"
    },
    {
      "bufferView": 2,
      "byteOffset": 90336,
      "componentType": 5126,
      "count": 2749,
      "max": [
        3.0084218978881836,
        4.2015509605407715,
        7.743535041809082
      ],
      "min": [
        -3.0084218978881836,
        0.5116419792175293,
        -7.438786029815674
      ],
      "type": "VEC3"
    },
    {
      "bufferView": 2,
      "byteOffset": 123324,
      "componentType": 5126,
      "count": 2749,
      "max": [
        1.0,
        1.0,
        0.9998207688331604
      ],
      "min": [
        -1.0,
        -1.0,
        -0.9997787475585938
      ],
      "type": "VEC3"
    },
    {
      "bufferView": 3,
      "byteOffset": 60224,
      "componentType": 5126,
      "count": 2749,
      "max": [
        1.0,
        0.9999985098838806,
        1.0,
        1.0
      ],
      "min": [
        -0.9998503923416138,
        -0.9999212026596069,
        -0.9999940395355225,
        -1.0
      ],
      "type": "VEC4"
    },
    {
      "bufferView": 1,
      "byteOffset": 30112,
      "componentType": 5126,
      "count": 2749,
      "max": [
        0.9897419810295105,
        0.9781469702720642
      ],
      "min": [
        0.01462200004607439,
        0.008911999873816967
      ],
      "type": "VEC2"
    },
    {
      "bufferView": 0,
      "byteOffset": 48672,
      "componentType": 5125,
      "count": 11910,
      "type": "SCALAR"
    },
    {
      "bufferView": 2,
      "byteOffset": 156312,
      "componentType": 5126,
      "count": 2635,
      "max": [
        3.148026943206787,
        4.206762790679932,
        7.4835429191589355
      ],
      "min": [
        -3.148026943206787,
        0.6069279909133911,
        -7.454061985015869
      ],
      "type": "VEC3"
    },
    {
      "bufferView": 2,
      "byteOffset": 187932,
      "componentType": 5126,
      "count": 2635,
      "max": [
        0.9999449849128723,
        1.0,
        1.0
      ],
      "min": [
        -0.9999449849128723,
        -1.0,
        -1.0
      ],
      "type": "VEC3"
    },
    {
      "bufferView": 3,
      "byteOffset": 104208,
      "componentType": 5126,
      "count": 2635,
      "max": [
        1.0,
        0.9996220469474792,
        0.9999865889549255,
        1.0
      ],
      "min": [
        -0.9999604821205139,
        -0.9994833469390869,
        -0.9999676942825317,
        -1.0
      ],
      "type": "VEC4"
    },
    {
      "bufferView": 1,
      "byteOffset": 52104,
      "componentType": 5126,
      "count": 2635,
      "max": [
        0.9901469945907593,
        0.975875973701477
      ],
      "min": [
        0.007240999955683947,
        0.023773999884724617
      ],
      "type": "VEC2"
    },
    {
      "bufferView": 0,
      "byteOffset": 96312,
      "componentType": 5125,
      "count": 12324,
      "type": "SCALAR"
    }
  ],
  "asset": {
    "extras": {
      "author": "Allay Design (https://sketchfab.com/Alister.Dsa)",
      "license": "SKETCHFAB Standard (https://sketchfab.com/licenses)",
      "source": "https://sketchfab.com/3d-models/dodge-challenger-muscle-car-low-poly-4c741c8d40c34ebe8b999e5a2823d80f",
      "title": "Dodge Challenger - Muscle Car - Low-Poly"
    },
    "generator": "Sketchfab-16.53.0",
    "version": "2.0"
  },
  "bufferViews": [
    {
      "buffer": 0,
      "byteLength": 145608,
      "name": "floatBufferViews",
      "target": 34963
    },
    {
      "buffer": 0,
      "byteLength": 73184,
      "byteOffset": 145608,
      "byteStride": 8,
      "name": "floatBufferViews",
      "target": 34962
    },
    {
      "buffer": 0,
      "byteLength": 219552,
      "byteOffset": 218792,
      "byteStride": 12,
      "name": "floatBufferViews",
      "target": 34962
    },
    {
      "buffer": 0,
      "byteLength": 146368,
      "byteOffset": 438344,
      "byteStride": 16,
      "name": "floatBufferViews",
      "target": 34962
    }
  ],
  "buffers": [
    {
      "byteLength": 584712,
      "uri": "scene.bin"
    }
  ],
  "extensionsUsed": [
    "KHR_materials_emissive_strength"
  ],
  "images": [
    {
      "uri": "textures/Body_Shd_baseColor.png"
    },
    {
      "uri": "textures/Body_Shd_metallicRoughness.png"
    },
    {
      "uri": "textures/Body_Shd_emissive.jpeg"
    },
    {
      "uri": "textures/Body_Shd_normal.png"
    },
    {
      "uri": "textures/Other_Shd_baseColor.png"
    },
    {
      "uri": "textures/Other_Shd_metallicRoughness.png"
    },
    {
      "uri": "textures/Other_Shd_emissive.jpeg"
    },
    {
      "uri": "textures/Other_Shd_normal.png"
    },
    {
      "uri": "textures/Tyres_Shd_baseColor.png"
    },
    {
      "uri": "textures/Tyres_Shd_metallicRoughness.png"
    },
    {
      "uri": "textures/Tyres_Shd_emissive.jpeg"
    },
    {
      "uri": "textures/Tyres_Shd_normal.png"
    }
  ],
  "materials": [
    {
      "alphaMode": "BLEND",
      "doubleSided": true,
      "emissiveFactor": [
        1.0,
        1.0,
        1.0
      ],
      "emissiveTexture": {
        "index": 2
      },
      "name": "Body_Shd",
      "normalTexture": {
        "index": 3
      },
      "occlusionTexture": {
        "index": 1
      },
      "pbrMetallicRoughness": {
        "baseColorTexture": {
          "index": 0
        },
        "metallicRoughnessTexture": {
          "index": 1
        }
      }
    },
    {
      "alphaMode": "BLEND",
      "doubleSided": true,
      "emissiveFactor": [
        1.0,
        1.0,
        1.0
      ],
      "emissiveTexture": {
        "index": 6
      },
      "extensions": {
        "KHR_materials_emissive_strength": {
          "emissiveStrength": 10.0
        }
      },
      "name": "Other_Shd",
      "normalTexture": {
        "index": 7
      },
      "occlusionTexture": {
        "index": 5
      },
      "pbrMetallicRoughness": {
        "baseColorTexture": {
          "index": 4
        },
        "metallicRoughnessTexture": {
          "index": 5
        }
      }
    },
    {
      "alphaMode": "BLEND",
      "doubleSided": true,
      "emissiveFactor": [
        1.0,
        1.0,
        1.0
      ],
      "emissiveTexture": {
        "index": 10
      },
      "name": "Tyres_Shd",
      "normalTexture": {
        "index": 11
      },
      "occlusionTexture": {
        "index": 9
      },
      "pbrMetallicRoughness": {
        "baseColorTexture": {
          "index": 8
        },
        "metallicRoughnessTexture": {
          "index": 9
        }
      }
    }
  ],
  "meshes": [
    {
      "name": "defaultMaterial",
      "primitives": [
        {
          "attributes": {
            "NORMAL": 1,
            "POSITION": 0,
            "TANGENT": 2,
            "TEXCOORD_0": 3
          },
          "indices": 4,
          "material": 2,
          "mode": 4
        }
      ]
    },
    {
      "name": "defaultMaterial",
      "primitives": [
        {
          "attributes": {
            "NORMAL": 6,
            "POSITION": 5,
            "TANGENT": 7,
            "TEXCOORD_0": 8
          },
          "indices": 9,
          "material": 1,
          "mode": 4
        }
      ]
    },
    {
      "name": "defaultMaterial",
      "primitives": [
        {
          "attributes": {
            "NORMAL": 11,
            "POSITION": 10,
            "TANGENT": 12,
            "TEXCOORD_0": 13
          },
          "indices": 14,
          "material": 0,
          "mode": 4
        }
      ]
    }
  ],
  "nodes": [
    {
      "children": [
        1
      ],
      "matrix": [
        1.0,
        0.0,
        0.0,
        0.0,
        0.0,
        2.220446049250313e-16,
        -1.0,
        0.0,
        0.0,
        1.0,
        2.220446049250313e-16,
        0.0,
        0.0,
        0.0,
        0.0,
        1.0
      ],
      "name": "Sketchfab_model"
    },
    {
      "children": [
        2,
        4,
        6
      ],
      "matrix": [
        1.0,
        0.0,
        0.0,
        0.0,
        0.0,
        -4.371139006309477e-08,
        0.999999999999999,
        0.0,
        0.0,
        -0.999999999999999,
        -4.371139006309477e-08,
        0.0,
        0.0,
        0.0,
        0.0,
        1.0
      ],
      "name": "Collada visual scene group"
    },
    {
      "children": [
        3
      ],
      "name": "Tyres_Geo"
    },
    {
      "mesh": 0,
      "name": "defaultMaterial"
    },
    {
      "children": [
        5
      ],
      "name": "Other_Geo"
    },
    {
      "mesh": 1,
      "name": "defaultMaterial"
    },
    {
      "children": [
        7
      ],
      "name": "Body_Geo"
    },
    {
      "mesh": 2,
      "name": "defaultMaterial"
    }
  ],
  "samplers": [
    {
      "magFilter": 9729,
      "minFilter": 9987,
      "wrapS": 10497,
      "wrapT": 10497
    }
  ],
  "scene": 0,
  "scenes": [
    {
      "name": "Sketchfab_Scene",
      "nodes": [
        0
      ]
    }
  ],
  "textures": [
    {
      "sampler": 0,
      "source": 0
    },
    {
      "sampler": 0,
      "source": 1
    },
    {
      "sampler": 0,
      "source": 2
    },
    {
      "sampler": 0,
      "source": 3
    },
    {
      "sampler": 0,
      "source": 4
    },
    {
      "sampler": 0,
      "source": 5
    },
    {
      "sampler": 0,
      "source": 6
    },
    {
      "sampler": 0,
      "source": 7
    },
    {
      "sampler": 0,
      "source": 8
    },
    {
      "sampler": 0,
      "source": 9
    },
    {
      "sampler": 0,
      "source": 10
    },
    {
      "sampler": 0,
      "source": 11
    }
  ]
}
