{
  "accessors": [
    {
      "bufferView": 2,
      "componentType": 5126,
      "count": 7584,
      "max": [
        16.581119537353516,
        51.44780731201172,
        118.91968536376953
      ],
      "min": [
        -72.3187026977539,
        -49.70719909667969,
        -10.922499656677246
      ],
      "type": "VEC3"
    },
    {
      "bufferView": 2,
      "byteOffset": 91008,
      "componentType": 5126,
      "count": 7584,
      "max": [
        0.999997615814209,
        0.999997615814209,
        1.0
      ],
      "min": [
        -0.999997615814209,
        -0.999997615814209,
        -1.0
      ],
      "type": "VEC3"
    },
    {
      "bufferView": 1,
      "componentType": 5126,
      "count": 7584,
      "max": [
        1.0012726783752441,
        1.0
      ],
      "min": [
        0.0009960000170394778,
        1.7881393432617188e-06
      ],
      "type": "VEC2"
    },
    {
      "bufferView": 1,
      "byteOffset": 60672,
      "componentType": 5126,
      "count": 7584,
      "max": [
        1.0012726783752441,
        1.0
      ],
      "min": [
        0.0009960000170394778,
        1.7881393432617188e-06
      ],
      "type": "VEC2"
    },
    {
      "bufferView": 1,
      "byteOffset": 121344,
      "componentType": 5126,
      "count": 7584,
      "max": [
        1.0012726783752441,
        1.0
      ],
      "min": [
        0.0009960000170394778,
        1.7881393432617188e-06
      ],
      "type": "VEC2"
    },
    {
      "bufferView": 0,
      "componentType": 5125,
      "count": 14403,
      "type": "SCALAR"
    },
    {
      "bufferView": 2,
      "byteOffset": 182016,
      "componentType": 5126,
      "count": 40773,
      "max": [
        18.111093521118164,
        27.883007049560547,
        121.6943588256836
      ],
      "min": [
        -60.29869842529297,
        -32.595699310302734,
        -142.98599243164063
      ],
      "type": "VEC3"
    },
    {
      "bufferView": 2,
      "byteOffset": 671292,
      "componentType": 5126,
      "count": 40773,
      "max": [
        1.0,
        0.999997615814209,
        1.0
      ],
      "min": [
        -0.999997615814209,
        -0.999997615814209,
        -1.0
      ],
      "type": "VEC3"
    },
    {
      "bufferView": 1,
      "byteOffset": 182016,
      "componentType": 5126,
      "count": 40773,
      "max": [
        10.63405704498291,
        14.308899879455566
      ],
      "min": [
        -8.333649635314941,
        -9.025856018066406
      ],
      "type": "VEC2"
    },
    {
      "bufferView": 1,
      "byteOffset": 508200,
      "componentType": 5126,
      "count": 40773,
      "max": [
        10.63405704498291,
        14.308899879455566
      ],
      "min": [
        -8.333649635314941,
        -9.025856018066406
      ],
      "type": "VEC2"
    },
    {
      "bufferView": 1,
      "byteOffset": 834384,
      "componentType": 5126,
      "count": 40773,
      "max": [
        10.63405704498291,
        14.308899879455566
      ],
      "min": [
        -8.333649635314941,
        -9.025856018066406
      ],
      "type": "VEC2"
    },
    {
      "bufferView": 0,
      "byteOffset": 57612,
      "componentType": 5125,
      "count": 64068,
      "type": "SCALAR"
    },
    {
      "bufferView": 2,
      "byteOffset": 1160568,
      "componentType": 5126,
      "count": 2754,
      "max": [
        15.280962944030762,
        46.3046989440918,
        -9.696817398071289
      ],
      "min": [
        -96.23889923095703,
        -49.70719909667969,
        -176.4720001220703
      ],
      "type": "VEC3"
    },
    {
      "bufferView": 2,
      "byteOffset": 1193616,
      "componentType": 5126,
      "count": 2754,
      "max": [
        0.999997615814209,
        0.999997615814209,
        1.0
      ],
      "min": [
        -0.3506934642791748,
        -0.999997615814209,
        -1.0
      ],
      "type": "VEC3"
    },
    {
      "bufferView": 1,
      "byteOffset": 1160568,
      "componentType": 5126,
      "count": 2754,
      "max": [
        1.0000033378601074,
        1.0
      ],
      "min": [
        4.600000102072954e-05,
        1.7881393432617188e-06
      ],
      "type": "VEC2"
    },
    {
      "bufferView": 1,
      "byteOffset": 1182600,
      "componentType": 5126,
      "count": 2754,
      "max": [
        1.0000033378601074,
        1.0
      ],
      "min": [
        4.600000102072954e-05,
        1.7881393432617188e-06
      ],
      "type": "VEC2"
    },
    {
      "bufferView": 1,
      "byteOffset": 1204632,
      "componentType": 5126,
      "count": 2754,
      "max": [
        1.0000033378601074,
        1.0
      ],
      "min": [
        4.600000102072954e-05,
        1.7881393432617188e-06
      ],
      "type": "VEC2"
    },
    {
      "bufferView": 0,
      "byteOffset": 313884,
      "componentType": 5125,
      "count": 4719,
      "type": "SCALAR"
    },
    {
      "bufferView": 2,
      "byteOffset": 1226664,
      "componentType": 5126,
      "count": 133,
      "max": [
        13.151774406433105,
        46.394222259521484,
        117.75067901611328
      ],
      "min": [
        -72.3187026977539,
        -49.70719909667969,
        -10.60949993133545
      ],
      "type": "VEC3"
    },
    {
      "bufferView": 2,
      "byteOffset": 1228260,
      "componentType": 5126,
      "count": 133,
      "max": [
        0.999997615814209,
        0.999997615814209,
        1.0
      ],
      "min": [
        -0.999997615814209,
        -0.999997615814209,
        -1.0
      ],
      "type": "VEC3"
    },
    {
      "bufferView": 1,
      "byteOffset": 1226664,
      "componentType": 5126,
      "count": 133,
      "max": [
        0.9999982118606567,
        1.0
      ],
      "min": [
        0.0,
        0.03664010763168335
      ],
      "type": "VEC2"
    },
    {
      "bufferView": 0,
      "byteOffset": 332760,
      "componentType": 5125,
      "count": 222,
      "type": "SCALAR"
    },
    {
      "bufferView": 2,
      "byteOffset": 1229856,
      "componentType": 5126,
      "count": 24,
      "max": [
        11.571235656738281,
        46.3046989440918,
        -9.727355003356934
      ],
      "min": [
        -96.23889923095703,
        -49.70719909667969,
        -176.4720001220703
      ],
      "type": "VEC3"
    },
    {
      "bufferView": 2,
      "byteOffset": 1230144,
      "componentType": 5126,
      "count": 24,
      "max": [
        0.999997615814209,
        0.0,
        1.0
      ],
      "min": [
        -0.999997615814209,
        0.0,
        -1.0
      ],
      "type": "VEC3"
    },
    {
      "bufferView": 1,
      "byteOffset": 1227728,
      "componentType": 5126,
      "count": 24,
      "max": [
        2.7486467361450195,
        1.1757880449295044
      ],
      "min": [
        -2.490600109100342,
        -0.1757885217666626
      ],
      "type": "VEC2"
    },
    {
      "bufferView": 1,
      "byteOffset": 1227920,
      "componentType": 5126,
      "count": 24,
      "max": [
        2.7486467361450195,
        1.1757880449295044
      ],
      "min": [
        -2.490600109100342,
        -0.1757885217666626
      ],
      "type": "VEC2"
    },
    {
      "bufferView": 1,
      "byteOffset": 1228112,
      "componentType": 5126,
      "count": 24,
      "max": [
        2.7486467361450195,
        1.1757880449295044
      ],
      "min": [
        -2.490600109100342,
        -0.1757885217666626
      ],
      "type": "VEC2"
    },
    {
      "bufferView": 0,
      "byteOffset": 333648,
      "componentType": 5125,
      "count": 42,
      "type": "SCALAR"
    },
    {
      "bufferView": 2,
      "byteOffset": 1230432,
      "componentType": 5126,
      "count": 290,
      "max": [
        47.1993293762207,
        152.80770874023438,
        45.32413864135742
      ],
      "min": [
        -20.063472747802734,
        -45.08292007446289,
        37.832366943359375
      ],
      "type": "VEC3"
    },
    {
      "bufferView": 2,
      "byteOffset": 1233912,
      "componentType": 5126,
      "count": 290,
      "max": [
        1.0,
        1.0,
        1.0
      ],
      "min": [
        -9.999999747378752e-05,
        -9.999999747378752e-05,
        0.0
      ],
      "type": "VEC3"
    },
    {
      "bufferView": 1,
      "byteOffset": 1228304,
      "componentType": 5126,
      "count": 290,
      "max": [
        4.350062847137451,
        0.9197824597358704
      ],
      "min": [
        -5.684136390686035,
        0.3342052102088928
      ],
      "type": "VEC2"
    },
    {
      "bufferView": 1,
      "byteOffset": 1230624,
      "componentType": 5126,
      "count": 290,
      "max": [
        4.350062847137451,
        0.9197824597358704
      ],
      "min": [
        -5.684136390686035,
        0.3342052102088928
      ],
      "type": "VEC2"
    },
    {
      "bufferView": 1,
      "byteOffset": 1232944,
      "componentType": 5126,
      "count": 290,
      "max": [
        4.350062847137451,
        0.9197824597358704
      ],
      "min": [
        -5.684136390686035,
        0.3342052102088928
      ],
      "type": "VEC2"
    },
    {
      "bufferView": 0,
      "byteOffset": 333816,
      "componentType": 5125,
      "count": 708,
      "type": "SCALAR"
    },
    {
      "bufferView": 2,
      "byteOffset": 1237392,
      "componentType": 5126,
      "count": 6,
      "max": [
        -11.809009552001953,
        74.8730239868164,
        -109.06307220458984
      ],
      "min": [
        -88.86882019042969,
        69.3410415649414,
        -120.73307037353516
      ],
      "type": "VEC3"
    },
    {
      "bufferView": 1,
      "byteOffset": 1235264,
      "componentType": 5126,
      "count": 6,
      "max": [
        0.0,
        0.0
      ],
      "min": [
        0.0,
        0.0
      ],
      "type": "VEC2"
    },
    {
      "bufferView": 0,
      "byteOffset": 336648,
      "componentType": 5125,
      "count": 4,
      "type": "SCALAR"
    },
    {
      "bufferView": 0,
      "byteOffset": 336664,
      "componentType": 5125,
      "count": 2,
      "type": "SCALAR"
    }
  ],
  "asset": {
    "extras": {
      "author": "mortalityrexotable (https://sketchfab.com/mortalityrexotable)",
      "license": "SKETCHFAB Standard (https://sketchfab.com/licenses)",
      "source": "https://sketchfab.com/3d-models/city-building-ba280f48e8c440eb8f902eae9b37a251",
      "title": "City Building"
    },
    "generator": "Sketchfab-16.72.0",
    "version": "2.0"
  },
  "bufferViews": [
    {
      "buffer": 0,
      "byteLength": 336672,
      "name": "floatBufferViews",
      "target": 34963
    },
    {
      "buffer": 0,
      "byteLength": 1235312,
      "byteOffset": 336672,
      "byteStride": 8,
      "name": "floatBufferViews",
      "target": 34962
    },
    {
      "buffer": 0,
      "byteLength": 1237464,
      "byteOffset": 1571984,
      "byteStride": 12,
      "name": "floatBufferViews",
      "target": 34962
    }
  ],
  "buffers": [
    {
      "byteLength": 2809448,
      "uri": "scene.bin"
    }
  ],
  "extensionsUsed": [
    "KHR_materials_specular"
  ],
  "images": [
    {
      "uri": "textures/Red_building_1_baseColor.jpeg"
    },
    {
      "uri": "textures/Red_building_1_metallicRoughness.png"
    },
    {
      "uri": "textures/Metal_baseColor.jpeg"
    },
    {
      "uri": "textures/Metal_metallicRoughness.png"
    },
    {
      "uri": "textures/Red_Build_2_baseColor.jpeg"
    },
    {
      "uri": "textures/Red_Build_2_metallicRoughness.png"
    },
    {
      "uri": "textures/Misc_baseColor.jpeg"
    },
    {
      "uri": "textures/Concrete_baseColor.jpeg"
    },
    {
      "uri": "textures/Concrete_metallicRoughness.png"
    },
    {
      "uri": "textures/Sidewalks.001_baseColor.jpeg"
    },
    {
      "uri": "textures/Sidewalks.001_metallicRoughness.png"
    },
    {
      "uri": "textures/Material.003_baseColor.jpeg"
    },
    {
      "uri": "textures/Material.003_metallicRoughness.png"
    }
  ],
  "materials": [
    {
      "doubleSided": true,
      "name": "Red_building_1",
      "pbrMetallicRoughness": {
        "baseColorTexture": {
          "index": 0
        },
        "metallicFactor": 0.0,
        "metallicRoughnessTexture": {
          "index": 1
        }
      }
    },
    {
      "doubleSided": true,
      "name": "Metal",
      "pbrMetallicRoughness": {
        "baseColorTexture": {
          "index": 2
        },
        "metallicRoughnessTexture": {
          "index": 3,
          "texCoord": 1
        }
      }
    },
    {
      "doubleSided": true,
      "name": "Red_Build_2",
      "pbrMetallicRoughness": {
        "baseColorTexture": {
          "index": 4
        },
        "metallicFactor": 0.0,
        "metallicRoughnessTexture": {
          "index": 5
        }
      }
    },
    {
      "doubleSided": true,
      "name": "Misc",
      "pbrMetallicRoughness": {
        "baseColorTexture": {
          "index": 6
        }
      }
    },
    {
      "doubleSided": true,
      "name": "Concrete",
      "pbrMetallicRoughness": {
        "baseColorTexture": {
          "index": 7
        },
        "metallicFactor": 0.0,
        "metallicRoughnessTexture": {
          "index": 8
        }
      }
    },
    {
      "doubleSided": true,
      "extensions": {
        "KHR_materials_specular": {
          "specularColorFactor": [
            1.0,
            1.0,
            1.0
          ],
          "specularFactor": 0.544118
        }
      },
      "name": "Sidewalks.001",
      "pbrMetallicRoughness": {
        "baseColorTexture": {
          "index": 9
        },
        "metallicFactor": 0.0,
        "metallicRoughnessTexture": {
          "index": 10
        }
      }
    },
    {
      "doubleSided": true,
      "extensions": {
        "KHR_materials_specular": {
          "specularColorFactor": [
            1.0,
            1.0,
            1.0
          ],
          "specularFactor": 1.0
        }
      },
      "name": "Material.003",
      "pbrMetallicRoughness": {
        "baseColorTexture": {
          "index": 11
        },
        "metallicFactor": 0.0,
        "metallicRoughnessTexture": {
          "index": 12,
          "texCoord": 1
        }
      }
    }
  ],
  "meshes": [
    {
      "name": "Object_0",
      "primitives": [
        {
          "attributes": {
            "NORMAL": 1,
            "POSITION": 0,
            "TEXCOORD_0": 2,
            "TEXCOORD_1": 3,
            "TEXCOORD_2": 4
          },
          "indices": 5,
          "material": 0,
          "mode": 4
        }
      ]
    },
    {
      "name": "Object_1",
      "primitives": [
        {
          "attributes": {
            "NORMAL": 7,
            "POSITION": 6,
            "TEXCOORD_0": 8,
            "TEXCOORD_1": 9,
            "TEXCOORD_2": 10
          },
          "indices": 11,
          "material": 1,
          "mode": 4
        }
      ]
    },
    {
      "name": "Object_2",
      "primitives": [
        {
          "attributes": {
            "NORMAL": 13,
            "POSITION": 12,
            "TEXCOORD_0": 14,
            "TEXCOORD_1": 15,
            "TEXCOORD_2": 16
          },
          "indices": 17,
          "material": 2,
          "mode": 4
        }
      ]
    },
    {
      "name": "Object_3",
      "primitives": [
        {
          "attributes": {
            "NORMAL": 19,
            "POSITION": 18,
            "TEXCOORD_0": 20
          },
          "indices": 21,
          "material": 3,
          "mode": 4
        }
      ]
    },
    {
      "name": "Object_4",
      "primitives": [
        {
          "attributes": {
            "NORMAL": 23,
            "POSITION": 22,
            "TEXCOORD_0": 24,
            "TEXCOORD_1": 25,
            "TEXCOORD_2": 26
          },
          "indices": 27,
          "material": 4,
          "mode": 4
        }
      ]
    },
    {
      "name": "Object_5",
      "primitives": [
        {
          "attributes": {
            "NORMAL": 29,
            "POSITION": 28,
            "TEXCOORD_0": 30,
            "TEXCOORD_1": 31,
            "TEXCOORD_2": 32
          },
          "indices": 33,
          "material": 5,
          "mode": 4
        }
      ]
    },
    {
      "name": "Object_6",
      "primitives": [
        {
          "attributes": {
            "POSITION": 34,
            "TEXCOORD_0": 35,
            "TEXCOORD_1": 35
          },
          "indices": 36,
          "material": 6,
          "mode": 1
        },
        {
          "attributes": {
            "POSITION": 34,
            "TEXCOORD_0": 35,
            "TEXCOORD_1": 35
          },
          "indices": 37,
          "material": 6,
          "mode": 0
        }
      ]
    }
  ],
  "nodes": [
    {
      "children": [
        1
      ],
      "matrix": [
        1.0,
        0.0,
        0.0,
        0.0,
        0.0,
        2.220446049250313e-16,
        -1.0,
        0.0,
        0.0,
        1.0,
        2.220446049250313e-16,
        0.0,
        0.0,
        0.0,
        0.0,
        1.0
      ],
      "name": "Sketchfab_model"
    },
    {
      "children": [
        2
      ],
      "name": "root"
    },
    {
      "children": [
        3,
        20,
        22
      ],
      "matrix": [
        1.0,
        0.0,
        0.0,
        0.0,
        0.0,
        2.220446049250313e-16,
        1.0,
        0.0,
        0.0,
        -1.0,
        2.220446049250313e-16,
        0.0,
        0.0,
        0.0,
        0.0,
        1.0
      ],
      "name": "GLTF_SceneRootNode"
    },
    {
      "children": [
        4
      ],
      "matrix": [
        7.249905972620295e-10,
        2.3871930427346717e-19,
        -0.002150192158296582,
        -0.0,
        -2.3871927842407086e-19,
        0.00215019192546606,
        2.3871919793396097e-19,
        -0.0,
        -0.002150192158296582,
        -2.3871922378334856e-19,
        -7.24990597739468e-10,
        -0.0,
        36.64630889892578,
        -0.8844702839851379,
        11.158581733703613,
        1.0
      ],
      "name": "Buildings.fbx_11"
    },
    {
      "children": [
        5,
        8,
        11,
        14,
        17
      ],
      "matrix": [
        1.0,
        0.0,
        0.0,
        0.0,
        0.0,
        1.0,
        0.0,
        0.0,
        0.0,
        0.0,
        1.0,
        0.0,
        0.00047055212780833244,
        0.0,
        0.0003809628542512655,
        1.0
      ],
      "name": "RootNode_10"
    },
    {
      "children": [
        6
      ],
      "matrix": [
        100.0,
        0.0,
        0.0,
        0.0,
        0.0,
        100.0,
        0.0,
        0.0,
        0.0,
        0.0,
        100.0,
        0.0,
        4.9184393882751465,
        5072.3095703125,
        0.1527262032032013,
        1.0
      ],
      "name": "mainerz_1"
    },
    {
      "children": [
        7
      ],
      "matrix": [
        1.0,
        0.0,
        0.0,
        0.0,
        0.0,
        1.0,
        0.0,
        0.0,
        0.0,
        0.0,
        1.0,
        0.0,
        -5.3658586693927646e-06,
        0.0,
        1.4810857464908622e-05,
        1.0
      ],
      "name": "mainerz_Red building 1_0_0"
    },
    {
      "mesh": 0,
      "name": "Object_7"
    },
    {
      "children": [
        9
      ],
      "matrix": [
        100.0,
        0.0,
        0.0,
        0.0,
        0.0,
        100.0,
        0.0,
        0.0,
        0.0,
        0.0,
        100.0,
        0.0,
        4.9184393882751465,
        5072.3095703125,
        0.1527262032032013,
        1.0
      ],
      "name": "mainerz.001_3"
    },
    {
      "children": [
        10
      ],
      "matrix": [
        1.0,
        0.0,
        0.0,
        0.0,
        0.0,
        1.0,
        0.0,
        0.0,
        0.0,
        0.0,
        1.0,
        0.0,
        -5.3658586693927646e-06,
        0.0,
        1.4810857464908622e-05,
        1.0
      ],
      "name": "mainerz.001_Metal_0_2"
    },
    {
      "mesh": 1,
      "name": "Object_10"
    },
    {
      "children": [
        12
      ],
      "matrix": [
        100.0,
        0.0,
        0.0,
        0.0,
        0.0,
        100.0,
        0.0,
        0.0,
        0.0,
        0.0,
        100.0,
        0.0,
        4.9184393882751465,
        5072.3095703125,
        0.1527262032032013,
        1.0
      ],
      "name": "mainerz.002_5"
    },
    {
      "children": [
        13
      ],
      "matrix": [
        1.0,
        0.0,
        0.0,
        0.0,
        0.0,
        1.0,
        0.0,
        0.0,
        0.0,
        0.0,
        1.0,
        0.0,
        -5.3658586693927646e-06,
        0.0,
        1.4810857464908622e-05,
        1.0
      ],
      "name": "mainerz.002_Red Build 2_0_4"
    },
    {
      "mesh": 2,
      "name": "Object_13"
    },
    {
      "children": [
        15
      ],
      "matrix": [
        100.0,
        0.0,
        0.0,
        0.0,
        0.0,
        100.0,
        0.0,
        0.0,
        0.0,
        0.0,
        100.0,
        0.0,
        4.9184393882751465,
        5072.3095703125,
        0.1527262032032013,
        1.0
      ],
      "name": "mainerz.003_7"
    },
    {
      "children": [
        16
      ],
      "matrix": [
        1.0,
        0.0,
        0.0,
        0.0,
        0.0,
        1.0,
        0.0,
        0.0,
        0.0,
        0.0,
        1.0,
        0.0,
        -5.3658586693927646e-06,
        0.0,
        1.4810857464908622e-05,
        1.0
      ],
      "name": "mainerz.003_Misc_0_6"
    },
    {
      "mesh": 3,
      "name": "Object_16"
    },
    {
      "children": [
        18
      ],
      "matrix": [
        100.0,
        0.0,
        0.0,
        0.0,
        0.0,
        100.0,
        0.0,
        0.0,
        0.0,
        0.0,
        100.0,
        0.0,
        4.9184393882751465,
        5072.3095703125,
        0.1527262032032013,
        1.0
      ],
      "name": "mainerz.004_9"
    },
    {
      "children": [
        19
      ],
      "matrix": [
        1.0,
        0.0,
        0.0,
        0.0,
        0.0,
        1.0,
        0.0,
        0.0,
        0.0,
        0.0,
        1.0,
        0.0,
        -5.3658586693927646e-06,
        0.0,
        1.4810857464908622e-05,
        1.0
      ],
      "name": "mainerz.004_Concrete_0_8"
    },
    {
      "mesh": 4,
      "name": "Object_19"
    },
    {
      "children": [
        21
      ],
      "matrix": [
        1.8608284690913024e-08,
        -5.582484852703808e-08,
        0.3121952116489355,
        -0.0,
        0.31219521164893993,
        1.8608284690913024e-08,
        -1.8608281363492427e-08,
        -0.0,
        2.5465191620436336e-08,
        -0.42723509669303134,
        -7.639558245052887e-08,
        -0.0,
        21.599384307861328,
        18.67930793762207,
        9.64302921295166,
        1.0
      ],
      "name": "Sidewalks.001_15"
    },
    {
      "mesh": 5,
      "name": "Object_21"
    },
    {
      "children": [
        23
      ],
      "matrix": [
        -0.007476714263262796,
        0.999972048981283,
        0.0,
        0.0,
        -0.999972048981283,
        -0.007476714263262796,
        0.0,
        0.0,
        0.0,
        0.0,
        1.0,
        0.0,
        186.10354614257813,
        418.1946105957031,
        4.2260823249816895,
        1.0
      ],
      "name": "Object_4.001_16"
    },
    {
      "mesh": 6,
      "name": "Object_23"
    }
  ],
  "samplers": [
    {
      "magFilter": 9729,
      "minFilter": 9987,
      "wrapS": 10497,
      "wrapT": 10497
    }
  ],
  "scene": 0,
  "scenes": [
    {
      "name": "Sketchfab_Scene",
      "nodes": [
        0
      ]
    }
  ],
  "textures": [
    {
      "sampler": 0,
      "source": 0
    },
    {
      "sampler": 0,
      "source": 1
    },
    {
      "sampler": 0,
      "source": 2
    },
    {
      "sampler": 0,
      "source": 3
    },
    {
      "sampler": 0,
      "source": 4
    },
    {
      "sampler": 0,
      "source": 5
    },
    {
      "sampler": 0,
      "source": 6
    },
    {
      "sampler": 0,
      "source": 7
    },
    {
      "sampler": 0,
      "source": 8
    },
    {
      "sampler": 0,
      "source": 9
    },
    {
      "sampler": 0,
      "source": 10
    },
    {
      "sampler": 0,
      "source": 11
    },
    {
      "sampler": 0,
      "source": 12
    }
  ]
}
