{
  "accessors": [
    {
      "bufferView": 2,
      "componentType": 5126,
      "count": 1862,
      "max": [
        1.3766900300979614,
        2.981489896774292,
        0.6818100214004517
      ],
      "min": [
        -1.3766900300979614,
        -3.223939895629883,
        -0.6817100048065186
      ],
      "type": "VEC3"
    },
    {
      "bufferView": 2,
      "byteOffset": 22344,
      "componentType": 5126,
      "count": 1862,
      "max": [
        1.0,
        0.9998313188552856,
        1.0
      ],
      "min": [
        -1.0,
        -0.9994009733200073,
        -1.0
      ],
      "type": "VEC3"
    },
    {
      "bufferView": 1,
      "componentType": 5126,
      "count": 1862,
      "max": [
        0.9803000092506409,
        0.9948700070381165
      ],
      "min": [
        0.0,
        0.0
      ],
      "type": "VEC2"
    },
    {
      "bufferView": 0,
      "componentType": 5125,
      "count": 4362,
      "type": "SCALAR"
    },
    {
      "bufferView": 2,
      "byteOffset": 44688,
      "componentType": 5126,
      "count": 88,
      "max": [
        0.9898200035095215,
        1.0,
        1.0
      ],
      "min": [
        -0.9898200035095215,
        -0.9594900012016296,
        -1.0
      ],
      "type": "VEC3"
    },
    {
      "bufferView": 2,
      "byteOffset": 45744,
      "componentType": 5126,
      "count": 88,
      "max": [
        0.9898221492767334,
        0.9594934582710266,
        1.0
      ],
      "min": [
        -0.9898207187652588,
        -1.0,
        -1.0
      ],
      "type": "VEC3"
    },
    {
      "bufferView": 1,
      "byteOffset": 14896,
      "componentType": 5126,
      "count": 88,
      "max": [
        0.4380199909210205,
        0.9720100164413452
      ],
      "min": [
        0.004100000020116568,
        0.03207999840378761
      ],
      "type": "VEC2"
    },
    {
      "bufferView": 0,
      "byteOffset": 17448,
      "componentType": 5125,
      "count": 186,
      "type": "SCALAR"
    },
    {
      "bufferView": 2,
      "byteOffset": 46800,
      "componentType": 5126,
      "count": 88,
      "max": [
        0.9898200035095215,
        1.0,
        1.0
      ],
      "min": [
        -0.9898200035095215,
        -0.9594900012016296,
        -1.0
      ],
      "type": "VEC3"
    },
    {
      "bufferView": 2,
      "byteOffset": 47856,
      "componentType": 5126,
      "count": 88,
      "max": [
        0.9898221492767334,
        0.9594934582710266,
        1.0
      ],
      "min": [
        -0.9898207187652588,
        -1.0,
        -1.0
      ],
      "type": "VEC3"
    },
    {
      "bufferView": 1,
      "byteOffset": 15600,
      "componentType": 5126,
      "count": 88,
      "max": [
        0.4380199909210205,
        0.9720100164413452
      ],
      "min": [
        0.004100000020116568,
        0.03207999840378761
      ],
      "type": "VEC2"
    },
    {
      "bufferView": 0,
      "byteOffset": 18192,
      "componentType": 5125,
      "count": 186,
      "type": "SCALAR"
    },
    {
      "bufferView": 2,
      "byteOffset": 48912,
      "componentType": 5126,
      "count": 88,
      "max": [
        0.9898200035095215,
        1.0,
        1.0
      ],
      "min": [
        -0.9898200035095215,
        -0.9594900012016296,
        -1.0
      ],
      "type": "VEC3"
    },
    {
      "bufferView": 2,
      "byteOffset": 49968,
      "componentType": 5126,
      "count": 88,
      "max": [
        0.9898221492767334,
        0.9594934582710266,
        1.0
      ],
      "min": [
        -0.9898207187652588,
        -1.0,
        -1.0
      ],
      "type": "VEC3"
    },
    {
      "bufferView": 1,
      "byteOffset": 16304,
      "componentType": 5126,
      "count": 88,
      "max": [
        0.4380199909210205,
        0.9720100164413452
      ],
      "min": [
        0.004100000020116568,
        0.03207999840378761
      ],
      "type": "VEC2"
    },
    {
      "bufferView": 0,
      "byteOffset": 18936,
      "componentType": 5125,
      "count": 186,
      "type": "SCALAR"
    },
    {
      "bufferView": 2,
      "byteOffset": 51024,
      "componentType": 5126,
      "count": 88,
      "max": [
        0.9898200035095215,
        1.0,
        1.0
      ],
      "min": [
        -0.9898200035095215,
        -0.9594900012016296,
        -1.0
      ],
      "type": "VEC3"
    },
    {
      "bufferView": 2,
      "byteOffset": 52080,
      "componentType": 5126,
      "count": 88,
      "max": [
        0.9898221492767334,
        0.9594934582710266,
        1.0
      ],
      "min": [
        -0.9898207187652588,
        -1.0,
        -1.0
      ],
      "type": "VEC3"
    },
    {
      "bufferView": 1,
      "byteOffset": 17008,
      "componentType": 5126,
      "count": 88,
      "max": [
        0.4380199909210205,
        0.9720100164413452
      ],
      "min": [
        0.004100000020116568,
        0.03207999840378761
      ],
      "type": "VEC2"
    },
    {
      "bufferView": 0,
      "byteOffset": 19680,
      "componentType": 5125,
      "count": 186,
      "type": "SCALAR"
    }
  ],
  "asset": {
    "extras": {
      "author": "Han66st (https://sketchfab.com/Han66st)",
      "license": "SKETCHFAB Standard (https://sketchfab.com/licenses)",
      "source": "https://sketchfab.com/3d-models/super-car-c104a0a24ccf4bb7a3f589cc091c4ae0",
      "title": "Super Car"
    },
    "generator": "Sketchfab-16.72.0",
    "version": "2.0"
  },
  "bufferViews": [
    {
      "buffer": 0,
      "byteLength": 20424,
      "name": "floatBufferViews",
      "target": 34963
    },
    {
      "buffer": 0,
      "byteLength": 17712,
      "byteOffset": 20424,
      "byteStride": 8,
      "name": "floatBufferViews",
      "target": 34962
    },
    {
      "buffer": 0,
      "byteLength": 53136,
      "byteOffset": 38136,
      "byteStride": 12,
      "name": "floatBufferViews",
      "target": 34962
    }
  ],
  "buffers": [
    {
      "byteLength": 91272,
      "uri": "scene.bin"
    }
  ],
  "extensionsUsed": [
    "KHR_materials_specular"
  ],
  "images": [
    {
      "uri": "textures/SuperCar_baseColor.png"
    }
  ],
  "materials": [
    {
      "doubleSided": true,
      "extensions": {
        "KHR_materials_specular": {
          "specularColorFactor": [
            1.0,
            1.0,
            1.0
          ],
          "specularFactor": 0.0
        }
      },
      "name": "SuperCar",
      "pbrMetallicRoughness": {
        "baseColorTexture": {
          "index": 0
        },
        "metallicFactor": 0.536765287075376
      }
    }
  ],
  "meshes": [
    {
      "name": "Cube_0",
      "primitives": [
        {
          "attributes": {
            "NORMAL": 1,
            "POSITION": 0,
            "TEXCOORD_0": 2
          },
          "indices": 3,
          "material": 0,
          "mode": 4
        }
      ]
    },
    {
      "name": "Cylinder_0",
      "primitives": [
        {
          "attributes": {
            "NORMAL": 5,
            "POSITION": 4,
            "TEXCOORD_0": 6
          },
          "indices": 7,
          "material": 0,
          "mode": 4
        }
      ]
    },
    {
      "name": "Cylinder.001_0",
      "primitives": [
        {
          "attributes": {
            "NORMAL": 9,
            "POSITION": 8,
            "TEXCOORD_0": 10
          },
          "indices": 11,
          "material": 0,
          "mode": 4
        }
      ]
    },
    {
      "name": "Cylinder.023_0",
      "primitives": [
        {
          "attributes": {
            "NORMAL": 13,
            "POSITION": 12,
            "TEXCOORD_0": 14
          },
          "indices": 15,
          "material": 0,
          "mode": 4
        }
      ]
    },
    {
      "name": "Cylinder.024_0",
      "primitives": [
        {
          "attributes": {
            "NORMAL": 17,
            "POSITION": 16,
            "TEXCOORD_0": 18
          },
          "indices": 19,
          "material": 0,
          "mode": 4
        }
      ]
    }
  ],
  "nodes": [
    {
      "children": [
        1
      ],
      "matrix": [
        1.0,
        0.0,
        0.0,
        0.0,
        0.0,
        2.220446049250313e-16,
        -1.0,
        0.0,
        0.0,
        1.0,
        2.220446049250313e-16,
        0.0,
        0.0,
        0.0,
        0.0,
        1.0
      ],
      "name": "Sketchfab_model"
    },
    {
      "children": [
        2
      ],
      "name": "Root"
    },
    {
      "children": [
        3,
        4,
        6,
        8,
        10
      ],
      "matrix": [
        0.16575000000000004,
        0.0,
        0.0,
        0.0,
        0.0,
        0.16575000000000004,
        0.0,
        0.0,
        0.0,
        0.0,
        0.16575000000000004,
        0.0,
        0.0,
        0.0,
        0.13656000000000001,
        1.0
      ],
      "name": "Cube"
    },
    {
      "mesh": 0,
      "name": "Cube_0"
    },
    {
      "children": [
        5
      ],
      "matrix": [
        0.0,
        0.0,
        -0.42826000000000003,
        0.0,
        0.0,
        0.42826000000000003,
        0.0,
        0.0,
        0.14409000000000002,
        0.0,
        0.0,
        0.0,
        0.99804,
        -1.7522900000000001,
        -0.41350000000000003,
        1.0
      ],
      "name": "Cylinder"
    },
    {
      "mesh": 1,
      "name": "Cylinder_0"
    },
    {
      "children": [
        7
      ],
      "matrix": [
        0.0,
        0.0,
        -0.42826000000000003,
        0.0,
        0.0,
        0.42826000000000003,
        0.0,
        0.0,
        0.14409000000000002,
        0.0,
        0.0,
        0.0,
        1.16583,
        1.7591500000000002,
        -0.41350000000000003,
        1.0
      ],
      "name": "Cylinder.001"
    },
    {
      "mesh": 2,
      "name": "Cylinder.001_0"
    },
    {
      "children": [
        9
      ],
      "matrix": [
        0.0,
        0.0,
        -0.42826000000000003,
        0.0,
        0.0,
        0.42826000000000003,
        0.0,
        0.0,
        -0.14409000000000002,
        0.0,
        -0.0,
        0.0,
        -0.99804,
        -1.7522900000000001,
        -0.41350000000000003,
        1.0
      ],
      "name": "Cylinder.023"
    },
    {
      "mesh": 3,
      "name": "Cylinder.023_0"
    },
    {
      "children": [
        11
      ],
      "matrix": [
        0.0,
        0.0,
        -0.42826000000000003,
        0.0,
        0.0,
        0.42826000000000003,
        0.0,
        0.0,
        -0.14409000000000002,
        0.0,
        -0.0,
        0.0,
        -1.16583,
        1.7591500000000002,
        -0.41350000000000003,
        1.0
      ],
      "name": "Cylinder.024"
    },
    {
      "mesh": 4,
      "name": "Cylinder.024_0"
    }
  ],
  "samplers": [
    {
      "magFilter": 9729,
      "minFilter": 9987,
      "wrapS": 10497,
      "wrapT": 10497
    }
  ],
  "scene": 0,
  "scenes": [
    {
      "name": "Sketchfab_Scene",
      "nodes": [
        0
      ]
    }
  ],
  "textures": [
    {
      "sampler": 0,
      "source": 0
    }
  ]
}
