{
  "accessors": [
    {
      "bufferView": 2,
      "componentType": 5126,
      "count": 3247,
      "max": [
        21.49207878112793,
        8.371546745300293,
        10.4756498336792
      ],
      "min": [
        -20.044469833374023,
        -8.371546745300293,
        -0.17542648315429688
      ],
      "type": "VEC3"
    },
    {
      "bufferView": 2,
      "byteOffset": 38964,
      "componentType": 5126,
      "count": 3247,
      "max": [
        1.0,
        1.0,
        1.0
      ],
      "min": [
        -1.0,
        -1.0,
        -1.0
      ],
      "type": "VEC3"
    },
    {
      "bufferView": 1,
      "componentType": 5126,
      "count": 3247,
      "max": [
        0.9996986389160156,
        1.0
      ],
      "min": [
        0.07278075814247131,
        0.01611049845814705
      ],
      "type": "VEC2"
    },
    {
      "bufferView": 0,
      "componentType": 5125,
      "count": 6045,
      "type": "SCALAR"
    },
    {
      "bufferView": 2,
      "byteOffset": 77928,
      "componentType": 5126,
      "count": 48,
      "max": [
        1.0,
        60.89681625366211,
        2.089932441711426
      ],
      "min": [
        -1.0,
        -1.0,
        -1.0
      ],
      "type": "VEC3"
    },
    {
      "bufferView": 2,
      "byteOffset": 78504,
      "componentType": 5126,
      "count": 48,
      "max": [
        1.0,
        1.0,
        1.0
      ],
      "min": [
        -0.9874629378318787,
        -1.0,
        -1.0
      ],
      "type": "VEC3"
    },
    {
      "bufferView": 1,
      "byteOffset": 25976,
      "componentType": 5126,
      "count": 48,
      "max": [
        1.0092403888702393,
        0.9114499092102051
      ],
      "min": [
        -0.20334701240062714,
        0.0
      ],
      "type": "VEC2"
    },
    {
      "bufferView": 0,
      "byteOffset": 24180,
      "componentType": 5125,
      "count": 72,
      "type": "SCALAR"
    },
    {
      "bufferView": 2,
      "byteOffset": 79080,
      "componentType": 5126,
      "count": 24,
      "max": [
        0.0988355204463005,
        55.09764099121094,
        2.033583641052246
      ],
      "min": [
        -0.07531949132680893,
        -44.55976486206055,
        -0.7596195936203003
      ],
      "type": "VEC3"
    },
    {
      "bufferView": 2,
      "byteOffset": 79368,
      "componentType": 5126,
      "count": 24,
      "max": [
        0.9983582496643066,
        0.06985330581665039,
        0.3204733431339264
      ],
      "min": [
        -0.9983581304550171,
        -0.06880270689725876,
        -0.3249334692955017
      ],
      "type": "VEC3"
    },
    {
      "bufferView": 1,
      "byteOffset": 26360,
      "componentType": 5126,
      "count": 24,
      "max": [
        1.5384535789489746,
        1.0
      ],
      "min": [
        -0.04405531287193298,
        0.1605682075023651
      ],
      "type": "VEC2"
    },
    {
      "bufferView": 0,
      "byteOffset": 24468,
      "componentType": 5125,
      "count": 36,
      "type": "SCALAR"
    },
    {
      "bufferView": 2,
      "byteOffset": 79656,
      "componentType": 5126,
      "count": 24,
      "max": [
        0.0988355204463005,
        55.09764099121094,
        2.033583641052246
      ],
      "min": [
        -0.07531949132680893,
        -44.55976486206055,
        -0.7596195936203003
      ],
      "type": "VEC3"
    },
    {
      "bufferView": 2,
      "byteOffset": 79944,
      "componentType": 5126,
      "count": 24,
      "max": [
        0.9983582496643066,
        0.06985330581665039,
        0.3204733431339264
      ],
      "min": [
        -0.9983581304550171,
        -0.06880270689725876,
        -0.3249334692955017
      ],
      "type": "VEC3"
    },
    {
      "bufferView": 1,
      "byteOffset": 26552,
      "componentType": 5126,
      "count": 24,
      "max": [
        1.5384535789489746,
        1.0
      ],
      "min": [
        -0.04405531287193298,
        0.1605682075023651
      ],
      "type": "VEC2"
    },
    {
      "bufferView": 0,
      "byteOffset": 24612,
      "componentType": 5125,
      "count": 36,
      "type": "SCALAR"
    },
    {
      "bufferView": 2,
      "byteOffset": 80232,
      "componentType": 5126,
      "count": 66,
      "max": [
        0.9898214340209961,
        1.0,
        1.0
      ],
      "min": [
        -0.9898214340209961,
        -0.9594929814338684,
        -1.0
      ],
      "type": "VEC3"
    },
    {
      "bufferView": 2,
      "byteOffset": 81024,
      "componentType": 5126,
      "count": 66,
      "max": [
        0.9898214340209961,
        0.9594929814338684,
        1.0
      ],
      "min": [
        -0.9898214340209961,
        -1.0,
        -1.0
      ],
      "type": "VEC3"
    },
    {
      "bufferView": 1,
      "byteOffset": 26744,
      "componentType": 5126,
      "count": 66,
      "max": [
        0.19910554587841034,
        0.6982389688491821
      ],
      "min": [
        0.1561691015958786,
        0.6561492681503296
      ],
      "type": "VEC2"
    },
    {
      "bufferView": 0,
      "byteOffset": 24756,
      "componentType": 5125,
      "count": 120,
      "type": "SCALAR"
    },
    {
      "bufferView": 2,
      "byteOffset": 81816,
      "componentType": 5126,
      "count": 102,
      "max": [
        0.9898214340209961,
        1.0,
        1.0
      ],
      "min": [
        -0.9898214340209961,
        -0.9696911573410034,
        -1.0
      ],
      "type": "VEC3"
    },
    {
      "bufferView": 2,
      "byteOffset": 83040,
      "componentType": 5126,
      "count": 102,
      "max": [
        0.9898214340209961,
        0.9594929814338684,
        1.0
      ],
      "min": [
        -0.9898214340209961,
        -1.0,
        -1.0
      ],
      "type": "VEC3"
    },
    {
      "bufferView": 1,
      "byteOffset": 27272,
      "componentType": 5126,
      "count": 102,
      "max": [
        0.5300545692443848,
        0.6926897764205933
      ],
      "min": [
        0.13010205328464508,
        0.4751027822494507
      ],
      "type": "VEC2"
    },
    {
      "bufferView": 0,
      "byteOffset": 25236,
      "componentType": 5125,
      "count": 192,
      "type": "SCALAR"
    },
    {
      "bufferView": 2,
      "byteOffset": 84264,
      "componentType": 5126,
      "count": 120,
      "max": [
        0.9898214340209961,
        1.0,
        1.0000001192092896
      ],
      "min": [
        -0.9898214340209961,
        -0.9696911573410034,
        -1.0
      ],
      "type": "VEC3"
    },
    {
      "bufferView": 2,
      "byteOffset": 85704,
      "componentType": 5126,
      "count": 120,
      "max": [
        0.9989864230155945,
        0.9594929814338684,
        1.0
      ],
      "min": [
        -0.9898214340209961,
        -1.0,
        -1.0
      ],
      "type": "VEC3"
    },
    {
      "bufferView": 1,
      "byteOffset": 28088,
      "componentType": 5126,
      "count": 120,
      "max": [
        0.38161149621009827,
        0.7001990079879761
      ],
      "min": [
        0.03897693008184433,
        0.47639480233192444
      ],
      "type": "VEC2"
    },
    {
      "bufferView": 0,
      "byteOffset": 26004,
      "componentType": 5125,
      "count": 228,
      "type": "SCALAR"
    },
    {
      "bufferView": 2,
      "byteOffset": 87144,
      "componentType": 5126,
      "count": 120,
      "max": [
        0.9898214340209961,
        1.0,
        1.0000001192092896
      ],
      "min": [
        -0.9898214340209961,
        -0.9696911573410034,
        -1.0
      ],
      "type": "VEC3"
    },
    {
      "bufferView": 2,
      "byteOffset": 88584,
      "componentType": 5126,
      "count": 120,
      "max": [
        0.9989864230155945,
        0.9594929814338684,
        1.0
      ],
      "min": [
        -0.9898214340209961,
        -1.0,
        -1.0
      ],
      "type": "VEC3"
    },
    {
      "bufferView": 1,
      "byteOffset": 29048,
      "componentType": 5126,
      "count": 120,
      "max": [
        0.5288807153701782,
        0.7054709196090698
      ],
      "min": [
        0.11753392219543457,
        0.48449307680130005
      ],
      "type": "VEC2"
    },
    {
      "bufferView": 0,
      "byteOffset": 26916,
      "componentType": 5125,
      "count": 228,
      "type": "SCALAR"
    },
    {
      "bufferView": 2,
      "byteOffset": 90024,
      "componentType": 5126,
      "count": 102,
      "max": [
        0.9898214340209961,
        1.0,
        1.0
      ],
      "min": [
        -0.9898214340209961,
        -0.9696911573410034,
        -1.0
      ],
      "type": "VEC3"
    },
    {
      "bufferView": 2,
      "byteOffset": 91248,
      "componentType": 5126,
      "count": 102,
      "max": [
        0.9898214340209961,
        0.9594929814338684,
        1.0
      ],
      "min": [
        -0.9898214340209961,
        -1.0,
        -1.0
      ],
      "type": "VEC3"
    },
    {
      "bufferView": 1,
      "byteOffset": 30008,
      "componentType": 5126,
      "count": 102,
      "max": [
        0.36832955479621887,
        0.6984695196151733
      ],
      "min": [
        0.04875321686267853,
        0.4820438623428345
      ],
      "type": "VEC2"
    },
    {
      "bufferView": 0,
      "byteOffset": 27828,
      "componentType": 5125,
      "count": 192,
      "type": "SCALAR"
    },
    {
      "bufferView": 2,
      "byteOffset": 92472,
      "componentType": 5126,
      "count": 66,
      "max": [
        0.9898214340209961,
        1.0,
        1.0
      ],
      "min": [
        -0.9898214340209961,
        -0.9594929814338684,
        -1.0
      ],
      "type": "VEC3"
    },
    {
      "bufferView": 2,
      "byteOffset": 93264,
      "componentType": 5126,
      "count": 66,
      "max": [
        0.9898214340209961,
        0.9594929814338684,
        1.0
      ],
      "min": [
        -0.9898214340209961,
        -1.0,
        -1.0
      ],
      "type": "VEC3"
    },
    {
      "bufferView": 1,
      "byteOffset": 30824,
      "componentType": 5126,
      "count": 66,
      "max": [
        0.21318623423576355,
        0.7023442983627319
      ],
      "min": [
        0.15685316920280457,
        0.6471222639083862
      ],
      "type": "VEC2"
    },
    {
      "bufferView": 0,
      "byteOffset": 28596,
      "componentType": 5125,
      "count": 120,
      "type": "SCALAR"
    }
  ],
  "asset": {
    "extras": {
      "author": "domi236 (https://sketchfab.com/domi236)",
      "license": "SKETCHFAB Standard (https://sketchfab.com/licenses)",
      "source": "https://sketchfab.com/3d-models/psxlow-poly-pickup-31b9d6538c4d4c6c8355052ca20e351a",
      "title": "PSX/Low Poly Pickup"
    },
    "generator": "Sketchfab-16.68.0",
    "version": "2.0"
  },
  "bufferViews": [
    {
      "buffer": 0,
      "byteLength": 29076,
      "name": "floatBufferViews",
      "target": 34963
    },
    {
      "buffer": 0,
      "byteLength": 31352,
      "byteOffset": 29076,
      "byteStride": 8,
      "name": "floatBufferViews",
      "target": 34962
    },
    {
      "buffer": 0,
      "byteLength": 94056,
      "byteOffset": 60428,
      "byteStride": 12,
      "name": "floatBufferViews",
      "target": 34962
    }
  ],
  "buffers": [
    {
      "byteLength": 154484,
      "uri": "scene.bin"
    }
  ],
  "extensionsUsed": [
    "KHR_materials_specular"
  ],
  "images": [
    {
      "uri": "textures/Material.001_baseColor.png"
    },
    {
      "uri": "textures/Material.001_metallicRoughness.png"
    },
    {
      "uri": "textures/Material.003_baseColor.png"
    },
    {
      "uri": "textures/Material.003_metallicRoughness.png"
    }
  ],
  "materials": [
    {
      "doubleSided": true,
      "name": "Material.001",
      "occlusionTexture": {
        "index": 1
      },
      "pbrMetallicRoughness": {
        "baseColorTexture": {
          "index": 0
        },
        "metallicFactor": 0.6262876229718033,
        "metallicRoughnessTexture": {
          "index": 1
        }
      }
    },
    {
      "alphaCutoff": 0.6323828796430617,
      "alphaMode": "MASK",
      "doubleSided": true,
      "extensions": {
        "KHR_materials_specular": {
          "specularColorFactor": [
            1.0,
            1.0,
            1.0
          ],
          "specularFactor": 0.7360022430544549
        }
      },
      "name": "Material.003",
      "occlusionTexture": {
        "index": 3
      },
      "pbrMetallicRoughness": {
        "baseColorTexture": {
          "index": 2
        },
        "metallicFactor": 0.0,
        "metallicRoughnessTexture": {
          "index": 3
        }
      }
    },
    {
      "alphaCutoff": 0.650668649656837,
      "alphaMode": "MASK",
      "doubleSided": true,
      "name": "Material.004",
      "pbrMetallicRoughness": {
        "baseColorTexture": {
          "index": 2
        },
        "metallicFactor": 0.0,
        "roughnessFactor": 0.8211145618000169
      }
    }
  ],
  "meshes": [
    {
      "name": "Cube_Material.001_0",
      "primitives": [
        {
          "attributes": {
            "NORMAL": 1,
            "POSITION": 0,
            "TEXCOORD_0": 2
          },
          "indices": 3,
          "material": 0,
          "mode": 4
        }
      ]
    },
    {
      "name": "Cube.001_Material.003_0",
      "primitives": [
        {
          "attributes": {
            "NORMAL": 5,
            "POSITION": 4,
            "TEXCOORD_0": 6
          },
          "indices": 7,
          "material": 1,
          "mode": 4
        }
      ]
    },
    {
      "name": "Cube.002_Material.003_0",
      "primitives": [
        {
          "attributes": {
            "NORMAL": 9,
            "POSITION": 8,
            "TEXCOORD_0": 10
          },
          "indices": 11,
          "material": 1,
          "mode": 4
        }
      ]
    },
    {
      "name": "Cube.003_Material.004_0",
      "primitives": [
        {
          "attributes": {
            "NORMAL": 13,
            "POSITION": 12,
            "TEXCOORD_0": 14
          },
          "indices": 15,
          "material": 2,
          "mode": 4
        }
      ]
    },
    {
      "name": "Cylinder_Material.001_0",
      "primitives": [
        {
          "attributes": {
            "NORMAL": 17,
            "POSITION": 16,
            "TEXCOORD_0": 18
          },
          "indices": 19,
          "material": 0,
          "mode": 4
        }
      ]
    },
    {
      "name": "Cylinder.001_Material.001_0",
      "primitives": [
        {
          "attributes": {
            "NORMAL": 21,
            "POSITION": 20,
            "TEXCOORD_0": 22
          },
          "indices": 23,
          "material": 0,
          "mode": 4
        }
      ]
    },
    {
      "name": "Cylinder.002_Material.001_0",
      "primitives": [
        {
          "attributes": {
            "NORMAL": 25,
            "POSITION": 24,
            "TEXCOORD_0": 26
          },
          "indices": 27,
          "material": 0,
          "mode": 4
        }
      ]
    },
    {
      "name": "Cylinder.003_Material.001_0",
      "primitives": [
        {
          "attributes": {
            "NORMAL": 29,
            "POSITION": 28,
            "TEXCOORD_0": 30
          },
          "indices": 31,
          "material": 0,
          "mode": 4
        }
      ]
    },
    {
      "name": "Cylinder.004_Material.001_0",
      "primitives": [
        {
          "attributes": {
            "NORMAL": 33,
            "POSITION": 32,
            "TEXCOORD_0": 34
          },
          "indices": 35,
          "material": 0,
          "mode": 4
        }
      ]
    },
    {
      "name": "Cylinder.005_Material.001_0",
      "primitives": [
        {
          "attributes": {
            "NORMAL": 37,
            "POSITION": 36,
            "TEXCOORD_0": 38
          },
          "indices": 39,
          "material": 0,
          "mode": 4
        }
      ]
    }
  ],
  "nodes": [
    {
      "children": [
        1
      ],
      "matrix": [
        1.0,
        0.0,
        0.0,
        0.0,
        0.0,
        2.220446049250313e-16,
        -1.0,
        0.0,
        0.0,
        1.0,
        2.220446049250313e-16,
        0.0,
        0.0,
        0.0,
        0.0,
        1.0
      ],
      "name": "Sketchfab_model"
    },
    {
      "children": [
        2
      ],
      "matrix": [
        0.009999999776482582,
        0.0,
        0.0,
        0.0,
        0.0,
        0.0,
        0.009999999776482582,
        0.0,
        0.0,
        -0.009999999776482582,
        0.0,
        0.0,
        0.0,
        0.0,
        0.0,
        1.0
      ],
      "name": "ford.fbx"
    },
    {
      "children": [
        3,
        5,
        7,
        9,
        11,
        13,
        15,
        17,
        19,
        21
      ],
      "name": "RootNode"
    },
    {
      "children": [
        4
      ],
      "matrix": [
        100.0,
        0.0,
        0.0,
        0.0,
        0.0,
        -1.629206793918314e-05,
        -99.99999999999868,
        0.0,
        0.0,
        99.99999999999868,
        -1.629206793918314e-05,
        0.0,
        0.0,
        0.0,
        0.0,
        1.0
      ],
      "name": "Cube"
    },
    {
      "mesh": 0,
      "name": "Cube_Material.001_0"
    },
    {
      "children": [
        6
      ],
      "matrix": [
        472.5521240234375,
        3.371537400429561e-14,
        -5.564240858347583e-15,
        0.0,
        2.592730797446791e-16,
        -7.075191023117692,
        -20.851481794994978,
        0.0,
        -2.1953961742341453e-14,
        291.38768398817217,
        -98.87179943705614,
        0.0,
        -440.9299011230469,
        744.4660034179688,
        599.8949584960938,
        1.0
      ],
      "name": "Cube.001"
    },
    {
      "mesh": 1,
      "name": "Cube.001_Material.003_0"
    },
    {
      "children": [
        8
      ],
      "matrix": [
        1424.8737225551647,
        -27.434342351036054,
        -12.046628198985715,
        -0.0,
        0.12281415255643792,
        0.059510823991211784,
        14.390916325547336,
        -0.0,
        3.844639189612882,
        200.05899089867688,
        -0.860115590917157,
        -0.0,
        -856.40869140625,
        634.585205078125,
        -97.16177368164063,
        1.0
      ],
      "name": "Cube.002"
    },
    {
      "mesh": 2,
      "name": "Cube.002_Material.003_0"
    },
    {
      "children": [
        10
      ],
      "matrix": [
        1318.584587139649,
        540.6962702710236,
        -12.046555199520022,
        -0.0,
        0.08907951560854263,
        0.10338908332392678,
        14.390916339152744,
        -0.0,
        -75.92298007085589,
        185.13260714440906,
        -0.8600917388481801,
        -0.0,
        66.46277618408203,
        609.60302734375,
        -97.16177368164063,
        1.0
      ],
      "name": "Cube.003"
    },
    {
      "mesh": 3,
      "name": "Cube.003_Material.004_0"
    },
    {
      "children": [
        12
      ],
      "matrix": [
        56.245582580566406,
        0.0,
        0.0,
        0.0,
        0.0,
        56.24558258056635,
        2.4585724995929213e-06,
        0.0,
        0.0,
        -2.8977507610901572e-05,
        662.9281005859368,
        0.0,
        -1362.70751953125,
        -81.16470336914063,
        -1.0576774911896791e-05,
        1.0
      ],
      "name": "Cylinder"
    },
    {
      "mesh": 4,
      "name": "Cylinder_Material.001_0"
    },
    {
      "children": [
        14
      ],
      "matrix": [
        253.468017578125,
        0.0,
        0.0,
        0.0,
        0.0,
        253.46801757812474,
        1.1079438934627135e-05,
        0.0,
        0.0,
        -4.298115544924449e-06,
        98.32942199707021,
        0.0,
        -1375.998779296875,
        -40.9740104675293,
        -662.9470825195313,
        1.0
      ],
      "name": "Cylinder.001"
    },
    {
      "mesh": 5,
      "name": "Cylinder.001_Material.001_0"
    },
    {
      "children": [
        16
      ],
      "matrix": [
        -253.46801757810587,
        3.104087964132514e-14,
        9.870409034605527e-05,
        0.0,
        -4.28345195105212e-12,
        253.46801757812474,
        -1.1079438965667176e-05,
        0.0,
        -3.829089068202752e-05,
        -4.298115556966327e-06,
        -98.3294219970628,
        0.0,
        -1375.998779296875,
        -40.9740104675293,
        644.3187866210938,
        1.0
      ],
      "name": "Cylinder.002"
    },
    {
      "mesh": 6,
      "name": "Cylinder.002_Material.001_0"
    },
    {
      "children": [
        18
      ],
      "matrix": [
        -253.46801757810587,
        3.104087964132514e-14,
        9.870409034605527e-05,
        0.0,
        -4.28345195105212e-12,
        253.46801757812474,
        -1.1079438965667176e-05,
        0.0,
        -3.829089068202752e-05,
        -4.298115556966327e-06,
        -98.3294219970628,
        0.0,
        1138.8660888671875,
        -40.9740104675293,
        658.8861694335938,
        1.0
      ],
      "name": "Cylinder.003"
    },
    {
      "mesh": 7,
      "name": "Cylinder.003_Material.001_0"
    },
    {
      "children": [
        20
      ],
      "matrix": [
        253.468017578125,
        0.0,
        0.0,
        0.0,
        0.0,
        253.46801757812474,
        1.1079438934627135e-05,
        0.0,
        0.0,
        -4.298115544924449e-06,
        98.32942199707021,
        0.0,
        1138.8660888671875,
        -40.9740104675293,
        -648.3796997070313,
        1.0
      ],
      "name": "Cylinder.004"
    },
    {
      "mesh": 8,
      "name": "Cylinder.004_Material.001_0"
    },
    {
      "children": [
        22
      ],
      "matrix": [
        56.245582580566406,
        0.0,
        0.0,
        0.0,
        0.0,
        56.24558258056635,
        2.4585724995929213e-06,
        0.0,
        0.0,
        -2.8977507610901572e-05,
        662.9281005859368,
        0.0,
        1152.1573486328125,
        -81.16470336914063,
        14.567359924316406,
        1.0
      ],
      "name": "Cylinder.005"
    },
    {
      "mesh": 9,
      "name": "Cylinder.005_Material.001_0"
    }
  ],
  "samplers": [
    {
      "magFilter": 9728,
      "minFilter": 9728,
      "wrapS": 10497,
      "wrapT": 10497
    },
    {
      "magFilter": 9729,
      "minFilter": 9987,
      "wrapS": 10497,
      "wrapT": 10497
    }
  ],
  "scene": 0,
  "scenes": [
    {
      "name": "Sketchfab_Scene",
      "nodes": [
        0
      ]
    }
  ],
  "textures": [
    {
      "sampler": 0,
      "source": 0
    },
    {
      "sampler": 1,
      "source": 1
    },
    {
      "sampler": 1,
      "source": 2
    },
    {
      "sampler": 1,
      "source": 3
    }
  ]
}
