{
  "accessors": [
    {
      "bufferView": 2,
      "componentType": 5126,
      "count": 41,
      "max": [
        469.32440185546875,
        200.0,
        416.380126953125
      ],
      "min": [
        -289.4403381347656,
        45.45454406738281,
        -602.1505737304688
      ],
      "type": "VEC3"
    },
    {
      "bufferView": 2,
      "byteOffset": 492,
      "componentType": 5126,
      "count": 41,
      "max": [
        6.32045882298371e-08,
        1.0,
        0.0
      ],
      "min": [
        -2.528183529193484e-07,
        -1.0,
        0.0
      ],
      "type": "VEC3"
    },
    {
      "bufferView": 3,
      "componentType": 5126,
      "count": 41,
      "max": [
        1.0,
        6.919700723528877e-08,
        1.0,
        1.0
      ],
      "min": [
        0.0,
        -2.528183529193484e-07,
        -1.3728030353377108e-05,
        -1.0
      ],
      "type": "VEC4"
    },
    {
      "bufferView": 1,
      "componentType": 5126,
      "count": 41,
      "max": [
        4.7103352546691895,
        3.797104835510254
      ],
      "min": [
        -3.289710521697998,
        -2.9354043006896973
      ],
      "type": "VEC2"
    },
    {
      "bufferView": 0,
      "componentType": 5125,
      "count": 84,
      "type": "SCALAR"
    },
    {
      "bufferView": 2,
      "byteOffset": 984,
      "componentType": 5126,
      "count": 66,
      "max": [
        379.8840637207031,
        45.45454406738281,
        497.6694030761719
      ],
      "min": [
        -14.82052230834961,
        0.0,
        -681.0376586914063
      ],
      "type": "VEC3"
    },
    {
      "bufferView": 2,
      "byteOffset": 1776,
      "componentType": 5126,
      "count": 66,
      "max": [
        1.0,
        1.0,
        1.0
      ],
      "min": [
        -1.0,
        0.0,
        -1.0
      ],
      "type": "VEC3"
    },
    {
      "bufferView": 1,
      "byteOffset": 328,
      "componentType": 5126,
      "count": 66,
      "max": [
        4.3353352546691895,
        -1.2343511581420898
      ],
      "min": [
        3.941460132598877,
        -3.0193350315093994
      ],
      "type": "VEC2"
    },
    {
      "bufferView": 0,
      "byteOffset": 336,
      "componentType": 5125,
      "count": 120,
      "type": "SCALAR"
    },
    {
      "bufferView": 2,
      "byteOffset": 2568,
      "componentType": 5126,
      "count": 1860,
      "max": [
        353.9433288574219,
        248.84088134765625,
        4.999971389770508
      ],
      "min": [
        -404.8214111328125,
        0.0,
        -1013.0355834960938
      ],
      "type": "VEC3"
    },
    {
      "bufferView": 2,
      "byteOffset": 24888,
      "componentType": 5126,
      "count": 1860,
      "max": [
        1.0,
        1.0,
        1.0
      ],
      "min": [
        -1.0,
        -1.0,
        -1.0
      ],
      "type": "VEC3"
    },
    {
      "bufferView": 1,
      "byteOffset": 856,
      "componentType": 5126,
      "count": 1860,
      "max": [
        1.0,
        1.0
      ],
      "min": [
        0.0,
        0.0
      ],
      "type": "VEC2"
    },
    {
      "bufferView": 0,
      "byteOffset": 816,
      "componentType": 5125,
      "count": 2802,
      "type": "SCALAR"
    },
    {
      "bufferView": 2,
      "byteOffset": 47208,
      "componentType": 5126,
      "count": 230,
      "max": [
        725.5244140625,
        591.8141479492188,
        416.380126953125
      ],
      "min": [
        -289.44036865234375,
        0.0,
        -585.0182495117188
      ],
      "type": "VEC3"
    },
    {
      "bufferView": 2,
      "byteOffset": 49968,
      "componentType": 5126,
      "count": 230,
      "max": [
        1.0,
        1.0,
        1.0
      ],
      "min": [
        -1.0,
        -2.2462975834969257e-07,
        -1.0
      ],
      "type": "VEC3"
    },
    {
      "bufferView": 3,
      "byteOffset": 656,
      "componentType": 5126,
      "count": 230,
      "max": [
        1.0,
        1.0,
        1.0,
        1.0
      ],
      "min": [
        -1.0,
        -2.582406295914552e-06,
        -1.0,
        1.0
      ],
      "type": "VEC4"
    },
    {
      "bufferView": 1,
      "byteOffset": 15736,
      "componentType": 5126,
      "count": 230,
      "max": [
        11.036811828613281,
        3.777602195739746
      ],
      "min": [
        -3.2013349533081055,
        -9.5
      ],
      "type": "VEC2"
    },
    {
      "bufferView": 0,
      "byteOffset": 12024,
      "componentType": 5125,
      "count": 366,
      "type": "SCALAR"
    },
    {
      "bufferView": 2,
      "byteOffset": 52728,
      "componentType": 5126,
      "count": 111,
      "max": [
        744.8574829101563,
        602.3850708007813,
        416.380126953125
      ],
      "min": [
        -315.782958984375,
        190.43580627441406,
        -611.3609008789063
      ],
      "type": "VEC3"
    },
    {
      "bufferView": 2,
      "byteOffset": 54060,
      "componentType": 5126,
      "count": 111,
      "max": [
        0.6805680394172668,
        1.0,
        0.765991747379303
      ],
      "min": [
        -0.6805689334869385,
        -0.6428504586219788,
        -0.7566748857498169
      ],
      "type": "VEC3"
    },
    {
      "bufferView": 3,
      "byteOffset": 4336,
      "componentType": 5126,
      "count": 111,
      "max": [
        1.0,
        0.6805689334869385,
        0.0021877840626984835,
        1.0
      ],
      "min": [
        0.7326840758323669,
        -0.6805680990219116,
        -0.002186556113883853,
        -1.0
      ],
      "type": "VEC4"
    },
    {
      "bufferView": 1,
      "byteOffset": 17576,
      "componentType": 5126,
      "count": 111,
      "max": [
        2.8329057693481445,
        2.7460825443267822
      ],
      "min": [
        -1.6654325723648071,
        -1.6127245426177979
      ],
      "type": "VEC2"
    },
    {
      "bufferView": 0,
      "byteOffset": 13488,
      "componentType": 5125,
      "count": 165,
      "type": "SCALAR"
    },
    {
      "bufferView": 2,
      "byteOffset": 55392,
      "componentType": 5126,
      "count": 178,
      "max": [
        725.5244140625,
        567.7874755859375,
        416.380126953125
      ],
      "min": [
        -289.4403381347656,
        0.0,
        -601.6553344726563
      ],
      "type": "VEC3"
    },
    {
      "bufferView": 2,
      "byteOffset": 57528,
      "componentType": 5126,
      "count": 178,
      "max": [
        1.0,
        1.0,
        1.0
      ],
      "min": [
        -1.0,
        -1.0,
        -1.0
      ],
      "type": "VEC3"
    },
    {
      "bufferView": 3,
      "byteOffset": 6112,
      "componentType": 5126,
      "count": 178,
      "max": [
        1.0,
        6.871227355986775e-07,
        1.0,
        1.0
      ],
      "min": [
        -1.0,
        -3.3171852464874974e-06,
        -1.0,
        1.0
      ],
      "type": "VEC4"
    },
    {
      "bufferView": 1,
      "byteOffset": 18464,
      "componentType": 5126,
      "count": 178,
      "max": [
        9.626362800598145,
        1.7100749015808105
      ],
      "min": [
        -9.07211971282959,
        -7.4995222091674805
      ],
      "type": "VEC2"
    },
    {
      "bufferView": 0,
      "byteOffset": 14148,
      "componentType": 5125,
      "count": 294,
      "type": "SCALAR"
    },
    {
      "bufferView": 2,
      "byteOffset": 59664,
      "componentType": 5126,
      "count": 184,
      "max": [
        744.8574829101563,
        602.3850708007813,
        416.380126953125
      ],
      "min": [
        -315.782958984375,
        0.0,
        -611.3609008789063
      ],
      "type": "VEC3"
    },
    {
      "bufferView": 2,
      "byteOffset": 61872,
      "componentType": 5126,
      "count": 184,
      "max": [
        1.0,
        1.0,
        1.0
      ],
      "min": [
        -1.0,
        -1.0,
        -1.0
      ],
      "type": "VEC3"
    },
    {
      "bufferView": 1,
      "byteOffset": 19888,
      "componentType": 5126,
      "count": 184,
      "max": [
        2.8329057693481445,
        2.7460825443267822
      ],
      "min": [
        -1.6654325723648071,
        -1.6127245426177979
      ],
      "type": "VEC2"
    },
    {
      "bufferView": 0,
      "byteOffset": 15324,
      "componentType": 5125,
      "count": 318,
      "type": "SCALAR"
    },
    {
      "bufferView": 2,
      "byteOffset": 64080,
      "componentType": 5126,
      "count": 748,
      "max": [
        726.724365234375,
        503.07318115234375,
        328.9513854980469
      ],
      "min": [
        -290.64031982421875,
        0.0,
        -586.2181396484375
      ],
      "type": "VEC3"
    },
    {
      "bufferView": 2,
      "byteOffset": 73056,
      "componentType": 5126,
      "count": 748,
      "max": [
        1.0,
        0.5508385300636292,
        1.0
      ],
      "min": [
        -1.0,
        -0.550843358039856,
        -1.0
      ],
      "type": "VEC3"
    },
    {
      "bufferView": 3,
      "byteOffset": 8960,
      "componentType": 5126,
      "count": 748,
      "max": [
        1.0,
        0.9791034460067749,
        1.0,
        1.0
      ],
      "min": [
        -1.0,
        -0.9634265303611755,
        -1.0,
        1.0
      ],
      "type": "VEC4"
    },
    {
      "bufferView": 1,
      "byteOffset": 21360,
      "componentType": 5126,
      "count": 748,
      "max": [
        0.9748766422271729,
        0.9828251004219055
      ],
      "min": [
        0.019648075103759766,
        0.023371651768684387
      ],
      "type": "VEC2"
    },
    {
      "bufferView": 0,
      "byteOffset": 16596,
      "componentType": 5125,
      "count": 1830,
      "type": "SCALAR"
    },
    {
      "bufferView": 2,
      "byteOffset": 82032,
      "componentType": 5126,
      "count": 118,
      "max": [
        744.8574829101563,
        589.0469970703125,
        371.0042419433594
      ],
      "min": [
        -315.782958984375,
        177.09776306152344,
        -611.3609008789063
      ],
      "type": "VEC3"
    },
    {
      "bufferView": 2,
      "byteOffset": 83448,
      "componentType": 5126,
      "count": 118,
      "max": [
        0.6805681586265564,
        1.0,
        0.6805680394172668
      ],
      "min": [
        -0.6805680990219116,
        -1.0,
        -0.7659918069839478
      ],
      "type": "VEC3"
    },
    {
      "bufferView": 1,
      "byteOffset": 27344,
      "componentType": 5126,
      "count": 118,
      "max": [
        2.8329057693481445,
        0.520811915397644
      ],
      "min": [
        -1.2898938655853271,
        -1.4202783107757568
      ],
      "type": "VEC2"
    },
    {
      "bufferView": 0,
      "byteOffset": 23916,
      "componentType": 5125,
      "count": 192,
      "type": "SCALAR"
    }
  ],
  "asset": {
    "extras": {
      "author": "assetfactory (https://sketchfab.com/assetfactory)",
      "license": "SKETCHFAB Standard (https://sketchfab.com/licenses)",
      "source": "https://sketchfab.com/3d-models/residential-family-house-b36b822986f44ca99e6cfec20386a955",
      "title": "Residential Family House"
    },
    "generator": "Sketchfab-16.33.0",
    "version": "2.0"
  },
  "bufferViews": [
    {
      "buffer": 0,
      "byteLength": 24684,
      "name": "floatBufferViews",
      "target": 34963
    },
    {
      "buffer": 0,
      "byteLength": 28288,
      "byteOffset": 24684,
      "byteStride": 8,
      "name": "floatBufferViews",
      "target": 34962
    },
    {
      "buffer": 0,
      "byteLength": 84864,
      "byteOffset": 52972,
      "byteStride": 12,
      "name": "floatBufferViews",
      "target": 34962
    },
    {
      "buffer": 0,
      "byteLength": 20928,
      "byteOffset": 137836,
      "byteStride": 16,
      "name": "floatBufferViews",
      "target": 34962
    }
  ],
  "buffers": [
    {
      "byteLength": 158764,
      "uri": "scene.bin"
    }
  ],
  "images": [
    {
      "uri": "textures/wood_3_normal.jpeg"
    },
    {
      "uri": "textures/concrete_1_baseColor.jpeg"
    },
    {
      "uri": "textures/tile_1_normal.jpeg"
    },
    {
      "uri": "textures/concreate_2_baseColor.jpeg"
    },
    {
      "uri": "textures/concreate_2_metallicRoughness.png"
    },
    {
      "uri": "textures/concreate_2_normal.jpeg"
    },
    {
      "uri": "textures/doors_and_windows_baseColor.png"
    },
    {
      "uri": "textures/doors_and_windows_metallicRoughness.png"
    },
    {
      "uri": "textures/doors_and_windows_normal.png"
    }
  ],
  "materials": [
    {
      "doubleSided": true,
      "name": "wood_3",
      "normalTexture": {
        "index": 0
      },
      "pbrMetallicRoughness": {
        "baseColorFactor": [
          0.12743799999999997,
          0.08650049999999995,
          0.0382044,
          1.0
        ],
        "metallicFactor": 0.0,
        "roughnessFactor": 0.9794914924
      }
    },
    {
      "doubleSided": true,
      "name": "concrete_1",
      "pbrMetallicRoughness": {
        "baseColorTexture": {
          "index": 1
        },
        "metallicFactor": 0.0,
        "roughnessFactor": 0.8
      }
    },
    {
      "doubleSided": true,
      "name": "wood_2",
      "pbrMetallicRoughness": {
        "baseColorFactor": [
          0.603827,
          0.603827,
          0.603827,
          1.0
        ],
        "metallicFactor": 0.0,
        "roughnessFactor": 0.9146059666999999
      }
    },
    {
      "doubleSided": true,
      "name": "wood_1",
      "normalTexture": {
        "index": 0
      },
      "pbrMetallicRoughness": {
        "baseColorFactor": [
          0.412543,
          0.381326,
          0.323143,
          1.0
        ],
        "metallicFactor": 0.0,
        "roughnessFactor": 0.9141882256
      }
    },
    {
      "doubleSided": true,
      "name": "tile_1",
      "normalTexture": {
        "index": 2
      },
      "pbrMetallicRoughness": {
        "baseColorFactor": [
          0.0395462,
          0.0423114,
          0.0409152,
          1.0
        ],
        "metallicFactor": 0.0,
        "roughnessFactor": 0.5261051829
      }
    },
    {
      "doubleSided": true,
      "name": "concreate_2",
      "normalTexture": {
        "index": 5
      },
      "pbrMetallicRoughness": {
        "baseColorTexture": {
          "index": 3
        },
        "metallicFactor": 0.0,
        "metallicRoughnessTexture": {
          "index": 4
        }
      }
    },
    {
      "doubleSided": true,
      "name": "tile_2",
      "pbrMetallicRoughness": {
        "baseColorFactor": [
          0.3749243578,
          0.3749243578,
          0.3749243578,
          1.0
        ],
        "metallicFactor": 0.0,
        "roughnessFactor": 0.8
      }
    },
    {
      "doubleSided": true,
      "name": "doors_and_windows",
      "normalTexture": {
        "index": 8
      },
      "pbrMetallicRoughness": {
        "baseColorTexture": {
          "index": 6
        },
        "metallicFactor": 0.0,
        "metallicRoughnessTexture": {
          "index": 7
        }
      }
    },
    {
      "doubleSided": true,
      "name": "tile_3",
      "pbrMetallicRoughness": {
        "baseColorFactor": [
          0.0802199,
          0.0802198,
          0.0802198,
          1.0
        ],
        "metallicFactor": 0.0,
        "roughnessFactor": 0.9820623027
      }
    }
  ],
  "meshes": [
    {
      "name": "wood_3_wood_3_0",
      "primitives": [
        {
          "attributes": {
            "NORMAL": 1,
            "POSITION": 0,
            "TANGENT": 2,
            "TEXCOORD_0": 3
          },
          "indices": 4,
          "material": 0,
          "mode": 4
        }
      ]
    },
    {
      "name": "concrete_1_concrete_1_0",
      "primitives": [
        {
          "attributes": {
            "NORMAL": 6,
            "POSITION": 5,
            "TEXCOORD_0": 7
          },
          "indices": 8,
          "material": 1,
          "mode": 4
        }
      ]
    },
    {
      "name": "woos_2_wood_2_0",
      "primitives": [
        {
          "attributes": {
            "NORMAL": 10,
            "POSITION": 9,
            "TEXCOORD_0": 11
          },
          "indices": 12,
          "material": 2,
          "mode": 4
        }
      ]
    },
    {
      "name": "wood_1_wood_1_0",
      "primitives": [
        {
          "attributes": {
            "NORMAL": 14,
            "POSITION": 13,
            "TANGENT": 15,
            "TEXCOORD_0": 16
          },
          "indices": 17,
          "material": 3,
          "mode": 4
        }
      ]
    },
    {
      "name": "roof_tile_1_0",
      "primitives": [
        {
          "attributes": {
            "NORMAL": 19,
            "POSITION": 18,
            "TANGENT": 20,
            "TEXCOORD_0": 21
          },
          "indices": 22,
          "material": 4,
          "mode": 4
        }
      ]
    },
    {
      "name": "stone_1_concreate_2_0",
      "primitives": [
        {
          "attributes": {
            "NORMAL": 24,
            "POSITION": 23,
            "TANGENT": 25,
            "TEXCOORD_0": 26
          },
          "indices": 27,
          "material": 5,
          "mode": 4
        }
      ]
    },
    {
      "name": "roof_edge_tile_2_0",
      "primitives": [
        {
          "attributes": {
            "NORMAL": 29,
            "POSITION": 28,
            "TEXCOORD_0": 30
          },
          "indices": 31,
          "material": 6,
          "mode": 4
        }
      ]
    },
    {
      "name": "doors_and_windows_collection_doors_and_windows_0",
      "primitives": [
        {
          "attributes": {
            "NORMAL": 33,
            "POSITION": 32,
            "TANGENT": 34,
            "TEXCOORD_0": 35
          },
          "indices": 36,
          "material": 7,
          "mode": 4
        }
      ]
    },
    {
      "name": "roof_edge_2_tile_3_0",
      "primitives": [
        {
          "attributes": {
            "NORMAL": 38,
            "POSITION": 37,
            "TEXCOORD_0": 39
          },
          "indices": 40,
          "material": 8,
          "mode": 4
        }
      ]
    }
  ],
  "nodes": [
    {
      "children": [
        1
      ],
      "matrix": [
        0.0012501056771725416,
        0.0,
        0.0,
        0.0,
        0.0,
        2.7757922120231573e-19,
        -0.0012501056771725416,
        0.0,
        0.0,
        0.0012501056771725416,
        2.7757922120231573e-19,
        0.0,
        0.0,
        0.0,
        0.0,
        1.0
      ],
      "name": "Sketchfab_model"
    },
    {
      "children": [
        2
      ],
      "matrix": [
        1.0,
        0.0,
        0.0,
        0.0,
        0.0,
        0.0,
        1.0,
        0.0,
        0.0,
        -1.0,
        0.0,
        0.0,
        0.0,
        0.0,
        0.0,
        1.0
      ],
      "name": "62b9ecdef6694ff6a0c1955046f911c4.fbx"
    },
    {
      "children": [
        3,
        5,
        7,
        9,
        11,
        13,
        15,
        17,
        19
      ],
      "name": "RootNode"
    },
    {
      "children": [
        4
      ],
      "name": "wood_3"
    },
    {
      "mesh": 0,
      "name": "wood_3_wood_3_0"
    },
    {
      "children": [
        6
      ],
      "name": "concrete_1"
    },
    {
      "mesh": 1,
      "name": "concrete_1_concrete_1_0"
    },
    {
      "children": [
        8
      ],
      "matrix": [
        1.0,
        0.0,
        0.0,
        0.0,
        0.0,
        1.0,
        0.0,
        0.0,
        0.0,
        0.0,
        1.0,
        0.0,
        115.38107299804688,
        45.45454406738281,
        411.3800964355469,
        1.0
      ],
      "name": "woos_2"
    },
    {
      "mesh": 2,
      "name": "woos_2_wood_2_0"
    },
    {
      "children": [
        10
      ],
      "name": "wood_1"
    },
    {
      "mesh": 3,
      "name": "wood_1_wood_1_0"
    },
    {
      "children": [
        12
      ],
      "name": "roof"
    },
    {
      "mesh": 4,
      "name": "roof_tile_1_0"
    },
    {
      "children": [
        14
      ],
      "name": "stone_1"
    },
    {
      "mesh": 5,
      "name": "stone_1_concreate_2_0"
    },
    {
      "children": [
        16
      ],
      "name": "roof_edge"
    },
    {
      "mesh": 6,
      "name": "roof_edge_tile_2_0"
    },
    {
      "children": [
        18
      ],
      "name": "doors_and_windows_collection"
    },
    {
      "mesh": 7,
      "name": "doors_and_windows_collection_doors_and_windows_0"
    },
    {
      "children": [
        20
      ],
      "name": "roof_edge_2"
    },
    {
      "mesh": 8,
      "name": "roof_edge_2_tile_3_0"
    }
  ],
  "samplers": [
    {
      "magFilter": 9729,
      "minFilter": 9987,
      "wrapS": 10497,
      "wrapT": 10497
    }
  ],
  "scene": 0,
  "scenes": [
    {
      "name": "Sketchfab_Scene",
      "nodes": [
        0
      ]
    }
  ],
  "textures": [
    {
      "sampler": 0,
      "source": 0
    },
    {
      "sampler": 0,
      "source": 1
    },
    {
      "sampler": 0,
      "source": 2
    },
    {
      "sampler": 0,
      "source": 3
    },
    {
      "sampler": 0,
      "source": 4
    },
    {
      "sampler": 0,
      "source": 5
    },
    {
      "sampler": 0,
      "source": 6
    },
    {
      "sampler": 0,
      "source": 7
    },
    {
      "sampler": 0,
      "source": 8
    }
  ]
}
