{
  "accessors": [
    {
      "bufferView": 2,
      "componentType": 5126,
      "count": 6126,
      "max": [
        1.7900789976119995,
        2.566206932067871,
        1.8431819677352905
      ],
      "min": [
        -1.057142972946167,
        0.0007479999912902713,
        -1.9220900535583496
      ],
      "type": "VEC3"
    },
    {
      "bufferView": 2,
      "byteOffset": 73512,
      "componentType": 5126,
      "count": 6126,
      "max": [
        1.0,
        1.0,
        1.0
      ],
      "min": [
        -1.0,
        -1.0,
        -1.0
      ],
      "type": "VEC3"
    },
    {
      "bufferView": 1,
      "componentType": 5126,
      "count": 6126,
      "max": [
        0.9717749953269958,
        0.9748150110244751
      ],
      "min": [
        0.029441000893712044,
        0.029440000653266907
      ],
      "type": "VEC2"
    },
    {
      "bufferView": 0,
      "componentType": 5125,
      "count": 12363,
      "type": "SCALAR"
    },
    {
      "bufferView": 2,
      "byteOffset": 147024,
      "componentType": 5126,
      "count": 624,
      "max": [
        1.2819520235061646,
        0.39859700202941895,
        0.3957889974117279
      ],
      "min": [
        1.027688980102539,
        0.00017899999511428177,
        -1.5156660079956055
      ],
      "type": "VEC3"
    },
    {
      "bufferView": 2,
      "byteOffset": 154512,
      "componentType": 5126,
      "count": 624,
      "max": [
        1.0,
        1.0,
        1.0
      ],
      "min": [
        -1.0,
        -1.0,
        -1.0
      ],
      "type": "VEC3"
    },
    {
      "bufferView": 1,
      "byteOffset": 49008,
      "componentType": 5126,
      "count": 624,
      "max": [
        0.5324180126190186,
        0.9707319736480713
      ],
      "min": [
        0.4679029881954193,
        0.9693210124969482
      ],
      "type": "VEC2"
    },
    {
      "bufferView": 0,
      "byteOffset": 49452,
      "componentType": 5125,
      "count": 936,
      "type": "SCALAR"
    },
    {
      "bufferView": 2,
      "byteOffset": 162000,
      "componentType": 5126,
      "count": 1994,
      "max": [
        0.979390025138855,
        1.4380600452423096,
        -1.8692959547042847
      ],
      "min": [
        -0.885316014289856,
        -0.0006120000034570694,
        -3.2835090160369873
      ],
      "type": "VEC3"
    },
    {
      "bufferView": 2,
      "byteOffset": 185928,
      "componentType": 5126,
      "count": 1994,
      "max": [
        1.0,
        1.0,
        1.0
      ],
      "min": [
        -1.0,
        -1.0,
        -1.0
      ],
      "type": "VEC3"
    },
    {
      "bufferView": 1,
      "byteOffset": 54000,
      "componentType": 5126,
      "count": 1994,
      "max": [
        0.6556349992752075,
        0.9706889986991882
      ],
      "min": [
        0.032485999166965485,
        0.9650589823722839
      ],
      "type": "VEC2"
    },
    {
      "bufferView": 0,
      "byteOffset": 53196,
      "componentType": 5125,
      "count": 3096,
      "type": "SCALAR"
    },
    {
      "bufferView": 2,
      "byteOffset": 209856,
      "componentType": 5126,
      "count": 679,
      "max": [
        1.680171012878418,
        0.5657359957695007,
        1.9378559589385986
      ],
      "min": [
        1.1623539924621582,
        0.00023600000713486224,
        1.4339319467544556
      ],
      "type": "VEC3"
    },
    {
      "bufferView": 2,
      "byteOffset": 218004,
      "componentType": 5126,
      "count": 679,
      "max": [
        0.8293883800506592,
        1.0,
        0.8688064813613892
      ],
      "min": [
        -0.829387903213501,
        -1.0,
        -0.8688039183616638
      ],
      "type": "VEC3"
    },
    {
      "bufferView": 1,
      "byteOffset": 69952,
      "componentType": 5126,
      "count": 679,
      "max": [
        0.7800819873809814,
        0.9710729718208313
      ],
      "min": [
        0.22044900059700012,
        0.9631059765815735
      ],
      "type": "VEC2"
    },
    {
      "bufferView": 0,
      "byteOffset": 65580,
      "componentType": 5125,
      "count": 936,
      "type": "SCALAR"
    },
    {
      "bufferView": 2,
      "byteOffset": 226152,
      "componentType": 5126,
      "count": 260,
      "max": [
        1.683899998664856,
        2.0461130142211914,
        2.09256911277771
      ],
      "min": [
        1.4827959537506104,
        -0.0008980000275187194,
        1.8914649486541748
      ],
      "type": "VEC3"
    },
    {
      "bufferView": 2,
      "byteOffset": 229272,
      "componentType": 5126,
      "count": 260,
      "max": [
        1.0,
        1.0,
        1.0
      ],
      "min": [
        -1.0,
        -1.0,
        -1.0
      ],
      "type": "VEC3"
    },
    {
      "bufferView": 1,
      "byteOffset": 75384,
      "componentType": 5126,
      "count": 260,
      "max": [
        0.09599799662828445,
        0.9086080193519592
      ],
      "min": [
        0.03181599825620651,
        0.9077919721603394
      ],
      "type": "VEC2"
    },
    {
      "bufferView": 0,
      "byteOffset": 69324,
      "componentType": 5125,
      "count": 390,
      "type": "SCALAR"
    },
    {
      "bufferView": 2,
      "byteOffset": 232392,
      "componentType": 5126,
      "count": 1286,
      "max": [
        1.7937995195388794,
        1.8312084674835205,
        2.5622403621673584
      ],
      "min": [
        -1.0629876852035522,
        -1.1676007509231567,
        -2.980232238769531e-07
      ],
      "type": "VEC3"
    },
    {
      "bufferView": 2,
      "byteOffset": 247824,
      "componentType": 5126,
      "count": 1286,
      "max": [
        1.0,
        1.0,
        1.0
      ],
      "min": [
        -1.0,
        -1.0,
        -1.0
      ],
      "type": "VEC3"
    },
    {
      "bufferView": 1,
      "byteOffset": 77464,
      "componentType": 5126,
      "count": 1286,
      "max": [
        1.0,
        1.0
      ],
      "min": [
        0.0,
        0.0
      ],
      "type": "VEC2"
    },
    {
      "bufferView": 0,
      "byteOffset": 70884,
      "componentType": 5125,
      "count": 1968,
      "type": "SCALAR"
    }
  ],
  "asset": {
    "extras": {
      "author": "assetfactory (https://sketchfab.com/assetfactory)",
      "license": "SKETCHFAB Standard (https://sketchfab.com/licenses)",
      "source": "https://sketchfab.com/3d-models/low-poly-generic-restaurant-15eb82f16280443abc16f8ac4ca9e071",
      "title": "Low poly generic restaurant"
    },
    "generator": "Sketchfab-16.33.0",
    "version": "2.0"
  },
  "bufferViews": [
    {
      "buffer": 0,
      "byteLength": 78756,
      "name": "floatBufferViews",
      "target": 34963
    },
    {
      "buffer": 0,
      "byteLength": 87752,
      "byteOffset": 78756,
      "byteStride": 8,
      "name": "floatBufferViews",
      "target": 34962
    },
    {
      "buffer": 0,
      "byteLength": 263256,
      "byteOffset": 166508,
      "byteStride": 12,
      "name": "floatBufferViews",
      "target": 34962
    }
  ],
  "buffers": [
    {
      "byteLength": 429764,
      "uri": "scene.bin"
    }
  ],
  "images": [
    {
      "uri": "textures/Texture_buildings1_baseColor.png"
    }
  ],
  "materials": [
    {
      "doubleSided": true,
      "name": "Texture_buildings1",
      "pbrMetallicRoughness": {
        "baseColorTexture": {
          "index": 0
        },
        "metallicFactor": 0.0,
        "roughnessFactor": 0.8611067128702585
      }
    },
    {
      "alphaMode": "BLEND",
      "doubleSided": true,
      "name": "Collider",
      "pbrMetallicRoughness": {
        "baseColorFactor": [
          0.8,
          0.8,
          0.8,
          0.0
        ],
        "metallicFactor": 0.0,
        "roughnessFactor": 0.0
      }
    }
  ],
  "meshes": [
    {
      "name": "RestaurantBuilding_Texture_buildings1_0",
      "primitives": [
        {
          "attributes": {
            "NORMAL": 1,
            "POSITION": 0,
            "TEXCOORD_0": 2
          },
          "indices": 3,
          "material": 0,
          "mode": 4
        }
      ]
    },
    {
      "name": "RestaurantPlants_Texture_buildings1_0",
      "primitives": [
        {
          "attributes": {
            "NORMAL": 5,
            "POSITION": 4,
            "TEXCOORD_0": 6
          },
          "indices": 7,
          "material": 0,
          "mode": 4
        }
      ]
    },
    {
      "name": "RestaurantTables_Texture_buildings1_0",
      "primitives": [
        {
          "attributes": {
            "NORMAL": 9,
            "POSITION": 8,
            "TEXCOORD_0": 10
          },
          "indices": 11,
          "material": 0,
          "mode": 4
        }
      ]
    },
    {
      "name": "RestaurantBoard_Texture_buildings1_0",
      "primitives": [
        {
          "attributes": {
            "NORMAL": 13,
            "POSITION": 12,
            "TEXCOORD_0": 14
          },
          "indices": 15,
          "material": 0,
          "mode": 4
        }
      ]
    },
    {
      "name": "RestaurantLight_Texture_buildings1_0",
      "primitives": [
        {
          "attributes": {
            "NORMAL": 17,
            "POSITION": 16,
            "TEXCOORD_0": 18
          },
          "indices": 19,
          "material": 0,
          "mode": 4
        }
      ]
    },
    {
      "name": "Collider_Collider_0",
      "primitives": [
        {
          "attributes": {
            "NORMAL": 21,
            "POSITION": 20,
            "TEXCOORD_0": 22
          },
          "indices": 23,
          "material": 1,
          "mode": 4
        }
      ]
    }
  ],
  "nodes": [
    {
      "children": [
        1
      ],
      "matrix": [
        -2.220446049250313e-16,
        -2.2204460492503128e-16,
        1.0,
        0.0,
        1.0,
        -1.6081226229577296e-16,
        2.2204460492503128e-16,
        0.0,
        1.6081226229577292e-16,
        1.0,
        2.220446049250313e-16,
        0.0,
        0.0,
        0.0,
        0.0,
        1.0
      ],
      "name": "Sketchfab_model"
    },
    {
      "children": [
        2
      ],
      "matrix": [
        0.009999999776482582,
        0.0,
        0.0,
        0.0,
        0.0,
        0.0,
        0.009999999776482582,
        0.0,
        0.0,
        -0.009999999776482582,
        0.0,
        0.0,
        0.0,
        0.0,
        0.0,
        1.0
      ],
      "name": "BusinessBuilding_RestaurantC.fbx"
    },
    {
      "children": [
        3,
        5,
        7,
        9,
        11,
        13
      ],
      "name": "RootNode"
    },
    {
      "children": [
        4
      ],
      "matrix": [
        100.0,
        0.0,
        0.0,
        0.0,
        0.0,
        99.99999999999866,
        1.6292067073209114e-05,
        0.0,
        0.0,
        -1.6292067073209114e-05,
        99.99999999999866,
        0.0,
        0.0,
        0.0,
        0.0,
        1.0
      ],
      "name": "RestaurantBuilding"
    },
    {
      "mesh": 0,
      "name": "RestaurantBuilding_Texture_buildings1_0"
    },
    {
      "children": [
        6
      ],
      "matrix": [
        100.0,
        0.0,
        0.0,
        0.0,
        0.0,
        99.99999999999866,
        1.6292067073209114e-05,
        0.0,
        0.0,
        -1.6292067073209114e-05,
        99.99999999999866,
        0.0,
        0.0,
        0.0,
        0.0,
        1.0
      ],
      "name": "RestaurantPlants"
    },
    {
      "mesh": 1,
      "name": "RestaurantPlants_Texture_buildings1_0"
    },
    {
      "children": [
        8
      ],
      "matrix": [
        100.0,
        0.0,
        0.0,
        0.0,
        0.0,
        99.99999999999866,
        1.6292067073209114e-05,
        0.0,
        0.0,
        -1.6292067073209114e-05,
        99.99999999999866,
        0.0,
        0.0,
        0.0,
        0.0,
        1.0
      ],
      "name": "RestaurantTables"
    },
    {
      "mesh": 2,
      "name": "RestaurantTables_Texture_buildings1_0"
    },
    {
      "children": [
        10
      ],
      "matrix": [
        100.0,
        0.0,
        0.0,
        0.0,
        0.0,
        99.99999999999866,
        1.6292067073209114e-05,
        0.0,
        0.0,
        -1.6292067073209114e-05,
        99.99999999999866,
        0.0,
        0.0,
        0.0,
        0.0,
        1.0
      ],
      "name": "RestaurantBoard"
    },
    {
      "mesh": 3,
      "name": "RestaurantBoard_Texture_buildings1_0"
    },
    {
      "children": [
        12
      ],
      "matrix": [
        100.0,
        0.0,
        0.0,
        0.0,
        0.0,
        99.99999999999866,
        1.6292067073209114e-05,
        0.0,
        0.0,
        -1.6292067073209114e-05,
        99.99999999999866,
        0.0,
        0.0,
        0.0,
        0.0,
        1.0
      ],
      "name": "RestaurantLight"
    },
    {
      "mesh": 4,
      "name": "RestaurantLight_Texture_buildings1_0"
    },
    {
      "children": [
        14
      ],
      "matrix": [
        100.0,
        0.0,
        0.0,
        0.0,
        0.0,
        -2.9213035653015123e-05,
        -179.30833435058358,
        0.0,
        0.0,
        99.99999999999868,
        -1.629206793918314e-05,
        0.0,
        0.0,
        5.9604644775390625e-06,
        0.0,
        1.0
      ],
      "name": "Collider"
    },
    {
      "mesh": 5,
      "name": "Collider_Collider_0"
    }
  ],
  "samplers": [
    {
      "magFilter": 9729,
      "minFilter": 9987,
      "wrapS": 10497,
      "wrapT": 10497
    }
  ],
  "scene": 0,
  "scenes": [
    {
      "name": "Sketchfab_Scene",
      "nodes": [
        0
      ]
    }
  ],
  "textures": [
    {
      "sampler": 0,
      "source": 0
    }
  ]
}
