{
  "accessors": [
    {
      "bufferView": 2,
      "componentType": 5126,
      "count": 8854,
      "max": [
        1.6185200214385986,
        7.000006198883057,
        4.497768878936768
      ],
      "min": [
        -2.8247640132904053,
        -1.601874828338623e-07,
        -4.497766017913818
      ],
      "type": "VEC3"
    },
    {
      "bufferView": 2,
      "byteOffset": 106248,
      "componentType": 5126,
      "count": 8854,
      "max": [
        1.0,
        1.0,
        1.0
      ],
      "min": [
        -1.0,
        -1.0,
        -1.0
      ],
      "type": "VEC3"
    },
    {
      "bufferView": 1,
      "componentType": 5126,
      "count": 8854,
      "max": [
        0.7817379832267761,
        0.7219420075416565
      ],
      "min": [
        0.03196199983358383,
        0.031029000878334045
      ],
      "type": "VEC2"
    },
    {
      "bufferView": 0,
      "componentType": 5125,
      "count": 15393,
      "type": "SCALAR"
    },
    {
      "bufferView": 2,
      "byteOffset": 212496,
      "componentType": 5126,
      "count": 1133,
      "max": [
        1.5981428623199463,
        7.000006198883057,
        4.4919209480285645
      ],
      "min": [
        -2.8253326416015625,
        -7.152557373046875e-07,
        -4.491921424865723
      ],
      "type": "VEC3"
    },
    {
      "bufferView": 2,
      "byteOffset": 226092,
      "componentType": 5126,
      "count": 1133,
      "max": [
        1.0,
        1.0,
        1.0
      ],
      "min": [
        -1.0,
        -1.0,
        -1.0
      ],
      "type": "VEC3"
    },
    {
      "bufferView": 1,
      "byteOffset": 70832,
      "componentType": 5126,
      "count": 1133,
      "max": [
        0.8750000596046448,
        1.0
      ],
      "min": [
        0.03196199983358383,
        0.0
      ],
      "type": "VEC2"
    },
    {
      "bufferView": 0,
      "byteOffset": 61572,
      "componentType": 5125,
      "count": 1728,
      "type": "SCALAR"
    }
  ],
  "asset": {
    "extras": {
      "author": "assetfactory (https://sketchfab.com/assetfactory)",
      "license": "SKETCHFAB Standard (https://sketchfab.com/licenses)",
      "source": "https://sketchfab.com/3d-models/low-poly-police-station-b0966e9eceb948a6925967170a6a6e52",
      "title": "Low poly police station"
    },
    "generator": "Sketchfab-16.33.0",
    "version": "2.0"
  },
  "bufferViews": [
    {
      "buffer": 0,
      "byteLength": 68484,
      "name": "floatBufferViews",
      "target": 34963
    },
    {
      "buffer": 0,
      "byteLength": 79896,
      "byteOffset": 68484,
      "byteStride": 8,
      "name": "floatBufferViews",
      "target": 34962
    },
    {
      "buffer": 0,
      "byteLength": 239688,
      "byteOffset": 148380,
      "byteStride": 12,
      "name": "floatBufferViews",
      "target": 34962
    }
  ],
  "buffers": [
    {
      "byteLength": 388068,
      "uri": "scene.bin"
    }
  ],
  "images": [
    {
      "uri": "textures/Pack2_baseColor.png"
    }
  ],
  "materials": [
    {
      "doubleSided": true,
      "name": "Pack2",
      "pbrMetallicRoughness": {
        "baseColorTexture": {
          "index": 0
        },
        "metallicFactor": 0.0,
        "roughnessFactor": 0.9740008359786076
      }
    },
    {
      "alphaMode": "BLEND",
      "doubleSided": true,
      "name": "Collider",
      "pbrMetallicRoughness": {
        "baseColorFactor": [
          1.0,
          1.0,
          1.0,
          0.0
        ],
        "metallicFactor": 0.0,
        "roughnessFactor": 0.0
      }
    }
  ],
  "meshes": [
    {
      "name": "PublicBuilding_Police_Pack2_0",
      "primitives": [
        {
          "attributes": {
            "NORMAL": 1,
            "POSITION": 0,
            "TEXCOORD_0": 2
          },
          "indices": 3,
          "material": 0,
          "mode": 4
        }
      ]
    },
    {
      "name": "PublicBuilding_Police.003_Collider_0",
      "primitives": [
        {
          "attributes": {
            "NORMAL": 5,
            "POSITION": 4,
            "TEXCOORD_0": 6
          },
          "indices": 7,
          "material": 1,
          "mode": 4
        }
      ]
    }
  ],
  "nodes": [
    {
      "children": [
        1
      ],
      "matrix": [
        1.0,
        0.0,
        0.0,
        0.0,
        0.0,
        2.220446049250313e-16,
        -1.0,
        0.0,
        0.0,
        1.0,
        2.220446049250313e-16,
        0.0,
        0.0,
        0.0,
        0.0,
        1.0
      ],
      "name": "Sketchfab_model"
    },
    {
      "children": [
        2
      ],
      "matrix": [
        0.009999999776482582,
        0.0,
        0.0,
        0.0,
        0.0,
        0.0,
        0.009999999776482582,
        0.0,
        0.0,
        -0.009999999776482582,
        0.0,
        0.0,
        0.0,
        0.0,
        0.0,
        1.0
      ],
      "name": "PublicBuilding_PoliceC.fbx"
    },
    {
      "children": [
        3,
        5
      ],
      "name": "RootNode"
    },
    {
      "children": [
        4
      ],
      "matrix": [
        100.0,
        0.0,
        0.0,
        0.0,
        0.0,
        99.99999999999866,
        1.6292067073209114e-05,
        0.0,
        0.0,
        -1.6292067073209114e-05,
        99.99999999999866,
        0.0,
        0.0,
        0.0,
        0.0,
        1.0
      ],
      "name": "PublicBuilding_Police"
    },
    {
      "mesh": 0,
      "name": "PublicBuilding_Police_Pack2_0"
    },
    {
      "children": [
        6
      ],
      "matrix": [
        100.0,
        0.0,
        0.0,
        0.0,
        0.0,
        99.99999999999866,
        1.6292067073209114e-05,
        0.0,
        0.0,
        -1.6292067073209114e-05,
        99.99999999999866,
        0.0,
        0.0,
        0.0,
        0.0,
        1.0
      ],
      "name": "PublicBuilding_Police.003"
    },
    {
      "mesh": 1,
      "name": "PublicBuilding_Police.003_Collider_0"
    }
  ],
  "samplers": [
    {
      "magFilter": 9729,
      "minFilter": 9987,
      "wrapS": 10497,
      "wrapT": 10497
    }
  ],
  "scene": 0,
  "scenes": [
    {
      "name": "Sketchfab_Scene",
      "nodes": [
        0
      ]
    }
  ],
  "textures": [
    {
      "sampler": 0,
      "source": 0
    }
  ]
}
