{
  "accessors": [
    {
      "bufferView": 2,
      "componentType": 5126,
      "count": 981,
      "max": [
        279.4364318847656,
        599.9609985351563,
        291.0151062011719
      ],
      "min": [
        -282.6153259277344,
        30.116554260253906,
        -261.36676025390625
      ],
      "type": "VEC3"
    },
    {
      "bufferView": 2,
      "byteOffset": 11772,
      "componentType": 5126,
      "count": 981,
      "max": [
        1.0,
        1.0,
        1.0
      ],
      "min": [
        -1.0,
        -1.0,
        -1.0
      ],
      "type": "VEC3"
    },
    {
      "bufferView": 1,
      "componentType": 5126,
      "count": 981,
      "max": [
        0.8674476146697998,
        0.9138465523719788
      ],
      "min": [
        0.0,
        0.0
      ],
      "type": "VEC2"
    },
    {
      "bufferView": 0,
      "componentType": 5125,
      "count": 2628,
      "type": "SCALAR"
    },
    {
      "bufferView": 2,
      "byteOffset": 23544,
      "componentType": 5126,
      "count": 34,
      "max": [
        -260.4867248535156,
        532.99072265625,
        241.4935302734375
      ],
      "min": [
        -272.94549560546875,
        118.84854888916016,
        -235.19053649902344
      ],
      "type": "VEC3"
    },
    {
      "bufferView": 2,
      "byteOffset": 23952,
      "componentType": 5126,
      "count": 34,
      "max": [
        -1.0,
        0.0,
        0.0
      ],
      "min": [
        -1.0,
        0.0,
        0.0
      ],
      "type": "VEC3"
    },
    {
      "bufferView": 1,
      "byteOffset": 7848,
      "componentType": 5126,
      "count": 34,
      "max": [
        0.8328121900558472,
        0.7019650936126709
      ],
      "min": [
        0.20208212733268738,
        0.1539880782365799
      ],
      "type": "VEC2"
    },
    {
      "bufferView": 0,
      "byteOffset": 10512,
      "componentType": 5125,
      "count": 72,
      "type": "SCALAR"
    }
  ],
  "asset": {
    "extras": {
      "author": "Mahreen (https://sketchfab.com/MahreenMahro)",
      "license": "CC-BY-4.0 (http://creativecommons.org/licenses/by/4.0/)",
      "source": "https://sketchfab.com/3d-models/building-1-low-poly-94b5438d79c24303b8610c858dd31289",
      "title": "building 1 low poly"
    },
    "generator": "Sketchfab-17.14.0",
    "version": "2.0"
  },
  "bufferViews": [
    {
      "buffer": 0,
      "byteLength": 10800,
      "name": "floatBufferViews",
      "target": 34963
    },
    {
      "buffer": 0,
      "byteLength": 8120,
      "byteOffset": 10800,
      "byteStride": 8,
      "name": "floatBufferViews",
      "target": 34962
    },
    {
      "buffer": 0,
      "byteLength": 24360,
      "byteOffset": 18920,
      "byteStride": 12,
      "name": "floatBufferViews",
      "target": 34962
    }
  ],
  "buffers": [
    {
      "byteLength": 43280,
      "uri": "scene.bin"
    }
  ],
  "extensionsUsed": [
    "KHR_materials_specular"
  ],
  "images": [
    {
      "uri": "textures/BUILDING_baseColor.jpeg"
    }
  ],
  "materials": [
    {
      "doubleSided": true,
      "extensions": {
        "KHR_materials_specular": {
          "specularColorFactor": [
            1.0,
            1.0,
            1.0
          ],
          "specularFactor": 0.0
        }
      },
      "name": "BUILDING",
      "pbrMetallicRoughness": {
        "baseColorTexture": {
          "index": 0
        },
        "metallicFactor": 0.0
      }
    },
    {
      "doubleSided": true,
      "extensions": {
        "KHR_materials_specular": {
          "specularColorFactor": [
            1.0,
            1.0,
            1.0
          ],
          "specularFactor": 1.0
        }
      },
      "name": "windows",
      "pbrMetallicRoughness": {
        "baseColorTexture": {
          "index": 0
        },
        "metallicFactor": 0.06552400921602808,
        "roughnessFactor": 0.0
      }
    }
  ],
  "meshes": [
    {
      "name": "building_BUILDING _0",
      "primitives": [
        {
          "attributes": {
            "NORMAL": 1,
            "POSITION": 0,
            "TEXCOORD_0": 2
          },
          "indices": 3,
          "material": 0,
          "mode": 4
        }
      ]
    },
    {
      "name": "windows_windows_0",
      "primitives": [
        {
          "attributes": {
            "NORMAL": 5,
            "POSITION": 4,
            "TEXCOORD_0": 6
          },
          "indices": 7,
          "material": 1,
          "mode": 4
        }
      ]
    }
  ],
  "nodes": [
    {
      "children": [
        1
      ],
      "matrix": [
        1.0,
        0.0,
        0.0,
        0.0,
        0.0,
        2.220446049250313e-16,
        -1.0,
        0.0,
        0.0,
        1.0,
        2.220446049250313e-16,
        0.0,
        0.0,
        0.0,
        0.0,
        1.0
      ],
      "name": "Sketchfab_model"
    },
    {
      "children": [
        2
      ],
      "matrix": [
        0.009999999776482582,
        0.0,
        0.0,
        0.0,
        0.0,
        0.0,
        0.009999999776482582,
        0.0,
        0.0,
        -0.009999999776482582,
        0.0,
        0.0,
        0.0,
        0.0,
        0.0,
        1.0
      ],
      "name": "8b23dab396fe44bb80d0a30406b3fb70.fbx"
    },
    {
      "children": [
        3,
        5
      ],
      "name": "RootNode"
    },
    {
      "children": [
        4
      ],
      "name": "building"
    },
    {
      "mesh": 0,
      "name": "building_BUILDING _0"
    },
    {
      "children": [
        6
      ],
      "name": "windows"
    },
    {
      "mesh": 1,
      "name": "windows_windows_0"
    }
  ],
  "samplers": [
    {
      "magFilter": 9729,
      "minFilter": 9987,
      "wrapS": 10497,
      "wrapT": 10497
    }
  ],
  "scene": 0,
  "scenes": [
    {
      "name": "Sketchfab_Scene",
      "nodes": [
        0
      ]
    }
  ],
  "textures": [
    {
      "sampler": 0,
      "source": 0
    }
  ]
}
