{
  "accessors": [
    {
      "bufferView": 2,
      "componentType": 5126,
      "count": 6009,
      "max": [
        1.8056659698486328,
        3.0885169506073,
        2.1788690090179443
      ],
      "min": [
        -1.4301819801330566,
        -1.4496045253054035e-07,
        -2.6109941005706787
      ],
      "type": "VEC3"
    },
    {
      "bufferView": 2,
      "byteOffset": 72108,
      "componentType": 5126,
      "count": 6009,
      "max": [
        1.0,
        1.0,
        1.0
      ],
      "min": [
        -1.0,
        -1.0,
        -1.0
      ],
      "type": "VEC3"
    },
    {
      "bufferView": 1,
      "componentType": 5126,
      "count": 6009,
      "max": [
        0.7186279892921448,
        0.5943750143051147
      ],
      "min": [
        0.03022100031375885,
        0.029548000544309616
      ],
      "type": "VEC2"
    },
    {
      "bufferView": 0,
      "componentType": 5125,
      "count": 13005,
      "type": "SCALAR"
    },
    {
      "bufferView": 2,
      "byteOffset": 144216,
      "componentType": 5126,
      "count": 783,
      "max": [
        0.6909852027893066,
        0.9980549216270447,
        3.0958569049835205
      ],
      "min": [
        -0.548572301864624,
        -0.8342096209526062,
        0.0
      ],
      "type": "VEC3"
    },
    {
      "bufferView": 2,
      "byteOffset": 153612,
      "componentType": 5126,
      "count": 783,
      "max": [
        1.0,
        1.0,
        1.0
      ],
      "min": [
        -1.0,
        -1.0,
        -1.0
      ],
      "type": "VEC3"
    },
    {
      "bufferView": 1,
      "byteOffset": 48072,
      "componentType": 5126,
      "count": 783,
      "max": [
        0.875,
        1.0
      ],
      "min": [
        0.0,
        0.0
      ],
      "type": "VEC2"
    },
    {
      "bufferView": 0,
      "byteOffset": 52020,
      "componentType": 5125,
      "count": 1221,
      "type": "SCALAR"
    }
  ],
  "asset": {
    "extras": {
      "author": "assetfactory (https://sketchfab.com/assetfactory)",
      "license": "SKETCHFAB Standard (https://sketchfab.com/licenses)",
      "source": "https://sketchfab.com/3d-models/low-poly-house-1-72b37584f1a74e66914d4c57ea7f70d8",
      "title": "Low poly house 1"
    },
    "generator": "Sketchfab-16.33.0",
    "version": "2.0"
  },
  "bufferViews": [
    {
      "buffer": 0,
      "byteLength": 56904,
      "name": "floatBufferViews",
      "target": 34963
    },
    {
      "buffer": 0,
      "byteLength": 54336,
      "byteOffset": 56904,
      "byteStride": 8,
      "name": "floatBufferViews",
      "target": 34962
    },
    {
      "buffer": 0,
      "byteLength": 163008,
      "byteOffset": 111240,
      "byteStride": 12,
      "name": "floatBufferViews",
      "target": 34962
    }
  ],
  "buffers": [
    {
      "byteLength": 274248,
      "uri": "scene.bin"
    }
  ],
  "images": [
    {
      "uri": "textures/Pack3_baseColor.png"
    }
  ],
  "materials": [
    {
      "doubleSided": true,
      "name": "Pack3",
      "pbrMetallicRoughness": {
        "baseColorTexture": {
          "index": 0
        },
        "metallicFactor": 0.0,
        "roughnessFactor": 0.7763932022500211
      }
    },
    {
      "alphaMode": "BLEND",
      "doubleSided": true,
      "name": "Collider",
      "pbrMetallicRoughness": {
        "baseColorFactor": [
          0.8,
          0.8,
          0.8,
          0.0
        ],
        "metallicFactor": 0.0,
        "roughnessFactor": 0.0
      }
    }
  ],
  "meshes": [
    {
      "name": "PublicBuilding_7_Pack3_0",
      "primitives": [
        {
          "attributes": {
            "NORMAL": 1,
            "POSITION": 0,
            "TEXCOORD_0": 2
          },
          "indices": 3,
          "material": 0,
          "mode": 4
        }
      ]
    },
    {
      "name": "Collider_PublicBuilding_7_Collider_0",
      "primitives": [
        {
          "attributes": {
            "NORMAL": 5,
            "POSITION": 4,
            "TEXCOORD_0": 6
          },
          "indices": 7,
          "material": 1,
          "mode": 4
        }
      ]
    }
  ],
  "nodes": [
    {
      "children": [
        1
      ],
      "matrix": [
        1.0,
        0.0,
        0.0,
        0.0,
        0.0,
        2.220446049250313e-16,
        -1.0,
        0.0,
        0.0,
        1.0,
        2.220446049250313e-16,
        0.0,
        0.0,
        0.0,
        0.0,
        1.0
      ],
      "name": "Sketchfab_model"
    },
    {
      "children": [
        2
      ],
      "matrix": [
        0.009999999776482582,
        0.0,
        0.0,
        0.0,
        0.0,
        0.0,
        0.009999999776482582,
        0.0,
        0.0,
        -0.009999999776482582,
        0.0,
        0.0,
        0.0,
        0.0,
        0.0,
        1.0
      ],
      "name": "PublicBuilding_7C.fbx"
    },
    {
      "children": [
        3,
        5
      ],
      "name": "RootNode"
    },
    {
      "children": [
        4
      ],
      "matrix": [
        100.0,
        0.0,
        0.0,
        0.0,
        0.0,
        99.99999999999866,
        1.6292067073209114e-05,
        0.0,
        0.0,
        -1.6292067073209114e-05,
        99.99999999999866,
        0.0,
        0.0,
        0.0,
        0.0,
        1.0
      ],
      "name": "PublicBuilding_7"
    },
    {
      "mesh": 0,
      "name": "PublicBuilding_7_Pack3_0"
    },
    {
      "children": [
        6
      ],
      "matrix": [
        261.7017517089844,
        0.0,
        0.0,
        0.0,
        0.0,
        -4.263662718646011e-05,
        -261.7017517089809,
        0.0,
        0.0,
        99.99999999999868,
        -1.629206793918314e-05,
        0.0,
        0.0,
        0.0,
        0.0,
        1.0
      ],
      "name": "Collider_PublicBuilding_7"
    },
    {
      "mesh": 1,
      "name": "Collider_PublicBuilding_7_Collider_0"
    }
  ],
  "samplers": [
    {
      "magFilter": 9729,
      "minFilter": 9987,
      "wrapS": 10497,
      "wrapT": 10497
    }
  ],
  "scene": 0,
  "scenes": [
    {
      "name": "Sketchfab_Scene",
      "nodes": [
        0
      ]
    }
  ],
  "textures": [
    {
      "sampler": 0,
      "source": 0
    }
  ]
}
