{
  "accessors": [
    {
      "bufferView": 2,
      "componentType": 5126,
      "count": 1439,
      "max": [
        0.08131051063537598,
        -0.004214465618133545,
        -0.04401789605617523
      ],
      "min": [
        0.0008232593536376953,
        -0.018627524375915527,
        -0.059680938720703125
      ],
      "type": "VEC3"
    },
    {
      "bufferView": 2,
      "byteOffset": 17268,
      "componentType": 5126,
      "count": 1439,
      "max": [
        0.9996885061264038,
        0.9999944567680359,
        0.9999995827674866
      ],
      "min": [
        -0.9999098777770996,
        -0.9999273419380188,
        -1.0
      ],
      "type": "VEC3"
    },
    {
      "bufferView": 1,
      "componentType": 5126,
      "count": 1439,
      "max": [
        0.9990234375,
        0.9981632232666016
      ],
      "min": [
        0.0018892288208007813,
        0.00341796875
      ],
      "type": "VEC2"
    },
    {
      "bufferView": 0,
      "componentType": 5125,
      "count": 2469,
      "type": "SCALAR"
    }
  ],
  "asset": {
    "extras": {
      "author": "Ivan008 (https://sketchfab.com/hukan008)",
      "license": "CC-BY-4.0 (http://creativecommons.org/licenses/by/4.0/)",
      "source": "https://sketchfab.com/3d-models/rocket-launcher-32177fca0bf54bf3a844b3ba61845c28",
      "title": "Rocket Launcher"
    },
    "generator": "Sketchfab-12.65.0",
    "version": "2.0"
  },
  "bufferViews": [
    {
      "buffer": 0,
      "byteLength": 9876,
      "name": "floatBufferViews",
      "target": 34963
    },
    {
      "buffer": 0,
      "byteLength": 11512,
      "byteOffset": 9876,
      "byteStride": 8,
      "name": "floatBufferViews",
      "target": 34962
    },
    {
      "buffer": 0,
      "byteLength": 34536,
      "byteOffset": 21388,
      "byteStride": 12,
      "name": "floatBufferViews",
      "target": 34962
    }
  ],
  "buffers": [
    {
      "byteLength": 55924,
      "uri": "scene.bin"
    }
  ],
  "images": [
    {
      "uri": "textures/Material_344_baseColor.png"
    }
  ],
  "materials": [
    {
      "doubleSided": true,
      "name": "Material_344",
      "pbrMetallicRoughness": {
        "baseColorTexture": {
          "index": 0
        },
        "metallicFactor": 0.0,
        "roughnessFactor": 0.6
      }
    }
  ],
  "meshes": [
    {
      "name": "4f744618.obj_Material #344_0",
      "primitives": [
        {
          "attributes": {
            "NORMAL": 1,
            "POSITION": 0,
            "TEXCOORD_0": 2
          },
          "indices": 3,
          "material": 0,
          "mode": 4
        }
      ]
    }
  ],
  "nodes": [
    {
      "children": [
        1
      ],
      "matrix": [
        1.0,
        0.0,
        0.0,
        0.0,
        0.0,
        2.220446049250313e-16,
        -1.0,
        0.0,
        0.0,
        1.0,
        2.220446049250313e-16,
        0.0,
        0.0,
        0.0,
        0.0,
        1.0
      ],
      "name": "Sketchfab_model"
    },
    {
      "children": [
        2
      ],
      "matrix": [
        1.0,
        0.0,
        0.0,
        0.0,
        0.0,
        0.0,
        1.0,
        0.0,
        0.0,
        -1.0,
        0.0,
        0.0,
        0.0,
        0.0,
        0.0,
        1.0
      ],
      "name": "c835aca655ff4ee5b3450f332545523a.fbx"
    },
    {
      "children": [
        3
      ],
      "name": "RootNode"
    },
    {
      "children": [
        4
      ],
      "matrix": [
        100.0042724609375,
        0.0,
        0.0,
        0.0,
        0.0,
        2.2205409169404056e-14,
        -100.0042724609375,
        0.0,
        0.0,
        100.0042724609375,
        2.2205409169404056e-14,
        0.0,
        -4.343019485473633,
        6.44460916519165,
        44.800743103027344,
        1.0
      ],
      "name": "4f744618.obj"
    },
    {
      "mesh": 0,
      "name": "4f744618.obj_Material #344_0"
    }
  ],
  "samplers": [
    {
      "magFilter": 9729,
      "minFilter": 9987,
      "wrapS": 10497,
      "wrapT": 10497
    }
  ],
  "scene": 0,
  "scenes": [
    {
      "name": "Sketchfab_Scene",
      "nodes": [
        0
      ]
    }
  ],
  "textures": [
    {
      "sampler": 0,
      "source": 0
    }
  ]
}
