{
  "accessors": [
    {
      "bufferView": 2,
      "componentType": 5126,
      "count": 65532,
      "max": [
        8.57451057434082,
        43.2746467590332,
        0.0013938323827460408
      ],
      "min": [
        -9.073912620544434,
        5.1021575927734375e-05,
        -41.3954963684082
      ],
      "type": "VEC3"
    },
    {
      "bufferView": 2,
      "byteOffset": 786384,
      "componentType": 5126,
      "count": 65532,
      "max": [
        1.0,
        1.0,
        1.0
      ],
      "min": [
        -1.0,
        -1.0,
        -1.0
      ],
      "type": "VEC3"
    },
    {
      "bufferView": 1,
      "componentType": 5126,
      "count": 65532,
      "max": [
        1.0,
        1.0
      ],
      "min": [
        0.0,
        0.0
      ],
      "type": "VEC2"
    },
    {
      "bufferView": 1,
      "byteOffset": 524256,
      "componentType": 5126,
      "count": 65532,
      "max": [
        0.0,
        1.0
      ],
      "min": [
        0.0,
        1.0
      ],
      "type": "VEC2"
    },
    {
      "bufferView": 0,
      "componentType": 5125,
      "count": 141672,
      "type": "SCALAR"
    },
    {
      "bufferView": 2,
      "byteOffset": 1572768,
      "componentType": 5126,
      "count": 14999,
      "max": [
        8.000320434570313,
        42.58659362792969,
        -0.8911309838294983
      ],
      "min": [
        -7.996964454650879,
        3.330193042755127,
        -32.51435089111328
      ],
      "type": "VEC3"
    },
    {
      "bufferView": 2,
      "byteOffset": 1752756,
      "componentType": 5126,
      "count": 14999,
      "max": [
        1.0,
        1.0,
        1.0
      ],
      "min": [
        -1.0,
        -1.0,
        -1.0
      ],
      "type": "VEC3"
    },
    {
      "bufferView": 1,
      "byteOffset": 1048512,
      "componentType": 5126,
      "count": 14999,
      "max": [
        1.0,
        1.0
      ],
      "min": [
        0.0,
        0.0
      ],
      "type": "VEC2"
    },
    {
      "bufferView": 1,
      "byteOffset": 1168504,
      "componentType": 5126,
      "count": 14999,
      "max": [
        0.0,
        1.0
      ],
      "min": [
        0.0,
        1.0
      ],
      "type": "VEC2"
    },
    {
      "bufferView": 0,
      "byteOffset": 566688,
      "componentType": 5125,
      "count": 33114,
      "type": "SCALAR"
    },
    {
      "bufferView": 2,
      "byteOffset": 1932744,
      "componentType": 5126,
      "count": 114,
      "max": [
        8.07391357421875,
        3.2682344913482666,
        -1.1920974429813214e-07
      ],
      "min": [
        -8.07391357421875,
        5.125999450683594e-05,
        -41.10386276245117
      ],
      "type": "VEC3"
    },
    {
      "bufferView": 2,
      "byteOffset": 1934112,
      "componentType": 5126,
      "count": 114,
      "max": [
        1.0,
        1.0,
        1.0
      ],
      "min": [
        -1.0,
        -1.0,
        -1.0
      ],
      "type": "VEC3"
    },
    {
      "bufferView": 3,
      "componentType": 5126,
      "count": 114,
      "max": [
        1.0,
        1.0,
        0.0,
        1.0
      ],
      "min": [
        -1.0,
        -1.0,
        -1.0,
        -1.0
      ],
      "type": "VEC4"
    },
    {
      "bufferView": 1,
      "byteOffset": 1288496,
      "componentType": 5126,
      "count": 114,
      "max": [
        10.08238697052002,
        1.5144424438476563
      ],
      "min": [
        -1.9240121841430664,
        -9.681326866149902
      ],
      "type": "VEC2"
    },
    {
      "bufferView": 1,
      "byteOffset": 1289408,
      "componentType": 5126,
      "count": 114,
      "max": [
        1.0,
        1.0
      ],
      "min": [
        0.0,
        0.0
      ],
      "type": "VEC2"
    },
    {
      "bufferView": 1,
      "byteOffset": 1290320,
      "componentType": 5126,
      "count": 114,
      "max": [
        10.08238697052002,
        1.5144424438476563
      ],
      "min": [
        -1.9240121841430664,
        -9.681326866149902
      ],
      "type": "VEC2"
    },
    {
      "bufferView": 0,
      "byteOffset": 699144,
      "componentType": 5125,
      "count": 240,
      "type": "SCALAR"
    },
    {
      "bufferView": 2,
      "byteOffset": 1935480,
      "componentType": 5126,
      "count": 72,
      "max": [
        8.544722557067871,
        2.601290702819824,
        -1.6466171741485596
      ],
      "min": [
        -9.043697357177734,
        2.527102470397949,
        -39.57257843017578
      ],
      "type": "VEC3"
    },
    {
      "bufferView": 2,
      "byteOffset": 1936344,
      "componentType": 5126,
      "count": 72,
      "max": [
        0.13220302760601044,
        -0.9912226796150208,
        0.0032000995706766844
      ],
      "min": [
        -0.13210411369800568,
        -0.9912307858467102,
        0.0
      ],
      "type": "VEC3"
    },
    {
      "bufferView": 1,
      "byteOffset": 1291232,
      "componentType": 5126,
      "count": 72,
      "max": [
        0.3653368055820465,
        0.48216062784194946
      ],
      "min": [
        0.13466320931911469,
        0.26783931255340576
      ],
      "type": "VEC2"
    },
    {
      "bufferView": 1,
      "byteOffset": 1291808,
      "componentType": 5126,
      "count": 72,
      "max": [
        0.0,
        1.0
      ],
      "min": [
        0.0,
        1.0
      ],
      "type": "VEC2"
    },
    {
      "bufferView": 0,
      "byteOffset": 700104,
      "componentType": 5125,
      "count": 108,
      "type": "SCALAR"
    },
    {
      "bufferView": 2,
      "byteOffset": 1937208,
      "componentType": 5126,
      "count": 6024,
      "max": [
        7.911652088165283,
        42.524139404296875,
        -0.12635472416877747
      ],
      "min": [
        -8.4203462600708,
        0.10905718803405762,
        -41.25896453857422
      ],
      "type": "VEC3"
    },
    {
      "bufferView": 2,
      "byteOffset": 2009496,
      "componentType": 5126,
      "count": 6024,
      "max": [
        1.0,
        0.0,
        1.0
      ],
      "min": [
        -1.0,
        0.0,
        -1.0
      ],
      "type": "VEC3"
    },
    {
      "bufferView": 1,
      "byteOffset": 1292384,
      "componentType": 5126,
      "count": 6024,
      "max": [
        0.9953298568725586,
        0.9779632091522217
      ],
      "min": [
        0.0046701631508767605,
        0.02203679084777832
      ],
      "type": "VEC2"
    },
    {
      "bufferView": 1,
      "byteOffset": 1340576,
      "componentType": 5126,
      "count": 6024,
      "max": [
        0.0,
        1.0
      ],
      "min": [
        0.0,
        1.0
      ],
      "type": "VEC2"
    },
    {
      "bufferView": 0,
      "byteOffset": 700536,
      "componentType": 5125,
      "count": 9036,
      "type": "SCALAR"
    },
    {
      "bufferView": 2,
      "byteOffset": 2081784,
      "componentType": 5126,
      "count": 1992,
      "max": [
        7.870885848999023,
        42.52464294433594,
        -0.1282794028520584
      ],
      "min": [
        -8.3795804977417,
        3.331230640411377,
        -41.25703811645508
      ],
      "type": "VEC3"
    },
    {
      "bufferView": 2,
      "byteOffset": 2105688,
      "componentType": 5126,
      "count": 1992,
      "max": [
        1.0,
        0.0,
        1.0
      ],
      "min": [
        -1.0,
        0.0,
        -1.0
      ],
      "type": "VEC3"
    },
    {
      "bufferView": 1,
      "byteOffset": 1388768,
      "componentType": 5126,
      "count": 1992,
      "max": [
        0.9779632687568665,
        1.0
      ],
      "min": [
        0.022036755457520485,
        0.0
      ],
      "type": "VEC2"
    },
    {
      "bufferView": 1,
      "byteOffset": 1404704,
      "componentType": 5126,
      "count": 1992,
      "max": [
        0.0,
        1.0
      ],
      "min": [
        0.0,
        1.0
      ],
      "type": "VEC2"
    },
    {
      "bufferView": 0,
      "byteOffset": 736680,
      "componentType": 5125,
      "count": 3420,
      "type": "SCALAR"
    },
    {
      "bufferView": 2,
      "byteOffset": 2129592,
      "componentType": 5126,
      "count": 4,
      "max": [
        7.720813274383545,
        43.14004898071289,
        -0.05128498375415802
      ],
      "min": [
        -8.273826599121094,
        43.14004898071289,
        -40.9140739440918
      ],
      "type": "VEC3"
    },
    {
      "bufferView": 2,
      "byteOffset": 2129640,
      "componentType": 5126,
      "count": 4,
      "max": [
        0.0,
        1.0,
        0.0
      ],
      "min": [
        0.0,
        1.0,
        0.0
      ],
      "type": "VEC3"
    },
    {
      "bufferView": 1,
      "byteOffset": 1420640,
      "componentType": 5126,
      "count": 4,
      "max": [
        1.0,
        0.8547823429107666
      ],
      "min": [
        0.0,
        0.0
      ],
      "type": "VEC2"
    },
    {
      "bufferView": 1,
      "byteOffset": 1420672,
      "componentType": 5126,
      "count": 4,
      "max": [
        0.0,
        1.0
      ],
      "min": [
        0.0,
        1.0
      ],
      "type": "VEC2"
    },
    {
      "bufferView": 0,
      "byteOffset": 750360,
      "componentType": 5125,
      "count": 6,
      "type": "SCALAR"
    },
    {
      "bufferView": 2,
      "byteOffset": 2129688,
      "componentType": 5126,
      "count": 179,
      "max": [
        16.489070892333984,
        4.799403190612793,
        -34.56232452392578
      ],
      "min": [
        11.623424530029297,
        -0.008603811264038086,
        -39.42797088623047
      ],
      "type": "VEC3"
    },
    {
      "bufferView": 2,
      "byteOffset": 2131836,
      "componentType": 5126,
      "count": 179,
      "max": [
        0.9845933318138123,
        1.0,
        0.9845712780952454
      ],
      "min": [
        -0.9845573902130127,
        -0.9914737939834595,
        -0.9913761019706726
      ],
      "type": "VEC3"
    },
    {
      "bufferView": 1,
      "byteOffset": 1420704,
      "componentType": 5126,
      "count": 179,
      "max": [
        0.875,
        1.0
      ],
      "min": [
        0.125,
        0.0
      ],
      "type": "VEC2"
    },
    {
      "bufferView": 0,
      "byteOffset": 750384,
      "componentType": 5125,
      "count": 756,
      "type": "SCALAR"
    },
    {
      "bufferView": 2,
      "byteOffset": 2133984,
      "componentType": 5126,
      "count": 36,
      "max": [
        15.020066261291504,
        4.8830718994140625,
        -34.516998291015625
      ],
      "min": [
        14.799052238464355,
        -0.0003941059112548828,
        -39.402069091796875
      ],
      "type": "VEC3"
    },
    {
      "bufferView": 2,
      "byteOffset": 2134416,
      "componentType": 5126,
      "count": 36,
      "max": [
        0.7663794159889221,
        0.7317934632301331,
        0.7386173009872437
      ],
      "min": [
        -0.7770096063613892,
        -0.7069687843322754,
        -0.7139196395874023
      ],
      "type": "VEC3"
    },
    {
      "bufferView": 1,
      "byteOffset": 1422136,
      "componentType": 5126,
      "count": 36,
      "max": [
        0.7098660469055176,
        0.49957311153411865
      ],
      "min": [
        0.37542688846588135,
        0.16513383388519287
      ],
      "type": "VEC2"
    },
    {
      "bufferView": 0,
      "byteOffset": 753408,
      "componentType": 5125,
      "count": 156,
      "type": "SCALAR"
    }
  ],
  "asset": {
    "extras": {
      "author": "Blender Studio (https://sketchfab.com/Blend_GUY)",
      "license": "SKETCHFAB Standard (https://sketchfab.com/licenses)",
      "source": "https://sketchfab.com/3d-models/modern-building-23bdeb7cb6914643a76b1840b4c88579",
      "title": "Modern Building"
    },
    "generator": "Sketchfab-16.75.0",
    "version": "2.0"
  },
  "bufferViews": [
    {
      "buffer": 0,
      "byteLength": 754032,
      "name": "floatBufferViews",
      "target": 34963
    },
    {
      "buffer": 0,
      "byteLength": 1422424,
      "byteOffset": 754032,
      "byteStride": 8,
      "name": "floatBufferViews",
      "target": 34962
    },
    {
      "buffer": 0,
      "byteLength": 2134848,
      "byteOffset": 2176456,
      "byteStride": 12,
      "name": "floatBufferViews",
      "target": 34962
    },
    {
      "buffer": 0,
      "byteLength": 1824,
      "byteOffset": 4311304,
      "byteStride": 16,
      "name": "floatBufferViews",
      "target": 34962
    }
  ],
  "buffers": [
    {
      "byteLength": 4313128,
      "uri": "scene.bin"
    }
  ],
  "extensionsUsed": [
    "KHR_materials_specular",
    "KHR_materials_emissive_strength"
  ],
  "images": [
    {
      "uri": "textures/Concrete.001_baseColor.jpeg"
    },
    {
      "uri": "textures/Concrete.001_normal.jpeg"
    }
  ],
  "materials": [
    {
      "doubleSided": true,
      "extensions": {
        "KHR_materials_specular": {
          "specularColorFactor": [
            1.0,
            1.0,
            1.0
          ],
          "specularFactor": 0.8
        }
      },
      "name": "metal.001",
      "pbrMetallicRoughness": {
        "baseColorFactor": [
          0.435964,
          0.435964,
          0.435964,
          1.0
        ],
        "roughnessFactor": 0.1
      }
    },
    {
      "doubleSided": true,
      "extensions": {
        "KHR_materials_specular": {
          "specularColorFactor": [
            1.0,
            1.0,
            1.0
          ],
          "specularFactor": 0.400364
        }
      },
      "name": "Concrete.001",
      "normalTexture": {
        "index": 1
      },
      "pbrMetallicRoughness": {
        "baseColorTexture": {
          "index": 0
        },
        "metallicFactor": 0.0,
        "roughnessFactor": 0.8
      }
    },
    {
      "doubleSided": true,
      "emissiveFactor": [
        1.0,
        1.0,
        1.0
      ],
      "extensions": {
        "KHR_materials_emissive_strength": {
          "emissiveStrength": 10.0
        }
      },
      "name": "light.001",
      "pbrMetallicRoughness": {
        "baseColorFactor": [
          0.0,
          0.0,
          0.0,
          1.0
        ]
      }
    },
    {
      "doubleSided": true,
      "name": "window.001",
      "pbrMetallicRoughness": {
        "roughnessFactor": 0.36511058596194934
      }
    },
    {
      "doubleSided": true,
      "name": "GREY.001",
      "pbrMetallicRoughness": {
        "baseColorFactor": [
          0.0535905,
          0.0535905,
          0.0535905,
          1.0
        ],
        "metallicFactor": 0.0,
        "roughnessFactor": 0.5
      }
    },
    {
      "doubleSided": true,
      "name": "Material.002",
      "pbrMetallicRoughness": {
        "baseColorFactor": [
          0.000205116,
          0.000205116,
          0.000205116,
          1.0
        ],
        "metallicFactor": 0.552727,
        "roughnessFactor": 0.601818
      }
    },
    {
      "doubleSided": true,
      "extensions": {
        "KHR_materials_specular": {
          "specularColorFactor": [
            1.0,
            1.0,
            1.0
          ],
          "specularFactor": 0.8
        }
      },
      "name": "white.003",
      "pbrMetallicRoughness": {
        "baseColorFactor": [
          0.126218,
          0.126218,
          0.126218,
          1.0
        ],
        "metallicFactor": 0.0
      }
    },
    {
      "doubleSided": true,
      "extensions": {
        "KHR_materials_specular": {
          "specularColorFactor": [
            1.0,
            1.0,
            1.0
          ],
          "specularFactor": 0.8
        }
      },
      "name": "white.004",
      "pbrMetallicRoughness": {
        "baseColorFactor": [
          0.0341117,
          0.0341117,
          0.0341117,
          1.0
        ],
        "metallicFactor": 0.0,
        "roughnessFactor": 0.4
      }
    }
  ],
  "meshes": [
    {
      "name": "Object_0",
      "primitives": [
        {
          "attributes": {
            "NORMAL": 1,
            "POSITION": 0,
            "TEXCOORD_0": 2,
            "TEXCOORD_1": 3
          },
          "indices": 4,
          "material": 0,
          "mode": 4
        }
      ]
    },
    {
      "name": "Object_1",
      "primitives": [
        {
          "attributes": {
            "NORMAL": 6,
            "POSITION": 5,
            "TEXCOORD_0": 7,
            "TEXCOORD_1": 8
          },
          "indices": 9,
          "material": 0,
          "mode": 4
        }
      ]
    },
    {
      "name": "Object_2",
      "primitives": [
        {
          "attributes": {
            "NORMAL": 11,
            "POSITION": 10,
            "TANGENT": 12,
            "TEXCOORD_0": 13,
            "TEXCOORD_1": 14,
            "TEXCOORD_2": 15
          },
          "indices": 16,
          "material": 1,
          "mode": 4
        }
      ]
    },
    {
      "name": "Object_3",
      "primitives": [
        {
          "attributes": {
            "NORMAL": 18,
            "POSITION": 17,
            "TEXCOORD_0": 19,
            "TEXCOORD_1": 20
          },
          "indices": 21,
          "material": 2,
          "mode": 4
        }
      ]
    },
    {
      "name": "Object_4",
      "primitives": [
        {
          "attributes": {
            "NORMAL": 23,
            "POSITION": 22,
            "TEXCOORD_0": 24,
            "TEXCOORD_1": 25
          },
          "indices": 26,
          "material": 3,
          "mode": 4
        }
      ]
    },
    {
      "name": "Object_5",
      "primitives": [
        {
          "attributes": {
            "NORMAL": 28,
            "POSITION": 27,
            "TEXCOORD_0": 29,
            "TEXCOORD_1": 30
          },
          "indices": 31,
          "material": 4,
          "mode": 4
        }
      ]
    },
    {
      "name": "Object_6",
      "primitives": [
        {
          "attributes": {
            "NORMAL": 33,
            "POSITION": 32,
            "TEXCOORD_0": 34,
            "TEXCOORD_1": 35
          },
          "indices": 36,
          "material": 5,
          "mode": 4
        }
      ]
    },
    {
      "name": "Object_7",
      "primitives": [
        {
          "attributes": {
            "NORMAL": 38,
            "POSITION": 37,
            "TEXCOORD_0": 39
          },
          "indices": 40,
          "material": 6,
          "mode": 4
        }
      ]
    },
    {
      "name": "Object_8",
      "primitives": [
        {
          "attributes": {
            "NORMAL": 42,
            "POSITION": 41,
            "TEXCOORD_0": 43
          },
          "indices": 44,
          "material": 7,
          "mode": 4
        }
      ]
    }
  ],
  "nodes": [
    {
      "children": [
        1
      ],
      "matrix": [
        1.0,
        0.0,
        0.0,
        0.0,
        0.0,
        2.220446049250313e-16,
        -1.0,
        0.0,
        0.0,
        1.0,
        2.220446049250313e-16,
        0.0,
        0.0,
        0.0,
        0.0,
        1.0
      ],
      "name": "Sketchfab_model"
    },
    {
      "children": [
        2
      ],
      "name": "root"
    },
    {
      "children": [
        3
      ],
      "matrix": [
        1.0,
        0.0,
        0.0,
        0.0,
        0.0,
        2.220446049250313e-16,
        1.0,
        0.0,
        0.0,
        -1.0,
        2.220446049250313e-16,
        0.0,
        0.0,
        0.0,
        0.0,
        1.0
      ],
      "name": "GLTF_SceneRootNode"
    },
    {
      "children": [
        4,
        5,
        6,
        7,
        8,
        9,
        10,
        11
      ],
      "name": "Building_1"
    },
    {
      "mesh": 0,
      "name": "Object_4"
    },
    {
      "mesh": 1,
      "name": "Object_5"
    },
    {
      "mesh": 2,
      "name": "Object_6"
    },
    {
      "mesh": 3,
      "name": "Object_7"
    },
    {
      "mesh": 4,
      "name": "Object_8"
    },
    {
      "mesh": 5,
      "name": "Object_9"
    },
    {
      "mesh": 6,
      "name": "Object_10"
    },
    {
      "children": [
        12,
        13
      ],
      "name": "Cube.001_0"
    },
    {
      "mesh": 7,
      "name": "Object_12"
    },
    {
      "mesh": 8,
      "name": "Object_13"
    }
  ],
  "samplers": [
    {
      "magFilter": 9729,
      "minFilter": 9987,
      "wrapS": 10497,
      "wrapT": 10497
    }
  ],
  "scene": 0,
  "scenes": [
    {
      "name": "Sketchfab_Scene",
      "nodes": [
        0
      ]
    }
  ],
  "textures": [
    {
      "sampler": 0,
      "source": 0
    },
    {
      "sampler": 0,
      "source": 1
    }
  ]
}
