{
  "accessors": [
    {
      "bufferView": 2,
      "componentType": 5126,
      "count": 14,
      "max": [
        1.009047269821167,
        0.0,
        2.5763282775878906
      ],
      "min": [
        -1.009047269821167,
        0.0,
        -2.8025283813476563
      ],
      "type": "VEC3"
    },
    {
      "bufferView": 2,
      "byteOffset": 168,
      "componentType": 5126,
      "count": 14,
      "max": [
        0.0,
        1.0,
        0.0
      ],
      "min": [
        0.0,
        1.0,
        0.0
      ],
      "type": "VEC3"
    },
    {
      "bufferView": 1,
      "componentType": 5126,
      "count": 14,
      "max": [
        0.9697730541229248,
        0.6293366551399231
      ],
      "min": [
        0.9574557542800903,
        0.6248546242713928
      ],
      "type": "VEC2"
    },
    {
      "bufferView": 0,
      "componentType": 5125,
      "count": 36,
      "type": "SCALAR"
    },
    {
      "bufferView": 2,
      "byteOffset": 336,
      "componentType": 5126,
      "count": 275,
      "max": [
        1.0587797164916992,
        1.4013957977294922,
        2.625466823577881
      ],
      "min": [
        -1.0587797164916992,
        0.17243576049804688,
        -2.7953407764434814
      ],
      "type": "VEC3"
    },
    {
      "bufferView": 2,
      "byteOffset": 3636,
      "componentType": 5126,
      "count": 275,
      "max": [
        0.9998769760131836,
        0.9995852112770081,
        0.9507035613059998
      ],
      "min": [
        -0.9998769760131836,
        -0.9844895601272583,
        -0.9940304160118103
      ],
      "type": "VEC3"
    },
    {
      "bufferView": 3,
      "componentType": 5126,
      "count": 275,
      "max": [
        1.0,
        1.0,
        1.0,
        1.0
      ],
      "min": [
        0.07450980693101883,
        0.07450980693101883,
        0.07450980693101883,
        1.0
      ],
      "type": "VEC4"
    },
    {
      "bufferView": 1,
      "byteOffset": 112,
      "componentType": 5126,
      "count": 275,
      "max": [
        0.99609375,
        0.9921875
      ],
      "min": [
        0.0078125,
        0.0078125
      ],
      "type": "VEC2"
    },
    {
      "bufferView": 0,
      "byteOffset": 144,
      "componentType": 5125,
      "count": 978,
      "type": "SCALAR"
    },
    {
      "bufferView": 2,
      "byteOffset": 6936,
      "componentType": 5126,
      "count": 90,
      "max": [
        0.9860301613807678,
        0.7888678908348083,
        2.5356719493865967
      ],
      "min": [
        -0.9860301613807678,
        0.17243576049804688,
        -2.7685394287109375
      ],
      "type": "VEC3"
    },
    {
      "bufferView": 2,
      "byteOffset": 8016,
      "componentType": 5126,
      "count": 90,
      "max": [
        0.9280080199241638,
        0.9862095713615417,
        0.9852344393730164
      ],
      "min": [
        -0.9280080199241638,
        -0.9999762773513794,
        -0.9912421703338623
      ],
      "type": "VEC3"
    },
    {
      "bufferView": 1,
      "byteOffset": 2312,
      "componentType": 5126,
      "count": 90,
      "max": [
        0.9891948699951172,
        0.7062067985534668
      ],
      "min": [
        0.35717815160751343,
        0.38364309072494507
      ],
      "type": "VEC2"
    },
    {
      "bufferView": 0,
      "byteOffset": 4056,
      "componentType": 5125,
      "count": 264,
      "type": "SCALAR"
    },
    {
      "bufferView": 2,
      "byteOffset": 9096,
      "componentType": 5126,
      "count": 105,
      "max": [
        0.12405938655138016,
        0.3360217213630676,
        0.3360217213630676
      ],
      "min": [
        -0.14990702271461487,
        -0.3360217213630676,
        -0.3360217213630676
      ],
      "type": "VEC3"
    },
    {
      "bufferView": 2,
      "byteOffset": 10356,
      "componentType": 5126,
      "count": 105,
      "max": [
        1.0,
        1.0,
        1.0
      ],
      "min": [
        -1.0,
        -1.0,
        -1.0
      ],
      "type": "VEC3"
    },
    {
      "bufferView": 3,
      "byteOffset": 4400,
      "componentType": 5126,
      "count": 105,
      "max": [
        1.0,
        1.0,
        1.0,
        1.0
      ],
      "min": [
        0.250980406999588,
        0.250980406999588,
        0.250980406999588,
        1.0
      ],
      "type": "VEC4"
    },
    {
      "bufferView": 1,
      "byteOffset": 3032,
      "componentType": 5126,
      "count": 105,
      "max": [
        0.99609375,
        0.640520453453064
      ],
      "min": [
        0.7549999952316284,
        0.009999990463256836
      ],
      "type": "VEC2"
    },
    {
      "bufferView": 0,
      "byteOffset": 5112,
      "componentType": 5125,
      "count": 234,
      "type": "SCALAR"
    },
    {
      "bufferView": 2,
      "byteOffset": 11616,
      "componentType": 5126,
      "count": 105,
      "max": [
        0.12405938655138016,
        0.3360217213630676,
        0.3360217213630676
      ],
      "min": [
        -0.14990702271461487,
        -0.3360217213630676,
        -0.3360217213630676
      ],
      "type": "VEC3"
    },
    {
      "bufferView": 2,
      "byteOffset": 12876,
      "componentType": 5126,
      "count": 105,
      "max": [
        1.0,
        1.0,
        1.0
      ],
      "min": [
        -1.0,
        -1.0,
        -1.0
      ],
      "type": "VEC3"
    },
    {
      "bufferView": 3,
      "byteOffset": 6080,
      "componentType": 5126,
      "count": 105,
      "max": [
        1.0,
        1.0,
        1.0,
        1.0
      ],
      "min": [
        0.250980406999588,
        0.250980406999588,
        0.250980406999588,
        1.0
      ],
      "type": "VEC4"
    },
    {
      "bufferView": 1,
      "byteOffset": 3872,
      "componentType": 5126,
      "count": 105,
      "max": [
        0.99609375,
        0.640520453453064
      ],
      "min": [
        0.7549999952316284,
        0.009999990463256836
      ],
      "type": "VEC2"
    },
    {
      "bufferView": 0,
      "byteOffset": 6048,
      "componentType": 5125,
      "count": 234,
      "type": "SCALAR"
    },
    {
      "bufferView": 2,
      "byteOffset": 14136,
      "componentType": 5126,
      "count": 105,
      "max": [
        0.12405938655138016,
        0.3360217213630676,
        0.3360217213630676
      ],
      "min": [
        -0.14990702271461487,
        -0.3360217213630676,
        -0.3360217213630676
      ],
      "type": "VEC3"
    },
    {
      "bufferView": 2,
      "byteOffset": 15396,
      "componentType": 5126,
      "count": 105,
      "max": [
        1.0,
        1.0,
        1.0
      ],
      "min": [
        -1.0,
        -1.0,
        -1.0
      ],
      "type": "VEC3"
    },
    {
      "bufferView": 3,
      "byteOffset": 7760,
      "componentType": 5126,
      "count": 105,
      "max": [
        1.0,
        1.0,
        1.0,
        1.0
      ],
      "min": [
        0.250980406999588,
        0.250980406999588,
        0.250980406999588,
        1.0
      ],
      "type": "VEC4"
    },
    {
      "bufferView": 1,
      "byteOffset": 4712,
      "componentType": 5126,
      "count": 105,
      "max": [
        0.99609375,
        0.640520453453064
      ],
      "min": [
        0.7549999952316284,
        0.009999990463256836
      ],
      "type": "VEC2"
    },
    {
      "bufferView": 0,
      "byteOffset": 6984,
      "componentType": 5125,
      "count": 234,
      "type": "SCALAR"
    },
    {
      "bufferView": 2,
      "byteOffset": 16656,
      "componentType": 5126,
      "count": 105,
      "max": [
        0.12405938655138016,
        0.3360217213630676,
        0.3360217213630676
      ],
      "min": [
        -0.14990702271461487,
        -0.3360217213630676,
        -0.3360217213630676
      ],
      "type": "VEC3"
    },
    {
      "bufferView": 2,
      "byteOffset": 17916,
      "componentType": 5126,
      "count": 105,
      "max": [
        1.0,
        1.0,
        1.0
      ],
      "min": [
        -1.0,
        -1.0,
        -1.0
      ],
      "type": "VEC3"
    },
    {
      "bufferView": 3,
      "byteOffset": 9440,
      "componentType": 5126,
      "count": 105,
      "max": [
        1.0,
        1.0,
        1.0,
        1.0
      ],
      "min": [
        0.250980406999588,
        0.250980406999588,
        0.250980406999588,
        1.0
      ],
      "type": "VEC4"
    },
    {
      "bufferView": 1,
      "byteOffset": 5552,
      "componentType": 5126,
      "count": 105,
      "max": [
        0.99609375,
        0.640520453453064
      ],
      "min": [
        0.7549999952316284,
        0.009999990463256836
      ],
      "type": "VEC2"
    },
    {
      "bufferView": 0,
      "byteOffset": 7920,
      "componentType": 5125,
      "count": 234,
      "type": "SCALAR"
    }
  ],
  "asset": {
    "extras": {
      "author": "Aike (https://sketchfab.com/anathlyst)",
      "license": "SKETCHFAB Standard (https://sketchfab.com/licenses)",
      "source": "https://sketchfab.com/3d-models/ps1-gt1-style-model-1997-dale-aristocrat-e4cf08baa46548e58e96413663daffee",
      "title": "PS1 GT1-Style Model - 1997 Dale Aristocrat"
    },
    "generator": "Sketchfab-16.21.0",
    "version": "2.0"
  },
  "bufferViews": [
    {
      "buffer": 0,
      "byteLength": 8856,
      "name": "floatBufferViews",
      "target": 34963
    },
    {
      "buffer": 0,
      "byteLength": 6392,
      "byteOffset": 8856,
      "byteStride": 8,
      "name": "floatBufferViews",
      "target": 34962
    },
    {
      "buffer": 0,
      "byteLength": 19176,
      "byteOffset": 15248,
      "byteStride": 12,
      "name": "floatBufferViews",
      "target": 34962
    },
    {
      "buffer": 0,
      "byteLength": 11120,
      "byteOffset": 34424,
      "byteStride": 16,
      "name": "floatBufferViews",
      "target": 34962
    }
  ],
  "buffers": [
    {
      "byteLength": 45544,
      "uri": "scene.bin"
    }
  ],
  "extensionsUsed": [
    "KHR_texture_transform",
    "KHR_materials_specular"
  ],
  "images": [
    {
      "uri": "textures/DaleAristocrat_PS1_baseColor.png"
    },
    {
      "uri": "textures/DaleAristocrat_PS1_specularf0.png"
    }
  ],
  "materials": [
    {
      "extensions": {
        "KHR_materials_specular": {
          "specularColorFactor": [
            1.0,
            1.0,
            1.0
          ],
          "specularFactor": 0.02,
          "specularTexture": {
            "index": 1
          }
        }
      },
      "name": "DaleAristocrat_PS1",
      "pbrMetallicRoughness": {
        "baseColorTexture": {
          "extensions": {
            "KHR_texture_transform": {
              "scale": [
                1,
                -0.9999999999999996
              ]
            }
          },
          "index": 0
        },
        "metallicFactor": 0.0,
        "roughnessFactor": 0.1
      }
    }
  ],
  "meshes": [
    {
      "name": "Object_0",
      "primitives": [
        {
          "attributes": {
            "NORMAL": 1,
            "POSITION": 0,
            "TEXCOORD_0": 2
          },
          "indices": 3,
          "material": 0,
          "mode": 4
        }
      ]
    },
    {
      "name": "Object_1",
      "primitives": [
        {
          "attributes": {
            "COLOR_0": 6,
            "NORMAL": 5,
            "POSITION": 4,
            "TEXCOORD_0": 7
          },
          "indices": 8,
          "material": 0,
          "mode": 4
        }
      ]
    },
    {
      "name": "Object_2",
      "primitives": [
        {
          "attributes": {
            "NORMAL": 10,
            "POSITION": 9,
            "TEXCOORD_0": 11
          },
          "indices": 12,
          "material": 0,
          "mode": 4
        }
      ]
    },
    {
      "name": "Object_3",
      "primitives": [
        {
          "attributes": {
            "COLOR_0": 15,
            "NORMAL": 14,
            "POSITION": 13,
            "TEXCOORD_0": 16
          },
          "indices": 17,
          "material": 0,
          "mode": 4
        }
      ]
    },
    {
      "name": "Object_4",
      "primitives": [
        {
          "attributes": {
            "COLOR_0": 20,
            "NORMAL": 19,
            "POSITION": 18,
            "TEXCOORD_0": 21
          },
          "indices": 22,
          "material": 0,
          "mode": 4
        }
      ]
    },
    {
      "name": "Object_5",
      "primitives": [
        {
          "attributes": {
            "COLOR_0": 25,
            "NORMAL": 24,
            "POSITION": 23,
            "TEXCOORD_0": 26
          },
          "indices": 27,
          "material": 0,
          "mode": 4
        }
      ]
    },
    {
      "name": "Object_6",
      "primitives": [
        {
          "attributes": {
            "COLOR_0": 30,
            "NORMAL": 29,
            "POSITION": 28,
            "TEXCOORD_0": 31
          },
          "indices": 32,
          "material": 0,
          "mode": 4
        }
      ]
    }
  ],
  "nodes": [
    {
      "children": [
        1
      ],
      "matrix": [
        1.0,
        0.0,
        0.0,
        0.0,
        0.0,
        2.220446049250313e-16,
        -1.0,
        0.0,
        0.0,
        1.0,
        2.220446049250313e-16,
        0.0,
        0.0,
        0.0,
        0.0,
        1.0
      ],
      "name": "Sketchfab_model"
    },
    {
      "children": [
        2
      ],
      "name": "root"
    },
    {
      "children": [
        3,
        5,
        9,
        11,
        13,
        15
      ],
      "matrix": [
        1.0,
        0.0,
        0.0,
        0.0,
        0.0,
        2.220446049250313e-16,
        1.0,
        0.0,
        0.0,
        -1.0,
        2.220446049250313e-16,
        0.0,
        0.0,
        0.0,
        0.0,
        1.0
      ],
      "name": "GLTF_SceneRootNode"
    },
    {
      "children": [
        4
      ],
      "name": "Plane_0"
    },
    {
      "mesh": 0,
      "name": "Object_4"
    },
    {
      "children": [
        6,
        7
      ],
      "matrix": [
        1.0,
        0.0,
        0.0,
        0.0,
        0.0,
        1.0,
        0.0,
        0.0,
        0.0,
        0.0,
        1.0,
        0.0,
        0.0,
        0.014685453847050667,
        0.0,
        1.0
      ],
      "name": "DA_PS1.004_2"
    },
    {
      "mesh": 1,
      "name": "Object_6"
    },
    {
      "children": [
        8
      ],
      "name": "DA_Misc_PS1.002_1"
    },
    {
      "mesh": 2,
      "name": "Object_8"
    },
    {
      "children": [
        10
      ],
      "matrix": [
        1.0,
        0.0,
        0.0,
        0.0,
        0.0,
        1.0,
        0.0,
        0.0,
        0.0,
        0.0,
        1.0,
        0.0,
        0.8299999833106995,
        0.30162546038627625,
        1.5515300035476685,
        1.0
      ],
      "name": "Wheel_DA_PS1_FL_3"
    },
    {
      "mesh": 3,
      "name": "Object_10"
    },
    {
      "children": [
        12
      ],
      "matrix": [
        -0.9999999999999467,
        0.0,
        3.258413698858844e-07,
        0.0,
        -0.0,
        1.0,
        0.0,
        0.0,
        -3.258413698858844e-07,
        0.0,
        -0.9999999999999467,
        0.0,
        -0.8299999833106995,
        0.30162546038627625,
        1.5515300035476685,
        1.0
      ],
      "name": "Wheel_DA_PS1_FR_4"
    },
    {
      "mesh": 4,
      "name": "Object_12"
    },
    {
      "children": [
        14
      ],
      "matrix": [
        1.0,
        0.0,
        0.0,
        0.0,
        0.0,
        1.0,
        0.0,
        0.0,
        0.0,
        0.0,
        1.0,
        0.0,
        0.8299999833106995,
        0.30162546038627625,
        -1.4574899673461914,
        1.0
      ],
      "name": "Wheel_DA_PS1_RL_5"
    },
    {
      "mesh": 5,
      "name": "Object_14"
    },
    {
      "children": [
        16
      ],
      "matrix": [
        -0.9999999999999467,
        0.0,
        3.258413698858844e-07,
        0.0,
        -0.0,
        1.0,
        0.0,
        0.0,
        -3.258413698858844e-07,
        0.0,
        -0.9999999999999467,
        0.0,
        -0.8299999833106995,
        0.30162546038627625,
        -1.4574899673461914,
        1.0
      ],
      "name": "Wheel_DA_PS1_RR_6"
    },
    {
      "mesh": 6,
      "name": "Object_16"
    }
  ],
  "samplers": [
    {
      "magFilter": 9728,
      "minFilter": 9728,
      "wrapS": 10497,
      "wrapT": 10497
    }
  ],
  "scene": 0,
  "scenes": [
    {
      "name": "Sketchfab_Scene",
      "nodes": [
        0
      ]
    }
  ],
  "textures": [
    {
      "sampler": 0,
      "source": 0
    },
    {
      "sampler": 0,
      "source": 1
    }
  ]
}
