{
  "accessors": [
    {
      "bufferView": 2,
      "componentType": 5126,
      "count": 6020,
      "max": [
        1.548261046409607,
        2.3913090229034424,
        3.0067179203033447
      ],
      "min": [
        -3.8284270763397217,
        -0.0,
        -3.0067179203033447
      ],
      "type": "VEC3"
    },
    {
      "bufferView": 2,
      "byteOffset": 72240,
      "componentType": 5126,
      "count": 6020,
      "max": [
        1.0,
        1.0,
        1.0
      ],
      "min": [
        -1.0,
        -1.0,
        -1.0
      ],
      "type": "VEC3"
    },
    {
      "bufferView": 1,
      "componentType": 5126,
      "count": 6020,
      "max": [
        0.469543993473053,
        0.9075279831886292
      ],
      "min": [
        0.0,
        0.0
      ],
      "type": "VEC2"
    },
    {
      "bufferView": 0,
      "componentType": 5125,
      "count": 10896,
      "type": "SCALAR"
    },
    {
      "bufferView": 2,
      "byteOffset": 144480,
      "componentType": 5126,
      "count": 1371,
      "max": [
        1.5704410076141357,
        3.0805869102478027,
        0.8618180155754089
      ],
      "min": [
        1.3126089572906494,
        2.388957977294922,
        -0.8618180155754089
      ],
      "type": "VEC3"
    },
    {
      "bufferView": 2,
      "byteOffset": 160932,
      "componentType": 5126,
      "count": 1371,
      "max": [
        1.0,
        1.0,
        1.0
      ],
      "min": [
        -1.0,
        -1.0,
        -1.0
      ],
      "type": "VEC3"
    },
    {
      "bufferView": 1,
      "byteOffset": 48160,
      "componentType": 5126,
      "count": 1371,
      "max": [
        0.34286001324653625,
        0.5954480171203613
      ],
      "min": [
        0.033326998353004456,
        0.0302910003811121
      ],
      "type": "VEC2"
    },
    {
      "bufferView": 0,
      "byteOffset": 43584,
      "componentType": 5125,
      "count": 3768,
      "type": "SCALAR"
    },
    {
      "bufferView": 2,
      "byteOffset": 177384,
      "componentType": 5126,
      "count": 19555,
      "max": [
        1.7281450033187866,
        0.44979900121688843,
        2.648792028427124
      ],
      "min": [
        -0.2610889971256256,
        -4.866160452365875e-07,
        -3.000830888748169
      ],
      "type": "VEC3"
    },
    {
      "bufferView": 2,
      "byteOffset": 412044,
      "componentType": 5126,
      "count": 19555,
      "max": [
        0.9999932050704956,
        1.0,
        0.9999932050704956
      ],
      "min": [
        -0.9999932050704956,
        -1.0,
        -0.9999932050704956
      ],
      "type": "VEC3"
    },
    {
      "bufferView": 1,
      "byteOffset": 59128,
      "componentType": 5126,
      "count": 19555,
      "max": [
        0.9709320068359375,
        0.5945619940757751
      ],
      "min": [
        0.9092519879341125,
        0.5945109724998474
      ],
      "type": "VEC2"
    },
    {
      "bufferView": 0,
      "byteOffset": 58656,
      "componentType": 5125,
      "count": 31464,
      "type": "SCALAR"
    },
    {
      "bufferView": 2,
      "byteOffset": 646704,
      "componentType": 5126,
      "count": 2260,
      "max": [
        1.4273170232772827,
        0.6651290059089661,
        2.78164005279541
      ],
      "min": [
        -0.7302169799804688,
        -0.000387999985832721,
        -2.790731906890869
      ],
      "type": "VEC3"
    },
    {
      "bufferView": 2,
      "byteOffset": 673824,
      "componentType": 5126,
      "count": 2260,
      "max": [
        1.0,
        1.0,
        1.0
      ],
      "min": [
        -1.0,
        -1.0,
        -1.0
      ],
      "type": "VEC3"
    },
    {
      "bufferView": 1,
      "byteOffset": 215568,
      "componentType": 5126,
      "count": 2260,
      "max": [
        0.8443620204925537,
        0.5956869721412659
      ],
      "min": [
        0.7202399969100952,
        0.5917969942092896
      ],
      "type": "VEC2"
    },
    {
      "bufferView": 0,
      "byteOffset": 184512,
      "componentType": 5125,
      "count": 9168,
      "type": "SCALAR"
    },
    {
      "bufferView": 2,
      "byteOffset": 700944,
      "componentType": 5126,
      "count": 624,
      "max": [
        2.069952964782715,
        0.5589780211448669,
        -0.5113610029220581
      ],
      "min": [
        1.5884989500045776,
        0.00023600000713486224,
        -1.0145289897918701
      ],
      "type": "VEC3"
    },
    {
      "bufferView": 2,
      "byteOffset": 708432,
      "componentType": 5126,
      "count": 624,
      "max": [
        0.8369497656822205,
        0.9886259436607361,
        0.7990111112594604
      ],
      "min": [
        -0.8370569348335266,
        -1.0,
        -0.7989960312843323
      ],
      "type": "VEC3"
    },
    {
      "bufferView": 1,
      "byteOffset": 233648,
      "componentType": 5126,
      "count": 624,
      "max": [
        0.15679199993610382,
        0.5324280261993408
      ],
      "min": [
        0.03402400016784668,
        0.5313829779624939
      ],
      "type": "VEC2"
    },
    {
      "bufferView": 0,
      "byteOffset": 221184,
      "componentType": 5125,
      "count": 864,
      "type": "SCALAR"
    },
    {
      "bufferView": 2,
      "byteOffset": 715920,
      "componentType": 5126,
      "count": 1991,
      "max": [
        2.0755159854888916,
        3.0153303146362305,
        3.0826914310455322
      ],
      "min": [
        -3.832200050354004,
        -3.012824535369873,
        0.0
      ],
      "type": "VEC3"
    },
    {
      "bufferView": 2,
      "byteOffset": 739812,
      "componentType": 5126,
      "count": 1991,
      "max": [
        1.0,
        1.0,
        1.0
      ],
      "min": [
        -1.0,
        -1.0,
        -1.0
      ],
      "type": "VEC3"
    },
    {
      "bufferView": 1,
      "byteOffset": 238640,
      "componentType": 5126,
      "count": 1991,
      "max": [
        1.0,
        1.0005840063095093
      ],
      "min": [
        -8.940696716308594e-08,
        0.0
      ],
      "type": "VEC2"
    },
    {
      "bufferView": 0,
      "byteOffset": 224640,
      "componentType": 5125,
      "count": 3132,
      "type": "SCALAR"
    }
  ],
  "asset": {
    "extras": {
      "author": "assetfactory (https://sketchfab.com/assetfactory)",
      "license": "SKETCHFAB Standard (https://sketchfab.com/licenses)",
      "source": "https://sketchfab.com/3d-models/low-poly-cafe-c9ab7a69f9c94e4784c5bb085b4b07b4",
      "title": "Low poly cafe"
    },
    "generator": "Sketchfab-16.33.0",
    "version": "2.0"
  },
  "bufferViews": [
    {
      "buffer": 0,
      "byteLength": 237168,
      "name": "floatBufferViews",
      "target": 34963
    },
    {
      "buffer": 0,
      "byteLength": 254568,
      "byteOffset": 237168,
      "byteStride": 8,
      "name": "floatBufferViews",
      "target": 34962
    },
    {
      "buffer": 0,
      "byteLength": 763704,
      "byteOffset": 491736,
      "byteStride": 12,
      "name": "floatBufferViews",
      "target": 34962
    }
  ],
  "buffers": [
    {
      "byteLength": 1255440,
      "uri": "scene.bin"
    }
  ],
  "images": [
    {
      "uri": "textures/Texture_buildings1_baseColor.png"
    }
  ],
  "materials": [
    {
      "doubleSided": true,
      "name": "Texture_buildings1",
      "pbrMetallicRoughness": {
        "baseColorTexture": {
          "index": 0
        },
        "metallicFactor": 0.0,
        "roughnessFactor": 0.8611067128702585
      }
    },
    {
      "alphaMode": "BLEND",
      "doubleSided": true,
      "name": "Collider",
      "pbrMetallicRoughness": {
        "baseColorFactor": [
          0.8,
          0.8,
          0.8,
          0.0
        ],
        "metallicFactor": 0.0,
        "roughnessFactor": 0.0
      }
    }
  ],
  "meshes": [
    {
      "name": "CafeBuilding_Texture_buildings1_0",
      "primitives": [
        {
          "attributes": {
            "NORMAL": 1,
            "POSITION": 0,
            "TEXCOORD_0": 2
          },
          "indices": 3,
          "material": 0,
          "mode": 4
        }
      ]
    },
    {
      "name": "CafeCafe_Texture_buildings1_0",
      "primitives": [
        {
          "attributes": {
            "NORMAL": 5,
            "POSITION": 4,
            "TEXCOORD_0": 6
          },
          "indices": 7,
          "material": 0,
          "mode": 4
        }
      ]
    },
    {
      "name": "CafeTables_Texture_buildings1_0",
      "primitives": [
        {
          "attributes": {
            "NORMAL": 9,
            "POSITION": 8,
            "TEXCOORD_0": 10
          },
          "indices": 11,
          "material": 0,
          "mode": 4
        }
      ]
    },
    {
      "name": "CafePlants_Texture_buildings1_0",
      "primitives": [
        {
          "attributes": {
            "NORMAL": 13,
            "POSITION": 12,
            "TEXCOORD_0": 14
          },
          "indices": 15,
          "material": 0,
          "mode": 4
        }
      ]
    },
    {
      "name": "CafeBoard_Texture_buildings1_0",
      "primitives": [
        {
          "attributes": {
            "NORMAL": 17,
            "POSITION": 16,
            "TEXCOORD_0": 18
          },
          "indices": 19,
          "material": 0,
          "mode": 4
        }
      ]
    },
    {
      "name": "Collider_Collider_0",
      "primitives": [
        {
          "attributes": {
            "NORMAL": 21,
            "POSITION": 20,
            "TEXCOORD_0": 22
          },
          "indices": 23,
          "material": 1,
          "mode": 4
        }
      ]
    }
  ],
  "nodes": [
    {
      "children": [
        1
      ],
      "matrix": [
        2.220446049250313e-16,
        -2.220446049250313e-16,
        1.0,
        0.0,
        1.0,
        4.930380657631324e-32,
        -2.220446049250313e-16,
        0.0,
        0.0,
        1.0,
        2.220446049250313e-16,
        0.0,
        0.0,
        0.0,
        0.0,
        1.0
      ],
      "name": "Sketchfab_model"
    },
    {
      "children": [
        2
      ],
      "matrix": [
        0.009999999776482582,
        0.0,
        0.0,
        0.0,
        0.0,
        0.0,
        0.009999999776482582,
        0.0,
        0.0,
        -0.009999999776482582,
        0.0,
        0.0,
        0.0,
        0.0,
        0.0,
        1.0
      ],
      "name": "BusinessBuilding_CafeC.fbx"
    },
    {
      "children": [
        3,
        5,
        7,
        9,
        11,
        13
      ],
      "name": "RootNode"
    },
    {
      "children": [
        4
      ],
      "matrix": [
        100.0,
        0.0,
        0.0,
        0.0,
        0.0,
        99.99999999999866,
        1.6292067073209114e-05,
        0.0,
        0.0,
        -1.6292067073209114e-05,
        99.99999999999866,
        0.0,
        0.0,
        0.0,
        0.0,
        1.0
      ],
      "name": "CafeBuilding"
    },
    {
      "mesh": 0,
      "name": "CafeBuilding_Texture_buildings1_0"
    },
    {
      "children": [
        6
      ],
      "matrix": [
        100.0,
        0.0,
        0.0,
        0.0,
        0.0,
        99.99999999999866,
        1.6292067073209114e-05,
        0.0,
        0.0,
        -1.6292067073209114e-05,
        99.99999999999866,
        0.0,
        0.0,
        0.0,
        0.0,
        1.0
      ],
      "name": "CafeCafe"
    },
    {
      "mesh": 1,
      "name": "CafeCafe_Texture_buildings1_0"
    },
    {
      "children": [
        8
      ],
      "matrix": [
        100.0,
        0.0,
        0.0,
        0.0,
        0.0,
        99.99999999999866,
        1.6292067073209114e-05,
        0.0,
        0.0,
        -1.6292067073209114e-05,
        99.99999999999866,
        0.0,
        0.0,
        0.0,
        0.0,
        1.0
      ],
      "name": "CafeTables"
    },
    {
      "mesh": 2,
      "name": "CafeTables_Texture_buildings1_0"
    },
    {
      "children": [
        10
      ],
      "matrix": [
        100.0,
        0.0,
        0.0,
        0.0,
        0.0,
        99.99999999999866,
        1.6292067073209114e-05,
        0.0,
        0.0,
        -1.6292067073209114e-05,
        99.99999999999866,
        0.0,
        0.0,
        0.0,
        0.0,
        1.0
      ],
      "name": "CafePlants"
    },
    {
      "mesh": 3,
      "name": "CafePlants_Texture_buildings1_0"
    },
    {
      "children": [
        12
      ],
      "matrix": [
        100.0,
        0.0,
        0.0,
        0.0,
        0.0,
        99.99999999999866,
        1.6292067073209114e-05,
        0.0,
        0.0,
        -1.6292067073209114e-05,
        99.99999999999866,
        0.0,
        0.0,
        0.0,
        0.0,
        1.0
      ],
      "name": "CafeBoard"
    },
    {
      "mesh": 4,
      "name": "CafeBoard_Texture_buildings1_0"
    },
    {
      "children": [
        14
      ],
      "matrix": [
        100.0,
        0.0,
        0.0,
        0.0,
        0.0,
        -1.629206793918314e-05,
        -99.99999999999868,
        0.0,
        0.0,
        99.99999999999868,
        -1.629206793918314e-05,
        0.0,
        0.0,
        0.0,
        0.0,
        1.0
      ],
      "name": "Collider"
    },
    {
      "mesh": 5,
      "name": "Collider_Collider_0"
    }
  ],
  "samplers": [
    {
      "magFilter": 9729,
      "minFilter": 9987,
      "wrapS": 10497,
      "wrapT": 10497
    }
  ],
  "scene": 0,
  "scenes": [
    {
      "name": "Sketchfab_Scene",
      "nodes": [
        0
      ]
    }
  ],
  "textures": [
    {
      "sampler": 0,
      "source": 0
    }
  ]
}
