{
  "accessors": [
    {
      "bufferView": 2,
      "componentType": 5126,
      "count": 24,
      "max": [
        1.0,
        1.0,
        1.0
      ],
      "min": [
        -1.0,
        -1.0,
        -1.0
      ],
      "type": "VEC3"
    },
    {
      "bufferView": 2,
      "byteOffset": 288,
      "componentType": 5126,
      "count": 24,
      "max": [
        1.0,
        1.0,
        1.0
      ],
      "min": [
        -1.0,
        -1.0,
        -1.0
      ],
      "type": "VEC3"
    },
    {
      "bufferView": 1,
      "componentType": 5126,
      "count": 24,
      "max": [
        0.9979752898216248,
        0.8030710220336914
      ],
      "min": [
        0.00202485010959208,
        0.04683560132980347
      ],
      "type": "VEC2"
    },
    {
      "bufferView": 0,
      "componentType": 5125,
      "count": 36,
      "type": "SCALAR"
    },
    {
      "bufferView": 2,
      "byteOffset": 576,
      "componentType": 5126,
      "count": 56,
      "max": [
        1.0,
        1.0,
        1.6430989503860474
      ],
      "min": [
        -1.0,
        -1.0,
        -1.0
      ],
      "type": "VEC3"
    },
    {
      "bufferView": 2,
      "byteOffset": 1248,
      "componentType": 5126,
      "count": 56,
      "max": [
        1.0,
        1.0,
        1.0
      ],
      "min": [
        -1.0,
        -1.0,
        -1.0
      ],
      "type": "VEC3"
    },
    {
      "bufferView": 1,
      "byteOffset": 192,
      "componentType": 5126,
      "count": 56,
      "max": [
        0.944183886051178,
        0.75
      ],
      "min": [
        0.04039446637034416,
        0.13588450849056244
      ],
      "type": "VEC2"
    },
    {
      "bufferView": 0,
      "byteOffset": 144,
      "componentType": 5125,
      "count": 84,
      "type": "SCALAR"
    },
    {
      "bufferView": 2,
      "byteOffset": 1920,
      "componentType": 5126,
      "count": 24,
      "max": [
        1.0,
        1.0,
        1.0
      ],
      "min": [
        -1.0,
        -1.0,
        -1.0
      ],
      "type": "VEC3"
    },
    {
      "bufferView": 2,
      "byteOffset": 2208,
      "componentType": 5126,
      "count": 24,
      "max": [
        1.0,
        1.0,
        1.0
      ],
      "min": [
        -1.0,
        -1.0,
        -1.0
      ],
      "type": "VEC3"
    },
    {
      "bufferView": 1,
      "byteOffset": 640,
      "componentType": 5126,
      "count": 24,
      "max": [
        0.875,
        0.75
      ],
      "min": [
        0.125,
        0.39548158645629883
      ],
      "type": "VEC2"
    },
    {
      "bufferView": 0,
      "byteOffset": 480,
      "componentType": 5125,
      "count": 36,
      "type": "SCALAR"
    },
    {
      "bufferView": 2,
      "byteOffset": 2496,
      "componentType": 5126,
      "count": 368,
      "max": [
        12.855517387390137,
        1.0921710729599,
        1.0
      ],
      "min": [
        -1.0,
        -1.0921710729599,
        -1.008591651916504
      ],
      "type": "VEC3"
    },
    {
      "bufferView": 2,
      "byteOffset": 6912,
      "componentType": 5126,
      "count": 368,
      "max": [
        1.0,
        1.0,
        1.0
      ],
      "min": [
        -1.0,
        -1.0,
        -1.0
      ],
      "type": "VEC3"
    },
    {
      "bufferView": 1,
      "byteOffset": 832,
      "componentType": 5126,
      "count": 368,
      "max": [
        0.7663695216178894,
        0.75
      ],
      "min": [
        0.125,
        0.0
      ],
      "type": "VEC2"
    },
    {
      "bufferView": 0,
      "byteOffset": 624,
      "componentType": 5125,
      "count": 1101,
      "type": "SCALAR"
    },
    {
      "bufferView": 2,
      "byteOffset": 11328,
      "componentType": 5126,
      "count": 130,
      "max": [
        1.0,
        1.0,
        1.0
      ],
      "min": [
        -1.0,
        -1.0,
        -1.1964738368988037
      ],
      "type": "VEC3"
    },
    {
      "bufferView": 2,
      "byteOffset": 12888,
      "componentType": 5126,
      "count": 130,
      "max": [
        0.728370189666748,
        0.9402984976768494,
        0.7025351524353027
      ],
      "min": [
        -0.728370189666748,
        -0.7319807410240173,
        -0.7116070985794067
      ],
      "type": "VEC3"
    },
    {
      "bufferView": 1,
      "byteOffset": 3776,
      "componentType": 5126,
      "count": 130,
      "max": [
        0.8620179891586304,
        0.853283166885376
      ],
      "min": [
        0.14079420268535614,
        0.13537771999835968
      ],
      "type": "VEC2"
    },
    {
      "bufferView": 0,
      "byteOffset": 5028,
      "componentType": 5125,
      "count": 372,
      "type": "SCALAR"
    }
  ],
  "asset": {
    "extras": {
      "author": "SanyaKrutoy99 (https://sketchfab.com/SanyaKrutoy99)",
      "license": "SKETCHFAB Standard (https://sketchfab.com/licenses)",
      "source": "https://sketchfab.com/3d-models/pyaterochka-3d-f595b0d862aa4ba99c5bd350f881d749",
      "title": "Pyaterochka 3D"
    },
    "generator": "Sketchfab-16.21.0",
    "version": "2.0"
  },
  "bufferViews": [
    {
      "buffer": 0,
      "byteLength": 6516,
      "name": "floatBufferViews",
      "target": 34963
    },
    {
      "buffer": 0,
      "byteLength": 4816,
      "byteOffset": 6516,
      "byteStride": 8,
      "name": "floatBufferViews",
      "target": 34962
    },
    {
      "buffer": 0,
      "byteLength": 14448,
      "byteOffset": 11332,
      "byteStride": 12,
      "name": "floatBufferViews",
      "target": 34962
    }
  ],
  "buffers": [
    {
      "byteLength": 25780,
      "uri": "scene.bin"
    }
  ],
  "images": [
    {
      "uri": "textures/cunstruktion_baseColor.jpeg"
    },
    {
      "uri": "textures/cunstruktion.001_baseColor.png"
    },
    {
      "uri": "textures/Material.001_baseColor.png"
    },
    {
      "uri": "textures/logo_baseColor.png"
    }
  ],
  "materials": [
    {
      "doubleSided": true,
      "name": "cunstruktion",
      "pbrMetallicRoughness": {
        "baseColorTexture": {
          "index": 0
        },
        "metallicFactor": 0.0,
        "roughnessFactor": 0.8211145618000169
      }
    },
    {
      "doubleSided": true,
      "name": "cunstruktion.001",
      "pbrMetallicRoughness": {
        "baseColorTexture": {
          "index": 1
        },
        "metallicFactor": 0.0,
        "roughnessFactor": 0.8211145618000169
      }
    },
    {
      "doubleSided": true,
      "name": "Material.001",
      "pbrMetallicRoughness": {
        "baseColorTexture": {
          "index": 2
        },
        "metallicFactor": 0.0,
        "roughnessFactor": 0.8211145618000169
      }
    },
    {
      "doubleSided": true,
      "name": "logo",
      "pbrMetallicRoughness": {
        "baseColorTexture": {
          "index": 3
        },
        "metallicFactor": 0.0,
        "roughnessFactor": 0.8211145618000169
      }
    }
  ],
  "meshes": [
    {
      "name": "Cube_cunstruktion_0",
      "primitives": [
        {
          "attributes": {
            "NORMAL": 1,
            "POSITION": 0,
            "TEXCOORD_0": 2
          },
          "indices": 3,
          "material": 0,
          "mode": 4
        }
      ]
    },
    {
      "name": "Cube.001_cunstruktion.001_0",
      "primitives": [
        {
          "attributes": {
            "NORMAL": 5,
            "POSITION": 4,
            "TEXCOORD_0": 6
          },
          "indices": 7,
          "material": 1,
          "mode": 4
        }
      ]
    },
    {
      "name": "Cube.002_cunstruktion.001_0",
      "primitives": [
        {
          "attributes": {
            "NORMAL": 9,
            "POSITION": 8,
            "TEXCOORD_0": 10
          },
          "indices": 11,
          "material": 1,
          "mode": 4
        }
      ]
    },
    {
      "name": "Cube.003_Material.001_0",
      "primitives": [
        {
          "attributes": {
            "NORMAL": 13,
            "POSITION": 12,
            "TEXCOORD_0": 14
          },
          "indices": 15,
          "material": 2,
          "mode": 4
        }
      ]
    },
    {
      "name": "Cylinder_logo_0",
      "primitives": [
        {
          "attributes": {
            "NORMAL": 17,
            "POSITION": 16,
            "TEXCOORD_0": 18
          },
          "indices": 19,
          "material": 3,
          "mode": 4
        }
      ]
    }
  ],
  "nodes": [
    {
      "children": [
        1
      ],
      "matrix": [
        1.0,
        0.0,
        0.0,
        0.0,
        0.0,
        2.220446049250313e-16,
        -1.0,
        0.0,
        0.0,
        1.0,
        2.220446049250313e-16,
        0.0,
        0.0,
        0.0,
        0.0,
        1.0
      ],
      "name": "Sketchfab_model"
    },
    {
      "children": [
        2
      ],
      "matrix": [
        0.009999999776482582,
        0.0,
        0.0,
        0.0,
        0.0,
        0.0,
        0.009999999776482582,
        0.0,
        0.0,
        -0.009999999776482582,
        0.0,
        0.0,
        0.0,
        0.0,
        0.0,
        1.0
      ],
      "name": "Pyaterka3D.fbx"
    },
    {
      "children": [
        3,
        5,
        7,
        9,
        11
      ],
      "name": "RootNode"
    },
    {
      "children": [
        4
      ],
      "matrix": [
        20.195507049560547,
        0.0,
        0.0,
        0.0,
        0.0,
        -0.0002281574645446217,
        -1400.420532226544,
        0.0,
        0.0,
        318.74386596679267,
        -5.19299671952894e-05,
        0.0,
        1003.4918823242188,
        298.2083435058594,
        0.0,
        1.0
      ],
      "name": "Cube"
    },
    {
      "mesh": 0,
      "name": "Cube_cunstruktion_0"
    },
    {
      "children": [
        6
      ],
      "matrix": [
        1195.8585205078125,
        0.0,
        0.0,
        0.0,
        -0.0,
        -0.00023620272714184042,
        -1449.802001953106,
        0.0,
        0.0,
        102.51457977294787,
        -1.6701744984176984e-05,
        0.0,
        -114.18585968017578,
        541.25048828125,
        0.0,
        1.0
      ],
      "name": "Cube.001"
    },
    {
      "mesh": 1,
      "name": "Cube.001_cunstruktion.001_0"
    },
    {
      "children": [
        8
      ],
      "matrix": [
        1138.1468505859375,
        0.0,
        0.0,
        0.0,
        -0.0,
        -0.00023103707562020537,
        -1418.0954589843564,
        0.0,
        0.0,
        320.89245605468324,
        -5.228001695214309e-05,
        0.0,
        -116.71223449707031,
        301.36627197265625,
        0.0,
        1.0
      ],
      "name": "Cube.002"
    },
    {
      "mesh": 2,
      "name": "Cube.002_cunstruktion.001_0"
    },
    {
      "children": [
        10
      ],
      "matrix": [
        22.856592178344727,
        0.0,
        0.0,
        0.0,
        0.0,
        -2.8082808243346223e-05,
        -172.37104797363054,
        0.0,
        0.0,
        196.6729431152318,
        -3.2042089510325e-05,
        0.0,
        1014.626953125,
        188.58494567871094,
        1167.7161865234375,
        1.0
      ],
      "name": "Cube.003"
    },
    {
      "mesh": 3,
      "name": "Cube.003_Material.001_0"
    },
    {
      "children": [
        12
      ],
      "matrix": [
        -1.3124844895402178e-05,
        -0.0,
        -173.84384155273386,
        -0.0,
        2.4454865913302768e-05,
        161.95726013183406,
        -1.84629100809599e-12,
        -0.0,
        -10.396190643310398,
        1.5697811137601329e-06,
        7.848905562434863e-07,
        -0.0,
        1095.758056640625,
        578.04150390625,
        536.907470703125,
        1.0
      ],
      "name": "Cylinder"
    },
    {
      "mesh": 4,
      "name": "Cylinder_logo_0"
    }
  ],
  "samplers": [
    {
      "magFilter": 9729,
      "minFilter": 9987,
      "wrapS": 10497,
      "wrapT": 10497
    }
  ],
  "scene": 0,
  "scenes": [
    {
      "name": "Sketchfab_Scene",
      "nodes": [
        0
      ]
    }
  ],
  "textures": [
    {
      "sampler": 0,
      "source": 0
    },
    {
      "sampler": 0,
      "source": 1
    },
    {
      "sampler": 0,
      "source": 2
    },
    {
      "sampler": 0,
      "source": 3
    }
  ]
}
