{
  "accessors": [
    {
      "bufferView": 2,
      "componentType": 5126,
      "count": 2493,
      "max": [
        1.383652687072754,
        1.383652687072754,
        6.555117130279541
      ],
      "min": [
        -1.383652687072754,
        -1.383652687072754,
        0.0018279789946973324
      ],
      "type": "VEC3"
    },
    {
      "bufferView": 2,
      "byteOffset": 29916,
      "componentType": 5126,
      "count": 2493,
      "max": [
        1.0,
        1.0,
        1.0
      ],
      "min": [
        -1.0,
        -1.0,
        -1.0
      ],
      "type": "VEC3"
    },
    {
      "bufferView": 1,
      "componentType": 5126,
      "count": 2493,
      "max": [
        0.9829225540161133,
        0.9835638999938965
      ],
      "min": [
        0.021203210577368736,
        0.030323505401611328
      ],
      "type": "VEC2"
    },
    {
      "bufferView": 0,
      "componentType": 5125,
      "count": 12672,
      "type": "SCALAR"
    }
  ],
  "asset": {
    "extras": {
      "author": "89120 (https://sketchfab.com/89120)",
      "license": "CC-BY-4.0 (http://creativecommons.org/licenses/by/4.0/)",
      "source": "https://sketchfab.com/3d-models/missile-model-murder-drones-7803ebaeda034fda92c104b794d6bbc3",
      "title": "Missile model (Murder Drones)"
    },
    "generator": "Sketchfab-15.18.0",
    "version": "2.0"
  },
  "bufferViews": [
    {
      "buffer": 0,
      "byteLength": 50688,
      "name": "floatBufferViews",
      "target": 34963
    },
    {
      "buffer": 0,
      "byteLength": 19944,
      "byteOffset": 50688,
      "byteStride": 8,
      "name": "floatBufferViews",
      "target": 34962
    },
    {
      "buffer": 0,
      "byteLength": 59832,
      "byteOffset": 70632,
      "byteStride": 12,
      "name": "floatBufferViews",
      "target": 34962
    }
  ],
  "buffers": [
    {
      "byteLength": 130464,
      "uri": "scene.bin"
    }
  ],
  "images": [
    {
      "uri": "textures/missile_baseColor.png"
    }
  ],
  "materials": [
    {
      "doubleSided": true,
      "name": "missile",
      "pbrMetallicRoughness": {
        "baseColorTexture": {
          "index": 0
        },
        "metallicFactor": 0.0,
        "roughnessFactor": 0.6
      }
    }
  ],
  "meshes": [
    {
      "name": "Object_0",
      "primitives": [
        {
          "attributes": {
            "NORMAL": 1,
            "POSITION": 0,
            "TEXCOORD_0": 2
          },
          "indices": 3,
          "material": 0,
          "mode": 4
        }
      ]
    }
  ],
  "nodes": [
    {
      "children": [
        1
      ],
      "matrix": [
        1.0,
        0.0,
        0.0,
        0.0,
        0.0,
        2.220446049250313e-16,
        -1.0,
        0.0,
        0.0,
        1.0,
        2.220446049250313e-16,
        0.0,
        0.0,
        0.0,
        0.0,
        1.0
      ],
      "name": "Sketchfab_model"
    },
    {
      "children": [
        2
      ],
      "name": "21d6ad447eb54c3981b0ef0876e584e8.obj.cleaner.materialmerger.gles"
    },
    {
      "mesh": 0,
      "name": "Object_2"
    }
  ],
  "samplers": [
    {
      "magFilter": 9729,
      "minFilter": 9987,
      "wrapS": 10497,
      "wrapT": 10497
    }
  ],
  "scene": 0,
  "scenes": [
    {
      "name": "Sketchfab_Scene",
      "nodes": [
        0
      ]
    }
  ],
  "textures": [
    {
      "sampler": 0,
      "source": 0
    }
  ]
}
