{
  "accessors": [
    {
      "bufferView": 2,
      "componentType": 5126,
      "count": 1519,
      "max": [
        0.14373229444026947,
        0.08269868791103363,
        0.06689455360174179
      ],
      "min": [
        -0.17865179479122162,
        -0.1026478037238121,
        -0.0008501858101226389
      ],
      "type": "VEC3"
    },
    {
      "bufferView": 2,
      "byteOffset": 18228,
      "componentType": 5126,
      "count": 1519,
      "max": [
        0.9945850968360901,
        0.999001681804657,
        0.9998975992202759
      ],
      "min": [
        -0.9973464012145996,
        -0.9876098036766052,
        -1.0
      ],
      "type": "VEC3"
    },
    {
      "bufferView": 1,
      "componentType": 5126,
      "count": 1519,
      "max": [
        0.9804990291595459,
        0.9873045086860657
      ],
      "min": [
        0.009796293452382088,
        0.00920116901397705
      ],
      "type": "VEC2"
    },
    {
      "bufferView": 0,
      "componentType": 5125,
      "count": 3252,
      "type": "SCALAR"
    },
    {
      "bufferView": 2,
      "byteOffset": 36456,
      "componentType": 5126,
      "count": 1367,
      "max": [
        0.12281259894371033,
        0.0696793794631958,
        0.53369140625
      ],
      "min": [
        -0.1358204036951065,
        -0.0649901032447815,
        0.0503540001809597
      ],
      "type": "VEC3"
    },
    {
      "bufferView": 2,
      "byteOffset": 52860,
      "componentType": 5126,
      "count": 1367,
      "max": [
        0.998043417930603,
        0.9998183846473694,
        0.99770188331604
      ],
      "min": [
        -0.9995484352111816,
        -0.999811053276062,
        -0.9914252758026123
      ],
      "type": "VEC3"
    },
    {
      "bufferView": 1,
      "byteOffset": 12152,
      "componentType": 5126,
      "count": 1367,
      "max": [
        0.9978942275047302,
        0.9889371991157532
      ],
      "min": [
        0.0027924010064452887,
        0.004211484920233488
      ],
      "type": "VEC2"
    },
    {
      "bufferView": 0,
      "byteOffset": 13008,
      "componentType": 5125,
      "count": 3858,
      "type": "SCALAR"
    },
    {
      "bufferView": 2,
      "byteOffset": 69264,
      "componentType": 5126,
      "count": 5472,
      "max": [
        0.2738494873046875,
        0.07915561646223068,
        0.8764649033546448
      ],
      "min": [
        -0.300251305103302,
        -0.09624706953763962,
        0.0045051719062030315
      ],
      "type": "VEC3"
    },
    {
      "bufferView": 2,
      "byteOffset": 134928,
      "componentType": 5126,
      "count": 5472,
      "max": [
        0.9999606609344482,
        0.999946653842926,
        1.0
      ],
      "min": [
        -0.9989922046661377,
        -0.9995900392532349,
        -1.0
      ],
      "type": "VEC3"
    },
    {
      "bufferView": 1,
      "byteOffset": 23088,
      "componentType": 5126,
      "count": 5472,
      "max": [
        0.99969482421875,
        0.8908522129058838
      ],
      "min": [
        0.0007934690802358091,
        0.0037613511085510254
      ],
      "type": "VEC2"
    },
    {
      "bufferView": 0,
      "byteOffset": 28440,
      "componentType": 5125,
      "count": 23220,
      "type": "SCALAR"
    },
    {
      "bufferView": 2,
      "byteOffset": 200592,
      "componentType": 5126,
      "count": 2364,
      "max": [
        0.26192140579223633,
        0.09285300970077515,
        0.7670900225639343
      ],
      "min": [
        -0.284017413854599,
        -0.06898269057273865,
        0.43369370698928833
      ],
      "type": "VEC3"
    },
    {
      "bufferView": 2,
      "byteOffset": 228960,
      "componentType": 5126,
      "count": 2364,
      "max": [
        0.9978302121162415,
        0.9996094703674316,
        0.998336672782898
      ],
      "min": [
        -0.9998205900192261,
        -0.9998654723167419,
        -0.9999989867210388
      ],
      "type": "VEC3"
    },
    {
      "bufferView": 1,
      "byteOffset": 66864,
      "componentType": 5126,
      "count": 2364,
      "max": [
        0.9861752986907959,
        0.9910581707954407
      ],
      "min": [
        0.0160372294485569,
        0.014038319699466228
      ],
      "type": "VEC2"
    },
    {
      "bufferView": 0,
      "byteOffset": 121320,
      "componentType": 5125,
      "count": 5574,
      "type": "SCALAR"
    },
    {
      "bufferView": 2,
      "byteOffset": 257328,
      "componentType": 5126,
      "count": 547,
      "max": [
        0.046009089797735214,
        0.04975986108183861,
        0.8120117783546448
      ],
      "min": [
        -0.043122291564941406,
        -0.06973958015441895,
        0.7255859971046448
      ],
      "type": "VEC3"
    },
    {
      "bufferView": 2,
      "byteOffset": 263892,
      "componentType": 5126,
      "count": 547,
      "max": [
        0.9978783130645752,
        0.9997681975364685,
        0.9996697902679443
      ],
      "min": [
        -0.9989765286445618,
        -0.9975336790084839,
        -0.9887036085128784
      ],
      "type": "VEC3"
    },
    {
      "bufferView": 1,
      "byteOffset": 85776,
      "componentType": 5126,
      "count": 547,
      "max": [
        0.9937742948532104,
        0.9872739911079407
      ],
      "min": [
        0.003997864201664925,
        0.003311217064037919
      ],
      "type": "VEC2"
    },
    {
      "bufferView": 0,
      "byteOffset": 143616,
      "componentType": 5125,
      "count": 1452,
      "type": "SCALAR"
    },
    {
      "bufferView": 2,
      "byteOffset": 270456,
      "componentType": 5126,
      "count": 1654,
      "max": [
        0.04154757037758827,
        0.0355757512152195,
        0.929175615310669
      ],
      "min": [
        -0.03859549015760422,
        -0.06317567825317383,
        0.808570384979248
      ],
      "type": "VEC3"
    },
    {
      "bufferView": 2,
      "byteOffset": 290304,
      "componentType": 5126,
      "count": 1654,
      "max": [
        0.999934732913971,
        0.9946184158325195,
        0.999364972114563
      ],
      "min": [
        -0.9995691776275635,
        -0.9980207681655884,
        -0.9376962780952454
      ],
      "type": "VEC3"
    },
    {
      "bufferView": 1,
      "byteOffset": 90152,
      "componentType": 5126,
      "count": 1654,
      "max": [
        0.9772182703018188,
        0.9858701229095459
      ],
      "min": [
        0.0239719208329916,
        0.003097594017162919
      ],
      "type": "VEC2"
    },
    {
      "bufferView": 0,
      "byteOffset": 149424,
      "componentType": 5125,
      "count": 4353,
      "type": "SCALAR"
    }
  ],
  "asset": {
    "extras": {
      "author": "ROCK FF 99 (https://sketchfab.com/amansoyal781)",
      "license": "SKETCHFAB Standard (https://sketchfab.com/licenses)",
      "source": "https://sketchfab.com/3d-models/free-fire-bundle-93d898781dc2446bbfaea617b7b10938",
      "title": "Free fire bundle"
    },
    "generator": "Sketchfab-16.61.0",
    "version": "2.0"
  },
  "bufferViews": [
    {
      "buffer": 0,
      "byteLength": 166836,
      "name": "floatBufferViews",
      "target": 34963
    },
    {
      "buffer": 0,
      "byteLength": 103384,
      "byteOffset": 166836,
      "byteStride": 8,
      "name": "floatBufferViews",
      "target": 34962
    },
    {
      "buffer": 0,
      "byteLength": 310152,
      "byteOffset": 270220,
      "byteStride": 12,
      "name": "floatBufferViews",
      "target": 34962
    }
  ],
  "buffers": [
    {
      "byteLength": 580372,
      "uri": "scene.bin"
    }
  ],
  "images": [
    {
      "uri": "textures/Material_baseColor.png"
    },
    {
      "uri": "textures/Material_1_baseColor.png"
    },
    {
      "uri": "textures/Material_2_baseColor.png"
    },
    {
      "uri": "textures/Material_3_baseColor.png"
    },
    {
      "uri": "textures/Material_4_baseColor.png"
    },
    {
      "uri": "textures/Material_5_baseColor.png"
    }
  ],
  "materials": [
    {
      "doubleSided": true,
      "name": "Material",
      "pbrMetallicRoughness": {
        "baseColorTexture": {
          "index": 0
        },
        "metallicFactor": 0.0,
        "roughnessFactor": 0.6
      }
    },
    {
      "doubleSided": true,
      "name": "Material_1",
      "pbrMetallicRoughness": {
        "baseColorTexture": {
          "index": 1
        },
        "metallicFactor": 0.0,
        "roughnessFactor": 0.6
      }
    },
    {
      "doubleSided": true,
      "name": "Material_2",
      "pbrMetallicRoughness": {
        "baseColorTexture": {
          "index": 2
        },
        "metallicFactor": 0.0,
        "roughnessFactor": 0.6
      }
    },
    {
      "doubleSided": true,
      "name": "Material_3",
      "pbrMetallicRoughness": {
        "baseColorTexture": {
          "index": 3
        },
        "metallicFactor": 0.0,
        "roughnessFactor": 0.6
      }
    },
    {
      "doubleSided": true,
      "name": "Material_4",
      "pbrMetallicRoughness": {
        "baseColorTexture": {
          "index": 4
        },
        "metallicFactor": 0.0,
        "roughnessFactor": 0.6
      }
    },
    {
      "doubleSided": true,
      "name": "Material_5",
      "pbrMetallicRoughness": {
        "baseColorTexture": {
          "index": 5
        },
        "metallicFactor": 0.0,
        "roughnessFactor": 0.6
      }
    }
  ],
  "meshes": [
    {
      "name": "Object_0",
      "primitives": [
        {
          "attributes": {
            "NORMAL": 1,
            "POSITION": 0,
            "TEXCOORD_0": 2
          },
          "indices": 3,
          "material": 0,
          "mode": 4
        }
      ]
    },
    {
      "name": "Object_1",
      "primitives": [
        {
          "attributes": {
            "NORMAL": 5,
            "POSITION": 4,
            "TEXCOORD_0": 6
          },
          "indices": 7,
          "material": 1,
          "mode": 4
        }
      ]
    },
    {
      "name": "Object_2",
      "primitives": [
        {
          "attributes": {
            "NORMAL": 9,
            "POSITION": 8,
            "TEXCOORD_0": 10
          },
          "indices": 11,
          "material": 2,
          "mode": 4
        }
      ]
    },
    {
      "name": "Object_3",
      "primitives": [
        {
          "attributes": {
            "NORMAL": 13,
            "POSITION": 12,
            "TEXCOORD_0": 14
          },
          "indices": 15,
          "material": 3,
          "mode": 4
        }
      ]
    },
    {
      "name": "Object_4",
      "primitives": [
        {
          "attributes": {
            "NORMAL": 17,
            "POSITION": 16,
            "TEXCOORD_0": 18
          },
          "indices": 19,
          "material": 4,
          "mode": 4
        }
      ]
    },
    {
      "name": "Object_5",
      "primitives": [
        {
          "attributes": {
            "NORMAL": 21,
            "POSITION": 20,
            "TEXCOORD_0": 22
          },
          "indices": 23,
          "material": 5,
          "mode": 4
        }
      ]
    }
  ],
  "nodes": [
    {
      "children": [
        1
      ],
      "matrix": [
        1.0,
        0.0,
        0.0,
        0.0,
        0.0,
        2.220446049250313e-16,
        -1.0,
        0.0,
        0.0,
        1.0,
        2.220446049250313e-16,
        0.0,
        0.0,
        0.0,
        0.0,
        1.0
      ],
      "name": "Sketchfab_model"
    },
    {
      "children": [
        2
      ],
      "name": "root"
    },
    {
      "children": [
        3
      ],
      "matrix": [
        1.0,
        0.0,
        0.0,
        0.0,
        0.0,
        2.220446049250313e-16,
        1.0,
        0.0,
        0.0,
        -1.0,
        2.220446049250313e-16,
        0.0,
        0.0,
        0.0,
        0.0,
        1.0
      ],
      "name": "GLTF_SceneRootNode"
    },
    {
      "children": [
        4
      ],
      "matrix": [
        1.0,
        0.0,
        0.0,
        0.0,
        0.0,
        2.220446049250313e-16,
        -1.0,
        0.0,
        0.0,
        1.0,
        2.220446049250313e-16,
        0.0,
        0.0,
        0.0,
        0.0,
        1.0
      ],
      "name": "Sketchfab_model_0"
    },
    {
      "children": [
        5,
        7,
        9,
        11,
        13,
        15
      ],
      "name": "New Project 18.obj.cleaner.materialmerger.gles_1"
    },
    {
      "children": [
        6
      ],
      "name": "Object_2_2"
    },
    {
      "mesh": 0,
      "name": "Object_6"
    },
    {
      "children": [
        8
      ],
      "name": "Object_3_3"
    },
    {
      "mesh": 1,
      "name": "Object_8"
    },
    {
      "children": [
        10
      ],
      "name": "Object_4_4"
    },
    {
      "mesh": 2,
      "name": "Object_10"
    },
    {
      "children": [
        12
      ],
      "name": "Object_5_5"
    },
    {
      "mesh": 3,
      "name": "Object_12"
    },
    {
      "children": [
        14
      ],
      "name": "Object_6_6"
    },
    {
      "mesh": 4,
      "name": "Object_14"
    },
    {
      "children": [
        16
      ],
      "name": "Object_7_7"
    },
    {
      "mesh": 5,
      "name": "Object_16"
    }
  ],
  "samplers": [
    {
      "magFilter": 9729,
      "minFilter": 9987,
      "wrapS": 10497,
      "wrapT": 10497
    }
  ],
  "scene": 0,
  "scenes": [
    {
      "name": "Sketchfab_Scene",
      "nodes": [
        0
      ]
    }
  ],
  "textures": [
    {
      "sampler": 0,
      "source": 0
    },
    {
      "sampler": 0,
      "source": 1
    },
    {
      "sampler": 0,
      "source": 2
    },
    {
      "sampler": 0,
      "source": 3
    },
    {
      "sampler": 0,
      "source": 4
    },
    {
      "sampler": 0,
      "source": 5
    }
  ]
}
