{
  "accessors": [
    {
      "bufferView": 2,
      "componentType": 5126,
      "count": 2073,
      "max": [
        0.49984559416770935,
        1.5040761232376099,
        -6.11383056640625
      ],
      "min": [
        -0.49984559416770935,
        -1.1436854600906372,
        -10.0
      ],
      "type": "VEC3"
    },
    {
      "bufferView": 2,
      "byteOffset": 24876,
      "componentType": 5126,
      "count": 2073,
      "max": [
        1.0,
        1.0,
        1.0
      ],
      "min": [
        -1.0,
        -1.0,
        -1.0
      ],
      "type": "VEC3"
    },
    {
      "bufferView": 1,
      "componentType": 5126,
      "count": 2073,
      "max": [
        1.9975130558013916,
        1.9968090057373047
      ],
      "min": [
        0.002630000002682209,
        1.004578948020935
      ],
      "type": "VEC2"
    },
    {
      "bufferView": 0,
      "componentType": 5125,
      "count": 6186,
      "type": "SCALAR"
    },
    {
      "bufferView": 2,
      "byteOffset": 49752,
      "componentType": 5126,
      "count": 640,
      "max": [
        0.3831171691417694,
        1.3938660621643066,
        -4.192590236663818
      ],
      "min": [
        -0.383136123418808,
        0.2725464105606079,
        -7.652148723602295
      ],
      "type": "VEC3"
    },
    {
      "bufferView": 2,
      "byteOffset": 57432,
      "componentType": 5126,
      "count": 640,
      "max": [
        1.0,
        1.0,
        0.9847398996353149
      ],
      "min": [
        -0.9999999403953552,
        -1.0,
        -1.0
      ],
      "type": "VEC3"
    },
    {
      "bufferView": 1,
      "byteOffset": 16584,
      "componentType": 5126,
      "count": 640,
      "max": [
        1.8472709655761719,
        1.9921400547027588
      ],
      "min": [
        0.004385999869555235,
        1.030400037765503
      ],
      "type": "VEC2"
    },
    {
      "bufferView": 0,
      "byteOffset": 24744,
      "componentType": 5125,
      "count": 1926,
      "type": "SCALAR"
    },
    {
      "bufferView": 2,
      "byteOffset": 65112,
      "componentType": 5126,
      "count": 274,
      "max": [
        0.31174713373184204,
        1.298977255821228,
        0.039810094982385635
      ],
      "min": [
        -0.31174713373184204,
        0.8120273947715759,
        -2.1203994750976563
      ],
      "type": "VEC3"
    },
    {
      "bufferView": 2,
      "byteOffset": 68400,
      "componentType": 5126,
      "count": 274,
      "max": [
        0.5000013709068298,
        1.0,
        1.0
      ],
      "min": [
        -1.0,
        -0.8922200202941895,
        -1.0
      ],
      "type": "VEC3"
    },
    {
      "bufferView": 1,
      "byteOffset": 21704,
      "componentType": 5126,
      "count": 274,
      "max": [
        0.9669820070266724,
        1.6383180618286133
      ],
      "min": [
        0.039312999695539474,
        1.022773027420044
      ],
      "type": "VEC2"
    },
    {
      "bufferView": 0,
      "byteOffset": 32448,
      "componentType": 5125,
      "count": 786,
      "type": "SCALAR"
    },
    {
      "bufferView": 2,
      "byteOffset": 71688,
      "componentType": 5126,
      "count": 452,
      "max": [
        0.1467183232307434,
        2.6328325271606445,
        -2.884666681289673
      ],
      "min": [
        -0.14679086208343506,
        2.227388858795166,
        -3.2870078086853027
      ],
      "type": "VEC3"
    },
    {
      "bufferView": 2,
      "byteOffset": 77112,
      "componentType": 5126,
      "count": 452,
      "max": [
        1.0,
        1.0,
        1.0
      ],
      "min": [
        -1.0,
        -1.0,
        -1.0
      ],
      "type": "VEC3"
    },
    {
      "bufferView": 1,
      "byteOffset": 23896,
      "componentType": 5126,
      "count": 452,
      "max": [
        0.9950199723243713,
        1.996716022491455
      ],
      "min": [
        0.15139199793338776,
        1.0558830499649048
      ],
      "type": "VEC2"
    },
    {
      "bufferView": 0,
      "byteOffset": 35592,
      "componentType": 5125,
      "count": 1380,
      "type": "SCALAR"
    },
    {
      "bufferView": 2,
      "byteOffset": 82536,
      "componentType": 5126,
      "count": 157,
      "max": [
        0.475942999124527,
        0.5297551155090332,
        -2.9608607292175293
      ],
      "min": [
        0.35646292567253113,
        0.26394903659820557,
        -3.5851693153381348
      ],
      "type": "VEC3"
    },
    {
      "bufferView": 2,
      "byteOffset": 84420,
      "componentType": 5126,
      "count": 157,
      "max": [
        1.0,
        1.0,
        0.8445063233375549
      ],
      "min": [
        0.0,
        -1.0,
        -0.9848065376281738
      ],
      "type": "VEC3"
    },
    {
      "bufferView": 1,
      "byteOffset": 27512,
      "componentType": 5126,
      "count": 157,
      "max": [
        0.9959779977798462,
        1.9940810203552246
      ],
      "min": [
        0.16319000720977783,
        1.0019530057907104
      ],
      "type": "VEC2"
    },
    {
      "bufferView": 0,
      "byteOffset": 41112,
      "componentType": 5125,
      "count": 423,
      "type": "SCALAR"
    },
    {
      "bufferView": 2,
      "byteOffset": 86304,
      "componentType": 5126,
      "count": 1628,
      "max": [
        0.27922913432121277,
        0.8763383626937866,
        -0.011466347612440586
      ],
      "min": [
        -0.2595687806606293,
        -2.8915529251098633,
        -1.6836466789245605
      ],
      "type": "VEC3"
    },
    {
      "bufferView": 2,
      "byteOffset": 105840,
      "componentType": 5126,
      "count": 1628,
      "max": [
        1.0,
        1.0,
        1.0
      ],
      "min": [
        -1.0,
        -1.0,
        -1.0
      ],
      "type": "VEC3"
    },
    {
      "bufferView": 1,
      "byteOffset": 28768,
      "componentType": 5126,
      "count": 1628,
      "max": [
        0.9974079728126526,
        1.9971299171447754
      ],
      "min": [
        0.0014349999837577343,
        1.0020500421524048
      ],
      "type": "VEC2"
    },
    {
      "bufferView": 0,
      "byteOffset": 42804,
      "componentType": 5125,
      "count": 5316,
      "type": "SCALAR"
    },
    {
      "bufferView": 2,
      "byteOffset": 125376,
      "componentType": 5126,
      "count": 2545,
      "max": [
        0.6029310822486877,
        2.568629503250122,
        -0.04255817085504532
      ],
      "min": [
        -0.4436015486717224,
        1.4912738800048828,
        -3.7775397300720215
      ],
      "type": "VEC3"
    },
    {
      "bufferView": 2,
      "byteOffset": 155916,
      "componentType": 5126,
      "count": 2545,
      "max": [
        1.0,
        1.0,
        1.0
      ],
      "min": [
        -1.0,
        -1.0,
        -1.0
      ],
      "type": "VEC3"
    },
    {
      "bufferView": 1,
      "byteOffset": 41792,
      "componentType": 5126,
      "count": 2545,
      "max": [
        1.9980469942092896,
        1.9788529872894287
      ],
      "min": [
        0.0019529999699443579,
        1.0019530057907104
      ],
      "type": "VEC2"
    },
    {
      "bufferView": 0,
      "byteOffset": 64068,
      "componentType": 5125,
      "count": 7650,
      "type": "SCALAR"
    },
    {
      "bufferView": 2,
      "byteOffset": 186456,
      "componentType": 5126,
      "count": 430,
      "max": [
        -0.3753393888473511,
        0.960219144821167,
        -0.3295375406742096
      ],
      "min": [
        -0.634236216545105,
        0.5018470287322998,
        -1.9824674129486084
      ],
      "type": "VEC3"
    },
    {
      "bufferView": 2,
      "byteOffset": 191616,
      "componentType": 5126,
      "count": 430,
      "max": [
        0.9961948990821838,
        1.0,
        1.0
      ],
      "min": [
        -0.9997904300689697,
        -1.0,
        -1.0
      ],
      "type": "VEC3"
    },
    {
      "bufferView": 1,
      "byteOffset": 62152,
      "componentType": 5126,
      "count": 430,
      "max": [
        0.9977139830589294,
        1.7755780220031738
      ],
      "min": [
        0.0019529999699443579,
        1.0019530057907104
      ],
      "type": "VEC2"
    },
    {
      "bufferView": 0,
      "byteOffset": 94668,
      "componentType": 5125,
      "count": 1164,
      "type": "SCALAR"
    },
    {
      "bufferView": 2,
      "byteOffset": 196776,
      "componentType": 5126,
      "count": 12651,
      "max": [
        0.73988276720047,
        2.432281970977783,
        8.37255859375
      ],
      "min": [
        -0.9069914817810059,
        -2.128296136856079,
        -4.820296287536621
      ],
      "type": "VEC3"
    },
    {
      "bufferView": 2,
      "byteOffset": 348588,
      "componentType": 5126,
      "count": 12651,
      "max": [
        1.0,
        1.0,
        1.0
      ],
      "min": [
        -1.0,
        -1.0,
        -1.0
      ],
      "type": "VEC3"
    },
    {
      "bufferView": 1,
      "byteOffset": 65592,
      "componentType": 5126,
      "count": 12651,
      "max": [
        1.9921879768371582,
        1.9950480461120605
      ],
      "min": [
        0.0019529999699443579,
        1.0019530057907104
      ],
      "type": "VEC2"
    },
    {
      "bufferView": 0,
      "byteOffset": 99324,
      "componentType": 5125,
      "count": 40104,
      "type": "SCALAR"
    },
    {
      "bufferView": 2,
      "byteOffset": 500400,
      "componentType": 5126,
      "count": 378,
      "max": [
        0.5950469374656677,
        1.6269055604934692,
        -0.5871437788009644
      ],
      "min": [
        -0.5950469374656677,
        1.3962897062301636,
        -4.032690525054932
      ],
      "type": "VEC3"
    },
    {
      "bufferView": 2,
      "byteOffset": 504936,
      "componentType": 5126,
      "count": 378,
      "max": [
        1.0,
        1.0,
        1.0
      ],
      "min": [
        -1.0,
        -1.0,
        -1.0
      ],
      "type": "VEC3"
    },
    {
      "bufferView": 1,
      "byteOffset": 166800,
      "componentType": 5126,
      "count": 378,
      "max": [
        1.4873440265655518,
        1.996412992477417
      ],
      "min": [
        0.010800999589264393,
        1.0099090337753296
      ],
      "type": "VEC2"
    },
    {
      "bufferView": 0,
      "byteOffset": 259740,
      "componentType": 5125,
      "count": 1032,
      "type": "SCALAR"
    }
  ],
  "asset": {
    "extras": {
      "author": "ErhanMatur (https://sketchfab.com/erhanmatur)",
      "license": "CC-BY-4.0 (http://creativecommons.org/licenses/by/4.0/)",
      "source": "https://sketchfab.com/3d-models/m4a1-rifle-02dc5977e560464dbf419c2aeac709e2",
      "title": "M4A1 Rifle"
    },
    "generator": "Sketchfab-12.65.0",
    "version": "2.0"
  },
  "bufferViews": [
    {
      "buffer": 0,
      "byteLength": 263868,
      "name": "floatBufferViews",
      "target": 34963
    },
    {
      "buffer": 0,
      "byteLength": 169824,
      "byteOffset": 263868,
      "byteStride": 8,
      "name": "floatBufferViews",
      "target": 34962
    },
    {
      "buffer": 0,
      "byteLength": 509472,
      "byteOffset": 433692,
      "byteStride": 12,
      "name": "floatBufferViews",
      "target": 34962
    }
  ],
  "buffers": [
    {
      "byteLength": 943164,
      "uri": "scene.bin"
    }
  ],
  "images": [
    {
      "uri": "textures/Stock_baseColor.jpeg"
    },
    {
      "uri": "textures/material_baseColor.jpeg"
    },
    {
      "uri": "textures/M4_1_baseColor.jpeg"
    }
  ],
  "materials": [
    {
      "doubleSided": true,
      "name": "Stock",
      "pbrMetallicRoughness": {
        "baseColorTexture": {
          "index": 0
        },
        "metallicFactor": 0.07467212666216734,
        "roughnessFactor": 0.8341252758878572
      }
    },
    {
      "doubleSided": true,
      "name": "Stock_0",
      "pbrMetallicRoughness": {
        "baseColorTexture": {
          "index": 0
        },
        "metallicFactor": 0.0,
        "roughnessFactor": 0.9577051494623774
      }
    },
    {
      "doubleSided": true,
      "name": "material",
      "pbrMetallicRoughness": {
        "baseColorTexture": {
          "index": 1
        },
        "metallicFactor": 0.0,
        "roughnessFactor": 0.9577051494623774
      }
    },
    {
      "doubleSided": true,
      "name": "M4_0",
      "pbrMetallicRoughness": {
        "baseColorTexture": {
          "index": 1
        },
        "metallicFactor": 0.0,
        "roughnessFactor": 0.9577051494623774
      }
    },
    {
      "doubleSided": true,
      "name": "M4_1",
      "pbrMetallicRoughness": {
        "baseColorTexture": {
          "index": 2
        },
        "metallicFactor": 0.0,
        "roughnessFactor": 0.9577051494623774
      }
    },
    {
      "doubleSided": true,
      "name": "material_5",
      "pbrMetallicRoughness": {
        "baseColorTexture": {
          "index": 2
        },
        "metallicFactor": 0.0,
        "roughnessFactor": 0.9577051494623774
      }
    },
    {
      "doubleSided": true,
      "name": "M4_2",
      "pbrMetallicRoughness": {
        "baseColorTexture": {
          "index": 1
        },
        "metallicFactor": 0.0,
        "roughnessFactor": 0.9577051494623774
      }
    },
    {
      "doubleSided": true,
      "name": "M4_3",
      "pbrMetallicRoughness": {
        "baseColorTexture": {
          "index": 1
        },
        "metallicFactor": 0.0,
        "roughnessFactor": 0.9577051494623774
      }
    },
    {
      "doubleSided": true,
      "name": "M4_4",
      "pbrMetallicRoughness": {
        "baseColorTexture": {
          "index": 1
        },
        "metallicFactor": 0.0,
        "roughnessFactor": 0.9577051494623774
      }
    },
    {
      "doubleSided": true,
      "name": "M4_5",
      "pbrMetallicRoughness": {
        "baseColorTexture": {
          "index": 1
        },
        "metallicFactor": 0.0,
        "roughnessFactor": 0.9577051494623774
      }
    }
  ],
  "meshes": [
    {
      "name": "mesh0_Stock_0",
      "primitives": [
        {
          "attributes": {
            "NORMAL": 1,
            "POSITION": 0,
            "TEXCOORD_0": 2
          },
          "indices": 3,
          "material": 0,
          "mode": 4
        }
      ]
    },
    {
      "name": "mesh0_Stock_0",
      "primitives": [
        {
          "attributes": {
            "NORMAL": 5,
            "POSITION": 4,
            "TEXCOORD_0": 6
          },
          "indices": 7,
          "material": 1,
          "mode": 4
        }
      ]
    },
    {
      "name": "mesh0_M4_0",
      "primitives": [
        {
          "attributes": {
            "NORMAL": 9,
            "POSITION": 8,
            "TEXCOORD_0": 10
          },
          "indices": 11,
          "material": 2,
          "mode": 4
        }
      ]
    },
    {
      "name": "mesh0_M4_0",
      "primitives": [
        {
          "attributes": {
            "NORMAL": 13,
            "POSITION": 12,
            "TEXCOORD_0": 14
          },
          "indices": 15,
          "material": 3,
          "mode": 4
        }
      ]
    },
    {
      "name": "mesh0_M4_0",
      "primitives": [
        {
          "attributes": {
            "NORMAL": 17,
            "POSITION": 16,
            "TEXCOORD_0": 18
          },
          "indices": 19,
          "material": 4,
          "mode": 4
        }
      ]
    },
    {
      "name": "mesh0_MAG_0",
      "primitives": [
        {
          "attributes": {
            "NORMAL": 21,
            "POSITION": 20,
            "TEXCOORD_0": 22
          },
          "indices": 23,
          "material": 5,
          "mode": 4
        }
      ]
    },
    {
      "name": "mesh0_M4_0",
      "primitives": [
        {
          "attributes": {
            "NORMAL": 25,
            "POSITION": 24,
            "TEXCOORD_0": 26
          },
          "indices": 27,
          "material": 6,
          "mode": 4
        }
      ]
    },
    {
      "name": "mesh0_M4_0",
      "primitives": [
        {
          "attributes": {
            "NORMAL": 29,
            "POSITION": 28,
            "TEXCOORD_0": 30
          },
          "indices": 31,
          "material": 7,
          "mode": 4
        }
      ]
    },
    {
      "name": "mesh0_M4_0",
      "primitives": [
        {
          "attributes": {
            "NORMAL": 33,
            "POSITION": 32,
            "TEXCOORD_0": 34
          },
          "indices": 35,
          "material": 8,
          "mode": 4
        }
      ]
    },
    {
      "name": "mesh0_M4_0",
      "primitives": [
        {
          "attributes": {
            "NORMAL": 37,
            "POSITION": 36,
            "TEXCOORD_0": 38
          },
          "indices": 39,
          "material": 9,
          "mode": 4
        }
      ]
    }
  ],
  "nodes": [
    {
      "children": [
        1
      ],
      "matrix": [
        1.0,
        0.0,
        0.0,
        0.0,
        0.0,
        2.220446049250313e-16,
        -1.0,
        0.0,
        0.0,
        1.0,
        2.220446049250313e-16,
        0.0,
        0.0,
        0.0,
        0.0,
        1.0
      ],
      "name": "Sketchfab_model"
    },
    {
      "children": [
        2
      ],
      "matrix": [
        1.0,
        0.0,
        0.0,
        0.0,
        0.0,
        0.0,
        1.0,
        0.0,
        0.0,
        -1.0,
        0.0,
        0.0,
        0.0,
        0.0,
        0.0,
        1.0
      ],
      "name": "M4A1 Rifle.fbx"
    },
    {
      "children": [
        3,
        5,
        7,
        9,
        11,
        13,
        15,
        17,
        19,
        21
      ],
      "name": "RootNode"
    },
    {
      "children": [
        4
      ],
      "matrix": [
        1.0,
        0.0,
        0.0,
        0.0,
        0.0,
        0.999999999999999,
        4.371138828673792e-08,
        0.0,
        0.0,
        -4.371138828673792e-08,
        0.999999999999999,
        0.0,
        0.0,
        0.0,
        0.0,
        1.0
      ],
      "name": "mesh0"
    },
    {
      "mesh": 0,
      "name": "mesh0_Stock_0"
    },
    {
      "children": [
        6
      ],
      "matrix": [
        1.0,
        0.0,
        0.0,
        0.0,
        0.0,
        0.999999999999999,
        4.371138828673792e-08,
        0.0,
        0.0,
        -4.371138828673792e-08,
        0.999999999999999,
        0.0,
        0.0,
        0.0,
        0.0,
        1.0
      ],
      "name": "mesh0"
    },
    {
      "mesh": 1,
      "name": "mesh0_Stock_0"
    },
    {
      "children": [
        8
      ],
      "matrix": [
        1.0,
        0.0,
        0.0,
        0.0,
        0.0,
        0.999999999999999,
        4.371138828673792e-08,
        0.0,
        0.0,
        -4.371138828673792e-08,
        0.999999999999999,
        0.0,
        0.0,
        0.0,
        0.0,
        1.0
      ],
      "name": "mesh0"
    },
    {
      "mesh": 2,
      "name": "mesh0_M4_0"
    },
    {
      "children": [
        10
      ],
      "matrix": [
        1.0,
        0.0,
        0.0,
        0.0,
        0.0,
        0.999999999999999,
        4.371138828673792e-08,
        0.0,
        0.0,
        -4.371138828673792e-08,
        0.999999999999999,
        0.0,
        0.0,
        0.0,
        0.0,
        1.0
      ],
      "name": "mesh0"
    },
    {
      "mesh": 3,
      "name": "mesh0_M4_0"
    },
    {
      "children": [
        12
      ],
      "matrix": [
        1.0,
        0.0,
        0.0,
        0.0,
        0.0,
        0.999999999999999,
        4.371138828673792e-08,
        0.0,
        0.0,
        -4.371138828673792e-08,
        0.999999999999999,
        0.0,
        0.0,
        0.0,
        0.0,
        1.0
      ],
      "name": "mesh0"
    },
    {
      "mesh": 4,
      "name": "mesh0_M4_0"
    },
    {
      "children": [
        14
      ],
      "matrix": [
        1.0,
        0.0,
        0.0,
        0.0,
        0.0,
        0.999999999999999,
        4.371138828673792e-08,
        0.0,
        0.0,
        -4.371138828673792e-08,
        0.999999999999999,
        0.0,
        0.0,
        0.0,
        0.0,
        1.0
      ],
      "name": "mesh0"
    },
    {
      "mesh": 5,
      "name": "mesh0_MAG_0"
    },
    {
      "children": [
        16
      ],
      "matrix": [
        1.0,
        0.0,
        0.0,
        0.0,
        0.0,
        0.999999999999999,
        4.371138828673792e-08,
        0.0,
        0.0,
        -4.371138828673792e-08,
        0.999999999999999,
        0.0,
        0.0,
        0.0,
        0.0,
        1.0
      ],
      "name": "mesh0"
    },
    {
      "mesh": 6,
      "name": "mesh0_M4_0"
    },
    {
      "children": [
        18
      ],
      "matrix": [
        1.0,
        0.0,
        0.0,
        0.0,
        0.0,
        0.999999999999999,
        4.371138828673792e-08,
        0.0,
        0.0,
        -4.371138828673792e-08,
        0.999999999999999,
        0.0,
        0.0,
        0.0,
        0.0,
        1.0
      ],
      "name": "mesh0"
    },
    {
      "mesh": 7,
      "name": "mesh0_M4_0"
    },
    {
      "children": [
        20
      ],
      "matrix": [
        1.0,
        0.0,
        0.0,
        0.0,
        0.0,
        0.999999999999999,
        4.371138828673792e-08,
        0.0,
        0.0,
        -4.371138828673792e-08,
        0.999999999999999,
        0.0,
        0.0,
        0.0,
        0.0,
        1.0
      ],
      "name": "mesh0"
    },
    {
      "mesh": 8,
      "name": "mesh0_M4_0"
    },
    {
      "children": [
        22
      ],
      "matrix": [
        1.0,
        0.0,
        0.0,
        0.0,
        0.0,
        0.999999999999999,
        4.371138828673792e-08,
        0.0,
        0.0,
        -4.371138828673792e-08,
        0.999999999999999,
        0.0,
        0.0,
        0.0,
        0.0,
        1.0
      ],
      "name": "mesh0"
    },
    {
      "mesh": 9,
      "name": "mesh0_M4_0"
    }
  ],
  "samplers": [
    {
      "magFilter": 9729,
      "minFilter": 9987,
      "wrapS": 10497,
      "wrapT": 10497
    }
  ],
  "scene": 0,
  "scenes": [
    {
      "name": "Sketchfab_Scene",
      "nodes": [
        0
      ]
    }
  ],
  "textures": [
    {
      "sampler": 0,
      "source": 0
    },
    {
      "sampler": 0,
      "source": 1
    },
    {
      "sampler": 0,
      "source": 2
    }
  ]
}
