{
  "accessors": [
    {
      "bufferView": 2,
      "componentType": 5126,
      "count": 759,
      "max": [
        0.03679174929857254,
        -0.019795240834355354,
        0.8861175775527954
      ],
      "min": [
        -0.04530584067106247,
        -0.07200896739959717,
        0.7728363871574402
      ],
      "type": "VEC3"
    },
    {
      "bufferView": 2,
      "byteOffset": 9108,
      "componentType": 5126,
      "count": 759,
      "max": [
        0.9848487973213196,
        0.9264692664146423,
        0.9882314205169678
      ],
      "min": [
        -0.9817346930503845,
        -0.9998441934585571,
        -1.0
      ],
      "type": "VEC3"
    },
    {
      "bufferView": 1,
      "componentType": 5126,
      "count": 759,
      "max": [
        0.9234455227851868,
        0.6408789157867432
      ],
      "min": [
        0.45439839363098145,
        0.04171818122267723
      ],
      "type": "VEC2"
    },
    {
      "bufferView": 0,
      "componentType": 5125,
      "count": 2040,
      "type": "SCALAR"
    },
    {
      "bufferView": 2,
      "byteOffset": 18216,
      "componentType": 5126,
      "count": 697,
      "max": [
        0.14509959518909454,
        0.08208814263343811,
        0.0834350734949112
      ],
      "min": [
        -0.14147110283374786,
        -0.13580800592899323,
        -0.0038585509173572063
      ],
      "type": "VEC3"
    },
    {
      "bufferView": 2,
      "byteOffset": 26580,
      "componentType": 5126,
      "count": 697,
      "max": [
        0.9998617172241211,
        0.9999676942825317,
        0.9998424649238586
      ],
      "min": [
        -0.998062014579773,
        -0.9896246194839478,
        -0.9982144832611084
      ],
      "type": "VEC3"
    },
    {
      "bufferView": 1,
      "byteOffset": 6072,
      "componentType": 5126,
      "count": 697,
      "max": [
        0.992690920829773,
        0.9998322129249573
      ],
      "min": [
        0.008010986261069775,
        0.007324337959289551
      ],
      "type": "VEC2"
    },
    {
      "bufferView": 0,
      "byteOffset": 8160,
      "componentType": 5125,
      "count": 2412,
      "type": "SCALAR"
    },
    {
      "bufferView": 2,
      "byteOffset": 34944,
      "componentType": 5126,
      "count": 4384,
      "max": [
        0.1387455016374588,
        0.074210986495018,
        0.893441915512085
      ],
      "min": [
        -0.1358640044927597,
        -0.11191420257091522,
        0.004348769783973694
      ],
      "type": "VEC3"
    },
    {
      "bufferView": 2,
      "byteOffset": 87552,
      "componentType": 5126,
      "count": 4384,
      "max": [
        0.9984919428825378,
        0.9999693036079407,
        1.0
      ],
      "min": [
        -0.9987053275108337,
        -0.999994695186615,
        -1.0
      ],
      "type": "VEC3"
    },
    {
      "bufferView": 1,
      "byteOffset": 11648,
      "componentType": 5126,
      "count": 4384,
      "max": [
        0.99969482421875,
        0.8289310932159424
      ],
      "min": [
        0.0007934690802358091,
        0.0037613511085510254
      ],
      "type": "VEC2"
    },
    {
      "bufferView": 0,
      "byteOffset": 17808,
      "componentType": 5125,
      "count": 19992,
      "type": "SCALAR"
    },
    {
      "bufferView": 2,
      "byteOffset": 140160,
      "componentType": 5126,
      "count": 3645,
      "max": [
        0.036652710288763046,
        0.04152601957321167,
        0.9364106059074402
      ],
      "min": [
        -0.0693369135260582,
        -0.08379889279603958,
        0.844613790512085
      ],
      "type": "VEC3"
    },
    {
      "bufferView": 2,
      "byteOffset": 183900,
      "componentType": 5126,
      "count": 3645,
      "max": [
        0.9997729063034058,
        0.9964361786842346,
        1.0
      ],
      "min": [
        -0.9989488124847412,
        -0.9997208714485168,
        -0.9992868900299072
      ],
      "type": "VEC3"
    },
    {
      "bufferView": 1,
      "byteOffset": 46720,
      "componentType": 5126,
      "count": 3645,
      "max": [
        0.992874026298523,
        0.9954223036766052
      ],
      "min": [
        0.0007324331090785563,
        0.0018157960148528218
      ],
      "type": "VEC2"
    },
    {
      "bufferView": 0,
      "byteOffset": 97776,
      "componentType": 5125,
      "count": 6282,
      "type": "SCALAR"
    },
    {
      "bufferView": 2,
      "byteOffset": 227640,
      "componentType": 5126,
      "count": 1874,
      "max": [
        0.11740150302648544,
        0.07056289911270142,
        0.5249025225639343
      ],
      "min": [
        -0.1271314024925232,
        -0.06496042013168335,
        0.052948009222745895
      ],
      "type": "VEC3"
    },
    {
      "bufferView": 2,
      "byteOffset": 250128,
      "componentType": 5126,
      "count": 1874,
      "max": [
        0.9957152009010315,
        0.9999191761016846,
        0.9997851848602295
      ],
      "min": [
        -0.9990643262863159,
        -0.9999685883522034,
        -0.9998155832290649
      ],
      "type": "VEC3"
    },
    {
      "bufferView": 1,
      "byteOffset": 75880,
      "componentType": 5126,
      "count": 1874,
      "max": [
        0.9947203993797302,
        0.9929503202438354
      ],
      "min": [
        0.017105359584093094,
        0.014297720044851303
      ],
      "type": "VEC2"
    },
    {
      "bufferView": 0,
      "byteOffset": 122904,
      "componentType": 5125,
      "count": 5208,
      "type": "SCALAR"
    },
    {
      "bufferView": 2,
      "byteOffset": 272616,
      "componentType": 5126,
      "count": 3991,
      "max": [
        0.3462854027748108,
        0.10999800264835358,
        0.7998341917991638
      ],
      "min": [
        -0.3410794138908386,
        -0.06770163774490356,
        0.47955989837646484
      ],
      "type": "VEC3"
    },
    {
      "bufferView": 2,
      "byteOffset": 320508,
      "componentType": 5126,
      "count": 3991,
      "max": [
        0.9983919858932495,
        0.9999164938926697,
        0.9995942711830139
      ],
      "min": [
        -0.9995988011360168,
        -0.9998645782470703,
        -0.9962940812110901
      ],
      "type": "VEC3"
    },
    {
      "bufferView": 1,
      "byteOffset": 90872,
      "componentType": 5126,
      "count": 3991,
      "max": [
        0.9976806044578552,
        0.990615725517273
      ],
      "min": [
        0.004882887005805969,
        0.010009939782321453
      ],
      "type": "VEC2"
    },
    {
      "bufferView": 0,
      "byteOffset": 143736,
      "componentType": 5125,
      "count": 10014,
      "type": "SCALAR"
    }
  ],
  "asset": {
    "extras": {
      "author": "ROCK FF 99 (https://sketchfab.com/amansoyal781)",
      "license": "SKETCHFAB Standard (https://sketchfab.com/licenses)",
      "source": "https://sketchfab.com/3d-models/free-fire-bundle-ccc4c57508ec4e1397a2759f9488ea70",
      "title": "Free fire bundle"
    },
    "generator": "Sketchfab-16.61.0",
    "version": "2.0"
  },
  "bufferViews": [
    {
      "buffer": 0,
      "byteLength": 183792,
      "name": "floatBufferViews",
      "target": 34963
    },
    {
      "buffer": 0,
      "byteLength": 122800,
      "byteOffset": 183792,
      "byteStride": 8,
      "name": "floatBufferViews",
      "target": 34962
    },
    {
      "buffer": 0,
      "byteLength": 368400,
      "byteOffset": 306592,
      "byteStride": 12,
      "name": "floatBufferViews",
      "target": 34962
    }
  ],
  "buffers": [
    {
      "byteLength": 674992,
      "uri": "scene.bin"
    }
  ],
  "images": [
    {
      "uri": "textures/Material_baseColor.png"
    },
    {
      "uri": "textures/Material_1_baseColor.png"
    },
    {
      "uri": "textures/Material_2_baseColor.png"
    },
    {
      "uri": "textures/Material_3_baseColor.png"
    },
    {
      "uri": "textures/Material_4_baseColor.png"
    },
    {
      "uri": "textures/Material_5_baseColor.png"
    }
  ],
  "materials": [
    {
      "doubleSided": true,
      "name": "Material",
      "pbrMetallicRoughness": {
        "baseColorTexture": {
          "index": 0
        },
        "metallicFactor": 0.0,
        "roughnessFactor": 0.6
      }
    },
    {
      "doubleSided": true,
      "name": "Material_1",
      "pbrMetallicRoughness": {
        "baseColorTexture": {
          "index": 1
        },
        "metallicFactor": 0.0,
        "roughnessFactor": 0.6
      }
    },
    {
      "doubleSided": true,
      "name": "Material_2",
      "pbrMetallicRoughness": {
        "baseColorTexture": {
          "index": 2
        },
        "metallicFactor": 0.0,
        "roughnessFactor": 0.6
      }
    },
    {
      "doubleSided": true,
      "name": "Material_3",
      "pbrMetallicRoughness": {
        "baseColorTexture": {
          "index": 3
        },
        "metallicFactor": 0.0,
        "roughnessFactor": 0.6
      }
    },
    {
      "doubleSided": true,
      "name": "Material_4",
      "pbrMetallicRoughness": {
        "baseColorTexture": {
          "index": 4
        },
        "metallicFactor": 0.0,
        "roughnessFactor": 0.6
      }
    },
    {
      "doubleSided": true,
      "name": "Material_5",
      "pbrMetallicRoughness": {
        "baseColorTexture": {
          "index": 5
        },
        "metallicFactor": 0.0,
        "roughnessFactor": 0.6
      }
    }
  ],
  "meshes": [
    {
      "name": "Object_0",
      "primitives": [
        {
          "attributes": {
            "NORMAL": 1,
            "POSITION": 0,
            "TEXCOORD_0": 2
          },
          "indices": 3,
          "material": 0,
          "mode": 4
        }
      ]
    },
    {
      "name": "Object_1",
      "primitives": [
        {
          "attributes": {
            "NORMAL": 5,
            "POSITION": 4,
            "TEXCOORD_0": 6
          },
          "indices": 7,
          "material": 1,
          "mode": 4
        }
      ]
    },
    {
      "name": "Object_2",
      "primitives": [
        {
          "attributes": {
            "NORMAL": 9,
            "POSITION": 8,
            "TEXCOORD_0": 10
          },
          "indices": 11,
          "material": 2,
          "mode": 4
        }
      ]
    },
    {
      "name": "Object_3",
      "primitives": [
        {
          "attributes": {
            "NORMAL": 13,
            "POSITION": 12,
            "TEXCOORD_0": 14
          },
          "indices": 15,
          "material": 3,
          "mode": 4
        }
      ]
    },
    {
      "name": "Object_4",
      "primitives": [
        {
          "attributes": {
            "NORMAL": 17,
            "POSITION": 16,
            "TEXCOORD_0": 18
          },
          "indices": 19,
          "material": 4,
          "mode": 4
        }
      ]
    },
    {
      "name": "Object_5",
      "primitives": [
        {
          "attributes": {
            "NORMAL": 21,
            "POSITION": 20,
            "TEXCOORD_0": 22
          },
          "indices": 23,
          "material": 5,
          "mode": 4
        }
      ]
    }
  ],
  "nodes": [
    {
      "children": [
        1
      ],
      "matrix": [
        1.0,
        0.0,
        0.0,
        0.0,
        0.0,
        2.220446049250313e-16,
        -1.0,
        0.0,
        0.0,
        1.0,
        2.220446049250313e-16,
        0.0,
        0.0,
        0.0,
        0.0,
        1.0
      ],
      "name": "Sketchfab_model"
    },
    {
      "children": [
        2
      ],
      "name": "root"
    },
    {
      "children": [
        3
      ],
      "matrix": [
        1.0,
        0.0,
        0.0,
        0.0,
        0.0,
        2.220446049250313e-16,
        1.0,
        0.0,
        0.0,
        -1.0,
        2.220446049250313e-16,
        0.0,
        0.0,
        0.0,
        0.0,
        1.0
      ],
      "name": "GLTF_SceneRootNode"
    },
    {
      "children": [
        4
      ],
      "matrix": [
        1.0,
        0.0,
        0.0,
        0.0,
        0.0,
        2.220446049250313e-16,
        -1.0,
        0.0,
        0.0,
        1.0,
        2.220446049250313e-16,
        0.0,
        0.0,
        0.0,
        0.0,
        1.0
      ],
      "name": "Sketchfab_model_0"
    },
    {
      "children": [
        5,
        7,
        9,
        11,
        13,
        15
      ],
      "name": "New Project 17.obj.cleaner.materialmerger.gles_1"
    },
    {
      "children": [
        6
      ],
      "name": "Object_2_2"
    },
    {
      "mesh": 0,
      "name": "Object_6"
    },
    {
      "children": [
        8
      ],
      "name": "Object_3_3"
    },
    {
      "mesh": 1,
      "name": "Object_8"
    },
    {
      "children": [
        10
      ],
      "name": "Object_4_4"
    },
    {
      "mesh": 2,
      "name": "Object_10"
    },
    {
      "children": [
        12
      ],
      "name": "Object_5_5"
    },
    {
      "mesh": 3,
      "name": "Object_12"
    },
    {
      "children": [
        14
      ],
      "name": "Object_6_6"
    },
    {
      "mesh": 4,
      "name": "Object_14"
    },
    {
      "children": [
        16
      ],
      "name": "Object_7_7"
    },
    {
      "mesh": 5,
      "name": "Object_16"
    }
  ],
  "samplers": [
    {
      "magFilter": 9729,
      "minFilter": 9987,
      "wrapS": 10497,
      "wrapT": 10497
    }
  ],
  "scene": 0,
  "scenes": [
    {
      "name": "Sketchfab_Scene",
      "nodes": [
        0
      ]
    }
  ],
  "textures": [
    {
      "sampler": 0,
      "source": 0
    },
    {
      "sampler": 0,
      "source": 1
    },
    {
      "sampler": 0,
      "source": 2
    },
    {
      "sampler": 0,
      "source": 3
    },
    {
      "sampler": 0,
      "source": 4
    },
    {
      "sampler": 0,
      "source": 5
    }
  ]
}
