{
  "accessors": [
    {
      "bufferView": 2,
      "componentType": 5126,
      "count": 4352,
      "max": [
        2.0197038650512695,
        2.0403294563293457,
        7.855664253234863
      ],
      "min": [
        -2.0200517177581787,
        -2.15175724029541,
        0.0
      ],
      "type": "VEC3"
    },
    {
      "bufferView": 2,
      "byteOffset": 52224,
      "componentType": 5126,
      "count": 4352,
      "max": [
        1.0,
        1.0,
        1.0
      ],
      "min": [
        -1.0,
        -1.0,
        -1.0
      ],
      "type": "VEC3"
    },
    {
      "bufferView": 1,
      "componentType": 5126,
      "count": 4352,
      "max": [
        0.7016293406486511,
        0.9395118951797485
      ],
      "min": [
        0.29495519399642944,
        0.15316641330718994
      ],
      "type": "VEC2"
    },
    {
      "bufferView": 0,
      "componentType": 5125,
      "count": 10260,
      "type": "SCALAR"
    },
    {
      "bufferView": 2,
      "byteOffset": 104448,
      "componentType": 5126,
      "count": 1774,
      "max": [
        2.019495725631714,
        2.040121078491211,
        8.0370512008667
      ],
      "min": [
        -2.019843578338623,
        -1.998498558998108,
        0.0
      ],
      "type": "VEC3"
    },
    {
      "bufferView": 2,
      "byteOffset": 125736,
      "componentType": 5126,
      "count": 1774,
      "max": [
        1.0,
        1.0,
        1.0
      ],
      "min": [
        -1.0,
        -1.0,
        -1.0
      ],
      "type": "VEC3"
    },
    {
      "bufferView": 1,
      "byteOffset": 34816,
      "componentType": 5126,
      "count": 1774,
      "max": [
        0.6975894570350647,
        0.7265209555625916
      ],
      "min": [
        0.3024106025695801,
        0.15380685031414032
      ],
      "type": "VEC2"
    },
    {
      "bufferView": 0,
      "byteOffset": 41040,
      "componentType": 5125,
      "count": 4572,
      "type": "SCALAR"
    }
  ],
  "asset": {
    "extras": {
      "author": "Frid.blend (https://sketchfab.com/Fridqeir)",
      "license": "CC-BY-4.0 (http://creativecommons.org/licenses/by/4.0/)",
      "source": "https://sketchfab.com/3d-models/old-japanese-store-lowpoly-baa1a12ed0984143adde52b5e165e288",
      "title": "Old Japanese Store | Lowpoly"
    },
    "generator": "Sketchfab-17.14.0",
    "version": "2.0"
  },
  "bufferViews": [
    {
      "buffer": 0,
      "byteLength": 59328,
      "name": "floatBufferViews",
      "target": 34963
    },
    {
      "buffer": 0,
      "byteLength": 49008,
      "byteOffset": 59328,
      "byteStride": 8,
      "name": "floatBufferViews",
      "target": 34962
    },
    {
      "buffer": 0,
      "byteLength": 147024,
      "byteOffset": 108336,
      "byteStride": 12,
      "name": "floatBufferViews",
      "target": 34962
    }
  ],
  "buffers": [
    {
      "byteLength": 255360,
      "uri": "scene.bin"
    }
  ],
  "images": [
    {
      "uri": "textures/Building_1_baseColor.png"
    },
    {
      "uri": "textures/building_2_baseColor.png"
    }
  ],
  "materials": [
    {
      "doubleSided": true,
      "name": "Building_1",
      "pbrMetallicRoughness": {
        "baseColorTexture": {
          "index": 0
        },
        "metallicFactor": 0.0,
        "roughnessFactor": 0.9200000200000075
      }
    },
    {
      "doubleSided": true,
      "name": "building_2",
      "pbrMetallicRoughness": {
        "baseColorTexture": {
          "index": 1
        },
        "metallicFactor": 0.0,
        "roughnessFactor": 0.9200000200000075
      }
    }
  ],
  "meshes": [
    {
      "name": "model_Building 1_0",
      "primitives": [
        {
          "attributes": {
            "NORMAL": 1,
            "POSITION": 0,
            "TEXCOORD_0": 2
          },
          "indices": 3,
          "material": 0,
          "mode": 4
        }
      ]
    },
    {
      "name": "model_building 2_0",
      "primitives": [
        {
          "attributes": {
            "NORMAL": 5,
            "POSITION": 4,
            "TEXCOORD_0": 6
          },
          "indices": 7,
          "material": 1,
          "mode": 4
        }
      ]
    }
  ],
  "nodes": [
    {
      "children": [
        1
      ],
      "matrix": [
        1.0,
        0.0,
        0.0,
        0.0,
        0.0,
        2.220446049250313e-16,
        -1.0,
        0.0,
        0.0,
        1.0,
        2.220446049250313e-16,
        0.0,
        0.0,
        0.0,
        0.0,
        1.0
      ],
      "name": "Sketchfab_model"
    },
    {
      "children": [
        2
      ],
      "matrix": [
        0.009999999776482582,
        0.0,
        0.0,
        0.0,
        0.0,
        0.0,
        0.009999999776482582,
        0.0,
        0.0,
        -0.009999999776482582,
        0.0,
        0.0,
        0.0,
        0.0,
        0.0,
        1.0
      ],
      "name": "japanese store.fbx"
    },
    {
      "children": [
        3
      ],
      "name": "RootNode"
    },
    {
      "children": [
        4,
        5
      ],
      "matrix": [
        100.0,
        0.0,
        0.0,
        0.0,
        0.0,
        -1.629206793918314e-05,
        -99.99999999999868,
        0.0,
        0.0,
        99.99999999999868,
        -1.629206793918314e-05,
        0.0,
        0.0,
        0.0,
        0.0,
        1.0
      ],
      "name": "model"
    },
    {
      "mesh": 0,
      "name": "model_Building 1_0"
    },
    {
      "mesh": 1,
      "name": "model_building 2_0"
    }
  ],
  "samplers": [
    {
      "magFilter": 9729,
      "minFilter": 9987,
      "wrapS": 33071,
      "wrapT": 33071
    },
    {
      "magFilter": 9729,
      "minFilter": 9987,
      "wrapS": 10497,
      "wrapT": 10497
    }
  ],
  "scene": 0,
  "scenes": [
    {
      "name": "Sketchfab_Scene",
      "nodes": [
        0
      ]
    }
  ],
  "textures": [
    {
      "sampler": 0,
      "source": 0
    },
    {
      "sampler": 1,
      "source": 1
    }
  ]
}
