{
  "accessors": [
    {
      "bufferView": 2,
      "componentType": 5126,
      "count": 2408,
      "max": [
        1.2753958702087402,
        1.9616320133209229,
        8.598628997802734
      ],
      "min": [
        -1.8559592962265015,
        -1.9196553230285645,
        0.004289150238037109
      ],
      "type": "VEC3"
    },
    {
      "bufferView": 2,
      "byteOffset": 28896,
      "componentType": 5126,
      "count": 2408,
      "max": [
        1.0,
        1.0,
        1.0
      ],
      "min": [
        -1.0,
        -1.0,
        -1.0
      ],
      "type": "VEC3"
    },
    {
      "bufferView": 1,
      "componentType": 5126,
      "count": 2408,
      "max": [
        0.875,
        1.0
      ],
      "min": [
        0.0,
        0.0
      ],
      "type": "VEC2"
    },
    {
      "bufferView": 0,
      "componentType": 5125,
      "count": 3369,
      "type": "SCALAR"
    },
    {
      "bufferView": 2,
      "byteOffset": 57792,
      "componentType": 5126,
      "count": 987,
      "max": [
        1.1869359016418457,
        1.8261539936065674,
        8.532180786132813
      ],
      "min": [
        -1.7674992084503174,
        -1.8684422969818115,
        0.07722091674804688
      ],
      "type": "VEC3"
    },
    {
      "bufferView": 2,
      "byteOffset": 69636,
      "componentType": 5126,
      "count": 987,
      "max": [
        1.0,
        1.0,
        1.0
      ],
      "min": [
        -1.0,
        -1.0,
        -1.0
      ],
      "type": "VEC3"
    },
    {
      "bufferView": 1,
      "byteOffset": 19264,
      "componentType": 5126,
      "count": 987,
      "max": [
        0.875,
        1.0
      ],
      "min": [
        0.0,
        0.0
      ],
      "type": "VEC2"
    },
    {
      "bufferView": 0,
      "byteOffset": 13476,
      "componentType": 5125,
      "count": 1431,
      "type": "SCALAR"
    },
    {
      "bufferView": 2,
      "byteOffset": 81480,
      "componentType": 5126,
      "count": 2595,
      "max": [
        1.1278719902038574,
        1.9714844226837158,
        8.462831497192383
      ],
      "min": [
        -1.3711154460906982,
        -1.7611007690429688,
        0.07722091674804688
      ],
      "type": "VEC3"
    },
    {
      "bufferView": 2,
      "byteOffset": 112620,
      "componentType": 5126,
      "count": 2595,
      "max": [
        1.0,
        1.0,
        1.0
      ],
      "min": [
        -1.0,
        -1.0,
        -1.0
      ],
      "type": "VEC3"
    },
    {
      "bufferView": 1,
      "byteOffset": 27160,
      "componentType": 5126,
      "count": 2595,
      "max": [
        0.875,
        1.0
      ],
      "min": [
        0.125,
        0.0
      ],
      "type": "VEC2"
    },
    {
      "bufferView": 0,
      "byteOffset": 19200,
      "componentType": 5125,
      "count": 4302,
      "type": "SCALAR"
    },
    {
      "bufferView": 2,
      "byteOffset": 143760,
      "componentType": 5126,
      "count": 308,
      "max": [
        1.0892926454544067,
        1.534771203994751,
        8.211852073669434
      ],
      "min": [
        -1.2489686012268066,
        -1.7255117893218994,
        0.17544889450073242
      ],
      "type": "VEC3"
    },
    {
      "bufferView": 2,
      "byteOffset": 147456,
      "componentType": 5126,
      "count": 308,
      "max": [
        1.0,
        0.0,
        2.2590052140003536e-06
      ],
      "min": [
        -4.635548407350143e-07,
        -1.0,
        -2.2590052140003536e-06
      ],
      "type": "VEC3"
    },
    {
      "bufferView": 1,
      "byteOffset": 47920,
      "componentType": 5126,
      "count": 308,
      "max": [
        0.7136415839195251,
        0.9696028232574463
      ],
      "min": [
        0.3052191436290741,
        0.40695950388908386
      ],
      "type": "VEC2"
    },
    {
      "bufferView": 0,
      "byteOffset": 36408,
      "componentType": 5125,
      "count": 408,
      "type": "SCALAR"
    },
    {
      "bufferView": 2,
      "byteOffset": 151152,
      "componentType": 5126,
      "count": 1782,
      "max": [
        1.2138917446136475,
        1.7812070846557617,
        8.586334228515625
      ],
      "min": [
        -0.16093604266643524,
        -1.8293201923370361,
        1.7053637504577637
      ],
      "type": "VEC3"
    },
    {
      "bufferView": 2,
      "byteOffset": 172536,
      "componentType": 5126,
      "count": 1782,
      "max": [
        1.0,
        1.0,
        1.0
      ],
      "min": [
        -1.0,
        -1.0,
        -1.0
      ],
      "type": "VEC3"
    },
    {
      "bufferView": 1,
      "byteOffset": 50384,
      "componentType": 5126,
      "count": 1782,
      "max": [
        0.875,
        1.0
      ],
      "min": [
        0.125,
        0.0
      ],
      "type": "VEC2"
    },
    {
      "bufferView": 0,
      "byteOffset": 38040,
      "componentType": 5125,
      "count": 2418,
      "type": "SCALAR"
    },
    {
      "bufferView": 2,
      "byteOffset": 193920,
      "componentType": 5126,
      "count": 352,
      "max": [
        1.1904691457748413,
        1.7577846050262451,
        7.667606353759766
      ],
      "min": [
        -0.024022012948989868,
        -1.8058974742889404,
        1.8121628761291504
      ],
      "type": "VEC3"
    },
    {
      "bufferView": 2,
      "byteOffset": 198144,
      "componentType": 5126,
      "count": 352,
      "max": [
        1.0,
        1.0,
        1.0
      ],
      "min": [
        -1.0,
        -1.0,
        -0.008114819414913654
      ],
      "type": "VEC3"
    },
    {
      "bufferView": 1,
      "byteOffset": 64640,
      "componentType": 5126,
      "count": 352,
      "max": [
        0.875,
        1.0
      ],
      "min": [
        0.04895810782909393,
        0.0
      ],
      "type": "VEC2"
    },
    {
      "bufferView": 0,
      "byteOffset": 47712,
      "componentType": 5125,
      "count": 420,
      "type": "SCALAR"
    },
    {
      "bufferView": 2,
      "byteOffset": 202368,
      "componentType": 5126,
      "count": 286,
      "max": [
        0.2284611314535141,
        0.21101343631744385,
        7.363731861114502
      ],
      "min": [
        -0.05817001312971115,
        -0.09036833047866821,
        7.176734924316406
      ],
      "type": "VEC3"
    },
    {
      "bufferView": 2,
      "byteOffset": 205800,
      "componentType": 5126,
      "count": 286,
      "max": [
        1.0,
        0.9510611891746521,
        1.0
      ],
      "min": [
        -1.0,
        -0.9510611891746521,
        -0.7306936979293823
      ],
      "type": "VEC3"
    },
    {
      "bufferView": 1,
      "byteOffset": 67456,
      "componentType": 5126,
      "count": 286,
      "max": [
        1.0,
        1.0
      ],
      "min": [
        -7.450580596923828e-08,
        0.0010376714635640383
      ],
      "type": "VEC2"
    },
    {
      "bufferView": 0,
      "byteOffset": 49392,
      "componentType": 5125,
      "count": 300,
      "type": "SCALAR"
    },
    {
      "bufferView": 2,
      "byteOffset": 209232,
      "componentType": 5126,
      "count": 672,
      "max": [
        0.32384657859802246,
        0.30771756172180176,
        7.585391044616699
      ],
      "min": [
        -0.14147353172302246,
        -0.19376450777053833,
        7.298916339874268
      ],
      "type": "VEC3"
    },
    {
      "bufferView": 2,
      "byteOffset": 217296,
      "componentType": 5126,
      "count": 672,
      "max": [
        0.9769043922424316,
        0.9695329666137695,
        0.9975523352622986
      ],
      "min": [
        -0.9967902898788452,
        -0.9403156042098999,
        0.008210860192775726
      ],
      "type": "VEC3"
    },
    {
      "bufferView": 1,
      "byteOffset": 69744,
      "componentType": 5126,
      "count": 672,
      "max": [
        1.0,
        1.0
      ],
      "min": [
        0.0,
        0.0
      ],
      "type": "VEC2"
    },
    {
      "bufferView": 0,
      "byteOffset": 50592,
      "componentType": 5125,
      "count": 672,
      "type": "SCALAR"
    }
  ],
  "asset": {
    "extras": {
      "author": "Kerem Biçer (https://sketchfab.com/mr.harvester81)",
      "license": "SKETCHFAB Standard (https://sketchfab.com/licenses)",
      "source": "https://sketchfab.com/3d-models/low-poly-apartment-2-e7fcfb2cc16843d0a28e7d73eee5f4c3",
      "title": "Low Poly Apartment #2"
    },
    "generator": "Sketchfab-17.8.0",
    "version": "2.0"
  },
  "bufferViews": [
    {
      "buffer": 0,
      "byteLength": 53280,
      "name": "floatBufferViews",
      "target": 34963
    },
    {
      "buffer": 0,
      "byteLength": 75120,
      "byteOffset": 53280,
      "byteStride": 8,
      "name": "floatBufferViews",
      "target": 34962
    },
    {
      "buffer": 0,
      "byteLength": 225360,
      "byteOffset": 128400,
      "byteStride": 12,
      "name": "floatBufferViews",
      "target": 34962
    }
  ],
  "buffers": [
    {
      "byteLength": 353760,
      "uri": "scene.bin"
    }
  ],
  "materials": [
    {
      "doubleSided": true,
      "name": "Frames",
      "pbrMetallicRoughness": {
        "baseColorFactor": [
          0.318539,
          0.318539,
          0.318539,
          1.0
        ],
        "metallicFactor": 0.0,
        "roughnessFactor": 0.9648094233227451
      }
    },
    {
      "doubleSided": true,
      "name": "light_puple",
      "pbrMetallicRoughness": {
        "baseColorFactor": [
          0.374791,
          0.227466,
          0.828572,
          1.0
        ],
        "metallicFactor": 0.0,
        "roughnessFactor": 0.948770442142953
      }
    },
    {
      "doubleSided": true,
      "name": "Black_Metal",
      "pbrMetallicRoughness": {
        "baseColorFactor": [
          0.0368894,
          0.0368894,
          0.0368894,
          1.0
        ],
        "metallicFactor": 0.0,
        "roughnessFactor": 0.9922192043015591
      }
    },
    {
      "doubleSided": true,
      "name": "Glass",
      "pbrMetallicRoughness": {
        "baseColorFactor": [
          0.473531,
          0.651405,
          0.799103,
          1.0
        ],
        "metallicFactor": 0.0,
        "roughnessFactor": 0.8604128341621362
      }
    },
    {
      "doubleSided": true,
      "name": "Wood_Dark",
      "pbrMetallicRoughness": {
        "baseColorFactor": [
          0.152324,
          0.0626638,
          0.0237478,
          1.0
        ],
        "metallicFactor": 0.0,
        "roughnessFactor": 0.9910049416211997
      }
    },
    {
      "doubleSided": true,
      "name": "Wood_Light",
      "pbrMetallicRoughness": {
        "baseColorFactor": [
          0.271096,
          0.113869,
          0.0449353,
          1.0
        ],
        "metallicFactor": 0.0,
        "roughnessFactor": 0.9837781235013681
      }
    },
    {
      "doubleSided": true,
      "name": "Pots",
      "pbrMetallicRoughness": {
        "baseColorFactor": [
          0.45,
          0.101068,
          0.0579724,
          1.0
        ],
        "metallicFactor": 0.0,
        "roughnessFactor": 0.9756079293133528
      }
    },
    {
      "doubleSided": true,
      "name": "Plant_Green",
      "pbrMetallicRoughness": {
        "baseColorFactor": [
          0.257486,
          0.428571,
          0.0,
          1.0
        ],
        "metallicFactor": 0.0,
        "roughnessFactor": 0.9192208138493334
      }
    }
  ],
  "meshes": [
    {
      "name": "Purple apartment_Frames_0",
      "primitives": [
        {
          "attributes": {
            "NORMAL": 1,
            "POSITION": 0,
            "TEXCOORD_0": 2
          },
          "indices": 3,
          "material": 0,
          "mode": 4
        }
      ]
    },
    {
      "name": "Purple apartment_light puple _0",
      "primitives": [
        {
          "attributes": {
            "NORMAL": 5,
            "POSITION": 4,
            "TEXCOORD_0": 6
          },
          "indices": 7,
          "material": 1,
          "mode": 4
        }
      ]
    },
    {
      "name": "Purple apartment_Black Metal_0",
      "primitives": [
        {
          "attributes": {
            "NORMAL": 9,
            "POSITION": 8,
            "TEXCOORD_0": 10
          },
          "indices": 11,
          "material": 2,
          "mode": 4
        }
      ]
    },
    {
      "name": "Purple apartment_Glass_0",
      "primitives": [
        {
          "attributes": {
            "NORMAL": 13,
            "POSITION": 12,
            "TEXCOORD_0": 14
          },
          "indices": 15,
          "material": 3,
          "mode": 4
        }
      ]
    },
    {
      "name": "Purple apartment_Wood Dark_0",
      "primitives": [
        {
          "attributes": {
            "NORMAL": 17,
            "POSITION": 16,
            "TEXCOORD_0": 18
          },
          "indices": 19,
          "material": 4,
          "mode": 4
        }
      ]
    },
    {
      "name": "Purple apartment_Wood Light_0",
      "primitives": [
        {
          "attributes": {
            "NORMAL": 21,
            "POSITION": 20,
            "TEXCOORD_0": 22
          },
          "indices": 23,
          "material": 5,
          "mode": 4
        }
      ]
    },
    {
      "name": "Purple apartment_Pots_0",
      "primitives": [
        {
          "attributes": {
            "NORMAL": 25,
            "POSITION": 24,
            "TEXCOORD_0": 26
          },
          "indices": 27,
          "material": 6,
          "mode": 4
        }
      ]
    },
    {
      "name": "Purple apartment_Plant Green_0",
      "primitives": [
        {
          "attributes": {
            "NORMAL": 29,
            "POSITION": 28,
            "TEXCOORD_0": 30
          },
          "indices": 31,
          "material": 7,
          "mode": 4
        }
      ]
    }
  ],
  "nodes": [
    {
      "children": [
        1
      ],
      "matrix": [
        1.0,
        0.0,
        0.0,
        0.0,
        0.0,
        -3.828568672208042e-16,
        1.0,
        0.0,
        0.0,
        -1.0,
        -3.828568672208042e-16,
        0.0,
        0.0,
        0.0,
        0.0,
        1.0
      ],
      "name": "Sketchfab_model"
    },
    {
      "children": [
        2
      ],
      "matrix": [
        1.0,
        0.0,
        0.0,
        0.0,
        0.0,
        -1.0,
        0.0,
        0.0,
        0.0,
        0.0,
        -1.0,
        0.0,
        0.0,
        0.0,
        0.0,
        1.0
      ],
      "name": "4a4b27c9bfe84443a0b19997bbfcf74e.fbx"
    },
    {
      "children": [
        3
      ],
      "name": "RootNode"
    },
    {
      "children": [
        4,
        5,
        6,
        7,
        8,
        9,
        10,
        11
      ],
      "matrix": [
        -0.9999999999999964,
        -8.742277980456492e-08,
        0.0,
        0.0,
        8.742277980456492e-08,
        -0.9999999999999964,
        0.0,
        0.0,
        0.0,
        0.0,
        1.0,
        0.0,
        0.0,
        0.0,
        0.0,
        1.0
      ],
      "name": "Purple apartment"
    },
    {
      "mesh": 0,
      "name": "Purple apartment_Frames_0"
    },
    {
      "mesh": 1,
      "name": "Purple apartment_light puple _0"
    },
    {
      "mesh": 2,
      "name": "Purple apartment_Black Metal_0"
    },
    {
      "mesh": 3,
      "name": "Purple apartment_Glass_0"
    },
    {
      "mesh": 4,
      "name": "Purple apartment_Wood Dark_0"
    },
    {
      "mesh": 5,
      "name": "Purple apartment_Wood Light_0"
    },
    {
      "mesh": 6,
      "name": "Purple apartment_Pots_0"
    },
    {
      "mesh": 7,
      "name": "Purple apartment_Plant Green_0"
    }
  ],
  "scene": 0,
  "scenes": [
    {
      "name": "Sketchfab_Scene",
      "nodes": [
        0
      ]
    }
  ]
}
