{
  "accessors": [
    {
      "bufferView": 2,
      "componentType": 5126,
      "count": 1698,
      "max": [
        2.4643092155456543,
        4.956310272216797,
        1.6579934358596802
      ],
      "min": [
        -2.4643092155456543,
        -6.533233642578125,
        -1.6350929737091064
      ],
      "type": "VEC3"
    },
    {
      "bufferView": 2,
      "byteOffset": 20376,
      "componentType": 5126,
      "count": 1698,
      "max": [
        1.0,
        1.0,
        1.0
      ],
      "min": [
        -1.0,
        -0.9998428821563721,
        -0.9999305009841919
      ],
      "type": "VEC3"
    },
    {
      "bufferView": 1,
      "componentType": 5126,
      "count": 1698,
      "max": [
        1.0,
        1.0
      ],
      "min": [
        0.0,
        0.0
      ],
      "type": "VEC2"
    },
    {
      "bufferView": 0,
      "componentType": 5125,
      "count": 2244,
      "type": "SCALAR"
    },
    {
      "bufferView": 2,
      "byteOffset": 40752,
      "componentType": 5126,
      "count": 176,
      "max": [
        2.1620655059814453,
        3.6134204864501953,
        -0.49897128343582153
      ],
      "min": [
        1.519580364227295,
        1.8140000104904175,
        -2.2103219032287598
      ],
      "type": "VEC3"
    },
    {
      "bufferView": 2,
      "byteOffset": 42864,
      "componentType": 5126,
      "count": 176,
      "max": [
        1.0,
        0.9510566592216492,
        1.0
      ],
      "min": [
        -1.0,
        -0.9510565996170044,
        -1.0
      ],
      "type": "VEC3"
    },
    {
      "bufferView": 1,
      "byteOffset": 13584,
      "componentType": 5126,
      "count": 176,
      "max": [
        1.0,
        1.0
      ],
      "min": [
        0.0,
        0.0
      ],
      "type": "VEC2"
    },
    {
      "bufferView": 0,
      "byteOffset": 8976,
      "componentType": 5125,
      "count": 288,
      "type": "SCALAR"
    },
    {
      "bufferView": 2,
      "byteOffset": 44976,
      "componentType": 5126,
      "count": 176,
      "max": [
        2.1620655059814453,
        -3.4069066047668457,
        -0.49897128343582153
      ],
      "min": [
        1.519580364227295,
        -5.206326961517334,
        -2.2103219032287598
      ],
      "type": "VEC3"
    },
    {
      "bufferView": 2,
      "byteOffset": 47088,
      "componentType": 5126,
      "count": 176,
      "max": [
        1.0,
        0.9510566592216492,
        1.0
      ],
      "min": [
        -1.0,
        -0.951056718826294,
        -1.0
      ],
      "type": "VEC3"
    },
    {
      "bufferView": 1,
      "byteOffset": 14992,
      "componentType": 5126,
      "count": 176,
      "max": [
        1.0,
        1.0
      ],
      "min": [
        0.0,
        0.0
      ],
      "type": "VEC2"
    },
    {
      "bufferView": 0,
      "byteOffset": 10128,
      "componentType": 5125,
      "count": 288,
      "type": "SCALAR"
    },
    {
      "bufferView": 2,
      "byteOffset": 49200,
      "componentType": 5126,
      "count": 178,
      "max": [
        2.291381359100342,
        -3.4069066047668457,
        2.2103219032287598
      ],
      "min": [
        1.6488960981369019,
        -5.206326961517334,
        0.4989713430404663
      ],
      "type": "VEC3"
    },
    {
      "bufferView": 2,
      "byteOffset": 51336,
      "componentType": 5126,
      "count": 178,
      "max": [
        1.0,
        0.9510565996170044,
        1.0
      ],
      "min": [
        -1.0,
        -0.9510567784309387,
        -1.0
      ],
      "type": "VEC3"
    },
    {
      "bufferView": 1,
      "byteOffset": 16400,
      "componentType": 5126,
      "count": 178,
      "max": [
        1.0,
        1.0
      ],
      "min": [
        0.0,
        0.0
      ],
      "type": "VEC2"
    },
    {
      "bufferView": 0,
      "byteOffset": 11280,
      "componentType": 5125,
      "count": 288,
      "type": "SCALAR"
    },
    {
      "bufferView": 2,
      "byteOffset": 53472,
      "componentType": 5126,
      "count": 178,
      "max": [
        2.291381359100342,
        3.613420009613037,
        2.2103219032287598
      ],
      "min": [
        1.6488960981369019,
        1.8139997720718384,
        0.4989713430404663
      ],
      "type": "VEC3"
    },
    {
      "bufferView": 2,
      "byteOffset": 55608,
      "componentType": 5126,
      "count": 178,
      "max": [
        1.0,
        0.9510568380355835,
        1.0
      ],
      "min": [
        -1.0,
        -0.9510567784309387,
        -1.0
      ],
      "type": "VEC3"
    },
    {
      "bufferView": 1,
      "byteOffset": 17824,
      "componentType": 5126,
      "count": 178,
      "max": [
        1.0,
        1.0
      ],
      "min": [
        0.0,
        0.0
      ],
      "type": "VEC2"
    },
    {
      "bufferView": 0,
      "byteOffset": 12432,
      "componentType": 5125,
      "count": 288,
      "type": "SCALAR"
    }
  ],
  "asset": {
    "extras": {
      "author": "Namahoi (https://sketchfab.com/Namahoi)",
      "license": "SKETCHFAB Standard (https://sketchfab.com/licenses)",
      "source": "https://sketchfab.com/3d-models/subaru-impreza-4411a6bd5706470889e3ee511dd0b039",
      "title": "Subaru Impreza"
    },
    "generator": "Sketchfab-17.8.0",
    "version": "2.0"
  },
  "bufferViews": [
    {
      "buffer": 0,
      "byteLength": 13584,
      "name": "floatBufferViews",
      "target": 34963
    },
    {
      "buffer": 0,
      "byteLength": 19248,
      "byteOffset": 13584,
      "byteStride": 8,
      "name": "floatBufferViews",
      "target": 34962
    },
    {
      "buffer": 0,
      "byteLength": 57744,
      "byteOffset": 32832,
      "byteStride": 12,
      "name": "floatBufferViews",
      "target": 34962
    }
  ],
  "buffers": [
    {
      "byteLength": 90576,
      "uri": "scene.bin"
    }
  ],
  "extensionsUsed": [
    "KHR_materials_unlit"
  ],
  "images": [
    {
      "uri": "textures/bs_sub_impreza_baseColor.png"
    },
    {
      "uri": "textures/bs_sub_impreza_wheel_baseColor.png"
    }
  ],
  "materials": [
    {
      "alphaMode": "BLEND",
      "doubleSided": true,
      "extensions": {
        "KHR_materials_unlit": {}
      },
      "name": "bs_sub_impreza",
      "pbrMetallicRoughness": {
        "baseColorTexture": {
          "index": 0
        },
        "metallicFactor": 0.0
      }
    },
    {
      "doubleSided": true,
      "extensions": {
        "KHR_materials_unlit": {}
      },
      "name": "bs_sub_impreza_wheel",
      "pbrMetallicRoughness": {
        "baseColorTexture": {
          "index": 1
        },
        "metallicFactor": 0.0
      }
    }
  ],
  "meshes": [
    {
      "name": "SubaruImpreza_bs_sub_impreza_0",
      "primitives": [
        {
          "attributes": {
            "NORMAL": 1,
            "POSITION": 0,
            "TEXCOORD_0": 2
          },
          "indices": 3,
          "material": 0,
          "mode": 4
        }
      ]
    },
    {
      "name": "sub_imp_rl_bs_sub_impreza_wheel_0",
      "primitives": [
        {
          "attributes": {
            "NORMAL": 5,
            "POSITION": 4,
            "TEXCOORD_0": 6
          },
          "indices": 7,
          "material": 1,
          "mode": 4
        }
      ]
    },
    {
      "name": "sub_imp_fl_bs_sub_impreza_wheel_0",
      "primitives": [
        {
          "attributes": {
            "NORMAL": 9,
            "POSITION": 8,
            "TEXCOORD_0": 10
          },
          "indices": 11,
          "material": 1,
          "mode": 4
        }
      ]
    },
    {
      "name": "sub_imp_fr_bs_sub_impreza_wheel_0",
      "primitives": [
        {
          "attributes": {
            "NORMAL": 13,
            "POSITION": 12,
            "TEXCOORD_0": 14
          },
          "indices": 15,
          "material": 1,
          "mode": 4
        }
      ]
    },
    {
      "name": "sub_imp_rr_bs_sub_impreza_wheel_0",
      "primitives": [
        {
          "attributes": {
            "NORMAL": 17,
            "POSITION": 16,
            "TEXCOORD_0": 18
          },
          "indices": 19,
          "material": 1,
          "mode": 4
        }
      ]
    }
  ],
  "nodes": [
    {
      "children": [
        1
      ],
      "matrix": [
        1.0,
        0.0,
        0.0,
        0.0,
        0.0,
        2.220446049250313e-16,
        -1.0,
        0.0,
        0.0,
        1.0,
        2.220446049250313e-16,
        0.0,
        0.0,
        0.0,
        0.0,
        1.0
      ],
      "name": "Sketchfab_model"
    },
    {
      "children": [
        2
      ],
      "matrix": [
        0.009999999776482582,
        0.0,
        0.0,
        0.0,
        0.0,
        0.0,
        0.009999999776482582,
        0.0,
        0.0,
        -0.009999999776482582,
        0.0,
        0.0,
        0.0,
        0.0,
        0.0,
        1.0
      ],
      "name": "subaru_impreza.fbx"
    },
    {
      "children": [
        3,
        5,
        7,
        9,
        11
      ],
      "name": "RootNode"
    },
    {
      "children": [
        4
      ],
      "matrix": [
        100.0,
        0.0,
        0.0,
        0.0,
        0.0,
        -1.629206793918314e-05,
        -99.99999999999868,
        0.0,
        0.0,
        99.99999999999868,
        -1.629206793918314e-05,
        0.0,
        0.0,
        0.0,
        0.0,
        1.0
      ],
      "name": "SubaruImpreza"
    },
    {
      "mesh": 0,
      "name": "SubaruImpreza_bs_sub_impreza_0"
    },
    {
      "children": [
        6
      ],
      "matrix": [
        100.0,
        0.0,
        0.0,
        0.0,
        0.0,
        -1.629206793918314e-05,
        -99.99999999999868,
        0.0,
        0.0,
        99.99999999999868,
        -1.629206793918314e-05,
        0.0,
        0.0,
        0.0,
        0.0,
        1.0
      ],
      "name": "sub_imp_rl"
    },
    {
      "mesh": 1,
      "name": "sub_imp_rl_bs_sub_impreza_wheel_0"
    },
    {
      "children": [
        8
      ],
      "matrix": [
        100.0,
        0.0,
        0.0,
        0.0,
        0.0,
        -1.629206793918314e-05,
        -99.99999999999868,
        0.0,
        0.0,
        99.99999999999868,
        -1.629206793918314e-05,
        0.0,
        0.0,
        0.0,
        0.0,
        1.0
      ],
      "name": "sub_imp_fl"
    },
    {
      "mesh": 2,
      "name": "sub_imp_fl_bs_sub_impreza_wheel_0"
    },
    {
      "children": [
        10
      ],
      "matrix": [
        -99.99999999999885,
        1.5099579909783707e-05,
        2.6469779601696886e-21,
        0.0,
        2.46003382353768e-12,
        1.6292068005796523e-05,
        -99.99999999999865,
        0.0,
        -1.5099579909783506e-05,
        -99.99999999999753,
        -1.6292067983592062e-05,
        0.0,
        0.0,
        0.0,
        0.0,
        1.0
      ],
      "name": "sub_imp_fr"
    },
    {
      "mesh": 3,
      "name": "sub_imp_fr_bs_sub_impreza_wheel_0"
    },
    {
      "children": [
        12
      ],
      "matrix": [
        -99.99999999999885,
        1.5099579909783707e-05,
        2.6469779601696886e-21,
        0.0,
        2.46003382353768e-12,
        1.6292068005796523e-05,
        -99.99999999999865,
        0.0,
        -1.5099579909783506e-05,
        -99.99999999999753,
        -1.6292067983592062e-05,
        0.0,
        0.0,
        0.0,
        0.0,
        1.0
      ],
      "name": "sub_imp_rr"
    },
    {
      "mesh": 4,
      "name": "sub_imp_rr_bs_sub_impreza_wheel_0"
    }
  ],
  "samplers": [
    {
      "magFilter": 9728,
      "minFilter": 9728,
      "wrapS": 10497,
      "wrapT": 10497
    }
  ],
  "scene": 0,
  "scenes": [
    {
      "name": "Sketchfab_Scene",
      "nodes": [
        0
      ]
    }
  ],
  "textures": [
    {
      "sampler": 0,
      "source": 0
    },
    {
      "sampler": 0,
      "source": 1
    }
  ]
}
