{
  "accessors": [
    {
      "bufferView": 3,
      "componentType": 5126,
      "count": 60,
      "max": [
        0.0750332698225975,
        1.7546746730804443,
        0.2425459325313568
      ],
      "min": [
        -0.0750332698225975,
        1.6498732566833496,
        -0.028373003005981445
      ],
      "type": "VEC3"
    },
    {
      "bufferView": 3,
      "byteOffset": 720,
      "componentType": 5126,
      "count": 60,
      "max": [
        0.9885402917861938,
        0.9767716526985168,
        0.9442622661590576
      ],
      "min": [
        -0.9885402917861938,
        -0.032224465161561966,
        -0.9421179294586182
      ],
      "type": "VEC3"
    },
    {
      "bufferView": 2,
      "componentType": 5126,
      "count": 60,
      "max": [
        0.4927135407924652,
        0.24009953439235687
      ],
      "min": [
        0.17288634181022644,
        0.02182319387793541
      ],
      "type": "VEC2"
    },
    {
      "bufferView": 1,
      "componentType": 5125,
      "count": 84,
      "type": "SCALAR"
    },
    {
      "bufferView": 3,
      "byteOffset": 1440,
      "componentType": 5126,
      "count": 1330,
      "max": [
        0.34449487924575806,
        1.7370431423187256,
        0.2236577272415161
      ],
      "min": [
        -0.34449487924575806,
        -0.0002962425060104579,
        -0.10551084578037262
      ],
      "type": "VEC3"
    },
    {
      "bufferView": 3,
      "byteOffset": 17400,
      "componentType": 5126,
      "count": 1330,
      "max": [
        1.0,
        0.9969922304153442,
        0.9992612600326538
      ],
      "min": [
        -1.0,
        -1.0,
        -0.9998777508735657
      ],
      "type": "VEC3"
    },
    {
      "bufferView": 2,
      "byteOffset": 480,
      "componentType": 5126,
      "count": 1330,
      "max": [
        0.9967453479766846,
        0.9963472485542297
      ],
      "min": [
        0.004022538661956787,
        0.014443494379520416
      ],
      "type": "VEC2"
    },
    {
      "bufferView": 1,
      "byteOffset": 336,
      "componentType": 5125,
      "count": 1794,
      "type": "SCALAR"
    },
    {
      "bufferView": 5,
      "componentType": 5126,
      "count": 26,
      "max": [
        100.0,
        0.8859133720397949,
        0.3015342056751251,
        0.0,
        0.2794678807258606,
        99.99999237060547,
        0.9533085227012634,
        0.0,
        0.9309743642807007,
        0.8495099544525146,
        99.99999237060547,
        0.0,
        0.556806206703186,
        1.2697290182113647,
        0.3427242040634155,
        1.0
      ],
      "min": [
        -0.9843783378601074,
        -0.8859133720397949,
        -0.30153411626815796,
        0.0,
        -0.2794678211212158,
        -0.9967774152755737,
        -0.8495144844055176,
        0.0,
        -0.9309743046760559,
        -0.36470088362693787,
        -0.9968644380569458,
        0.0,
        -0.5568063259124756,
        -1.5323606729507446,
        -1.3673980236053467,
        1.0
      ],
      "type": "MAT4"
    },
    {
      "bufferView": 0,
      "componentType": 5123,
      "count": 60,
      "type": "VEC4"
    },
    {
      "bufferView": 4,
      "componentType": 5126,
      "count": 60,
      "max": [
        1.0,
        0.0,
        0.0,
        0.0
      ],
      "min": [
        1.0,
        0.0,
        0.0,
        0.0
      ],
      "type": "VEC4"
    },
    {
      "bufferView": 0,
      "byteOffset": 480,
      "componentType": 5123,
      "count": 1330,
      "type": "VEC4"
    },
    {
      "bufferView": 4,
      "byteOffset": 960,
      "componentType": 5126,
      "count": 1330,
      "max": [
        1.0,
        0.5,
        0.21745708584785461,
        0.09936225414276123
      ],
      "min": [
        0.41748470067977905,
        0.0,
        0.0,
        0.0
      ],
      "type": "VEC4"
    }
  ],
  "asset": {
    "extras": {
      "author": "vinrax (https://sketchfab.com/vinrax)",
      "license": "CC-BY-4.0 (http://creativecommons.org/licenses/by/4.0/)",
      "source": "https://sketchfab.com/3d-models/redneck-character-psx-style-7b02de568d7c491b8be7bc50246789ad",
      "title": "Redneck Character PSX Style"
    },
    "generator": "Sketchfab-17.8.0",
    "version": "2.0"
  },
  "bufferViews": [
    {
      "buffer": 0,
      "byteLength": 11120,
      "byteStride": 8,
      "name": "shortBufferViews",
      "target": 34962
    },
    {
      "buffer": 0,
      "byteLength": 7512,
      "byteOffset": 11120,
      "name": "floatBufferViews",
      "target": 34963
    },
    {
      "buffer": 0,
      "byteLength": 11120,
      "byteOffset": 18632,
      "byteStride": 8,
      "name": "floatBufferViews",
      "target": 34962
    },
    {
      "buffer": 0,
      "byteLength": 33360,
      "byteOffset": 29752,
      "byteStride": 12,
      "name": "floatBufferViews",
      "target": 34962
    },
    {
      "buffer": 0,
      "byteLength": 22240,
      "byteOffset": 63112,
      "byteStride": 16,
      "name": "floatBufferViews",
      "target": 34962
    },
    {
      "buffer": 0,
      "byteLength": 1664,
      "byteOffset": 85352,
      "name": "floatBufferViews"
    }
  ],
  "buffers": [
    {
      "byteLength": 87016,
      "uri": "scene.bin"
    }
  ],
  "extensionsUsed": [
    "KHR_materials_unlit"
  ],
  "images": [
    {
      "uri": "textures/redneck_mat_baseColor.png"
    }
  ],
  "materials": [
    {
      "doubleSided": true,
      "extensions": {
        "KHR_materials_unlit": {}
      },
      "name": "redneck_mat",
      "pbrMetallicRoughness": {
        "baseColorTexture": {
          "index": 0
        },
        "metallicFactor": 0.0
      }
    }
  ],
  "meshes": [
    {
      "name": "cap_redneck_mat_0",
      "primitives": [
        {
          "attributes": {
            "JOINTS_0": 9,
            "NORMAL": 1,
            "POSITION": 0,
            "TEXCOORD_0": 2,
            "WEIGHTS_0": 10
          },
          "indices": 3,
          "material": 0,
          "mode": 4
        }
      ]
    },
    {
      "name": "redneck_redneck_mat_0",
      "primitives": [
        {
          "attributes": {
            "JOINTS_0": 11,
            "NORMAL": 5,
            "POSITION": 4,
            "TEXCOORD_0": 6,
            "WEIGHTS_0": 12
          },
          "indices": 7,
          "material": 0,
          "mode": 4
        }
      ]
    }
  ],
  "nodes": [
    {
      "children": [
        1
      ],
      "matrix": [
        1.0,
        0.0,
        0.0,
        0.0,
        0.0,
        2.220446049250313e-16,
        -1.0,
        0.0,
        0.0,
        1.0,
        2.220446049250313e-16,
        0.0,
        0.0,
        0.0,
        0.0,
        1.0
      ],
      "name": "Sketchfab_model"
    },
    {
      "children": [
        2
      ],
      "matrix": [
        0.009999999776482582,
        0.0,
        0.0,
        0.0,
        0.0,
        0.0,
        0.009999999776482582,
        0.0,
        0.0,
        -0.009999999776482582,
        0.0,
        0.0,
        0.0,
        0.0,
        0.0,
        1.0
      ],
      "name": "redneck.fbx"
    },
    {
      "children": [
        3
      ],
      "name": "RootNode"
    },
    {
      "children": [
        4
      ],
      "matrix": [
        100.0,
        0.0,
        0.0,
        0.0,
        0.0,
        -1.629206793918314e-05,
        -99.99999999999868,
        0.0,
        0.0,
        99.99999999999868,
        -1.629206793918314e-05,
        0.0,
        0.0,
        0.0,
        0.0,
        1.0
      ],
      "name": "Armature"
    },
    {
      "children": [
        5,
        32,
        34,
        31,
        33
      ],
      "name": "Object_4"
    },
    {
      "children": [
        6
      ],
      "name": "_rootJoint"
    },
    {
      "children": [
        7,
        23,
        27
      ],
      "name": "hips_00",
      "rotation": [
        0.7042958736419678,
        8.462750145099562e-08,
        8.395861783583314e-08,
        0.7099065780639648
      ],
      "translation": [
        -3.285424081078942e-18,
        -0.019567396491765976,
        0.8260329365730286
      ]
    },
    {
      "children": [
        8
      ],
      "name": "spine_01",
      "rotation": [
        0.0407487228512764,
        4.99207473319066e-14,
        9.715254378761529e-09,
        0.9991694092750549
      ],
      "scale": [
        1.0,
        0.9999999403953552,
        0.9999999403953552
      ],
      "translation": [
        -1.1430773150667827e-16,
        0.14175157248973846,
        4.656612873077393e-10
      ]
    },
    {
      "children": [
        9
      ],
      "name": "spine1_02",
      "rotation": [
        -0.025768527761101723,
        -1.1380340808988306e-14,
        -6.143699327054719e-09,
        0.9996679425239563
      ],
      "translation": [
        1.9975223300051502e-16,
        0.11429999023675919,
        3.725290298461914e-09
      ]
    },
    {
      "children": [
        10,
        13,
        18
      ],
      "name": "chest_03",
      "rotation": [
        0.02381112426519394,
        -2.5061287477223283e-14,
        5.677018410921164e-09,
        0.999716579914093
      ],
      "scale": [
        1.0,
        0.9999999403953552,
        1.0
      ],
      "translation": [
        1.1025891401880272e-15,
        0.14150382578372955,
        -1.3969838619232178e-09
      ]
    },
    {
      "children": [
        11
      ],
      "name": "neck_04",
      "rotation": [
        0.09800240397453308,
        -2.372709246856175e-07,
        6.101610729392299e-15,
        0.9951862692832947
      ],
      "translation": [
        -2.56717771565944e-15,
        0.2567898631095886,
        0.0
      ]
    },
    {
      "children": [
        12
      ],
      "name": "head_05",
      "rotation": [
        -0.12366902828216553,
        1.1829425261566939e-07,
        1.4742489007346649e-08,
        0.9923235177993774
      ],
      "scale": [
        1.0,
        0.9999999403953552,
        1.0
      ],
      "translation": [
        3.1454632023759487e-15,
        0.053982604295015335,
        -7.450580596923828e-09
      ]
    },
    {
      "name": "head_end_020",
      "rotation": [
        -0.0,
        1.262177448353619e-29,
        3.944304526105059e-30,
        1.0
      ],
      "translation": [
        1.262177448353619e-29,
        0.19555333256721497,
        -6.938893903907228e-18
      ]
    },
    {
      "children": [
        14
      ],
      "name": "shoulder_l_06",
      "rotation": [
        0.6608403921127319,
        0.3237580358982086,
        0.46791690587997437,
        -0.4894123673439026
      ],
      "scale": [
        0.9999998211860657,
        0.9999998807907104,
        0.9999998211860657
      ],
      "translation": [
        0.06111130863428116,
        0.194514200091362,
        0.016962561756372452
      ]
    },
    {
      "children": [
        15
      ],
      "name": "upper_arm_l_07",
      "rotation": [
        -0.22699397802352905,
        0.650428295135498,
        -0.4354361891746521,
        0.57949298620224
      ],
      "scale": [
        1.0,
        0.9999998211860657,
        1.0
      ],
      "translation": [
        -1.30385160446167e-08,
        0.13520397245883942,
        -1.2922100722789764e-07
      ]
    },
    {
      "children": [
        16
      ],
      "name": "forearm_l_08",
      "rotation": [
        -0.009079108014702797,
        0.06341861933469772,
        -0.05642928555607796,
        0.996349036693573
      ],
      "scale": [
        0.9999998807907104,
        1.0,
        0.9999999403953552
      ],
      "translation": [
        -1.3969838619232178e-09,
        0.24233807623386383,
        -1.862645149230957e-09
      ]
    },
    {
      "children": [
        17
      ],
      "name": "hand_l_09",
      "rotation": [
        0.013668841682374477,
        0.07916779816150665,
        -0.010153466835618019,
        0.9967159628868103
      ],
      "scale": [
        0.9999999403953552,
        1.0,
        1.0
      ],
      "translation": [
        1.2922100722789764e-08,
        0.31328243017196655,
        9.313225746154785e-10
      ]
    },
    {
      "name": "hand_l_end_021",
      "rotation": [
        -1.734723475976807e-18,
        1.3877787807814457e-17,
        8.673617379884035e-19,
        1.0
      ],
      "translation": [
        0.0,
        0.0780571922659874,
        0.0
      ]
    },
    {
      "children": [
        19
      ],
      "name": "shoulder_r_010",
      "rotation": [
        0.6608405113220215,
        -0.32375800609588623,
        -0.46791669726371765,
        -0.4894126355648041
      ],
      "scale": [
        0.9999998211860657,
        0.9999999403953552,
        0.9999998807907104
      ],
      "translation": [
        -0.061111316084861755,
        0.194514200091362,
        0.016962535679340363
      ]
    },
    {
      "children": [
        20
      ],
      "name": "upper_arm_r_011",
      "rotation": [
        -0.2269938737154007,
        -0.650428295135498,
        0.43543609976768494,
        0.5794930458068848
      ],
      "scale": [
        1.0000001192092896,
        1.000000238418579,
        1.0000001192092896
      ],
      "translation": [
        1.0244548320770264e-08,
        0.13520391285419464,
        1.0564690455794334e-07
      ]
    },
    {
      "children": [
        21
      ],
      "name": "forearm_r_012",
      "rotation": [
        -0.009079105220735073,
        -0.06341857463121414,
        0.056429337710142136,
        0.996349036693573
      ],
      "scale": [
        1.0,
        0.9999999403953552,
        0.9999999403953552
      ],
      "translation": [
        -2.6309862732887268e-08,
        0.24233795702457428,
        1.862645149230957e-09
      ]
    },
    {
      "children": [
        22
      ],
      "name": "hand_r_013",
      "rotation": [
        0.013668832369148731,
        -0.07916782051324844,
        0.010153457522392273,
        0.9967159628868103
      ],
      "translation": [
        -1.3096723705530167e-08,
        0.3132823407649994,
        2.0954757928848267e-09
      ]
    },
    {
      "name": "hand_r_end_022",
      "rotation": [
        1.734723475976807e-18,
        -1.504632769052528e-36,
        -8.673617379884035e-19,
        1.0
      ],
      "translation": [
        5.551115123125783e-17,
        0.0780571922659874,
        0.0
      ]
    },
    {
      "children": [
        24
      ],
      "name": "thigh_l_014",
      "rotation": [
        0.9990386962890625,
        0.004169694148004055,
        -0.002026723464950919,
        0.04359140992164612
      ],
      "scale": [
        1.0000001192092896,
        1.0,
        1.0000145435333252
      ],
      "translation": [
        0.0985628291964531,
        0.07097988575696945,
        0.0014440447557717562
      ]
    },
    {
      "children": [
        25
      ],
      "name": "calf_l_015",
      "rotation": [
        0.08696883916854858,
        0.00039731041761115193,
        0.01125317718833685,
        0.9961473941802979
      ],
      "scale": [
        1.0,
        1.0,
        0.9999999403953552
      ],
      "translation": [
        -6.868503987789154e-09,
        0.3577547073364258,
        8.149072527885437e-10
      ]
    },
    {
      "children": [
        26
      ],
      "name": "foot_l_016",
      "rotation": [
        -0.5201347470283508,
        0.004805970937013626,
        -0.005627495236694813,
        0.8540521860122681
      ],
      "scale": [
        0.9999998807907104,
        1.0,
        0.9999999403953552
      ],
      "translation": [
        -2.3792381398379803e-09,
        0.42410609126091003,
        -3.6816345527768135e-09
      ]
    },
    {
      "name": "foot_l_end_023",
      "rotation": [
        5.551115123125783e-17,
        2.6469779601696886e-23,
        5.293955920339377e-23,
        1.0
      ],
      "translation": [
        -2.7755575615628914e-17,
        0.19761905074119568,
        2.7755575615628914e-17
      ]
    },
    {
      "children": [
        28
      ],
      "name": "thigh_r_017",
      "rotation": [
        0.9990386962890625,
        -0.004169702995568514,
        0.002026962349191308,
        0.04359141364693642
      ],
      "scale": [
        1.0000001192092896,
        1.0,
        1.0000144243240356
      ],
      "translation": [
        -0.0985628291964531,
        0.07097988575696945,
        0.001443997723981738
      ]
    },
    {
      "children": [
        29
      ],
      "name": "calf_r_018",
      "rotation": [
        0.08696885406970978,
        -0.0003973115235567093,
        -0.0112531753256917,
        0.9961473941802979
      ],
      "scale": [
        1.0,
        1.0,
        0.9999999403953552
      ],
      "translation": [
        1.382431946694851e-09,
        0.35775476694107056,
        -6.693881005048752e-09
      ]
    },
    {
      "children": [
        30
      ],
      "name": "foot_r_019",
      "rotation": [
        -0.5201347470283508,
        -0.00480597373098135,
        0.005627496633678675,
        0.8540521264076233
      ],
      "scale": [
        0.9999998211860657,
        1.0,
        0.9999999403953552
      ],
      "translation": [
        -5.093170329928398e-09,
        0.42410603165626526,
        -2.648448571562767e-09
      ]
    },
    {
      "name": "foot_r_end_024",
      "rotation": [
        0.0,
        2.6469779601696886e-23,
        0.0,
        1.0
      ],
      "translation": [
        1.3877787807814457e-17,
        0.19761905074119568,
        -1.3877787807814457e-17
      ]
    },
    {
      "matrix": [
        100.00000000000568,
        -1.1680117256905952e-14,
        -8.276512071178631e-13,
        0.0,
        -8.27651157405951e-13,
        2.0557027639283e-08,
        -99.99999399391149,
        0.0,
        1.168011672560289e-14,
        99.99999399455614,
        2.0557027639415522e-08,
        0.0,
        -9.64505440020871e-15,
        7.53974924805334e-06,
        -1.9189214661707865e-08,
        1.0
      ],
      "name": "Object_31"
    },
    {
      "mesh": 0,
      "name": "Object_32",
      "skin": 0
    },
    {
      "matrix": [
        100.00000000000568,
        -1.1680117256905952e-14,
        -8.276512071178631e-13,
        0.0,
        -8.27651157405951e-13,
        2.0557027639283e-08,
        -99.99999399391149,
        0.0,
        1.168011672560289e-14,
        99.99999399455614,
        2.0557027639415522e-08,
        0.0,
        -9.64505440020871e-15,
        7.53974924805334e-06,
        -1.9189214661707865e-08,
        1.0
      ],
      "name": "Object_33"
    },
    {
      "mesh": 1,
      "name": "Object_34",
      "skin": 0
    }
  ],
  "samplers": [
    {
      "magFilter": 9728,
      "minFilter": 9728,
      "wrapS": 10497,
      "wrapT": 10497
    }
  ],
  "scene": 0,
  "scenes": [
    {
      "name": "Sketchfab_Scene",
      "nodes": [
        0
      ]
    }
  ],
  "skins": [
    {
      "inverseBindMatrices": 8,
      "joints": [
        5,
        6,
        7,
        8,
        9,
        10,
        11,
        12,
        13,
        14,
        15,
        16,
        17,
        18,
        19,
        20,
        21,
        22,
        23,
        24,
        25,
        26,
        27,
        28,
        29,
        30
      ],
      "skeleton": 5
    }
  ],
  "textures": [
    {
      "sampler": 0,
      "source": 0
    }
  ]
}
