{
  "accessors": [
    {
      "bufferView": 2,
      "componentType": 5126,
      "count": 1453,
      "max": [
        0.22075751423835754,
        0.1255730390548706,
        0.8773344159126282
      ],
      "min": [
        -0.1917424201965332,
        -0.08043669909238815,
        0.006871864199638367
      ],
      "type": "VEC3"
    },
    {
      "bufferView": 2,
      "byteOffset": 17436,
      "componentType": 5126,
      "count": 1453,
      "max": [
        0.9999686479568481,
        0.9988250732421875,
        0.9814167618751526
      ],
      "min": [
        -0.9989179372787476,
        -0.9995527267456055,
        -0.9938174486160278
      ],
      "type": "VEC3"
    },
    {
      "bufferView": 1,
      "componentType": 5126,
      "count": 1453,
      "max": [
        0.993270754814148,
        0.890737771987915
      ],
      "min": [
        0.00805676355957985,
        0.0038452744483947754
      ],
      "type": "VEC2"
    },
    {
      "bufferView": 0,
      "componentType": 5125,
      "count": 7044,
      "type": "SCALAR"
    },
    {
      "bufferView": 2,
      "byteOffset": 34872,
      "componentType": 5126,
      "count": 580,
      "max": [
        0.12721428275108337,
        0.07976238429546356,
        0.07769589871168137
      ],
      "min": [
        -0.07346300780773163,
        -0.09838777780532837,
        0.00528205931186676
      ],
      "type": "VEC3"
    },
    {
      "bufferView": 2,
      "byteOffset": 41832,
      "componentType": 5126,
      "count": 580,
      "max": [
        0.9966453909873962,
        0.9867987632751465,
        0.9962171316146851
      ],
      "min": [
        -0.9920091032981873,
        -0.9978147745132446,
        -0.9598915576934814
      ],
      "type": "VEC3"
    },
    {
      "bufferView": 1,
      "byteOffset": 11624,
      "componentType": 5126,
      "count": 580,
      "max": [
        0.9845273494720459,
        0.9859006404876709
      ],
      "min": [
        0.02073701098561287,
        0.0164186954498291
      ],
      "type": "VEC2"
    },
    {
      "bufferView": 0,
      "byteOffset": 28176,
      "componentType": 5125,
      "count": 2088,
      "type": "SCALAR"
    },
    {
      "bufferView": 2,
      "byteOffset": 48792,
      "componentType": 5126,
      "count": 1151,
      "max": [
        0.10698355734348297,
        0.08863847702741623,
        0.5258879065513611
      ],
      "min": [
        -0.08437244594097137,
        -0.06436961889266968,
        0.04524930939078331
      ],
      "type": "VEC3"
    },
    {
      "bufferView": 2,
      "byteOffset": 62604,
      "componentType": 5126,
      "count": 1151,
      "max": [
        0.9994586110115051,
        0.9993240237236023,
        0.9994230270385742
      ],
      "min": [
        -0.9975315928459167,
        -0.9999834895133972,
        -0.9908550977706909
      ],
      "type": "VEC3"
    },
    {
      "bufferView": 1,
      "byteOffset": 16264,
      "componentType": 5126,
      "count": 1151,
      "max": [
        0.9947203993797302,
        0.9929503202438354
      ],
      "min": [
        0.017105363309383392,
        0.014297723770141602
      ],
      "type": "VEC2"
    },
    {
      "bufferView": 0,
      "byteOffset": 36528,
      "componentType": 5125,
      "count": 5196,
      "type": "SCALAR"
    },
    {
      "bufferView": 2,
      "byteOffset": 76416,
      "componentType": 5126,
      "count": 2420,
      "max": [
        0.2196236103773117,
        0.1258934587240219,
        0.7628393173217773
      ],
      "min": [
        -0.1923251897096634,
        -0.08195779472589493,
        0.42084646224975586
      ],
      "type": "VEC3"
    },
    {
      "bufferView": 2,
      "byteOffset": 105456,
      "componentType": 5126,
      "count": 2420,
      "max": [
        0.9987873435020447,
        0.9994423985481262,
        0.9997105002403259
      ],
      "min": [
        -0.998729944229126,
        -0.9992589354515076,
        -0.999077320098877
      ],
      "type": "VEC3"
    },
    {
      "bufferView": 3,
      "componentType": 5126,
      "count": 2420,
      "max": [
        0.9996798634529114,
        0.999825656414032,
        0.999786376953125,
        1.0
      ],
      "min": [
        -0.9996312856674194,
        -0.9993813633918762,
        -0.9998672008514404,
        -1.0
      ],
      "type": "VEC4"
    },
    {
      "bufferView": 1,
      "byteOffset": 25472,
      "componentType": 5126,
      "count": 2420,
      "max": [
        0.9971618056297302,
        0.9963073134422302
      ],
      "min": [
        0.0036926832981407642,
        0.0018768310546875
      ],
      "type": "VEC2"
    },
    {
      "bufferView": 1,
      "byteOffset": 44832,
      "componentType": 5126,
      "count": 2420,
      "max": [
        0.9971618056297302,
        0.9963073134422302
      ],
      "min": [
        0.0036926832981407642,
        0.0018768310546875
      ],
      "type": "VEC2"
    },
    {
      "bufferView": 0,
      "byteOffset": 57312,
      "componentType": 5125,
      "count": 8511,
      "type": "SCALAR"
    },
    {
      "bufferView": 2,
      "byteOffset": 134496,
      "componentType": 5126,
      "count": 1095,
      "max": [
        0.05543345957994461,
        0.1061069667339325,
        0.9110844731330872
      ],
      "min": [
        -0.05277111381292343,
        -0.04259560629725456,
        0.7871772646903992
      ],
      "type": "VEC3"
    },
    {
      "bufferView": 2,
      "byteOffset": 147636,
      "componentType": 5126,
      "count": 1095,
      "max": [
        0.9999938011169434,
        0.9999666810035706,
        0.997329592704773
      ],
      "min": [
        -0.9959723353385925,
        -0.9987257719039917,
        -0.9698249697685242
      ],
      "type": "VEC3"
    },
    {
      "bufferView": 1,
      "byteOffset": 64192,
      "componentType": 5126,
      "count": 1095,
      "max": [
        0.8960250020027161,
        0.7204394340515137
      ],
      "min": [
        0.051743343472480774,
        0.021606802940368652
      ],
      "type": "VEC2"
    },
    {
      "bufferView": 0,
      "byteOffset": 91356,
      "componentType": 5125,
      "count": 3747,
      "type": "SCALAR"
    }
  ],
  "asset": {
    "extras": {
      "author": "Alvi Raj 3D (https://sketchfab.com/alviraj3d)",
      "license": "SKETCHFAB Standard (https://sketchfab.com/licenses)",
      "source": "https://sketchfab.com/3d-models/free-fire-maxim-character-blender-prisma-3d-free-ef38338032c84449b54107203d1366e8",
      "title": "Free Fire Maxim Character Blender Prisma 3D free"
    },
    "generator": "Sketchfab-17.8.0",
    "version": "2.0"
  },
  "bufferViews": [
    {
      "buffer": 0,
      "byteLength": 106344,
      "name": "floatBufferViews",
      "target": 34963
    },
    {
      "buffer": 0,
      "byteLength": 72952,
      "byteOffset": 106344,
      "byteStride": 8,
      "name": "floatBufferViews",
      "target": 34962
    },
    {
      "buffer": 0,
      "byteLength": 160776,
      "byteOffset": 179296,
      "byteStride": 12,
      "name": "floatBufferViews",
      "target": 34962
    },
    {
      "buffer": 0,
      "byteLength": 38720,
      "byteOffset": 340072,
      "byteStride": 16,
      "name": "floatBufferViews",
      "target": 34962
    }
  ],
  "buffers": [
    {
      "byteLength": 378792,
      "uri": "scene.bin"
    }
  ],
  "images": [
    {
      "uri": "textures/mat0.005_baseColor.jpeg"
    },
    {
      "uri": "textures/mat0.006_baseColor.jpeg"
    },
    {
      "uri": "textures/mat0.007_baseColor.jpeg"
    },
    {
      "uri": "textures/mat0.008_baseColor.jpeg"
    },
    {
      "uri": "textures/mat0.008_normal.png"
    },
    {
      "uri": "textures/mat0.009_baseColor.jpeg"
    }
  ],
  "materials": [
    {
      "doubleSided": true,
      "name": "mat0.005",
      "pbrMetallicRoughness": {
        "baseColorTexture": {
          "index": 0
        },
        "metallicFactor": 0.0
      }
    },
    {
      "doubleSided": true,
      "name": "mat0.006",
      "pbrMetallicRoughness": {
        "baseColorTexture": {
          "index": 1
        },
        "metallicFactor": 0.0
      }
    },
    {
      "doubleSided": true,
      "name": "mat0.007",
      "pbrMetallicRoughness": {
        "baseColorTexture": {
          "index": 2
        },
        "metallicFactor": 0.0
      }
    },
    {
      "doubleSided": true,
      "name": "mat0.008",
      "normalTexture": {
        "index": 4
      },
      "pbrMetallicRoughness": {
        "baseColorTexture": {
          "index": 3
        },
        "metallicFactor": 0.0
      }
    },
    {
      "doubleSided": true,
      "name": "mat0.009",
      "pbrMetallicRoughness": {
        "baseColorTexture": {
          "index": 5
        },
        "metallicFactor": 0.0
      }
    }
  ],
  "meshes": [
    {
      "name": "Mesh_0000.rip_mat0.005_0",
      "primitives": [
        {
          "attributes": {
            "NORMAL": 1,
            "POSITION": 0,
            "TEXCOORD_0": 2
          },
          "indices": 3,
          "material": 0,
          "mode": 4
        }
      ]
    },
    {
      "name": "Mesh_0001.rip_mat0.006_0",
      "primitives": [
        {
          "attributes": {
            "NORMAL": 5,
            "POSITION": 4,
            "TEXCOORD_0": 6
          },
          "indices": 7,
          "material": 1,
          "mode": 4
        }
      ]
    },
    {
      "name": "Mesh_0002.rip_mat0.007_0",
      "primitives": [
        {
          "attributes": {
            "NORMAL": 9,
            "POSITION": 8,
            "TEXCOORD_0": 10
          },
          "indices": 11,
          "material": 2,
          "mode": 4
        }
      ]
    },
    {
      "name": "Mesh_0003.rip_mat0.008_0",
      "primitives": [
        {
          "attributes": {
            "NORMAL": 13,
            "POSITION": 12,
            "TANGENT": 14,
            "TEXCOORD_0": 15,
            "TEXCOORD_1": 16
          },
          "indices": 17,
          "material": 3,
          "mode": 4
        }
      ]
    },
    {
      "name": "Mesh_0033.rip_mat0.009_0",
      "primitives": [
        {
          "attributes": {
            "NORMAL": 19,
            "POSITION": 18,
            "TEXCOORD_0": 20
          },
          "indices": 21,
          "material": 4,
          "mode": 4
        }
      ]
    }
  ],
  "nodes": [
    {
      "children": [
        1
      ],
      "matrix": [
        1.0,
        0.0,
        0.0,
        0.0,
        0.0,
        2.220446049250313e-16,
        -1.0,
        0.0,
        0.0,
        1.0,
        2.220446049250313e-16,
        0.0,
        0.0,
        0.0,
        0.0,
        1.0
      ],
      "name": "Sketchfab_model"
    },
    {
      "children": [
        2
      ],
      "matrix": [
        0.009999999776482582,
        0.0,
        0.0,
        0.0,
        0.0,
        0.0,
        0.009999999776482582,
        0.0,
        0.0,
        -0.009999999776482582,
        0.0,
        0.0,
        0.0,
        0.0,
        0.0,
        1.0
      ],
      "name": "3b31f32960ff47aebffb7ef979f9b219.fbx"
    },
    {
      "children": [
        3,
        5,
        7,
        9,
        11
      ],
      "name": "RootNode"
    },
    {
      "children": [
        4
      ],
      "matrix": [
        915.2908584426995,
        0.9868432801637955,
        352.6625109983871,
        0.0,
        352.6638697759104,
        -2.5609527915437766,
        -915.287218752153,
        0.0,
        -9.481184815123202e-05,
        980.8778132497614,
        -2.744510312449531,
        0.0,
        121.223876953125,
        12.62669563293457,
        39.31584548950195,
        1.0
      ],
      "name": "Mesh_0000.rip"
    },
    {
      "mesh": 0,
      "name": "Mesh_0000.rip_mat0.005_0"
    },
    {
      "children": [
        6
      ],
      "matrix": [
        915.2908584426995,
        0.9868432801637955,
        352.6625109983871,
        0.0,
        352.6638697759104,
        -2.5609527915437766,
        -915.287218752153,
        0.0,
        -9.481184815123202e-05,
        980.8778132497614,
        -2.744510312449531,
        0.0,
        121.223876953125,
        12.62669563293457,
        39.31584548950195,
        1.0
      ],
      "name": "Mesh_0001.rip"
    },
    {
      "mesh": 1,
      "name": "Mesh_0001.rip_mat0.006_0"
    },
    {
      "children": [
        8
      ],
      "matrix": [
        915.2908584426995,
        0.9868432801637955,
        352.6625109983871,
        0.0,
        352.6638697759104,
        -2.5609527915437766,
        -915.287218752153,
        0.0,
        -9.481184815123202e-05,
        980.8778132497614,
        -2.744510312449531,
        0.0,
        121.223876953125,
        12.62669563293457,
        39.31584548950195,
        1.0
      ],
      "name": "Mesh_0002.rip"
    },
    {
      "mesh": 2,
      "name": "Mesh_0002.rip_mat0.007_0"
    },
    {
      "children": [
        10
      ],
      "matrix": [
        915.2908584426995,
        0.9868432801637955,
        352.6625109983871,
        0.0,
        352.6638697759104,
        -2.5609527915437766,
        -915.287218752153,
        0.0,
        -9.481184815123202e-05,
        980.8778132497614,
        -2.744510312449531,
        0.0,
        121.223876953125,
        12.62669563293457,
        39.31584548950195,
        1.0
      ],
      "name": "Mesh_0003.rip"
    },
    {
      "mesh": 3,
      "name": "Mesh_0003.rip_mat0.008_0"
    },
    {
      "children": [
        12
      ],
      "matrix": [
        915.2908584426995,
        0.9868432801637955,
        352.6625109983871,
        0.0,
        352.6638697759104,
        -2.5609527915437766,
        -915.287218752153,
        0.0,
        -9.481184815123202e-05,
        980.8778132497614,
        -2.744510312449531,
        0.0,
        121.223876953125,
        12.62669563293457,
        39.31584548950195,
        1.0
      ],
      "name": "Mesh_0033.rip"
    },
    {
      "mesh": 4,
      "name": "Mesh_0033.rip_mat0.009_0"
    }
  ],
  "samplers": [
    {
      "magFilter": 9729,
      "minFilter": 9987,
      "wrapS": 10497,
      "wrapT": 10497
    }
  ],
  "scene": 0,
  "scenes": [
    {
      "name": "Sketchfab_Scene",
      "nodes": [
        0
      ]
    }
  ],
  "textures": [
    {
      "sampler": 0,
      "source": 0
    },
    {
      "sampler": 0,
      "source": 1
    },
    {
      "sampler": 0,
      "source": 2
    },
    {
      "sampler": 0,
      "source": 3
    },
    {
      "sampler": 0,
      "source": 4
    },
    {
      "sampler": 0,
      "source": 5
    }
  ]
}
