{
  "accessors": [
    {
      "bufferView": 2,
      "componentType": 5126,
      "count": 2490,
      "max": [
        0.9510578513145447,
        0.9999999403953552,
        1.0090975761413574
      ],
      "min": [
        -0.9510579109191895,
        -0.9999999403953552,
        -0.022520117461681366
      ],
      "type": "VEC3"
    },
    {
      "bufferView": 2,
      "byteOffset": 29880,
      "componentType": 5126,
      "count": 2490,
      "max": [
        1.0,
        1.0,
        1.0
      ],
      "min": [
        -1.0,
        -1.0,
        -1.0
      ],
      "type": "VEC3"
    },
    {
      "bufferView": 1,
      "componentType": 5126,
      "count": 2490,
      "max": [
        0.9545454978942871,
        0.47238200902938843
      ],
      "min": [
        0.0,
        0.0
      ],
      "type": "VEC2"
    },
    {
      "bufferView": 0,
      "componentType": 5125,
      "count": 3828,
      "type": "SCALAR"
    },
    {
      "bufferView": 2,
      "byteOffset": 59760,
      "componentType": 5126,
      "count": 240,
      "max": [
        0.9439805746078491,
        0.9768375158309937,
        1.0069890022277832
      ],
      "min": [
        -0.942002534866333,
        -0.977799654006958,
        0.04798615723848343
      ],
      "type": "VEC3"
    },
    {
      "bufferView": 2,
      "byteOffset": 62640,
      "componentType": 5126,
      "count": 240,
      "max": [
        0.9920774698257446,
        0.9435216188430786,
        0.9435238838195801
      ],
      "min": [
        -0.9920774698257446,
        -0.9435215592384338,
        -0.9435238838195801
      ],
      "type": "VEC3"
    },
    {
      "bufferView": 1,
      "byteOffset": 19920,
      "componentType": 5126,
      "count": 240,
      "max": [
        0.0,
        0.0
      ],
      "min": [
        0.0,
        0.0
      ],
      "type": "VEC2"
    },
    {
      "bufferView": 0,
      "byteOffset": 15312,
      "componentType": 5125,
      "count": 240,
      "type": "SCALAR"
    }
  ],
  "asset": {
    "extras": {
      "author": "trashbinkr (https://sketchfab.com/ChristopherKR)",
      "license": "SKETCHFAB Standard (https://sketchfab.com/licenses)",
      "source": "https://sketchfab.com/3d-models/dome-structure-b23aed165d58491f85f4c4415fe915d6",
      "title": "Dome Structure"
    },
    "generator": "Sketchfab-17.15.0",
    "version": "2.0"
  },
  "bufferViews": [
    {
      "buffer": 0,
      "byteLength": 16272,
      "name": "floatBufferViews",
      "target": 34963
    },
    {
      "buffer": 0,
      "byteLength": 21840,
      "byteOffset": 16272,
      "byteStride": 8,
      "name": "floatBufferViews",
      "target": 34962
    },
    {
      "buffer": 0,
      "byteLength": 65520,
      "byteOffset": 38112,
      "byteStride": 12,
      "name": "floatBufferViews",
      "target": 34962
    }
  ],
  "buffers": [
    {
      "byteLength": 103632,
      "uri": "scene.bin"
    }
  ],
  "materials": [
    {
      "doubleSided": true,
      "name": "Base",
      "pbrMetallicRoughness": {
        "baseColorFactor": [
          0.131981,
          0.131981,
          0.131981,
          1.0
        ],
        "metallicFactor": 0.0,
        "roughnessFactor": 0.9704881512261601
      }
    },
    {
      "alphaMode": "BLEND",
      "doubleSided": true,
      "name": "Glass",
      "pbrMetallicRoughness": {
        "baseColorFactor": [
          1.0,
          1.0,
          1.0,
          0.236191196011264
        ],
        "metallicFactor": 0.0,
        "roughnessFactor": 0.0
      }
    }
  ],
  "meshes": [
    {
      "name": "ICOSphere.001_Base_0",
      "primitives": [
        {
          "attributes": {
            "NORMAL": 1,
            "POSITION": 0,
            "TEXCOORD_0": 2
          },
          "indices": 3,
          "material": 0,
          "mode": 4
        }
      ]
    },
    {
      "name": "ICOSphere.001_Glass_0",
      "primitives": [
        {
          "attributes": {
            "NORMAL": 5,
            "POSITION": 4,
            "TEXCOORD_0": 6
          },
          "indices": 7,
          "material": 1,
          "mode": 4
        }
      ]
    }
  ],
  "nodes": [
    {
      "children": [
        1
      ],
      "matrix": [
        1.0,
        0.0,
        0.0,
        0.0,
        0.0,
        2.220446049250313e-16,
        -1.0,
        0.0,
        0.0,
        1.0,
        2.220446049250313e-16,
        0.0,
        0.0,
        0.0,
        0.0,
        1.0
      ],
      "name": "Sketchfab_model"
    },
    {
      "children": [
        2
      ],
      "matrix": [
        0.009999999776482582,
        0.0,
        0.0,
        0.0,
        0.0,
        0.0,
        0.009999999776482582,
        0.0,
        0.0,
        -0.009999999776482582,
        0.0,
        0.0,
        0.0,
        0.0,
        0.0,
        1.0
      ],
      "name": "0016b70306184bd18f11ebcbf51f3d06.fbx"
    },
    {
      "children": [
        3
      ],
      "name": "RootNode"
    },
    {
      "children": [
        4,
        5
      ],
      "matrix": [
        100.0,
        0.0,
        0.0,
        0.0,
        0.0,
        -1.629206793918314e-05,
        -99.99999999999868,
        0.0,
        0.0,
        99.99999999999868,
        -1.629206793918314e-05,
        0.0,
        0.0,
        0.0,
        0.0,
        1.0
      ],
      "name": "ICOSphere.001"
    },
    {
      "mesh": 0,
      "name": "ICOSphere.001_Base_0"
    },
    {
      "mesh": 1,
      "name": "ICOSphere.001_Glass_0"
    }
  ],
  "scene": 0,
  "scenes": [
    {
      "name": "Sketchfab_Scene",
      "nodes": [
        0
      ]
    }
  ]
}
