{
  "accessors": [
    {
      "bufferView": 2,
      "componentType": 5126,
      "count": 1234,
      "max": [
        411.572021484375,
        201.5655059814453,
        -0.020134449005126953
      ],
      "min": [
        -388.56109619140625,
        -199.8961944580078,
        -298.48809814453125
      ],
      "type": "VEC3"
    },
    {
      "bufferView": 2,
      "byteOffset": 14808,
      "componentType": 5126,
      "count": 1234,
      "max": [
        1.0,
        1.0,
        1.0
      ],
      "min": [
        -1.0,
        -1.0,
        -1.0
      ],
      "type": "VEC3"
    },
    {
      "bufferView": 1,
      "componentType": 5126,
      "count": 1234,
      "max": [
        2.2418081760406494,
        1.728285312652588
      ],
      "min": [
        -1.211961030960083,
        -0.6457339525222778
      ],
      "type": "VEC2"
    },
    {
      "bufferView": 1,
      "byteOffset": 9872,
      "componentType": 5126,
      "count": 1234,
      "max": [
        1.862127423286438,
        1.507541298866272
      ],
      "min": [
        -0.9840251207351685,
        -0.44998109340667725
      ],
      "type": "VEC2"
    },
    {
      "bufferView": 0,
      "componentType": 5125,
      "count": 2370,
      "type": "SCALAR"
    },
    {
      "bufferView": 2,
      "byteOffset": 29616,
      "componentType": 5126,
      "count": 208,
      "max": [
        387.5924987792969,
        180.9077911376953,
        -49.570037841796875
      ],
      "min": [
        -364.5815734863281,
        -180.1432342529297,
        -250.84791564941406
      ],
      "type": "VEC3"
    },
    {
      "bufferView": 2,
      "byteOffset": 32112,
      "componentType": 5126,
      "count": 208,
      "max": [
        1.0,
        1.0,
        0.0
      ],
      "min": [
        -1.0,
        -1.0,
        -2.1628719082400494e-07
      ],
      "type": "VEC3"
    },
    {
      "bufferView": 1,
      "byteOffset": 19744,
      "componentType": 5126,
      "count": 208,
      "max": [
        0.7778421640396118,
        0.7966235876083374
      ],
      "min": [
        0.23093846440315247,
        0.23137497901916504
      ],
      "type": "VEC2"
    },
    {
      "bufferView": 1,
      "byteOffset": 21408,
      "componentType": 5126,
      "count": 208,
      "max": [
        0.747260332107544,
        0.7087483406066895
      ],
      "min": [
        0.0,
        0.0
      ],
      "type": "VEC2"
    },
    {
      "bufferView": 0,
      "byteOffset": 9480,
      "componentType": 5125,
      "count": 312,
      "type": "SCALAR"
    },
    {
      "bufferView": 2,
      "byteOffset": 34608,
      "componentType": 5126,
      "count": 24,
      "max": [
        233.32701110839844,
        173.82656860351563,
        -20.996511459350586
      ],
      "min": [
        -208.54721069335938,
        -173.06199645996094,
        -122.4472885131836
      ],
      "type": "VEC3"
    },
    {
      "bufferView": 2,
      "byteOffset": 34896,
      "componentType": 5126,
      "count": 24,
      "max": [
        0.0,
        1.0,
        2.2153224676912942e-07
      ],
      "min": [
        0.0,
        -1.0,
        -1.961192737098827e-07
      ],
      "type": "VEC3"
    },
    {
      "bufferView": 1,
      "byteOffset": 23072,
      "componentType": 5126,
      "count": 24,
      "max": [
        0.7063358426094055,
        0.7213172912597656
      ],
      "min": [
        0.21315719187259674,
        0.21078644692897797
      ],
      "type": "VEC2"
    },
    {
      "bufferView": 1,
      "byteOffset": 23264,
      "componentType": 5126,
      "count": 24,
      "max": [
        0.0,
        0.0
      ],
      "min": [
        0.0,
        0.0
      ],
      "type": "VEC2"
    },
    {
      "bufferView": 0,
      "byteOffset": 10728,
      "componentType": 5125,
      "count": 48,
      "type": "SCALAR"
    },
    {
      "bufferView": 2,
      "byteOffset": 35184,
      "componentType": 5126,
      "count": 20,
      "max": [
        411.572021484375,
        201.5655059814453,
        -298.0638122558594
      ],
      "min": [
        -388.56109619140625,
        -199.3408966064453,
        -298.48809814453125
      ],
      "type": "VEC3"
    },
    {
      "bufferView": 2,
      "byteOffset": 35424,
      "componentType": 5126,
      "count": 20,
      "max": [
        0.025798777118325233,
        0.03133046254515648,
        -0.9995090365409851
      ],
      "min": [
        -0.025798752903938293,
        -0.03133267164230347,
        -1.0
      ],
      "type": "VEC3"
    },
    {
      "bufferView": 1,
      "byteOffset": 23456,
      "componentType": 5126,
      "count": 20,
      "max": [
        2.2418081760406494,
        1.728285312652588
      ],
      "min": [
        -1.211961030960083,
        1.5075407028198242
      ],
      "type": "VEC2"
    },
    {
      "bufferView": 1,
      "byteOffset": 23616,
      "componentType": 5126,
      "count": 20,
      "max": [
        1.862127423286438,
        1.507541298866272
      ],
      "min": [
        -0.9840251207351685,
        0.0
      ],
      "type": "VEC2"
    },
    {
      "bufferView": 0,
      "byteOffset": 10920,
      "componentType": 5125,
      "count": 30,
      "type": "SCALAR"
    }
  ],
  "asset": {
    "extras": {
      "author": "FZ Studio (https://sketchfab.com/FZStudio)",
      "license": "SKETCHFAB Standard (https://sketchfab.com/licenses)",
      "source": "https://sketchfab.com/3d-models/two-story-resident-building-b39b3b0e9ddb4f3f9acf0b3f9e63b0b4",
      "title": "Two Story Resident Building"
    },
    "generator": "Sketchfab-16.72.0",
    "version": "2.0"
  },
  "bufferViews": [
    {
      "buffer": 0,
      "byteLength": 11040,
      "name": "floatBufferViews",
      "target": 34963
    },
    {
      "buffer": 0,
      "byteLength": 23776,
      "byteOffset": 11040,
      "byteStride": 8,
      "name": "floatBufferViews",
      "target": 34962
    },
    {
      "buffer": 0,
      "byteLength": 35664,
      "byteOffset": 34816,
      "byteStride": 12,
      "name": "floatBufferViews",
      "target": 34962
    }
  ],
  "buffers": [
    {
      "byteLength": 70480,
      "uri": "scene.bin"
    }
  ],
  "images": [
    {
      "uri": "textures/wall_baseColor.jpeg"
    },
    {
      "uri": "textures/windos_baseColor.jpeg"
    },
    {
      "uri": "textures/door.001_baseColor.jpeg"
    }
  ],
  "materials": [
    {
      "doubleSided": true,
      "name": "wall",
      "pbrMetallicRoughness": {
        "baseColorTexture": {
          "index": 0
        },
        "metallicFactor": 0.0
      }
    },
    {
      "doubleSided": true,
      "name": "windos",
      "pbrMetallicRoughness": {
        "baseColorTexture": {
          "index": 1
        },
        "metallicFactor": 0.0,
        "roughnessFactor": 0.9876000545528012
      }
    },
    {
      "doubleSided": true,
      "name": "door.001",
      "pbrMetallicRoughness": {
        "baseColorTexture": {
          "index": 2
        },
        "metallicFactor": 0.0
      }
    },
    {
      "doubleSided": true,
      "name": "glass",
      "pbrMetallicRoughness": {
        "baseColorFactor": [
          0.140704,
          0.0899241,
          0.0899241,
          1.0
        ],
        "metallicFactor": 0.0
      }
    }
  ],
  "meshes": [
    {
      "name": "Empty.001_wall_0",
      "primitives": [
        {
          "attributes": {
            "NORMAL": 1,
            "POSITION": 0,
            "TEXCOORD_0": 2,
            "TEXCOORD_1": 3
          },
          "indices": 4,
          "material": 0,
          "mode": 4
        }
      ]
    },
    {
      "name": "Empty.001_windos_0",
      "primitives": [
        {
          "attributes": {
            "NORMAL": 6,
            "POSITION": 5,
            "TEXCOORD_0": 7,
            "TEXCOORD_1": 8
          },
          "indices": 9,
          "material": 1,
          "mode": 4
        }
      ]
    },
    {
      "name": "Empty.001_door.001_0",
      "primitives": [
        {
          "attributes": {
            "NORMAL": 11,
            "POSITION": 10,
            "TEXCOORD_0": 12,
            "TEXCOORD_1": 13
          },
          "indices": 14,
          "material": 2,
          "mode": 4
        }
      ]
    },
    {
      "name": "Empty.001_glass_0",
      "primitives": [
        {
          "attributes": {
            "NORMAL": 16,
            "POSITION": 15,
            "TEXCOORD_0": 17,
            "TEXCOORD_1": 18
          },
          "indices": 19,
          "material": 3,
          "mode": 4
        }
      ]
    }
  ],
  "nodes": [
    {
      "children": [
        1
      ],
      "matrix": [
        1.0,
        0.0,
        0.0,
        0.0,
        0.0,
        2.220446049250313e-16,
        -1.0,
        0.0,
        0.0,
        1.0,
        2.220446049250313e-16,
        0.0,
        0.0,
        0.0,
        0.0,
        1.0
      ],
      "name": "Sketchfab_model"
    },
    {
      "children": [
        2
      ],
      "matrix": [
        0.009999999776482582,
        0.0,
        0.0,
        0.0,
        0.0,
        0.0,
        0.009999999776482582,
        0.0,
        0.0,
        -0.009999999776482582,
        0.0,
        0.0,
        0.0,
        0.0,
        0.0,
        1.0
      ],
      "name": "two story resident building.fbx"
    },
    {
      "children": [
        3
      ],
      "name": "RootNode"
    },
    {
      "children": [
        4,
        5,
        6,
        7
      ],
      "matrix": [
        7.549789959870878e-08,
        0.0,
        -0.999999999999997,
        0.0,
        0.9999999999999838,
        -1.6292067961387602e-07,
        7.549789954319763e-08,
        0.0,
        -1.6292067972489832e-07,
        -0.9999999999999867,
        -1.2212453270876722e-14,
        0.0,
        0.0,
        0.0,
        0.0,
        1.0
      ],
      "name": "Empty.001"
    },
    {
      "mesh": 0,
      "name": "Empty.001_wall_0"
    },
    {
      "mesh": 1,
      "name": "Empty.001_windos_0"
    },
    {
      "mesh": 2,
      "name": "Empty.001_door.001_0"
    },
    {
      "mesh": 3,
      "name": "Empty.001_glass_0"
    }
  ],
  "samplers": [
    {
      "magFilter": 9729,
      "minFilter": 9987,
      "wrapS": 10497,
      "wrapT": 10497
    }
  ],
  "scene": 0,
  "scenes": [
    {
      "name": "Sketchfab_Scene",
      "nodes": [
        0
      ]
    }
  ],
  "textures": [
    {
      "sampler": 0,
      "source": 0
    },
    {
      "sampler": 0,
      "source": 1
    },
    {
      "sampler": 0,
      "source": 2
    }
  ]
}
