{
  "accessors": [
    {
      "bufferView": 2,
      "componentType": 5126,
      "count": 9090,
      "max": [
        2.141005039215088,
        4.313100814819336,
        9.000089645385742
      ],
      "min": [
        -6.20627498626709,
        -0.0010540025541558862,
        -9.000089645385742
      ],
      "type": "VEC3"
    },
    {
      "bufferView": 2,
      "byteOffset": 109080,
      "componentType": 5126,
      "count": 9090,
      "max": [
        1.0,
        1.0,
        1.0
      ],
      "min": [
        -1.0,
        -1.0,
        -1.0
      ],
      "type": "VEC3"
    },
    {
      "bufferView": 1,
      "componentType": 5126,
      "count": 9090,
      "max": [
        0.3466799855232239,
        0.47029098868370056
      ],
      "min": [
        0.029296999797225,
        0.029296999797225
      ],
      "type": "VEC2"
    },
    {
      "bufferView": 0,
      "componentType": 5125,
      "count": 27843,
      "type": "SCALAR"
    },
    {
      "bufferView": 2,
      "byteOffset": 218160,
      "componentType": 5126,
      "count": 15578,
      "max": [
        2.518220901489258,
        0.5165799856185913,
        8.837087631225586
      ],
      "min": [
        0.0352649986743927,
        -0.0015839999541640282,
        -8.837087631225586
      ],
      "type": "VEC3"
    },
    {
      "bufferView": 2,
      "byteOffset": 405096,
      "componentType": 5126,
      "count": 15578,
      "max": [
        0.980798602104187,
        1.0,
        0.9808398485183716
      ],
      "min": [
        -0.9807890057563782,
        -1.0,
        -0.9808398485183716
      ],
      "type": "VEC3"
    },
    {
      "bufferView": 1,
      "byteOffset": 72720,
      "componentType": 5126,
      "count": 15578,
      "max": [
        0.4080359935760498,
        0.4694949984550476
      ],
      "min": [
        0.031498998403549194,
        0.46936699748039246
      ],
      "type": "VEC2"
    },
    {
      "bufferView": 0,
      "byteOffset": 111372,
      "componentType": 5125,
      "count": 25560,
      "type": "SCALAR"
    },
    {
      "bufferView": 2,
      "byteOffset": 592032,
      "componentType": 5126,
      "count": 444,
      "max": [
        -0.1374949961900711,
        2.495173931121826,
        9.055036544799805
      ],
      "min": [
        -6.096861839294434,
        -1.6082687404050944e-09,
        -9.055036544799805
      ],
      "type": "VEC3"
    },
    {
      "bufferView": 2,
      "byteOffset": 597360,
      "componentType": 5126,
      "count": 444,
      "max": [
        1.0,
        1.0,
        1.0
      ],
      "min": [
        -1.0,
        -1.0,
        -1.0
      ],
      "type": "VEC3"
    },
    {
      "bufferView": 1,
      "byteOffset": 197344,
      "componentType": 5126,
      "count": 444,
      "max": [
        0.1556980013847351,
        0.471792995929718
      ],
      "min": [
        0.030931999906897545,
        0.4078126549720764
      ],
      "type": "VEC2"
    },
    {
      "bufferView": 0,
      "byteOffset": 213612,
      "componentType": 5125,
      "count": 936,
      "type": "SCALAR"
    },
    {
      "bufferView": 2,
      "byteOffset": 602688,
      "componentType": 5126,
      "count": 3321,
      "max": [
        3.347242832183838,
        9.052427291870117,
        3.339360237121582
      ],
      "min": [
        -5.374943256378174,
        -9.052427291870117,
        -1.0
      ],
      "type": "VEC3"
    },
    {
      "bufferView": 2,
      "byteOffset": 642540,
      "componentType": 5126,
      "count": 3321,
      "max": [
        1.0,
        1.0,
        1.0
      ],
      "min": [
        -1.0,
        -1.0,
        -1.0
      ],
      "type": "VEC3"
    },
    {
      "bufferView": 1,
      "byteOffset": 200896,
      "componentType": 5126,
      "count": 3321,
      "max": [
        0.875,
        1.0
      ],
      "min": [
        0.0,
        0.0
      ],
      "type": "VEC2"
    },
    {
      "bufferView": 0,
      "byteOffset": 217356,
      "componentType": 5125,
      "count": 5280,
      "type": "SCALAR"
    }
  ],
  "asset": {
    "extras": {
      "author": "assetfactory (https://sketchfab.com/assetfactory)",
      "license": "SKETCHFAB Standard (https://sketchfab.com/licenses)",
      "source": "https://sketchfab.com/3d-models/low-poly-shopping-center-aac463cd39bf41caafb4e3fa7cdc6b14",
      "title": "Low poly shopping center"
    },
    "generator": "Sketchfab-16.33.0",
    "version": "2.0"
  },
  "bufferViews": [
    {
      "buffer": 0,
      "byteLength": 238476,
      "name": "floatBufferViews",
      "target": 34963
    },
    {
      "buffer": 0,
      "byteLength": 227464,
      "byteOffset": 238476,
      "byteStride": 8,
      "name": "floatBufferViews",
      "target": 34962
    },
    {
      "buffer": 0,
      "byteLength": 682392,
      "byteOffset": 465940,
      "byteStride": 12,
      "name": "floatBufferViews",
      "target": 34962
    }
  ],
  "buffers": [
    {
      "byteLength": 1148332,
      "uri": "scene.bin"
    }
  ],
  "images": [
    {
      "uri": "textures/Texture_buildings1_baseColor.png"
    }
  ],
  "materials": [
    {
      "doubleSided": true,
      "name": "Texture_buildings1",
      "pbrMetallicRoughness": {
        "baseColorTexture": {
          "index": 0
        },
        "metallicFactor": 0.0,
        "roughnessFactor": 0.8611067128702585
      }
    },
    {
      "alphaMode": "BLEND",
      "doubleSided": true,
      "name": "Collider",
      "pbrMetallicRoughness": {
        "baseColorFactor": [
          0.8,
          0.8,
          0.8,
          0.0
        ],
        "metallicFactor": 0.0,
        "roughnessFactor": 0.0
      }
    }
  ],
  "meshes": [
    {
      "name": "ShoppingCenterBuilding_Texture_buildings1_0",
      "primitives": [
        {
          "attributes": {
            "NORMAL": 1,
            "POSITION": 0,
            "TEXCOORD_0": 2
          },
          "indices": 3,
          "material": 0,
          "mode": 4
        }
      ]
    },
    {
      "name": "ShoppingCenterSticks_Texture_buildings1_0",
      "primitives": [
        {
          "attributes": {
            "NORMAL": 5,
            "POSITION": 4,
            "TEXCOORD_0": 6
          },
          "indices": 7,
          "material": 0,
          "mode": 4
        }
      ]
    },
    {
      "name": "ShoppingCenterBuilding.001_Texture_buildings1_0",
      "primitives": [
        {
          "attributes": {
            "NORMAL": 9,
            "POSITION": 8,
            "TEXCOORD_0": 10
          },
          "indices": 11,
          "material": 0,
          "mode": 4
        }
      ]
    },
    {
      "name": "Collider_Collider_0",
      "primitives": [
        {
          "attributes": {
            "NORMAL": 13,
            "POSITION": 12,
            "TEXCOORD_0": 14
          },
          "indices": 15,
          "material": 1,
          "mode": 4
        }
      ]
    }
  ],
  "nodes": [
    {
      "children": [
        1
      ],
      "matrix": [
        2.220446049250313e-16,
        -2.220446049250313e-16,
        1.0,
        0.0,
        1.0,
        4.930380657631324e-32,
        -2.220446049250313e-16,
        0.0,
        0.0,
        1.0,
        2.220446049250313e-16,
        0.0,
        0.0,
        0.0,
        0.0,
        1.0
      ],
      "name": "Sketchfab_model"
    },
    {
      "children": [
        2
      ],
      "matrix": [
        0.009999999776482582,
        0.0,
        0.0,
        0.0,
        0.0,
        0.0,
        0.009999999776482582,
        0.0,
        0.0,
        -0.009999999776482582,
        0.0,
        0.0,
        0.0,
        0.0,
        0.0,
        1.0
      ],
      "name": "BusinessBuilding_ShoppingCenterC.fbx"
    },
    {
      "children": [
        3,
        5,
        7,
        9
      ],
      "name": "RootNode"
    },
    {
      "children": [
        4
      ],
      "matrix": [
        100.0,
        0.0,
        0.0,
        0.0,
        0.0,
        99.99999999999866,
        1.6292067073209114e-05,
        0.0,
        0.0,
        -1.6292067073209114e-05,
        99.99999999999866,
        0.0,
        0.0,
        0.0,
        0.0,
        1.0
      ],
      "name": "ShoppingCenterBuilding"
    },
    {
      "mesh": 0,
      "name": "ShoppingCenterBuilding_Texture_buildings1_0"
    },
    {
      "children": [
        6
      ],
      "matrix": [
        100.0,
        0.0,
        0.0,
        0.0,
        0.0,
        99.99999999999866,
        1.6292067073209114e-05,
        0.0,
        0.0,
        -1.6292067073209114e-05,
        99.99999999999866,
        0.0,
        0.0,
        0.0,
        0.0,
        1.0
      ],
      "name": "ShoppingCenterSticks"
    },
    {
      "mesh": 1,
      "name": "ShoppingCenterSticks_Texture_buildings1_0"
    },
    {
      "children": [
        8
      ],
      "matrix": [
        100.0,
        0.0,
        0.0,
        0.0,
        0.0,
        99.99999999999866,
        1.6292067073209114e-05,
        0.0,
        0.0,
        -1.6292067073209114e-05,
        99.99999999999866,
        0.0,
        0.0,
        0.0,
        0.0,
        1.0
      ],
      "name": "ShoppingCenterBuilding.001"
    },
    {
      "mesh": 2,
      "name": "ShoppingCenterBuilding.001_Texture_buildings1_0"
    },
    {
      "children": [
        10
      ],
      "matrix": [
        100.0,
        0.0,
        0.0,
        0.0,
        -0.0,
        -1.629206793918314e-05,
        -99.99999999999868,
        0.0,
        0.0,
        99.99999999999868,
        -1.629206793918314e-05,
        0.0,
        -82.87080383300781,
        100.0,
        0.0,
        1.0
      ],
      "name": "Collider"
    },
    {
      "mesh": 3,
      "name": "Collider_Collider_0"
    }
  ],
  "samplers": [
    {
      "magFilter": 9729,
      "minFilter": 9987,
      "wrapS": 10497,
      "wrapT": 10497
    }
  ],
  "scene": 0,
  "scenes": [
    {
      "name": "Sketchfab_Scene",
      "nodes": [
        0
      ]
    }
  ],
  "textures": [
    {
      "sampler": 0,
      "source": 0
    }
  ]
}
