{
  "accessors": [
    {
      "bufferView": 2,
      "componentType": 5126,
      "count": 374,
      "max": [
        0.9843674302101135,
        1.3267066478729248,
        2.3944687843322754
      ],
      "min": [
        -0.9843674302101135,
        0.1403571218252182,
        -2.411492347717285
      ],
      "type": "VEC3"
    },
    {
      "bufferView": 2,
      "byteOffset": 4488,
      "componentType": 5126,
      "count": 374,
      "max": [
        0.9999746084213257,
        0.9996593594551086,
        0.9637437462806702
      ],
      "min": [
        -0.9999746084213257,
        -0.9999315738677979,
        -0.9986156225204468
      ],
      "type": "VEC3"
    },
    {
      "bufferView": 3,
      "componentType": 5126,
      "count": 374,
      "max": [
        1.0,
        1.0,
        1.0,
        0.0
      ],
      "min": [
        0.0,
        0.0,
        0.0,
        0.0
      ],
      "type": "VEC4"
    },
    {
      "bufferView": 1,
      "componentType": 5126,
      "count": 374,
      "max": [
        0.998046875,
        0.9882908463478088
      ],
      "min": [
        0.0021181695628911257,
        0.0078125
      ],
      "type": "VEC2"
    },
    {
      "bufferView": 0,
      "componentType": 5125,
      "count": 1038,
      "type": "SCALAR"
    },
    {
      "bufferView": 2,
      "byteOffset": 8976,
      "componentType": 5126,
      "count": 10,
      "max": [
        0.9473254680633545,
        2.3980894088745117,
        -0.0012519888114184141
      ],
      "min": [
        -0.9473254680633545,
        -2.403463125228882,
        -0.0012520088348537683
      ],
      "type": "VEC3"
    },
    {
      "bufferView": 2,
      "byteOffset": 9096,
      "componentType": 5126,
      "count": 10,
      "max": [
        0.0,
        0.0,
        -1.0
      ],
      "min": [
        0.0,
        0.0,
        -1.0
      ],
      "type": "VEC3"
    },
    {
      "bufferView": 3,
      "byteOffset": 5984,
      "componentType": 5126,
      "count": 10,
      "max": [
        0.0,
        0.0,
        0.0,
        0.0
      ],
      "min": [
        0.0,
        0.0,
        0.0,
        0.0
      ],
      "type": "VEC4"
    },
    {
      "bufferView": 1,
      "byteOffset": 2992,
      "componentType": 5126,
      "count": 10,
      "max": [
        0.0021127108484506607,
        0.9879055619239807
      ],
      "min": [
        0.0021127108484506607,
        0.9879055619239807
      ],
      "type": "VEC2"
    },
    {
      "bufferView": 0,
      "byteOffset": 4152,
      "componentType": 5125,
      "count": 24,
      "type": "SCALAR"
    },
    {
      "bufferView": 2,
      "byteOffset": 9216,
      "componentType": 5126,
      "count": 105,
      "max": [
        0.12405938655138016,
        0.3360217213630676,
        0.3360217213630676
      ],
      "min": [
        -0.14990702271461487,
        -0.3360217213630676,
        -0.3360217213630676
      ],
      "type": "VEC3"
    },
    {
      "bufferView": 2,
      "byteOffset": 10476,
      "componentType": 5126,
      "count": 105,
      "max": [
        1.0,
        1.0,
        1.0
      ],
      "min": [
        -1.0,
        -1.0,
        -1.0
      ],
      "type": "VEC3"
    },
    {
      "bufferView": 3,
      "byteOffset": 6144,
      "componentType": 5126,
      "count": 105,
      "max": [
        1.0,
        1.0,
        1.0,
        0.0
      ],
      "min": [
        0.0,
        0.0,
        0.0,
        0.0
      ],
      "type": "VEC4"
    },
    {
      "bufferView": 1,
      "byteOffset": 3072,
      "componentType": 5126,
      "count": 105,
      "max": [
        0.9950000047683716,
        0.5
      ],
      "min": [
        0.7202378511428833,
        0.009999990463256836
      ],
      "type": "VEC2"
    },
    {
      "bufferView": 0,
      "byteOffset": 4248,
      "componentType": 5125,
      "count": 234,
      "type": "SCALAR"
    },
    {
      "bufferView": 2,
      "byteOffset": 11736,
      "componentType": 5126,
      "count": 105,
      "max": [
        0.12405938655138016,
        0.3360217213630676,
        0.3360217213630676
      ],
      "min": [
        -0.14990702271461487,
        -0.3360217213630676,
        -0.3360217213630676
      ],
      "type": "VEC3"
    },
    {
      "bufferView": 2,
      "byteOffset": 12996,
      "componentType": 5126,
      "count": 105,
      "max": [
        1.0,
        1.0,
        1.0
      ],
      "min": [
        -1.0,
        -1.0,
        -1.0
      ],
      "type": "VEC3"
    },
    {
      "bufferView": 3,
      "byteOffset": 7824,
      "componentType": 5126,
      "count": 105,
      "max": [
        0.9490196108818054,
        0.9490196108818054,
        0.9490196108818054,
        0.0
      ],
      "min": [
        0.0,
        0.0,
        0.0,
        0.0
      ],
      "type": "VEC4"
    },
    {
      "bufferView": 1,
      "byteOffset": 3912,
      "componentType": 5126,
      "count": 105,
      "max": [
        0.9950000047683716,
        0.5
      ],
      "min": [
        0.7202378511428833,
        0.009999990463256836
      ],
      "type": "VEC2"
    },
    {
      "bufferView": 0,
      "byteOffset": 5184,
      "componentType": 5125,
      "count": 234,
      "type": "SCALAR"
    },
    {
      "bufferView": 2,
      "byteOffset": 14256,
      "componentType": 5126,
      "count": 105,
      "max": [
        0.12405938655138016,
        0.3360217213630676,
        0.3360217213630676
      ],
      "min": [
        -0.14990702271461487,
        -0.3360217213630676,
        -0.3360217213630676
      ],
      "type": "VEC3"
    },
    {
      "bufferView": 2,
      "byteOffset": 15516,
      "componentType": 5126,
      "count": 105,
      "max": [
        1.0,
        1.0,
        1.0
      ],
      "min": [
        -1.0,
        -1.0,
        -1.0
      ],
      "type": "VEC3"
    },
    {
      "bufferView": 3,
      "byteOffset": 9504,
      "componentType": 5126,
      "count": 105,
      "max": [
        0.9921568632125854,
        0.9921568632125854,
        0.9921568632125854,
        0.0
      ],
      "min": [
        0.0,
        0.0,
        0.0,
        0.0
      ],
      "type": "VEC4"
    },
    {
      "bufferView": 1,
      "byteOffset": 4752,
      "componentType": 5126,
      "count": 105,
      "max": [
        0.9950000047683716,
        0.5
      ],
      "min": [
        0.7202378511428833,
        0.009999990463256836
      ],
      "type": "VEC2"
    },
    {
      "bufferView": 0,
      "byteOffset": 6120,
      "componentType": 5125,
      "count": 234,
      "type": "SCALAR"
    },
    {
      "bufferView": 2,
      "byteOffset": 16776,
      "componentType": 5126,
      "count": 105,
      "max": [
        0.12405938655138016,
        0.3360217213630676,
        0.3360217213630676
      ],
      "min": [
        -0.14990702271461487,
        -0.3360217213630676,
        -0.3360217213630676
      ],
      "type": "VEC3"
    },
    {
      "bufferView": 2,
      "byteOffset": 18036,
      "componentType": 5126,
      "count": 105,
      "max": [
        1.0,
        1.0,
        1.0
      ],
      "min": [
        -1.0,
        -1.0,
        -1.0
      ],
      "type": "VEC3"
    },
    {
      "bufferView": 3,
      "byteOffset": 11184,
      "componentType": 5126,
      "count": 105,
      "max": [
        0.95686274766922,
        0.95686274766922,
        0.95686274766922,
        0.0
      ],
      "min": [
        0.0,
        0.0,
        0.0,
        0.0
      ],
      "type": "VEC4"
    },
    {
      "bufferView": 1,
      "byteOffset": 5592,
      "componentType": 5126,
      "count": 105,
      "max": [
        0.9950000047683716,
        0.5
      ],
      "min": [
        0.7202378511428833,
        0.009999990463256836
      ],
      "type": "VEC2"
    },
    {
      "bufferView": 0,
      "byteOffset": 7056,
      "componentType": 5125,
      "count": 234,
      "type": "SCALAR"
    }
  ],
  "asset": {
    "extras": {
      "author": "Aike (https://sketchfab.com/anathlyst)",
      "license": "SKETCHFAB Standard (https://sketchfab.com/licenses)",
      "source": "https://sketchfab.com/3d-models/ps1-gt1-style-model-1992-emery-aventus-297520b5f6d74629a1670fd39572c096",
      "title": "PS1 GT1-Style Model - 1992 Emery Aventus"
    },
    "generator": "Sketchfab-16.21.0",
    "version": "2.0"
  },
  "bufferViews": [
    {
      "buffer": 0,
      "byteLength": 7992,
      "name": "floatBufferViews",
      "target": 34963
    },
    {
      "buffer": 0,
      "byteLength": 6432,
      "byteOffset": 7992,
      "byteStride": 8,
      "name": "floatBufferViews",
      "target": 34962
    },
    {
      "buffer": 0,
      "byteLength": 19296,
      "byteOffset": 14424,
      "byteStride": 12,
      "name": "floatBufferViews",
      "target": 34962
    },
    {
      "buffer": 0,
      "byteLength": 12864,
      "byteOffset": 33720,
      "byteStride": 16,
      "name": "floatBufferViews",
      "target": 34962
    }
  ],
  "buffers": [
    {
      "byteLength": 46584,
      "uri": "scene.bin"
    }
  ],
  "extensionsUsed": [
    "KHR_texture_transform",
    "KHR_materials_specular"
  ],
  "images": [
    {
      "uri": "textures/PS1_Aventus_Sketchfab_baseColor.png"
    },
    {
      "uri": "textures/PS1_Aventus_Sketchfab_metallicRoughness.png"
    },
    {
      "uri": "textures/PS1_Aventus_Sketchfab_specularf0.png"
    }
  ],
  "materials": [
    {
      "alphaMode": "BLEND",
      "extensions": {
        "KHR_materials_specular": {
          "specularColorFactor": [
            1.0,
            1.0,
            1.0
          ],
          "specularFactor": 0.02,
          "specularTexture": {
            "index": 2
          }
        }
      },
      "name": "PS1_Aventus_Sketchfab",
      "occlusionTexture": {
        "extensions": {
          "KHR_texture_transform": {
            "scale": [
              1,
              -0.9999999999999996
            ]
          }
        },
        "index": 1,
        "strength": 0.505633367722231
      },
      "pbrMetallicRoughness": {
        "baseColorTexture": {
          "extensions": {
            "KHR_texture_transform": {
              "scale": [
                1,
                -0.9999999999999996
              ]
            }
          },
          "index": 0
        },
        "metallicFactor": 0.0,
        "metallicRoughnessTexture": {
          "index": 1
        },
        "roughnessFactor": 0.09999999999999998
      }
    }
  ],
  "meshes": [
    {
      "name": "Object_0",
      "primitives": [
        {
          "attributes": {
            "COLOR_0": 2,
            "NORMAL": 1,
            "POSITION": 0,
            "TEXCOORD_0": 3
          },
          "indices": 4,
          "material": 0,
          "mode": 4
        }
      ]
    },
    {
      "name": "Object_1",
      "primitives": [
        {
          "attributes": {
            "COLOR_0": 7,
            "NORMAL": 6,
            "POSITION": 5,
            "TEXCOORD_0": 8
          },
          "indices": 9,
          "material": 0,
          "mode": 4
        }
      ]
    },
    {
      "name": "Object_2",
      "primitives": [
        {
          "attributes": {
            "COLOR_0": 12,
            "NORMAL": 11,
            "POSITION": 10,
            "TEXCOORD_0": 13
          },
          "indices": 14,
          "material": 0,
          "mode": 4
        }
      ]
    },
    {
      "name": "Object_3",
      "primitives": [
        {
          "attributes": {
            "COLOR_0": 17,
            "NORMAL": 16,
            "POSITION": 15,
            "TEXCOORD_0": 18
          },
          "indices": 19,
          "material": 0,
          "mode": 4
        }
      ]
    },
    {
      "name": "Object_4",
      "primitives": [
        {
          "attributes": {
            "COLOR_0": 22,
            "NORMAL": 21,
            "POSITION": 20,
            "TEXCOORD_0": 23
          },
          "indices": 24,
          "material": 0,
          "mode": 4
        }
      ]
    },
    {
      "name": "Object_5",
      "primitives": [
        {
          "attributes": {
            "COLOR_0": 27,
            "NORMAL": 26,
            "POSITION": 25,
            "TEXCOORD_0": 28
          },
          "indices": 29,
          "material": 0,
          "mode": 4
        }
      ]
    }
  ],
  "nodes": [
    {
      "children": [
        1
      ],
      "matrix": [
        1.0,
        0.0,
        0.0,
        0.0,
        0.0,
        2.220446049250313e-16,
        -1.0,
        0.0,
        0.0,
        1.0,
        2.220446049250313e-16,
        0.0,
        0.0,
        0.0,
        0.0,
        1.0
      ],
      "name": "Sketchfab_model"
    },
    {
      "children": [
        2
      ],
      "name": "root"
    },
    {
      "children": [
        3
      ],
      "matrix": [
        1.0,
        0.0,
        0.0,
        0.0,
        0.0,
        2.220446049250313e-16,
        1.0,
        0.0,
        0.0,
        -1.0,
        2.220446049250313e-16,
        0.0,
        0.0,
        0.0,
        0.0,
        1.0
      ],
      "name": "GLTF_SceneRootNode"
    },
    {
      "children": [
        4,
        5,
        7,
        9,
        11,
        13
      ],
      "name": "Aventus_PS1.SK_5"
    },
    {
      "mesh": 0,
      "name": "Object_4"
    },
    {
      "children": [
        6
      ],
      "matrix": [
        1.0,
        0.0,
        0.0,
        0.0,
        0.0,
        0.0,
        1.0,
        0.0,
        0.0,
        -1.0,
        0.0,
        0.0,
        0.0,
        0.0,
        0.0,
        1.0
      ],
      "name": "Shadow.SK_0"
    },
    {
      "mesh": 1,
      "name": "Object_6"
    },
    {
      "children": [
        8
      ],
      "matrix": [
        0.9996979998530896,
        0.024574561842119647,
        0.0,
        0.0,
        -0.024574561842119647,
        0.9996979998530896,
        0.0,
        0.0,
        0.0,
        0.0,
        1.0,
        0.0,
        0.8199999928474426,
        0.3149999976158142,
        1.2985299825668335,
        1.0
      ],
      "name": "WheelFL.SK_1"
    },
    {
      "mesh": 2,
      "name": "Object_8"
    },
    {
      "children": [
        10
      ],
      "matrix": [
        -0.999697999853078,
        0.0245745618421195,
        1.5097300432075454e-07,
        0.0,
        0.0245745618421195,
        0.9996979998530896,
        -1.855327870230178e-09,
        0.0,
        -1.5097300432075454e-07,
        1.855327870230178e-09,
        -0.9999999999999885,
        0.0,
        -0.8199999928474426,
        0.3149999976158142,
        1.2985299825668335,
        1.0
      ],
      "name": "WheelFR.SK_2"
    },
    {
      "mesh": 3,
      "name": "Object_10"
    },
    {
      "children": [
        12
      ],
      "matrix": [
        1.0,
        0.0,
        0.0,
        0.0,
        0.0,
        1.0,
        0.0,
        0.0,
        0.0,
        0.0,
        1.0,
        0.0,
        0.8100000023841858,
        0.3149999976158142,
        -1.296489953994751,
        1.0
      ],
      "name": "WheelRL.SK_3"
    },
    {
      "mesh": 4,
      "name": "Object_12"
    },
    {
      "children": [
        14
      ],
      "matrix": [
        -0.9999999999999885,
        0.0,
        1.5099580252808577e-07,
        0.0,
        -0.0,
        1.0,
        0.0,
        0.0,
        -1.5099580252808577e-07,
        0.0,
        -0.9999999999999885,
        0.0,
        -0.8100000023841858,
        0.3149999976158142,
        -1.296489953994751,
        1.0
      ],
      "name": "WheelRR.SK_4"
    },
    {
      "mesh": 5,
      "name": "Object_14"
    }
  ],
  "samplers": [
    {
      "magFilter": 9728,
      "minFilter": 9728,
      "wrapS": 10497,
      "wrapT": 10497
    }
  ],
  "scene": 0,
  "scenes": [
    {
      "name": "Sketchfab_Scene",
      "nodes": [
        0
      ]
    }
  ],
  "textures": [
    {
      "sampler": 0,
      "source": 0
    },
    {
      "sampler": 0,
      "source": 1
    },
    {
      "sampler": 0,
      "source": 2
    }
  ]
}
