{
  "accessors": [
    {
      "bufferView": 2,
      "componentType": 5126,
      "count": 26459,
      "max": [
        2399.64208984375,
        3807.24755859375,
        1784.0390625
      ],
      "min": [
        -2332.523193359375,
        -4.138578414916992,
        -1077.3316650390625
      ],
      "type": "VEC3"
    },
    {
      "bufferView": 2,
      "byteOffset": 317508,
      "componentType": 5126,
      "count": 26459,
      "max": [
        1.0,
        1.0,
        1.0
      ],
      "min": [
        -1.0,
        -1.0,
        -1.0
      ],
      "type": "VEC3"
    },
    {
      "bufferView": 3,
      "componentType": 5126,
      "count": 26459,
      "max": [
        1.0,
        1.0,
        1.0,
        1.0
      ],
      "min": [
        -1.0,
        -1.0,
        -1.0,
        -1.0
      ],
      "type": "VEC4"
    },
    {
      "bufferView": 1,
      "componentType": 5126,
      "count": 26459,
      "max": [
        0.9988884925842285,
        0.9990234375
      ],
      "min": [
        0.0009765624417923391,
        0.0009765625
      ],
      "type": "VEC2"
    },
    {
      "bufferView": 1,
      "byteOffset": 211672,
      "componentType": 5126,
      "count": 26459,
      "max": [
        0.9988884925842285,
        0.9990234375
      ],
      "min": [
        0.0009765624417923391,
        0.0009765625
      ],
      "type": "VEC2"
    },
    {
      "bufferView": 1,
      "byteOffset": 423344,
      "componentType": 5126,
      "count": 26459,
      "max": [
        0.9988884925842285,
        0.9990234375
      ],
      "min": [
        0.0009765624417923391,
        0.0009765625
      ],
      "type": "VEC2"
    },
    {
      "bufferView": 0,
      "componentType": 5125,
      "count": 44904,
      "type": "SCALAR"
    }
  ],
  "asset": {
    "extras": {
      "author": "M17pro (https://sketchfab.com/m17pro)",
      "license": "SKETCHFAB Standard (https://sketchfab.com/licenses)",
      "source": "https://sketchfab.com/3d-models/low-poly-building-edgewater-lofts-0e85885e84384ca6a61d8a1babf371a1",
      "title": "Low poly building (Edgewater Lofts)"
    },
    "generator": "Sketchfab-17.8.0",
    "version": "2.0"
  },
  "bufferViews": [
    {
      "buffer": 0,
      "byteLength": 179616,
      "name": "floatBufferViews",
      "target": 34963
    },
    {
      "buffer": 0,
      "byteLength": 635016,
      "byteOffset": 179616,
      "byteStride": 8,
      "name": "floatBufferViews",
      "target": 34962
    },
    {
      "buffer": 0,
      "byteLength": 635016,
      "byteOffset": 814632,
      "byteStride": 12,
      "name": "floatBufferViews",
      "target": 34962
    },
    {
      "buffer": 0,
      "byteLength": 423344,
      "byteOffset": 1449648,
      "byteStride": 16,
      "name": "floatBufferViews",
      "target": 34962
    }
  ],
  "buffers": [
    {
      "byteLength": 1872992,
      "uri": "scene.bin"
    }
  ],
  "images": [
    {
      "uri": "textures/Building_baseColor.png"
    },
    {
      "uri": "textures/Building_metallicRoughness.png"
    },
    {
      "uri": "textures/Building_normal.png"
    }
  ],
  "materials": [
    {
      "alphaCutoff": 0.4739062061903426,
      "alphaMode": "MASK",
      "doubleSided": true,
      "name": "Building",
      "normalTexture": {
        "index": 2,
        "texCoord": 1
      },
      "pbrMetallicRoughness": {
        "baseColorTexture": {
          "index": 0
        },
        "metallicRoughnessTexture": {
          "index": 1
        }
      }
    }
  ],
  "meshes": [
    {
      "name": "Edgewater Lofts_Building_0",
      "primitives": [
        {
          "attributes": {
            "NORMAL": 1,
            "POSITION": 0,
            "TANGENT": 2,
            "TEXCOORD_0": 3,
            "TEXCOORD_1": 4,
            "TEXCOORD_2": 5
          },
          "indices": 6,
          "material": 0,
          "mode": 4
        }
      ]
    }
  ],
  "nodes": [
    {
      "children": [
        1
      ],
      "matrix": [
        1.0,
        0.0,
        0.0,
        0.0,
        0.0,
        2.220446049250313e-16,
        -1.0,
        0.0,
        0.0,
        1.0,
        2.220446049250313e-16,
        0.0,
        0.0,
        0.0,
        0.0,
        1.0
      ],
      "name": "Sketchfab_model"
    },
    {
      "children": [
        2
      ],
      "matrix": [
        0.009999999776482582,
        0.0,
        0.0,
        0.0,
        0.0,
        0.0,
        0.009999999776482582,
        0.0,
        0.0,
        -0.009999999776482582,
        0.0,
        0.0,
        0.0,
        0.0,
        0.0,
        1.0
      ],
      "name": "2a35fefa10fd4070b53124923315c007.fbx"
    },
    {
      "children": [
        3
      ],
      "name": "RootNode"
    },
    {
      "children": [
        4
      ],
      "name": "Edgewater Lofts"
    },
    {
      "mesh": 0,
      "name": "Edgewater Lofts_Building_0"
    }
  ],
  "samplers": [
    {
      "magFilter": 9729,
      "minFilter": 9987,
      "wrapS": 10497,
      "wrapT": 10497
    }
  ],
  "scene": 0,
  "scenes": [
    {
      "name": "Sketchfab_Scene",
      "nodes": [
        0
      ]
    }
  ],
  "textures": [
    {
      "sampler": 0,
      "source": 0
    },
    {
      "sampler": 0,
      "source": 1
    },
    {
      "sampler": 0,
      "source": 2
    }
  ]
}
