{
  "accessors": [
    {
      "bufferView": 2,
      "componentType": 5126,
      "count": 23902,
      "max": [
        2.095060110092163,
        6.934330940246582,
        3.77828311920166
      ],
      "min": [
        -2.2269160747528076,
        -0.0,
        -3.77828311920166
      ],
      "type": "VEC3"
    },
    {
      "bufferView": 2,
      "byteOffset": 286824,
      "componentType": 5126,
      "count": 23902,
      "max": [
        1.0,
        1.0,
        1.0
      ],
      "min": [
        -1.0,
        -1.0,
        -1.0
      ],
      "type": "VEC3"
    },
    {
      "bufferView": 1,
      "componentType": 5126,
      "count": 23902,
      "max": [
        0.2819490134716034,
        0.4068950116634369
      ],
      "min": [
        0.031161997467279434,
        0.029482999816536903
      ],
      "type": "VEC2"
    },
    {
      "bufferView": 0,
      "componentType": 5125,
      "count": 48282,
      "type": "SCALAR"
    },
    {
      "bufferView": 2,
      "byteOffset": 573648,
      "componentType": 5126,
      "count": 846,
      "max": [
        1.0,
        1.0,
        1.5780822038650513
      ],
      "min": [
        -1.1194971799850464,
        -1.0,
        -1.9059144258499146
      ],
      "type": "VEC3"
    },
    {
      "bufferView": 2,
      "byteOffset": 583800,
      "componentType": 5126,
      "count": 846,
      "max": [
        1.0,
        1.0,
        1.0
      ],
      "min": [
        -1.0,
        -1.0,
        -1.0
      ],
      "type": "VEC3"
    },
    {
      "bufferView": 1,
      "byteOffset": 191216,
      "componentType": 5126,
      "count": 846,
      "max": [
        1.0,
        1.0
      ],
      "min": [
        -8.940696716308594e-08,
        0.01000000536441803
      ],
      "type": "VEC2"
    },
    {
      "bufferView": 0,
      "byteOffset": 193128,
      "componentType": 5125,
      "count": 1368,
      "type": "SCALAR"
    }
  ],
  "asset": {
    "extras": {
      "author": "assetfactory (https://sketchfab.com/assetfactory)",
      "license": "SKETCHFAB Standard (https://sketchfab.com/licenses)",
      "source": "https://sketchfab.com/3d-models/low-poly-apartment-building-1-0020a7cb07bf44919c22239058ad0869",
      "title": "Low poly apartment building 1"
    },
    "generator": "Sketchfab-16.33.0",
    "version": "2.0"
  },
  "bufferViews": [
    {
      "buffer": 0,
      "byteLength": 198600,
      "name": "floatBufferViews",
      "target": 34963
    },
    {
      "buffer": 0,
      "byteLength": 197984,
      "byteOffset": 198600,
      "byteStride": 8,
      "name": "floatBufferViews",
      "target": 34962
    },
    {
      "buffer": 0,
      "byteLength": 593952,
      "byteOffset": 396584,
      "byteStride": 12,
      "name": "floatBufferViews",
      "target": 34962
    }
  ],
  "buffers": [
    {
      "byteLength": 990536,
      "uri": "scene.bin"
    }
  ],
  "images": [
    {
      "uri": "textures/Pack3_baseColor.png"
    }
  ],
  "materials": [
    {
      "doubleSided": true,
      "name": "Pack3",
      "pbrMetallicRoughness": {
        "baseColorTexture": {
          "index": 0
        },
        "metallicFactor": 0.0,
        "roughnessFactor": 0.7763932022500211
      }
    },
    {
      "alphaMode": "BLEND",
      "doubleSided": true,
      "name": "Collider",
      "pbrMetallicRoughness": {
        "baseColorFactor": [
          0.8,
          0.8,
          0.8,
          0.0
        ],
        "metallicFactor": 0.0,
        "roughnessFactor": 0.0
      }
    }
  ],
  "meshes": [
    {
      "name": "PublicBuilding_10_Pack3_0",
      "primitives": [
        {
          "attributes": {
            "NORMAL": 1,
            "POSITION": 0,
            "TEXCOORD_0": 2
          },
          "indices": 3,
          "material": 0,
          "mode": 4
        }
      ]
    },
    {
      "name": "Collider_Collider_0",
      "primitives": [
        {
          "attributes": {
            "NORMAL": 5,
            "POSITION": 4,
            "TEXCOORD_0": 6
          },
          "indices": 7,
          "material": 1,
          "mode": 4
        }
      ]
    }
  ],
  "nodes": [
    {
      "children": [
        1
      ],
      "matrix": [
        1.0,
        0.0,
        0.0,
        0.0,
        0.0,
        2.220446049250313e-16,
        -1.0,
        0.0,
        0.0,
        1.0,
        2.220446049250313e-16,
        0.0,
        0.0,
        0.0,
        0.0,
        1.0
      ],
      "name": "Sketchfab_model"
    },
    {
      "children": [
        2
      ],
      "matrix": [
        0.009999999776482582,
        0.0,
        0.0,
        0.0,
        0.0,
        0.0,
        0.009999999776482582,
        0.0,
        0.0,
        -0.009999999776482582,
        0.0,
        0.0,
        0.0,
        0.0,
        0.0,
        1.0
      ],
      "name": "PublicBuilding_10C.fbx"
    },
    {
      "children": [
        3,
        5
      ],
      "name": "RootNode"
    },
    {
      "children": [
        4
      ],
      "matrix": [
        100.0,
        0.0,
        0.0,
        0.0,
        0.0,
        99.99999999999866,
        1.6292067073209114e-05,
        0.0,
        0.0,
        -1.6292067073209114e-05,
        99.99999999999866,
        0.0,
        0.0,
        0.0,
        0.0,
        1.0
      ],
      "name": "PublicBuilding_10"
    },
    {
      "mesh": 0,
      "name": "PublicBuilding_10_Pack3_0"
    },
    {
      "children": [
        6
      ],
      "matrix": [
        199.0469512939453,
        0.0,
        0.0,
        0.0,
        0.0,
        -5.9908421773434994e-05,
        -367.7152709960889,
        0.0,
        0.0,
        199.04695129394267,
        -3.242886453568235e-05,
        0.0,
        0.0,
        379.366455078125,
        0.0,
        1.0
      ],
      "name": "Collider"
    },
    {
      "mesh": 1,
      "name": "Collider_Collider_0"
    }
  ],
  "samplers": [
    {
      "magFilter": 9729,
      "minFilter": 9987,
      "wrapS": 10497,
      "wrapT": 10497
    }
  ],
  "scene": 0,
  "scenes": [
    {
      "name": "Sketchfab_Scene",
      "nodes": [
        0
      ]
    }
  ],
  "textures": [
    {
      "sampler": 0,
      "source": 0
    }
  ]
}
