{
  "accessors": [
    {
      "bufferView": 2,
      "componentType": 5126,
      "count": 1539,
      "max": [
        2.1436569690704346,
        2.6374690532684326,
        2.6736109256744385
      ],
      "min": [
        -2.0675759315490723,
        -3.7701900623687834e-07,
        -2.3319809436798096
      ],
      "type": "VEC3"
    },
    {
      "bufferView": 2,
      "byteOffset": 18468,
      "componentType": 5126,
      "count": 1539,
      "max": [
        1.0,
        1.0,
        1.0
      ],
      "min": [
        -1.0,
        -1.0,
        -1.0
      ],
      "type": "VEC3"
    },
    {
      "bufferView": 1,
      "componentType": 5126,
      "count": 1539,
      "max": [
        0.34324899315834045,
        0.722652018070221
      ],
      "min": [
        0.030649999156594276,
        0.030695000663399696
      ],
      "type": "VEC2"
    },
    {
      "bufferView": 0,
      "componentType": 5125,
      "count": 3201,
      "type": "SCALAR"
    },
    {
      "bufferView": 2,
      "byteOffset": 36936,
      "componentType": 5126,
      "count": 2331,
      "max": [
        0.8753700256347656,
        3.7523930072784424,
        -0.34699299931526184
      ],
      "min": [
        -1.351896047592163,
        2.6248929500579834,
        -2.558701992034912
      ],
      "type": "VEC3"
    },
    {
      "bufferView": 2,
      "byteOffset": 64908,
      "componentType": 5126,
      "count": 2331,
      "max": [
        1.0,
        1.0,
        1.0
      ],
      "min": [
        -1.0,
        -1.0,
        -1.0
      ],
      "type": "VEC3"
    },
    {
      "bufferView": 1,
      "byteOffset": 12312,
      "componentType": 5126,
      "count": 2331,
      "max": [
        0.9703779816627502,
        0.7197840213775635
      ],
      "min": [
        0.6567630171775818,
        0.7179189920425415
      ],
      "type": "VEC2"
    },
    {
      "bufferView": 0,
      "byteOffset": 12804,
      "componentType": 5125,
      "count": 12438,
      "type": "SCALAR"
    },
    {
      "bufferView": 2,
      "byteOffset": 92880,
      "componentType": 5126,
      "count": 1267,
      "max": [
        -0.9452340006828308,
        3.257622003555298,
        1.74139404296875
      ],
      "min": [
        -1.1218739748001099,
        2.5965800285339355,
        -0.3997049927711487
      ],
      "type": "VEC3"
    },
    {
      "bufferView": 2,
      "byteOffset": 108084,
      "componentType": 5126,
      "count": 1267,
      "max": [
        1.0,
        1.0,
        1.0
      ],
      "min": [
        -1.0,
        -1.0,
        -1.0
      ],
      "type": "VEC3"
    },
    {
      "bufferView": 1,
      "byteOffset": 30960,
      "componentType": 5126,
      "count": 1267,
      "max": [
        0.5949360132217407,
        0.7199940085411072
      ],
      "min": [
        0.2773419916629791,
        0.716513991355896
      ],
      "type": "VEC2"
    },
    {
      "bufferView": 0,
      "byteOffset": 62556,
      "componentType": 5125,
      "count": 1782,
      "type": "SCALAR"
    },
    {
      "bufferView": 2,
      "byteOffset": 123288,
      "componentType": 5126,
      "count": 2120,
      "max": [
        1.768244981765747,
        0.5974479913711548,
        -0.08142200112342834
      ],
      "min": [
        -1.706868052482605,
        -4.5304153672987013e-07,
        -2.7807490825653076
      ],
      "type": "VEC3"
    },
    {
      "bufferView": 2,
      "byteOffset": 148728,
      "componentType": 5126,
      "count": 2120,
      "max": [
        1.0,
        1.0,
        1.0
      ],
      "min": [
        -1.0,
        -1.0,
        -1.0
      ],
      "type": "VEC3"
    },
    {
      "bufferView": 1,
      "byteOffset": 41096,
      "componentType": 5126,
      "count": 2120,
      "max": [
        0.5329729914665222,
        0.720441997051239
      ],
      "min": [
        0.4062510132789612,
        0.7158200144767761
      ],
      "type": "VEC2"
    },
    {
      "bufferView": 0,
      "byteOffset": 69684,
      "componentType": 5125,
      "count": 2256,
      "type": "SCALAR"
    },
    {
      "bufferView": 2,
      "byteOffset": 174168,
      "componentType": 5126,
      "count": 1504,
      "max": [
        1.697219967842102,
        0.4494760036468506,
        3.7919769287109375
      ],
      "min": [
        -1.6951990127563477,
        1.5809200704097748e-07,
        0.9707149863243103
      ],
      "type": "VEC3"
    },
    {
      "bufferView": 2,
      "byteOffset": 192216,
      "componentType": 5126,
      "count": 1504,
      "max": [
        1.0,
        1.0,
        1.0
      ],
      "min": [
        -1.0,
        -1.0,
        -1.0
      ],
      "type": "VEC3"
    },
    {
      "bufferView": 1,
      "byteOffset": 58056,
      "componentType": 5126,
      "count": 1504,
      "max": [
        0.09600099921226501,
        0.7207300066947937
      ],
      "min": [
        0.03214399889111519,
        0.6573629975318909
      ],
      "type": "VEC2"
    },
    {
      "bufferView": 0,
      "byteOffset": 78708,
      "componentType": 5125,
      "count": 3600,
      "type": "SCALAR"
    },
    {
      "bufferView": 2,
      "byteOffset": 210264,
      "componentType": 5126,
      "count": 866,
      "max": [
        2.145791530609131,
        2.7839653491973877,
        3.750669240951538
      ],
      "min": [
        -2.064068078994751,
        -3.795706033706665,
        0.0
      ],
      "type": "VEC3"
    },
    {
      "bufferView": 2,
      "byteOffset": 220656,
      "componentType": 5126,
      "count": 866,
      "max": [
        1.0,
        1.0,
        1.0
      ],
      "min": [
        -1.0,
        -1.0,
        -1.0
      ],
      "type": "VEC3"
    },
    {
      "bufferView": 1,
      "byteOffset": 70088,
      "componentType": 5126,
      "count": 866,
      "max": [
        1.0,
        1.0
      ],
      "min": [
        7.450580596923828e-08,
        0.0
      ],
      "type": "VEC2"
    },
    {
      "bufferView": 0,
      "byteOffset": 93108,
      "componentType": 5125,
      "count": 1416,
      "type": "SCALAR"
    }
  ],
  "asset": {
    "extras": {
      "author": "assetfactory (https://sketchfab.com/assetfactory)",
      "license": "SKETCHFAB Standard (https://sketchfab.com/licenses)",
      "source": "https://sketchfab.com/3d-models/low-poly-burger-restaurant-90d7b38c42ec4ebdbd6646fe4ece9547",
      "title": "Low poly burger restaurant"
    },
    "generator": "Sketchfab-16.33.0",
    "version": "2.0"
  },
  "bufferViews": [
    {
      "buffer": 0,
      "byteLength": 98772,
      "name": "floatBufferViews",
      "target": 34963
    },
    {
      "buffer": 0,
      "byteLength": 77016,
      "byteOffset": 98772,
      "byteStride": 8,
      "name": "floatBufferViews",
      "target": 34962
    },
    {
      "buffer": 0,
      "byteLength": 231048,
      "byteOffset": 175788,
      "byteStride": 12,
      "name": "floatBufferViews",
      "target": 34962
    }
  ],
  "buffers": [
    {
      "byteLength": 406836,
      "uri": "scene.bin"
    }
  ],
  "images": [
    {
      "uri": "textures/Texture_buildings1_baseColor.png"
    }
  ],
  "materials": [
    {
      "doubleSided": true,
      "name": "Texture_buildings1",
      "pbrMetallicRoughness": {
        "baseColorTexture": {
          "index": 0
        },
        "metallicFactor": 0.0,
        "roughnessFactor": 0.8611067128702585
      }
    },
    {
      "alphaMode": "BLEND",
      "doubleSided": true,
      "name": "Collider",
      "pbrMetallicRoughness": {
        "baseColorFactor": [
          0.8,
          0.8,
          0.8,
          0.0
        ],
        "metallicFactor": 0.0,
        "roughnessFactor": 0.0
      }
    }
  ],
  "meshes": [
    {
      "name": "BurgerBuilding_Texture_buildings1_0",
      "primitives": [
        {
          "attributes": {
            "NORMAL": 1,
            "POSITION": 0,
            "TEXCOORD_0": 2
          },
          "indices": 3,
          "material": 0,
          "mode": 4
        }
      ]
    },
    {
      "name": "BurgerBurger_Texture_buildings1_0",
      "primitives": [
        {
          "attributes": {
            "NORMAL": 5,
            "POSITION": 4,
            "TEXCOORD_0": 6
          },
          "indices": 7,
          "material": 0,
          "mode": 4
        }
      ]
    },
    {
      "name": "BurgerText_Texture_buildings1_0",
      "primitives": [
        {
          "attributes": {
            "NORMAL": 9,
            "POSITION": 8,
            "TEXCOORD_0": 10
          },
          "indices": 11,
          "material": 0,
          "mode": 4
        }
      ]
    },
    {
      "name": "BurgerPlants_Texture_buildings1_0",
      "primitives": [
        {
          "attributes": {
            "NORMAL": 13,
            "POSITION": 12,
            "TEXCOORD_0": 14
          },
          "indices": 15,
          "material": 0,
          "mode": 4
        }
      ]
    },
    {
      "name": "BurgerTables_Texture_buildings1_0",
      "primitives": [
        {
          "attributes": {
            "NORMAL": 17,
            "POSITION": 16,
            "TEXCOORD_0": 18
          },
          "indices": 19,
          "material": 0,
          "mode": 4
        }
      ]
    },
    {
      "name": "Collider_Collider_0",
      "primitives": [
        {
          "attributes": {
            "NORMAL": 21,
            "POSITION": 20,
            "TEXCOORD_0": 22
          },
          "indices": 23,
          "material": 1,
          "mode": 4
        }
      ]
    }
  ],
  "nodes": [
    {
      "children": [
        1
      ],
      "matrix": [
        2.220446049250313e-16,
        -2.220446049250313e-16,
        1.0,
        0.0,
        1.0,
        4.930380657631324e-32,
        -2.220446049250313e-16,
        0.0,
        0.0,
        1.0,
        2.220446049250313e-16,
        0.0,
        0.0,
        0.0,
        0.0,
        1.0
      ],
      "name": "Sketchfab_model"
    },
    {
      "children": [
        2
      ],
      "matrix": [
        0.009999999776482582,
        0.0,
        0.0,
        0.0,
        0.0,
        0.0,
        0.009999999776482582,
        0.0,
        0.0,
        -0.009999999776482582,
        0.0,
        0.0,
        0.0,
        0.0,
        0.0,
        1.0
      ],
      "name": "BusinessBuilding_BurgerC.fbx"
    },
    {
      "children": [
        3,
        5,
        7,
        9,
        11,
        13
      ],
      "name": "RootNode"
    },
    {
      "children": [
        4
      ],
      "matrix": [
        100.0,
        0.0,
        0.0,
        0.0,
        0.0,
        99.99999999999866,
        1.6292067073209114e-05,
        0.0,
        0.0,
        -1.6292067073209114e-05,
        99.99999999999866,
        0.0,
        0.0,
        0.0,
        0.0,
        1.0
      ],
      "name": "BurgerBuilding"
    },
    {
      "mesh": 0,
      "name": "BurgerBuilding_Texture_buildings1_0"
    },
    {
      "children": [
        6
      ],
      "matrix": [
        100.0,
        0.0,
        0.0,
        0.0,
        0.0,
        99.99999999999866,
        1.6292067073209114e-05,
        0.0,
        0.0,
        -1.6292067073209114e-05,
        99.99999999999866,
        0.0,
        0.0,
        0.0,
        0.0,
        1.0
      ],
      "name": "BurgerBurger"
    },
    {
      "mesh": 1,
      "name": "BurgerBurger_Texture_buildings1_0"
    },
    {
      "children": [
        8
      ],
      "matrix": [
        100.0,
        0.0,
        0.0,
        0.0,
        0.0,
        99.99999999999866,
        1.6292067073209114e-05,
        0.0,
        0.0,
        -1.6292067073209114e-05,
        99.99999999999866,
        0.0,
        0.0,
        0.0,
        0.0,
        1.0
      ],
      "name": "BurgerText"
    },
    {
      "mesh": 2,
      "name": "BurgerText_Texture_buildings1_0"
    },
    {
      "children": [
        10
      ],
      "matrix": [
        100.0,
        0.0,
        0.0,
        0.0,
        0.0,
        99.99999999999866,
        1.6292067073209114e-05,
        0.0,
        0.0,
        -1.6292067073209114e-05,
        99.99999999999866,
        0.0,
        0.0,
        0.0,
        0.0,
        1.0
      ],
      "name": "BurgerPlants"
    },
    {
      "mesh": 3,
      "name": "BurgerPlants_Texture_buildings1_0"
    },
    {
      "children": [
        12
      ],
      "matrix": [
        100.0,
        0.0,
        0.0,
        0.0,
        0.0,
        99.99999999999866,
        1.6292067073209114e-05,
        0.0,
        0.0,
        -1.6292067073209114e-05,
        99.99999999999866,
        0.0,
        0.0,
        0.0,
        0.0,
        1.0
      ],
      "name": "BurgerTables"
    },
    {
      "mesh": 4,
      "name": "BurgerTables_Texture_buildings1_0"
    },
    {
      "children": [
        14
      ],
      "matrix": [
        100.0,
        0.0,
        0.0,
        0.0,
        0.0,
        -1.629206793918314e-05,
        -99.99999999999868,
        0.0,
        0.0,
        99.99999999999868,
        -1.629206793918314e-05,
        0.0,
        0.0,
        0.0,
        0.0,
        1.0
      ],
      "name": "Collider"
    },
    {
      "mesh": 5,
      "name": "Collider_Collider_0"
    }
  ],
  "samplers": [
    {
      "magFilter": 9729,
      "minFilter": 9987,
      "wrapS": 10497,
      "wrapT": 10497
    }
  ],
  "scene": 0,
  "scenes": [
    {
      "name": "Sketchfab_Scene",
      "nodes": [
        0
      ]
    }
  ],
  "textures": [
    {
      "sampler": 0,
      "source": 0
    }
  ]
}
