{
  "accessors": [
    {
      "bufferView": 2,
      "componentType": 5126,
      "count": 20660,
      "max": [
        450408.4375,
        -0.0762939453125,
        450408.3125
      ],
      "min": [
        -450408.3125,
        -1526000.25,
        -450407.3125
      ],
      "type": "VEC3"
    },
    {
      "bufferView": 2,
      "byteOffset": 247920,
      "componentType": 5126,
      "count": 20660,
      "max": [
        1.0,
        1.0,
        1.0
      ],
      "min": [
        -1.0,
        -1.0,
        -1.0
      ],
      "type": "VEC3"
    },
    {
      "bufferView": 1,
      "componentType": 5126,
      "count": 20660,
      "max": [
        2050.0419921875,
        2050.0419921875
      ],
      "min": [
        -2050.0419921875,
        -5417.32275390625
      ],
      "type": "VEC2"
    },
    {
      "bufferView": 0,
      "componentType": 5125,
      "count": 35940,
      "type": "SCALAR"
    },
    {
      "bufferView": 2,
      "byteOffset": 495840,
      "componentType": 5126,
      "count": 64,
      "max": [
        279058.53125,
        -1451000.25,
        279058.3125
      ],
      "min": [
        -279058.53125,
        -1521000.25,
        -279057.3125
      ],
      "type": "VEC3"
    },
    {
      "bufferView": 2,
      "byteOffset": 496608,
      "componentType": 5126,
      "count": 64,
      "max": [
        0.7071133255958557,
        0.0,
        0.7071138024330139
      ],
      "min": [
        -0.7071087956428528,
        -1.0,
        -0.7071167826652527
      ],
      "type": "VEC3"
    },
    {
      "bufferView": 1,
      "byteOffset": 165280,
      "componentType": 5126,
      "count": 64,
      "max": [
        1212.598388671875,
        275.59051513671875
      ],
      "min": [
        -354.3306884765625,
        0.0
      ],
      "type": "VEC2"
    },
    {
      "bufferView": 0,
      "byteOffset": 143760,
      "componentType": 5125,
      "count": 96,
      "type": "SCALAR"
    },
    {
      "bufferView": 2,
      "byteOffset": 497376,
      "componentType": 5126,
      "count": 3750,
      "max": [
        450408.4375,
        -0.0762939453125,
        450408.3125
      ],
      "min": [
        -450408.3125,
        -1521000.25,
        -450407.3125
      ],
      "type": "VEC3"
    },
    {
      "bufferView": 2,
      "byteOffset": 542376,
      "componentType": 5126,
      "count": 3750,
      "max": [
        1.0,
        0.0,
        1.0
      ],
      "min": [
        -1.0,
        -1.0,
        -1.0
      ],
      "type": "VEC3"
    },
    {
      "bufferView": 1,
      "byteOffset": 165792,
      "componentType": 5126,
      "count": 3750,
      "max": [
        1811.023681640625,
        1811.023681640625
      ],
      "min": [
        -1660.2783203125,
        -157.4803009033203
      ],
      "type": "VEC2"
    },
    {
      "bufferView": 0,
      "byteOffset": 144144,
      "componentType": 5125,
      "count": 6282,
      "type": "SCALAR"
    },
    {
      "bufferView": 2,
      "byteOffset": 587376,
      "componentType": 5126,
      "count": 270,
      "max": [
        437691.46875,
        -1430000.25,
        437691.125
      ],
      "min": [
        -437691.5,
        -1526000.25,
        -437691.6875
      ],
      "type": "VEC3"
    },
    {
      "bufferView": 2,
      "byteOffset": 590616,
      "componentType": 5126,
      "count": 270,
      "max": [
        1.0,
        0.0,
        1.0
      ],
      "min": [
        -1.0,
        -1.0,
        -1.0
      ],
      "type": "VEC3"
    },
    {
      "bufferView": 1,
      "byteOffset": 195792,
      "componentType": 5126,
      "count": 270,
      "max": [
        2019.660400390625,
        2019.660400390625
      ],
      "min": [
        -1704.6998291015625,
        30.38159942626953
      ],
      "type": "VEC2"
    },
    {
      "bufferView": 0,
      "byteOffset": 169272,
      "componentType": 5125,
      "count": 480,
      "type": "SCALAR"
    },
    {
      "bufferView": 2,
      "byteOffset": 593856,
      "componentType": 5126,
      "count": 387,
      "max": [
        387043.21875,
        -129513.4375,
        387042.6875
      ],
      "min": [
        -387043.09375,
        -1451000.25,
        -387043.25
      ],
      "type": "VEC3"
    },
    {
      "bufferView": 2,
      "byteOffset": 598500,
      "componentType": 5126,
      "count": 387,
      "max": [
        0.7071476578712463,
        1.0,
        0.7071436643600464
      ],
      "min": [
        -0.7071563601493835,
        -1.0,
        -0.7071453332901001
      ],
      "type": "VEC3"
    },
    {
      "bufferView": 1,
      "byteOffset": 197952,
      "componentType": 5126,
      "count": 387,
      "max": [
        1610.1580810546875,
        1610.1580810546875
      ],
      "min": [
        -891.99267578125,
        -480.9081115722656
      ],
      "type": "VEC2"
    },
    {
      "bufferView": 0,
      "byteOffset": 171192,
      "componentType": 5125,
      "count": 900,
      "type": "SCALAR"
    }
  ],
  "asset": {
    "extras": {
      "author": "DrCG (https://sketchfab.com/drcg)",
      "license": "SKETCHFAB Standard (https://sketchfab.com/licenses)",
      "source": "https://sketchfab.com/3d-models/building-no-19-form-tokyo-otemachi-building-pack-4ef7de8fa4f14f8b85bea14c8a23a248",
      "title": "Building No 19 form Tokyo Otemachi Building Pack"
    },
    "generator": "Sketchfab-15.55.0",
    "version": "2.0"
  },
  "bufferViews": [
    {
      "buffer": 0,
      "byteLength": 174792,
      "name": "floatBufferViews",
      "target": 34963
    },
    {
      "buffer": 0,
      "byteLength": 201048,
      "byteOffset": 174792,
      "byteStride": 8,
      "name": "floatBufferViews",
      "target": 34962
    },
    {
      "buffer": 0,
      "byteLength": 603144,
      "byteOffset": 375840,
      "byteStride": 12,
      "name": "floatBufferViews",
      "target": 34962
    }
  ],
  "buffers": [
    {
      "byteLength": 978984,
      "uri": "scene.bin"
    }
  ],
  "extensionsUsed": [
    "KHR_materials_specular"
  ],
  "materials": [
    {
      "doubleSided": true,
      "name": "Mtl_Concrete",
      "pbrMetallicRoughness": {
        "baseColorFactor": [
          0.350553,
          0.350553,
          0.350553,
          1.0
        ],
        "metallicFactor": 0.0
      }
    },
    {
      "doubleSided": true,
      "name": "Mtl_Roof",
      "pbrMetallicRoughness": {
        "baseColorFactor": [
          0.0,
          0.0,
          0.0,
          1.0
        ],
        "metallicFactor": 0.0
      }
    },
    {
      "doubleSided": true,
      "extensions": {
        "KHR_materials_specular": {
          "specularColorFactor": [
            1.0,
            1.0,
            1.0
          ],
          "specularFactor": 0.8335263497945898
        }
      },
      "name": "Mtl_RoofItems",
      "pbrMetallicRoughness": {
        "metallicFactor": 0.821335836452073,
        "roughnessFactor": 0.235294
      }
    },
    {
      "doubleSided": true,
      "name": "Mtl_Glass",
      "pbrMetallicRoughness": {
        "baseColorFactor": [
          0.013297700000000003,
          0.013989499999999997,
          0.027191599999999996,
          1.0
        ],
        "roughnessFactor": 0.0
      }
    },
    {
      "doubleSided": true,
      "name": "Mtl_DifferentRow",
      "pbrMetallicRoughness": {
        "baseColorFactor": [
          0.0107023,
          0.0126854,
          0.0219787,
          1.0
        ],
        "metallicFactor": 0.5104777462178932,
        "roughnessFactor": 0.5
      }
    }
  ],
  "meshes": [
    {
      "name": "Object_0",
      "primitives": [
        {
          "attributes": {
            "NORMAL": 1,
            "POSITION": 0,
            "TEXCOORD_0": 2
          },
          "indices": 3,
          "material": 0,
          "mode": 4
        }
      ]
    },
    {
      "name": "Object_1",
      "primitives": [
        {
          "attributes": {
            "NORMAL": 5,
            "POSITION": 4,
            "TEXCOORD_0": 6
          },
          "indices": 7,
          "material": 2,
          "mode": 4
        }
      ]
    },
    {
      "name": "Object_2",
      "primitives": [
        {
          "attributes": {
            "NORMAL": 9,
            "POSITION": 8,
            "TEXCOORD_0": 10
          },
          "indices": 11,
          "material": 3,
          "mode": 4
        }
      ]
    },
    {
      "name": "Object_3",
      "primitives": [
        {
          "attributes": {
            "NORMAL": 13,
            "POSITION": 12,
            "TEXCOORD_0": 14
          },
          "indices": 15,
          "material": 4,
          "mode": 4
        }
      ]
    },
    {
      "name": "Object_4",
      "primitives": [
        {
          "attributes": {
            "NORMAL": 17,
            "POSITION": 16,
            "TEXCOORD_0": 18
          },
          "indices": 19,
          "material": 1,
          "mode": 4
        }
      ]
    }
  ],
  "nodes": [
    {
      "children": [
        1
      ],
      "matrix": [
        1.0,
        0.0,
        0.0,
        0.0,
        0.0,
        2.220446049250313e-16,
        -1.0,
        0.0,
        0.0,
        1.0,
        2.220446049250313e-16,
        0.0,
        0.0,
        0.0,
        0.0,
        1.0
      ],
      "name": "Sketchfab_model"
    },
    {
      "children": [
        2
      ],
      "name": "root"
    },
    {
      "children": [
        3
      ],
      "matrix": [
        1.0,
        0.0,
        0.0,
        0.0,
        0.0,
        2.220446049250313e-16,
        1.0,
        0.0,
        0.0,
        -1.0,
        2.220446049250313e-16,
        0.0,
        0.0,
        0.0,
        0.0,
        1.0
      ],
      "name": "GLTF_SceneRootNode"
    },
    {
      "children": [
        4,
        5,
        6,
        7,
        8
      ],
      "matrix": [
        1.6858746915727596e-11,
        7.549792939227952e-12,
        -0.0001000000411295315,
        0.0,
        -7.549792939227952e-12,
        -0.0001000000411295326,
        -7.549794212027998e-12,
        0.0,
        -0.0001000000411295315,
        7.549794212027998e-12,
        -1.6858746316206915e-11,
        0.0,
        0.0,
        0.0,
        0.0,
        1.0
      ],
      "name": "Tokyo_Building.019_0"
    },
    {
      "mesh": 0,
      "name": "Object_4"
    },
    {
      "mesh": 1,
      "name": "Object_5"
    },
    {
      "mesh": 2,
      "name": "Object_6"
    },
    {
      "mesh": 3,
      "name": "Object_7"
    },
    {
      "mesh": 4,
      "name": "Object_8"
    }
  ],
  "scene": 0,
  "scenes": [
    {
      "name": "Sketchfab_Scene",
      "nodes": [
        0
      ]
    }
  ]
}
