{
  "accessors": [
    {
      "bufferView": 2,
      "componentType": 5126,
      "count": 3178,
      "max": [
        9.170783996582031,
        17.04157066345215,
        7.587407112121582
      ],
      "min": [
        -9.116240501403809,
        -17.188322067260742,
        -4.414220333099365
      ],
      "type": "VEC3"
    },
    {
      "bufferView": 2,
      "byteOffset": 38136,
      "componentType": 5126,
      "count": 3178,
      "max": [
        1.0,
        1.0,
        1.0
      ],
      "min": [
        -1.0,
        -1.0,
        -1.0
      ],
      "type": "VEC3"
    },
    {
      "bufferView": 1,
      "componentType": 5126,
      "count": 3178,
      "max": [
        0.9977133274078369,
        0.997788667678833
      ],
      "min": [
        0.0022112897131592035,
        0.0022112817969173193
      ],
      "type": "VEC2"
    },
    {
      "bufferView": 0,
      "componentType": 5125,
      "count": 7494,
      "type": "SCALAR"
    },
    {
      "bufferView": 2,
      "byteOffset": 76272,
      "componentType": 5126,
      "count": 178,
      "max": [
        7.614758014678955,
        1.8266366720199585,
        4.587402820587158
      ],
      "min": [
        -7.560213088989258,
        -1.9779106378555298,
        -4.414219379425049
      ],
      "type": "VEC3"
    },
    {
      "bufferView": 2,
      "byteOffset": 78408,
      "componentType": 5126,
      "count": 178,
      "max": [
        1.0,
        1.0,
        1.0
      ],
      "min": [
        -1.0,
        -1.0,
        -1.0
      ],
      "type": "VEC3"
    },
    {
      "bufferView": 1,
      "byteOffset": 25424,
      "componentType": 5126,
      "count": 178,
      "max": [
        0.999051034450531,
        0.9990510940551758
      ],
      "min": [
        0.0009490285301581025,
        0.0009490230004303157
      ],
      "type": "VEC2"
    },
    {
      "bufferView": 0,
      "byteOffset": 29976,
      "componentType": 5125,
      "count": 426,
      "type": "SCALAR"
    },
    {
      "bufferView": 2,
      "byteOffset": 80544,
      "componentType": 5126,
      "count": 1384,
      "max": [
        7.867695331573486,
        17.187219619750977,
        7.587407112121582
      ],
      "min": [
        -7.826605796813965,
        -17.34450340270996,
        -1.845408320426941
      ],
      "type": "VEC3"
    },
    {
      "bufferView": 2,
      "byteOffset": 97152,
      "componentType": 5126,
      "count": 1384,
      "max": [
        1.0,
        1.0,
        1.0
      ],
      "min": [
        -1.0,
        -1.0,
        -1.0
      ],
      "type": "VEC3"
    },
    {
      "bufferView": 1,
      "byteOffset": 26848,
      "componentType": 5126,
      "count": 1384,
      "max": [
        0.9897986650466919,
        0.9979293346405029
      ],
      "min": [
        0.0020706618670374155,
        0.002070634625852108
      ],
      "type": "VEC2"
    },
    {
      "bufferView": 0,
      "byteOffset": 31680,
      "componentType": 5125,
      "count": 2136,
      "type": "SCALAR"
    },
    {
      "bufferView": 2,
      "byteOffset": 113760,
      "componentType": 5126,
      "count": 116,
      "max": [
        7.599817276000977,
        17.026626586914063,
        4.051508903503418
      ],
      "min": [
        -7.5452728271484375,
        -17.173377990722656,
        -3.8766915798187256
      ],
      "type": "VEC3"
    },
    {
      "bufferView": 2,
      "byteOffset": 115152,
      "componentType": 5126,
      "count": 116,
      "max": [
        1.0,
        1.0,
        1.3904267461839481e-06
      ],
      "min": [
        -1.0,
        -1.0,
        -1.0520757314225193e-06
      ],
      "type": "VEC3"
    },
    {
      "bufferView": 1,
      "byteOffset": 37920,
      "componentType": 5126,
      "count": 116,
      "max": [
        0.9977133274078369,
        0.997788667678833
      ],
      "min": [
        0.0022112897131592035,
        0.48190033435821533
      ],
      "type": "VEC2"
    },
    {
      "bufferView": 0,
      "byteOffset": 40224,
      "componentType": 5125,
      "count": 174,
      "type": "SCALAR"
    },
    {
      "bufferView": 2,
      "byteOffset": 116544,
      "componentType": 5126,
      "count": 8,
      "max": [
        -7.545269966125488,
        0.35660913586616516,
        3.5296828746795654
      ],
      "min": [
        -7.545269966125488,
        -0.5124232172966003,
        -0.8783050775527954
      ],
      "type": "VEC3"
    },
    {
      "bufferView": 2,
      "byteOffset": 116640,
      "componentType": 5126,
      "count": 8,
      "max": [
        -1.0,
        0.0,
        0.0
      ],
      "min": [
        -1.0,
        0.0,
        0.0
      ],
      "type": "VEC3"
    },
    {
      "bufferView": 1,
      "byteOffset": 38848,
      "componentType": 5126,
      "count": 8,
      "max": [
        0.8576488494873047,
        0.8210930824279785
      ],
      "min": [
        0.6279263496398926,
        0.5009490847587585
      ],
      "type": "VEC2"
    },
    {
      "bufferView": 0,
      "byteOffset": 40920,
      "componentType": 5125,
      "count": 12,
      "type": "SCALAR"
    },
    {
      "bufferView": 2,
      "byteOffset": 116736,
      "componentType": 5126,
      "count": 28,
      "max": [
        7.858586311340332,
        11.522759437561035,
        1.966803789138794
      ],
      "min": [
        -7.817496299743652,
        -11.649887084960938,
        -1.8128002882003784
      ],
      "type": "VEC3"
    },
    {
      "bufferView": 2,
      "byteOffset": 117072,
      "componentType": 5126,
      "count": 28,
      "max": [
        0.8810716867446899,
        0.0,
        -0.47297894954681396
      ],
      "min": [
        -0.8810737133026123,
        0.0,
        -0.4729840159416199
      ],
      "type": "VEC3"
    },
    {
      "bufferView": 1,
      "byteOffset": 38912,
      "componentType": 5126,
      "count": 28,
      "max": [
        0.983420729637146,
        0.9873769879341125
      ],
      "min": [
        0.949171245098114,
        0.002392590045928955
      ],
      "type": "VEC2"
    },
    {
      "bufferView": 0,
      "byteOffset": 40968,
      "componentType": 5125,
      "count": 42,
      "type": "SCALAR"
    }
  ],
  "asset": {
    "extras": {
      "author": "ura296121 (https://sketchfab.com/ura296121)",
      "license": "SKETCHFAB Standard (https://sketchfab.com/licenses)",
      "source": "https://sketchfab.com/3d-models/apartament-ba6c97f4a810495899468662138b0075",
      "title": "apartament"
    },
    "generator": "Sketchfab-16.72.0",
    "version": "2.0"
  },
  "bufferViews": [
    {
      "buffer": 0,
      "byteLength": 41136,
      "name": "floatBufferViews",
      "target": 34963
    },
    {
      "buffer": 0,
      "byteLength": 39136,
      "byteOffset": 41136,
      "byteStride": 8,
      "name": "floatBufferViews",
      "target": 34962
    },
    {
      "buffer": 0,
      "byteLength": 117408,
      "byteOffset": 80272,
      "byteStride": 12,
      "name": "floatBufferViews",
      "target": 34962
    }
  ],
  "buffers": [
    {
      "byteLength": 197680,
      "uri": "scene.bin"
    }
  ],
  "images": [
    {
      "uri": "textures/Material.034_baseColor.png"
    },
    {
      "uri": "textures/Material.033_baseColor.png"
    },
    {
      "uri": "textures/Material.035_baseColor.png"
    }
  ],
  "materials": [
    {
      "doubleSided": true,
      "name": "Material.034",
      "pbrMetallicRoughness": {
        "baseColorTexture": {
          "index": 0
        },
        "metallicFactor": 0.0
      }
    },
    {
      "doubleSided": true,
      "name": "Material.033",
      "pbrMetallicRoughness": {
        "baseColorTexture": {
          "index": 1
        },
        "metallicFactor": 0.0
      }
    },
    {
      "doubleSided": true,
      "name": "Material.035",
      "pbrMetallicRoughness": {
        "baseColorTexture": {
          "index": 2
        },
        "metallicFactor": 0.0,
        "roughnessFactor": 0.8967204234452306
      }
    }
  ],
  "meshes": [
    {
      "name": "lod 0_Material.034_0",
      "primitives": [
        {
          "attributes": {
            "NORMAL": 1,
            "POSITION": 0,
            "TEXCOORD_0": 2
          },
          "indices": 3,
          "material": 0,
          "mode": 4
        }
      ]
    },
    {
      "name": "lod 0_Material.033_0",
      "primitives": [
        {
          "attributes": {
            "NORMAL": 5,
            "POSITION": 4,
            "TEXCOORD_0": 6
          },
          "indices": 7,
          "material": 1,
          "mode": 4
        }
      ]
    },
    {
      "name": "lod 0_Material.035_0",
      "primitives": [
        {
          "attributes": {
            "NORMAL": 9,
            "POSITION": 8,
            "TEXCOORD_0": 10
          },
          "indices": 11,
          "material": 2,
          "mode": 4
        }
      ]
    },
    {
      "name": "lod 0.001_Material.034_0",
      "primitives": [
        {
          "attributes": {
            "NORMAL": 13,
            "POSITION": 12,
            "TEXCOORD_0": 14
          },
          "indices": 15,
          "material": 0,
          "mode": 4
        }
      ]
    },
    {
      "name": "lod 0.001_Material.033_0",
      "primitives": [
        {
          "attributes": {
            "NORMAL": 17,
            "POSITION": 16,
            "TEXCOORD_0": 18
          },
          "indices": 19,
          "material": 1,
          "mode": 4
        }
      ]
    },
    {
      "name": "lod 0.001_Material.035_0",
      "primitives": [
        {
          "attributes": {
            "NORMAL": 21,
            "POSITION": 20,
            "TEXCOORD_0": 22
          },
          "indices": 23,
          "material": 2,
          "mode": 4
        }
      ]
    }
  ],
  "nodes": [
    {
      "children": [
        1
      ],
      "matrix": [
        1.0,
        0.0,
        0.0,
        0.0,
        0.0,
        2.220446049250313e-16,
        -1.0,
        0.0,
        0.0,
        1.0,
        2.220446049250313e-16,
        0.0,
        0.0,
        0.0,
        0.0,
        1.0
      ],
      "name": "Sketchfab_model"
    },
    {
      "children": [
        2
      ],
      "matrix": [
        0.009999999776482582,
        0.0,
        0.0,
        0.0,
        0.0,
        0.0,
        0.009999999776482582,
        0.0,
        0.0,
        -0.009999999776482582,
        0.0,
        0.0,
        0.0,
        0.0,
        0.0,
        1.0
      ],
      "name": "3e8024a49d7f415eb0db8f04afcb8849.fbx"
    },
    {
      "children": [
        3,
        7
      ],
      "name": "RootNode"
    },
    {
      "children": [
        4,
        5,
        6
      ],
      "matrix": [
        100.0,
        0.0,
        0.0,
        0.0,
        -0.0,
        -1.629206793918314e-05,
        -99.99999999999868,
        0.0,
        0.0,
        99.99999999999868,
        -1.629206793918314e-05,
        0.0,
        -661.4754638671875,
        291.2596435546875,
        -1147.337646484375,
        1.0
      ],
      "name": "lod 0"
    },
    {
      "mesh": 0,
      "name": "lod 0_Material.034_0"
    },
    {
      "mesh": 1,
      "name": "lod 0_Material.033_0"
    },
    {
      "mesh": 2,
      "name": "lod 0_Material.035_0"
    },
    {
      "children": [
        8,
        9,
        10
      ],
      "matrix": [
        100.0,
        0.0,
        0.0,
        0.0,
        -0.0,
        -1.629206793918314e-05,
        -99.99999999999868,
        0.0,
        0.0,
        99.99999999999868,
        -1.629206793918314e-05,
        0.0,
        -661.4754638671875,
        291.2596435546875,
        -1147.337646484375,
        1.0
      ],
      "name": "lod 0.001"
    },
    {
      "mesh": 3,
      "name": "lod 0.001_Material.034_0"
    },
    {
      "mesh": 4,
      "name": "lod 0.001_Material.033_0"
    },
    {
      "mesh": 5,
      "name": "lod 0.001_Material.035_0"
    }
  ],
  "samplers": [
    {
      "magFilter": 9729,
      "minFilter": 9987,
      "wrapS": 10497,
      "wrapT": 10497
    }
  ],
  "scene": 0,
  "scenes": [
    {
      "name": "Sketchfab_Scene",
      "nodes": [
        0
      ]
    }
  ],
  "textures": [
    {
      "sampler": 0,
      "source": 0
    },
    {
      "sampler": 0,
      "source": 1
    },
    {
      "sampler": 0,
      "source": 2
    }
  ]
}
