{
  "accessors": [
    {
      "bufferView": 2,
      "componentType": 5126,
      "count": 3355,
      "max": [
        2.371579647064209,
        2.700000047683716,
        2.1806585788726807
      ],
      "min": [
        -2.3784215450286865,
        0.0,
        -2.437763214111328
      ],
      "type": "VEC3"
    },
    {
      "bufferView": 2,
      "byteOffset": 40260,
      "componentType": 5126,
      "count": 3355,
      "max": [
        1.0,
        1.0,
        1.0
      ],
      "min": [
        -1.0,
        -1.0,
        -1.0
      ],
      "type": "VEC3"
    },
    {
      "bufferView": 3,
      "componentType": 5126,
      "count": 3355,
      "max": [
        1.0,
        1.0,
        1.0,
        1.0
      ],
      "min": [
        -1.0,
        -1.0,
        -1.0,
        -1.0
      ],
      "type": "VEC4"
    },
    {
      "bufferView": 1,
      "componentType": 5126,
      "count": 3355,
      "max": [
        0.9971352219581604,
        0.99853515625
      ],
      "min": [
        0.00146484375,
        0.0009765625
      ],
      "type": "VEC2"
    },
    {
      "bufferView": 0,
      "componentType": 5125,
      "count": 5409,
      "type": "SCALAR"
    },
    {
      "bufferView": 2,
      "byteOffset": 80520,
      "componentType": 5126,
      "count": 40,
      "max": [
        1.4375027418136597,
        0.6102513074874878,
        1.8059241771697998
      ],
      "min": [
        -0.0026314854621887207,
        -2.384185791015625e-07,
        -0.002631664276123047
      ],
      "type": "VEC3"
    },
    {
      "bufferView": 2,
      "byteOffset": 81000,
      "componentType": 5126,
      "count": 40,
      "max": [
        1.0,
        1.0,
        1.0
      ],
      "min": [
        -1.0,
        -1.0,
        -1.0
      ],
      "type": "VEC3"
    },
    {
      "bufferView": 1,
      "byteOffset": 26840,
      "componentType": 5126,
      "count": 40,
      "max": [
        0.9986129999160767,
        1.0
      ],
      "min": [
        0.0,
        0.0018361127004027367
      ],
      "type": "VEC2"
    },
    {
      "bufferView": 0,
      "byteOffset": 21636,
      "componentType": 5125,
      "count": 60,
      "type": "SCALAR"
    },
    {
      "bufferView": 2,
      "byteOffset": 81480,
      "componentType": 5126,
      "count": 24,
      "max": [
        2.340394973754883,
        0.8243368268013,
        0.9842107892036438
      ],
      "min": [
        -2.200000047683716,
        1.862645149230957e-09,
        -0.6713157892227173
      ],
      "type": "VEC3"
    },
    {
      "bufferView": 2,
      "byteOffset": 81768,
      "componentType": 5126,
      "count": 24,
      "max": [
        1.0,
        0.0,
        3.963706603826722e-06
      ],
      "min": [
        -1.0,
        -1.0,
        -1.0
      ],
      "type": "VEC3"
    },
    {
      "bufferView": 3,
      "byteOffset": 53680,
      "componentType": 5126,
      "count": 24,
      "max": [
        1.0,
        1.0,
        2.3535365016869036e-06,
        1.0
      ],
      "min": [
        -3.2888481434761863e-13,
        -1.0,
        -4.164459575795032e-13,
        -1.0
      ],
      "type": "VEC4"
    },
    {
      "bufferView": 1,
      "byteOffset": 27160,
      "componentType": 5126,
      "count": 24,
      "max": [
        0.9971352219581604,
        0.9981065392494202
      ],
      "min": [
        0.28466796875,
        0.4697265625
      ],
      "type": "VEC2"
    },
    {
      "bufferView": 0,
      "byteOffset": 21876,
      "componentType": 5125,
      "count": 36,
      "type": "SCALAR"
    },
    {
      "bufferView": 2,
      "byteOffset": 82056,
      "componentType": 5126,
      "count": 40,
      "max": [
        0.3545013666152954,
        1.6185146570205688,
        0.031579017639160156
      ],
      "min": [
        -0.3545011281967163,
        0.0,
        -0.031579017639160156
      ],
      "type": "VEC3"
    },
    {
      "bufferView": 2,
      "byteOffset": 82536,
      "componentType": 5126,
      "count": 40,
      "max": [
        1.0,
        1.0,
        1.0
      ],
      "min": [
        -1.0,
        -1.0,
        -1.0
      ],
      "type": "VEC3"
    },
    {
      "bufferView": 1,
      "byteOffset": 27352,
      "componentType": 5126,
      "count": 40,
      "max": [
        0.9972826242446899,
        0.6526319980621338
      ],
      "min": [
        0.0011422655079513788,
        0.015736877918243408
      ],
      "type": "VEC2"
    },
    {
      "bufferView": 0,
      "byteOffset": 22020,
      "componentType": 5125,
      "count": 60,
      "type": "SCALAR"
    }
  ],
  "asset": {
    "extras": {
      "author": "Jotrain Models (https://sketchfab.com/Jotrain)",
      "license": "SKETCHFAB Standard (https://sketchfab.com/licenses)",
      "source": "https://sketchfab.com/3d-models/michaelsoft-binbows-building-low-poly-7f8c147d118c4c07bb76c0ba59e43987",
      "title": "Michaelsoft Binbows Building (low poly) マイケルソフト"
    },
    "generator": "Sketchfab-16.72.0",
    "version": "2.0"
  },
  "bufferViews": [
    {
      "buffer": 0,
      "byteLength": 22260,
      "name": "floatBufferViews",
      "target": 34963
    },
    {
      "buffer": 0,
      "byteLength": 27672,
      "byteOffset": 22260,
      "byteStride": 8,
      "name": "floatBufferViews",
      "target": 34962
    },
    {
      "buffer": 0,
      "byteLength": 83016,
      "byteOffset": 49932,
      "byteStride": 12,
      "name": "floatBufferViews",
      "target": 34962
    },
    {
      "buffer": 0,
      "byteLength": 54064,
      "byteOffset": 132948,
      "byteStride": 16,
      "name": "floatBufferViews",
      "target": 34962
    }
  ],
  "buffers": [
    {
      "byteLength": 187012,
      "uri": "scene.bin"
    }
  ],
  "extensionsUsed": [
    "KHR_materials_specular"
  ],
  "images": [
    {
      "uri": "textures/Building_baseColor.png"
    },
    {
      "uri": "textures/Building_metallicRoughness.png"
    },
    {
      "uri": "textures/Building_normal.png"
    },
    {
      "uri": "textures/Building_specularf0.png"
    },
    {
      "uri": "textures/Material_baseColor.png"
    }
  ],
  "materials": [
    {
      "extensions": {
        "KHR_materials_specular": {
          "specularColorFactor": [
            1.0,
            1.0,
            1.0
          ],
          "specularFactor": 1.0,
          "specularTexture": {
            "index": 3
          }
        }
      },
      "name": "Building",
      "normalTexture": {
        "index": 2
      },
      "occlusionTexture": {
        "index": 1
      },
      "pbrMetallicRoughness": {
        "baseColorTexture": {
          "index": 0
        },
        "metallicFactor": 0.0,
        "metallicRoughnessTexture": {
          "index": 1
        },
        "roughnessFactor": 0.0865776334
      }
    },
    {
      "doubleSided": true,
      "name": "Material",
      "pbrMetallicRoughness": {
        "baseColorTexture": {
          "index": 4
        },
        "metallicFactor": 0.0,
        "roughnessFactor": 0.5
      }
    }
  ],
  "meshes": [
    {
      "name": "Object_0",
      "primitives": [
        {
          "attributes": {
            "NORMAL": 1,
            "POSITION": 0,
            "TANGENT": 2,
            "TEXCOORD_0": 3
          },
          "indices": 4,
          "material": 0,
          "mode": 4
        }
      ]
    },
    {
      "name": "Object_1",
      "primitives": [
        {
          "attributes": {
            "NORMAL": 6,
            "POSITION": 5,
            "TEXCOORD_0": 7
          },
          "indices": 8,
          "material": 1,
          "mode": 4
        }
      ]
    },
    {
      "name": "Object_2",
      "primitives": [
        {
          "attributes": {
            "NORMAL": 10,
            "POSITION": 9,
            "TANGENT": 11,
            "TEXCOORD_0": 12
          },
          "indices": 13,
          "material": 0,
          "mode": 4
        }
      ]
    },
    {
      "name": "Object_3",
      "primitives": [
        {
          "attributes": {
            "NORMAL": 15,
            "POSITION": 14,
            "TEXCOORD_0": 16
          },
          "indices": 17,
          "material": 1,
          "mode": 4
        }
      ]
    }
  ],
  "nodes": [
    {
      "children": [
        1
      ],
      "matrix": [
        1.0,
        0.0,
        0.0,
        0.0,
        0.0,
        2.220446049250313e-16,
        -1.0,
        0.0,
        0.0,
        1.0,
        2.220446049250313e-16,
        0.0,
        0.0,
        0.0,
        0.0,
        1.0
      ],
      "name": "Sketchfab_model"
    },
    {
      "children": [
        2
      ],
      "name": "root"
    },
    {
      "children": [
        3,
        5,
        7,
        9
      ],
      "matrix": [
        1.0,
        0.0,
        0.0,
        0.0,
        0.0,
        2.220446049250313e-16,
        1.0,
        0.0,
        0.0,
        -1.0,
        2.220446049250313e-16,
        0.0,
        0.0,
        0.0,
        0.0,
        1.0
      ],
      "name": "GLTF_SceneRootNode"
    },
    {
      "children": [
        4
      ],
      "matrix": [
        3.799999952316284,
        0.0,
        0.0,
        0.0,
        0.0,
        3.799999952316284,
        0.0,
        0.0,
        0.0,
        0.0,
        3.799999952316284,
        0.0,
        0.0,
        0.0,
        0.0,
        1.0
      ],
      "name": "Building_0"
    },
    {
      "mesh": 0,
      "name": "Object_4"
    },
    {
      "children": [
        6
      ],
      "matrix": [
        3.2031603622818916e-07,
        0.0,
        -3.7999999523162713,
        0.0,
        0.0,
        3.799999952316284,
        0.0,
        0.0,
        3.7999999523162713,
        0.0,
        3.2031603622818916e-07,
        0.0,
        -8.370000839233398,
        6.4610443115234375,
        2.9500012397766113,
        1.0
      ],
      "name": "Michaelsoft Sign_1"
    },
    {
      "mesh": 1,
      "name": "Object_6"
    },
    {
      "children": [
        8
      ],
      "matrix": [
        3.799999952316284,
        0.0,
        0.0,
        0.0,
        0.0,
        3.799999952316284,
        0.0,
        0.0,
        0.0,
        0.0,
        3.799999952316284,
        0.0,
        0.0,
        0.0,
        0.0,
        1.0
      ],
      "name": "Flip_2"
    },
    {
      "mesh": 2,
      "name": "Object_8"
    },
    {
      "children": [
        10
      ],
      "matrix": [
        3.2031603622818916e-07,
        0.0,
        -3.7999999523162713,
        0.0,
        0.0,
        3.799999952316284,
        0.0,
        0.0,
        3.7999999523162713,
        0.0,
        3.2031603622818916e-07,
        0.0,
        8.600000381469727,
        0.0,
        5.600000381469727,
        1.0
      ],
      "name": "Subaru Sign_3"
    },
    {
      "mesh": 3,
      "name": "Object_10"
    }
  ],
  "samplers": [
    {
      "magFilter": 9729,
      "minFilter": 9987,
      "wrapS": 10497,
      "wrapT": 10497
    }
  ],
  "scene": 0,
  "scenes": [
    {
      "name": "Sketchfab_Scene",
      "nodes": [
        0
      ]
    }
  ],
  "textures": [
    {
      "sampler": 0,
      "source": 0
    },
    {
      "sampler": 0,
      "source": 1
    },
    {
      "sampler": 0,
      "source": 2
    },
    {
      "sampler": 0,
      "source": 3
    },
    {
      "sampler": 0,
      "source": 4
    }
  ]
}
