{
  "accessors": [
    {
      "bufferView": 2,
      "componentType": 5126,
      "count": 3701,
      "max": [
        37.60832595825195,
        -4.825077056884766,
        3.990917682647705
      ],
      "min": [
        -3.0607659816741943,
        -50.13673782348633,
        -117.52586364746094
      ],
      "type": "VEC3"
    },
    {
      "bufferView": 2,
      "byteOffset": 44412,
      "componentType": 5126,
      "count": 3701,
      "max": [
        1.0,
        1.0,
        1.0
      ],
      "min": [
        -1.0,
        -1.0,
        -1.0
      ],
      "type": "VEC3"
    },
    {
      "bufferView": 1,
      "componentType": 5126,
      "count": 3701,
      "max": [
        0.9903231859207153,
        0.9907791614532471
      ],
      "min": [
        0.0005909979809075594,
        0.000453803688287735
      ],
      "type": "VEC2"
    },
    {
      "bufferView": 1,
      "byteOffset": 29608,
      "componentType": 5126,
      "count": 3701,
      "max": [
        34.801334381103516,
        13.015308380126953
      ],
      "min": [
        -11.569318771362305,
        -50.13673782348633
      ],
      "type": "VEC2"
    },
    {
      "bufferView": 1,
      "byteOffset": 59216,
      "componentType": 5126,
      "count": 3701,
      "max": [
        0.9903231859207153,
        0.9907791614532471
      ],
      "min": [
        0.0005909979809075594,
        0.000453803688287735
      ],
      "type": "VEC2"
    },
    {
      "bufferView": 0,
      "componentType": 5125,
      "count": 6606,
      "type": "SCALAR"
    },
    {
      "bufferView": 2,
      "byteOffset": 88824,
      "componentType": 5126,
      "count": 20,
      "max": [
        29.223434448242188,
        -31.999908447265625,
        -1.6925201416015625
      ],
      "min": [
        3.9938039779663086,
        -42.434688568115234,
        -116.27152252197266
      ],
      "type": "VEC3"
    },
    {
      "bufferView": 2,
      "byteOffset": 89064,
      "componentType": 5126,
      "count": 20,
      "max": [
        0.8160229325294495,
        0.0,
        1.0
      ],
      "min": [
        -0.8162122964859009,
        -0.9997841715812683,
        -0.9926188588142395
      ],
      "type": "VEC3"
    },
    {
      "bufferView": 1,
      "byteOffset": 88824,
      "componentType": 5126,
      "count": 20,
      "max": [
        0.7563642859458923,
        0.41692206263542175
      ],
      "min": [
        0.563342273235321,
        0.3257801830768585
      ],
      "type": "VEC2"
    },
    {
      "bufferView": 1,
      "byteOffset": 88984,
      "componentType": 5126,
      "count": 20,
      "max": [
        29.223434448242188,
        -31.999908447265625
      ],
      "min": [
        3.9938039779663086,
        -42.434688568115234
      ],
      "type": "VEC2"
    },
    {
      "bufferView": 0,
      "byteOffset": 26424,
      "componentType": 5125,
      "count": 30,
      "type": "SCALAR"
    }
  ],
  "asset": {
    "extras": {
      "author": "randombug (https://sketchfab.com/randombug)",
      "license": "SKETCHFAB Standard (https://sketchfab.com/licenses)",
      "source": "https://sketchfab.com/3d-models/truck-toyota-corsa-b-e3ae80546a4d48d5a79774fc7bce5766",
      "title": "Truck Toyota Corsa B"
    },
    "generator": "Sketchfab-16.29.0",
    "version": "2.0"
  },
  "bufferViews": [
    {
      "buffer": 0,
      "byteLength": 26544,
      "name": "floatBufferViews",
      "target": 34963
    },
    {
      "buffer": 0,
      "byteLength": 89144,
      "byteOffset": 26544,
      "byteStride": 8,
      "name": "floatBufferViews",
      "target": 34962
    },
    {
      "buffer": 0,
      "byteLength": 89304,
      "byteOffset": 115688,
      "byteStride": 12,
      "name": "floatBufferViews",
      "target": 34962
    }
  ],
  "buffers": [
    {
      "byteLength": 204992,
      "uri": "scene.bin"
    }
  ],
  "extensionsUsed": [
    "KHR_materials_specular"
  ],
  "images": [
    {
      "uri": "textures/01_-_Default_baseColor.jpeg"
    },
    {
      "uri": "textures/01_-_Default_metallicRoughness.png"
    }
  ],
  "materials": [
    {
      "doubleSided": true,
      "extensions": {
        "KHR_materials_specular": {
          "specularColorFactor": [
            1.0,
            1.0,
            1.0
          ],
          "specularFactor": 0.38857261279272465
        }
      },
      "name": "01_-_Default",
      "pbrMetallicRoughness": {
        "baseColorTexture": {
          "index": 0
        },
        "metallicFactor": 0.028952469188477523,
        "metallicRoughnessTexture": {
          "index": 1
        }
      }
    },
    {
      "doubleSided": true,
      "name": "02_-_Default",
      "pbrMetallicRoughness": {
        "baseColorFactor": [
          0.0,
          0.0,
          0.0,
          1.0
        ],
        "metallicFactor": 0.0,
        "roughnessFactor": 0.8929713596497552
      }
    }
  ],
  "meshes": [
    {
      "name": "TOY_CORSB_01 - Default_0",
      "primitives": [
        {
          "attributes": {
            "NORMAL": 1,
            "POSITION": 0,
            "TEXCOORD_0": 2,
            "TEXCOORD_1": 3,
            "TEXCOORD_2": 4
          },
          "indices": 5,
          "material": 0,
          "mode": 4
        }
      ]
    },
    {
      "name": "TOY_CORSB_02 - Default_0",
      "primitives": [
        {
          "attributes": {
            "NORMAL": 7,
            "POSITION": 6,
            "TEXCOORD_0": 8,
            "TEXCOORD_1": 9
          },
          "indices": 10,
          "material": 1,
          "mode": 4
        }
      ]
    }
  ],
  "nodes": [
    {
      "children": [
        1
      ],
      "matrix": [
        7.083754539489746,
        0.0,
        0.0,
        0.0,
        0.0,
        1.5729094781068978e-15,
        -7.083754539489746,
        0.0,
        0.0,
        7.083754539489746,
        1.5729094781068978e-15,
        0.0,
        0.0,
        0.0,
        0.0,
        1.0
      ],
      "name": "Sketchfab_model"
    },
    {
      "children": [
        2
      ],
      "matrix": [
        0.009999999776482582,
        0.0,
        0.0,
        0.0,
        0.0,
        0.0,
        0.009999999776482582,
        0.0,
        0.0,
        -0.009999999776482582,
        0.0,
        0.0,
        0.0,
        0.0,
        0.0,
        1.0
      ],
      "name": "ba1c5d187d264e4b91d00a35db0b6999.fbx"
    },
    {
      "children": [
        3
      ],
      "name": "RootNode"
    },
    {
      "children": [
        4
      ],
      "matrix": [
        0.9256590008735657,
        0.0,
        0.0,
        0.0,
        0.0,
        0.9999999999999867,
        1.6292068494294582e-07,
        0.0,
        0.0,
        -1.6292068494294582e-07,
        0.9999999999999867,
        0.0,
        -8.520938873291016,
        23.403018951416016,
        -61.11427307128906,
        1.0
      ],
      "name": "TOY_CORSB"
    },
    {
      "children": [
        5,
        6
      ],
      "matrix": [
        1.0,
        0.0,
        -0.0,
        0.0,
        0.0,
        1.0,
        0.0,
        0.0,
        0.0,
        0.0,
        1.0,
        0.0,
        -17.2801513671875,
        27.480907440185547,
        57.0833740234375,
        1.0
      ],
      "name": "Object_4"
    },
    {
      "mesh": 0,
      "name": "TOY_CORSB_01 - Default_0"
    },
    {
      "mesh": 1,
      "name": "TOY_CORSB_02 - Default_0"
    }
  ],
  "samplers": [
    {
      "magFilter": 9729,
      "minFilter": 9987,
      "wrapS": 10497,
      "wrapT": 10497
    }
  ],
  "scene": 0,
  "scenes": [
    {
      "name": "Sketchfab_Scene",
      "nodes": [
        0
      ]
    }
  ],
  "textures": [
    {
      "sampler": 0,
      "source": 0
    },
    {
      "sampler": 0,
      "source": 1
    }
  ]
}
