{
  "accessors": [
    {
      "bufferView": 2,
      "componentType": 5126,
      "count": 4878,
      "max": [
        0.17918750643730164,
        1.1433340311050415,
        0.1060165986418724
      ],
      "min": [
        -0.2329919934272766,
        0.00556434690952301,
        -0.08362039178609848
      ],
      "type": "VEC3"
    },
    {
      "bufferView": 2,
      "byteOffset": 58536,
      "componentType": 5126,
      "count": 4878,
      "max": [
        0.9991521239280701,
        0.9981317520141602,
        0.9997251629829407
      ],
      "min": [
        -0.9999895691871643,
        -0.996275782585144,
        -0.9952600598335266
      ],
      "type": "VEC3"
    },
    {
      "bufferView": 1,
      "componentType": 5126,
      "count": 4878,
      "max": [
        0.9921873807907104,
        0.8289005756378174
      ],
      "min": [
        0.008087282069027424,
        0.003852904075756669
      ],
      "type": "VEC2"
    },
    {
      "bufferView": 0,
      "componentType": 5125,
      "count": 4878,
      "type": "SCALAR"
    },
    {
      "bufferView": 2,
      "byteOffset": 117072,
      "componentType": 5126,
      "count": 2202,
      "max": [
        0.1900613009929657,
        0.09859547019004822,
        0.12020999938249588
      ],
      "min": [
        -0.2534412145614624,
        0.004487261176109314,
        -0.09005185961723328
      ],
      "type": "VEC3"
    },
    {
      "bufferView": 2,
      "byteOffset": 143496,
      "componentType": 5126,
      "count": 2202,
      "max": [
        0.9958823323249817,
        0.9998156428337097,
        0.9946343302726746
      ],
      "min": [
        -0.9978276491165161,
        -0.9999977946281433,
        -0.9996064901351929
      ],
      "type": "VEC3"
    },
    {
      "bufferView": 1,
      "byteOffset": 39024,
      "componentType": 5126,
      "count": 2202,
      "max": [
        0.9845272898674011,
        0.9859005808830261
      ],
      "min": [
        0.02073700912296772,
        0.0164186991751194
      ],
      "type": "VEC2"
    },
    {
      "bufferView": 0,
      "byteOffset": 19512,
      "componentType": 5125,
      "count": 2202,
      "type": "SCALAR"
    },
    {
      "bufferView": 2,
      "byteOffset": 169920,
      "componentType": 5126,
      "count": 3858,
      "max": [
        0.16069020330905914,
        0.6907585859298706,
        0.08036494255065918
      ],
      "min": [
        -0.18267269432544708,
        0.06502853333950043,
        -0.08813577890396118
      ],
      "type": "VEC3"
    },
    {
      "bufferView": 2,
      "byteOffset": 216216,
      "componentType": 5126,
      "count": 3858,
      "max": [
        0.9998400211334229,
        0.998064398765564,
        0.999996542930603
      ],
      "min": [
        -0.999701976776123,
        -0.9967259168624878,
        -0.9990066289901733
      ],
      "type": "VEC3"
    },
    {
      "bufferView": 1,
      "byteOffset": 56640,
      "componentType": 5126,
      "count": 3858,
      "max": [
        0.9978942275047302,
        0.9889371991157532
      ],
      "min": [
        0.0027924010064452887,
        0.004211484920233488
      ],
      "type": "VEC2"
    },
    {
      "bufferView": 0,
      "byteOffset": 28320,
      "componentType": 5125,
      "count": 3858,
      "type": "SCALAR"
    },
    {
      "bufferView": 2,
      "byteOffset": 262512,
      "componentType": 5126,
      "count": 10302,
      "max": [
        0.2995257079601288,
        1.015064001083374,
        0.08951985836029053
      ],
      "min": [
        -0.27900800108909607,
        0.4951567053794861,
        -0.1045008972287178
      ],
      "type": "VEC3"
    },
    {
      "bufferView": 2,
      "byteOffset": 386136,
      "componentType": 5126,
      "count": 10302,
      "max": [
        0.999968409538269,
        0.9986333847045898,
        0.9999967813491821
      ],
      "min": [
        -0.9997454285621643,
        -0.9832210540771484,
        -0.9985241889953613
      ],
      "type": "VEC3"
    },
    {
      "bufferView": 1,
      "byteOffset": 87504,
      "componentType": 5126,
      "count": 10302,
      "max": [
        0.993911623954773,
        0.9946287870407104
      ],
      "min": [
        0.0015411609783768654,
        0.005249083042144775
      ],
      "type": "VEC2"
    },
    {
      "bufferView": 0,
      "byteOffset": 43752,
      "componentType": 5125,
      "count": 10302,
      "type": "SCALAR"
    },
    {
      "bufferView": 2,
      "byteOffset": 509760,
      "componentType": 5126,
      "count": 3786,
      "max": [
        0.07814299315214157,
        1.2052509784698486,
        0.09798628091812134
      ],
      "min": [
        -0.10211010277271271,
        0.978299081325531,
        -0.012589099816977978
      ],
      "type": "VEC3"
    },
    {
      "bufferView": 2,
      "byteOffset": 555192,
      "componentType": 5126,
      "count": 3786,
      "max": [
        0.998846709728241,
        0.9972490668296814,
        0.996828556060791
      ],
      "min": [
        -0.9998162388801575,
        -0.9988728165626526,
        -0.9947665333747864
      ],
      "type": "VEC3"
    },
    {
      "bufferView": 1,
      "byteOffset": 169920,
      "componentType": 5126,
      "count": 3786,
      "max": [
        0.9813228845596313,
        0.9971618056297302
      ],
      "min": [
        0.01249714009463787,
        0.009979426860809326
      ],
      "type": "VEC2"
    },
    {
      "bufferView": 0,
      "byteOffset": 84960,
      "componentType": 5125,
      "count": 3786,
      "type": "SCALAR"
    },
    {
      "bufferView": 2,
      "byteOffset": 600624,
      "componentType": 5126,
      "count": 2982,
      "max": [
        0.05007094889879227,
        1.2187769412994385,
        0.07119596004486084
      ],
      "min": [
        -0.06606222689151764,
        0.9888362288475037,
        -0.15232430398464203
      ],
      "type": "VEC3"
    },
    {
      "bufferView": 2,
      "byteOffset": 636408,
      "componentType": 5126,
      "count": 2982,
      "max": [
        0.9990562200546265,
        0.9919241666793823,
        0.9887006878852844
      ],
      "min": [
        -0.9952017068862915,
        -0.9993951916694641,
        -0.9994704723358154
      ],
      "type": "VEC3"
    },
    {
      "bufferView": 1,
      "byteOffset": 200208,
      "componentType": 5126,
      "count": 2982,
      "max": [
        0.9890440106391907,
        0.993301272392273
      ],
      "min": [
        0.014419780112802982,
        0.02156103029847145
      ],
      "type": "VEC2"
    },
    {
      "bufferView": 0,
      "byteOffset": 100104,
      "componentType": 5125,
      "count": 2982,
      "type": "SCALAR"
    }
  ],
  "asset": {
    "extras": {
      "author": "ROCK FF 99 (https://sketchfab.com/amansoyal781)",
      "license": "SKETCHFAB Standard (https://sketchfab.com/licenses)",
      "source": "https://sketchfab.com/3d-models/free-fire-sakura-bundle-da9c7ddc056847039041187375d60e2e",
      "title": "free fire Sakura bundle"
    },
    "generator": "Sketchfab-16.62.0",
    "version": "2.0"
  },
  "bufferViews": [
    {
      "buffer": 0,
      "byteLength": 112032,
      "name": "floatBufferViews",
      "target": 34963
    },
    {
      "buffer": 0,
      "byteLength": 224064,
      "byteOffset": 112032,
      "byteStride": 8,
      "name": "floatBufferViews",
      "target": 34962
    },
    {
      "buffer": 0,
      "byteLength": 672192,
      "byteOffset": 336096,
      "byteStride": 12,
      "name": "floatBufferViews",
      "target": 34962
    }
  ],
  "buffers": [
    {
      "byteLength": 1008288,
      "uri": "scene.bin"
    }
  ],
  "images": [
    {
      "uri": "textures/Material.001_baseColor.png"
    },
    {
      "uri": "textures/Material_1_baseColor.png"
    },
    {
      "uri": "textures/Material_2_baseColor.png"
    },
    {
      "uri": "textures/Material_3_baseColor.png"
    },
    {
      "uri": "textures/Material_4_baseColor.png"
    },
    {
      "uri": "textures/Material_5_baseColor.png"
    }
  ],
  "materials": [
    {
      "doubleSided": true,
      "name": "Material.001",
      "pbrMetallicRoughness": {
        "baseColorTexture": {
          "index": 0
        },
        "metallicFactor": 0.0,
        "roughnessFactor": 0.8211145618000169
      }
    },
    {
      "doubleSided": true,
      "name": "Material_1",
      "pbrMetallicRoughness": {
        "baseColorTexture": {
          "index": 1
        },
        "metallicFactor": 0.0,
        "roughnessFactor": 0.8211145618000169
      }
    },
    {
      "doubleSided": true,
      "name": "Material_2",
      "pbrMetallicRoughness": {
        "baseColorTexture": {
          "index": 2
        },
        "metallicFactor": 0.0,
        "roughnessFactor": 0.8211145618000169
      }
    },
    {
      "doubleSided": true,
      "name": "Material_3",
      "pbrMetallicRoughness": {
        "baseColorTexture": {
          "index": 3
        },
        "metallicFactor": 0.0,
        "roughnessFactor": 0.8211145618000169
      }
    },
    {
      "doubleSided": true,
      "name": "Material_4",
      "pbrMetallicRoughness": {
        "baseColorTexture": {
          "index": 4
        },
        "metallicFactor": 0.0,
        "roughnessFactor": 0.8211145618000169
      }
    },
    {
      "doubleSided": true,
      "name": "Material_5",
      "pbrMetallicRoughness": {
        "baseColorTexture": {
          "index": 5
        },
        "metallicFactor": 0.0,
        "roughnessFactor": 0.8211145618000169
      }
    }
  ],
  "meshes": [
    {
      "name": "Mesh_0006.rip_Material.001_0",
      "primitives": [
        {
          "attributes": {
            "NORMAL": 1,
            "POSITION": 0,
            "TEXCOORD_0": 2
          },
          "indices": 3,
          "material": 0,
          "mode": 4
        }
      ]
    },
    {
      "name": "Mesh_0009.rip_Material 1_0",
      "primitives": [
        {
          "attributes": {
            "NORMAL": 5,
            "POSITION": 4,
            "TEXCOORD_0": 6
          },
          "indices": 7,
          "material": 1,
          "mode": 4
        }
      ]
    },
    {
      "name": "Mesh_0010.rip_Material 2_0",
      "primitives": [
        {
          "attributes": {
            "NORMAL": 9,
            "POSITION": 8,
            "TEXCOORD_0": 10
          },
          "indices": 11,
          "material": 2,
          "mode": 4
        }
      ]
    },
    {
      "name": "Mesh_0012.rip_Material 3_0",
      "primitives": [
        {
          "attributes": {
            "NORMAL": 13,
            "POSITION": 12,
            "TEXCOORD_0": 14
          },
          "indices": 15,
          "material": 3,
          "mode": 4
        }
      ]
    },
    {
      "name": "Mesh_0014.rip_Material 4_0",
      "primitives": [
        {
          "attributes": {
            "NORMAL": 17,
            "POSITION": 16,
            "TEXCOORD_0": 18
          },
          "indices": 19,
          "material": 4,
          "mode": 4
        }
      ]
    },
    {
      "name": "Mesh_0039.rip_Material 5_0",
      "primitives": [
        {
          "attributes": {
            "NORMAL": 21,
            "POSITION": 20,
            "TEXCOORD_0": 22
          },
          "indices": 23,
          "material": 5,
          "mode": 4
        }
      ]
    }
  ],
  "nodes": [
    {
      "children": [
        1
      ],
      "matrix": [
        1.0,
        0.0,
        0.0,
        0.0,
        0.0,
        2.220446049250313e-16,
        -1.0,
        0.0,
        0.0,
        1.0,
        2.220446049250313e-16,
        0.0,
        0.0,
        0.0,
        0.0,
        1.0
      ],
      "name": "Sketchfab_model"
    },
    {
      "children": [
        2
      ],
      "matrix": [
        0.009999999776482582,
        0.0,
        0.0,
        0.0,
        0.0,
        0.0,
        0.009999999776482582,
        0.0,
        0.0,
        -0.009999999776482582,
        0.0,
        0.0,
        0.0,
        0.0,
        0.0,
        1.0
      ],
      "name": "1a0f62a163d04c13a3da83630685a1ef.fbx"
    },
    {
      "children": [
        3,
        5,
        7,
        9,
        11,
        13
      ],
      "name": "RootNode"
    },
    {
      "children": [
        4
      ],
      "matrix": [
        100.0,
        0.0,
        0.0,
        0.0,
        0.0,
        99.99999999999866,
        1.6292067073209114e-05,
        0.0,
        0.0,
        -1.6292067073209114e-05,
        99.99999999999866,
        0.0,
        0.0,
        0.0,
        0.0,
        1.0
      ],
      "name": "Mesh_0006.rip"
    },
    {
      "mesh": 0,
      "name": "Mesh_0006.rip_Material.001_0"
    },
    {
      "children": [
        6
      ],
      "matrix": [
        100.0,
        0.0,
        0.0,
        0.0,
        0.0,
        99.99999999999866,
        1.6292067073209114e-05,
        0.0,
        0.0,
        -1.6292067073209114e-05,
        99.99999999999866,
        0.0,
        0.0,
        0.0,
        0.0,
        1.0
      ],
      "name": "Mesh_0009.rip"
    },
    {
      "mesh": 1,
      "name": "Mesh_0009.rip_Material 1_0"
    },
    {
      "children": [
        8
      ],
      "matrix": [
        100.0,
        0.0,
        0.0,
        0.0,
        0.0,
        99.99999999999866,
        1.6292067073209114e-05,
        0.0,
        0.0,
        -1.6292067073209114e-05,
        99.99999999999866,
        0.0,
        0.0,
        0.0,
        0.0,
        1.0
      ],
      "name": "Mesh_0010.rip"
    },
    {
      "mesh": 2,
      "name": "Mesh_0010.rip_Material 2_0"
    },
    {
      "children": [
        10
      ],
      "matrix": [
        100.0,
        0.0,
        0.0,
        0.0,
        0.0,
        99.99999999999866,
        1.6292067073209114e-05,
        0.0,
        0.0,
        -1.6292067073209114e-05,
        99.99999999999866,
        0.0,
        0.0,
        0.0,
        0.0,
        1.0
      ],
      "name": "Mesh_0012.rip"
    },
    {
      "mesh": 3,
      "name": "Mesh_0012.rip_Material 3_0"
    },
    {
      "children": [
        12
      ],
      "matrix": [
        100.0,
        0.0,
        0.0,
        0.0,
        0.0,
        99.99999999999866,
        1.6292067073209114e-05,
        0.0,
        0.0,
        -1.6292067073209114e-05,
        99.99999999999866,
        0.0,
        0.0,
        0.0,
        0.0,
        1.0
      ],
      "name": "Mesh_0014.rip"
    },
    {
      "mesh": 4,
      "name": "Mesh_0014.rip_Material 4_0"
    },
    {
      "children": [
        14
      ],
      "matrix": [
        100.0,
        0.0,
        0.0,
        0.0,
        0.0,
        99.99999999999866,
        1.6292067073209114e-05,
        0.0,
        0.0,
        -1.6292067073209114e-05,
        99.99999999999866,
        0.0,
        0.0,
        0.0,
        0.0,
        1.0
      ],
      "name": "Mesh_0039.rip"
    },
    {
      "mesh": 5,
      "name": "Mesh_0039.rip_Material 5_0"
    }
  ],
  "samplers": [
    {
      "magFilter": 9729,
      "minFilter": 9987,
      "wrapS": 10497,
      "wrapT": 10497
    }
  ],
  "scene": 0,
  "scenes": [
    {
      "name": "Sketchfab_Scene",
      "nodes": [
        0
      ]
    }
  ],
  "textures": [
    {
      "sampler": 0,
      "source": 0
    },
    {
      "sampler": 0,
      "source": 1
    },
    {
      "sampler": 0,
      "source": 2
    },
    {
      "sampler": 0,
      "source": 3
    },
    {
      "sampler": 0,
      "source": 4
    },
    {
      "sampler": 0,
      "source": 5
    }
  ]
}
