{
  "accessors": [
    {
      "bufferView": 2,
      "componentType": 5126,
      "count": 1216,
      "max": [
        0.9840459823608398,
        1.4921644926071167,
        1.9015642404556274
      ],
      "min": [
        -0.9840950965881348,
        -0.0008081709966063499,
        -1.9161418676376343
      ],
      "type": "VEC3"
    },
    {
      "bufferView": 2,
      "byteOffset": 14592,
      "componentType": 5126,
      "count": 1216,
      "max": [
        0.9990896582603455,
        0.9958493113517761,
        0.9807616472244263
      ],
      "min": [
        -0.9993616342544556,
        -0.9979524612426758,
        -0.9906932711601257
      ],
      "type": "VEC3"
    },
    {
      "bufferView": 3,
      "componentType": 5126,
      "count": 1216,
      "max": [
        0.9998329877853394,
        0.9995558857917786,
        0.9999825954437256,
        1.0
      ],
      "min": [
        -0.9999995827674866,
        -0.9994178414344788,
        -0.9999878406524658,
        -1.0
      ],
      "type": "VEC4"
    },
    {
      "bufferView": 1,
      "componentType": 5126,
      "count": 1216,
      "max": [
        0.9724770784378052,
        0.9999626278877258
      ],
      "min": [
        0.0001256867399206385,
        0.0
      ],
      "type": "VEC2"
    },
    {
      "bufferView": 1,
      "byteOffset": 9728,
      "componentType": 5126,
      "count": 1216,
      "max": [
        0.9724770784378052,
        0.9999626278877258
      ],
      "min": [
        0.0001256867399206385,
        0.0
      ],
      "type": "VEC2"
    },
    {
      "bufferView": 1,
      "byteOffset": 19456,
      "componentType": 5126,
      "count": 1216,
      "max": [
        0.9724770784378052,
        0.9999626278877258
      ],
      "min": [
        0.0001256867399206385,
        0.0
      ],
      "type": "VEC2"
    },
    {
      "bufferView": 1,
      "byteOffset": 29184,
      "componentType": 5126,
      "count": 1216,
      "max": [
        0.9724770784378052,
        0.9999626278877258
      ],
      "min": [
        0.0001256867399206385,
        0.0
      ],
      "type": "VEC2"
    },
    {
      "bufferView": 0,
      "componentType": 5125,
      "count": 3960,
      "type": "SCALAR"
    }
  ],
  "asset": {
    "extras": {
      "author": "abhayexe (https://sketchfab.com/abhayexe)",
      "license": "SKETCHFAB Standard (https://sketchfab.com/licenses)",
      "source": "https://sketchfab.com/3d-models/2023-mitsubishi-low-poly-a01106462c504b1fac23fbab2a95aaa7",
      "title": "2023 Mitsubishi low poly"
    },
    "generator": "Sketchfab-17.14.0",
    "version": "2.0"
  },
  "bufferViews": [
    {
      "buffer": 0,
      "byteLength": 15840,
      "name": "floatBufferViews",
      "target": 34963
    },
    {
      "buffer": 0,
      "byteLength": 38912,
      "byteOffset": 15840,
      "byteStride": 8,
      "name": "floatBufferViews",
      "target": 34962
    },
    {
      "buffer": 0,
      "byteLength": 29184,
      "byteOffset": 54752,
      "byteStride": 12,
      "name": "floatBufferViews",
      "target": 34962
    },
    {
      "buffer": 0,
      "byteLength": 19456,
      "byteOffset": 83936,
      "byteStride": 16,
      "name": "floatBufferViews",
      "target": 34962
    }
  ],
  "buffers": [
    {
      "byteLength": 103392,
      "uri": "scene.bin"
    }
  ],
  "images": [
    {
      "uri": "textures/Material_baseColor.png"
    },
    {
      "uri": "textures/Material_metallicRoughness.png"
    },
    {
      "uri": "textures/Material_normal.png"
    }
  ],
  "materials": [
    {
      "doubleSided": true,
      "name": "Material",
      "normalTexture": {
        "index": 2
      },
      "pbrMetallicRoughness": {
        "baseColorTexture": {
          "index": 0
        },
        "metallicFactor": 0.3762229337995918,
        "metallicRoughnessTexture": {
          "index": 1
        }
      }
    }
  ],
  "meshes": [
    {
      "name": "Object_0",
      "primitives": [
        {
          "attributes": {
            "NORMAL": 1,
            "POSITION": 0,
            "TANGENT": 2,
            "TEXCOORD_0": 3,
            "TEXCOORD_1": 4,
            "TEXCOORD_2": 5,
            "TEXCOORD_3": 6
          },
          "indices": 7,
          "material": 0,
          "mode": 4
        }
      ]
    }
  ],
  "nodes": [
    {
      "children": [
        1
      ],
      "matrix": [
        1.0,
        0.0,
        0.0,
        0.0,
        0.0,
        2.220446049250313e-16,
        -1.0,
        0.0,
        0.0,
        1.0,
        2.220446049250313e-16,
        0.0,
        0.0,
        0.0,
        0.0,
        1.0
      ],
      "name": "Sketchfab_model"
    },
    {
      "children": [
        2
      ],
      "name": "root"
    },
    {
      "children": [
        3
      ],
      "matrix": [
        1.0,
        0.0,
        0.0,
        0.0,
        0.0,
        2.220446049250313e-16,
        1.0,
        0.0,
        0.0,
        -1.0,
        2.220446049250313e-16,
        0.0,
        0.0,
        0.0,
        0.0,
        1.0
      ],
      "name": "GLTF_SceneRootNode"
    },
    {
      "children": [
        4
      ],
      "name": "Mirage_ES:Bottom_Bottom_Black_Plastic_Mirage_ES:Black_Plastic1__0"
    },
    {
      "mesh": 0,
      "name": "Object_4"
    }
  ],
  "samplers": [
    {
      "magFilter": 9729,
      "minFilter": 9987,
      "wrapS": 10497,
      "wrapT": 10497
    }
  ],
  "scene": 0,
  "scenes": [
    {
      "name": "Sketchfab_Scene",
      "nodes": [
        0
      ]
    }
  ],
  "textures": [
    {
      "sampler": 0,
      "source": 0
    },
    {
      "sampler": 0,
      "source": 1
    },
    {
      "sampler": 0,
      "source": 2
    }
  ]
}
