{
  "accessors": [
    {
      "bufferView": 2,
      "componentType": 5126,
      "count": 4,
      "max": [
        35.62945556640625,
        0.0,
        50.0
      ],
      "min": [
        -35.62945556640625,
        0.0,
        -50.0
      ],
      "type": "VEC3"
    },
    {
      "bufferView": 2,
      "byteOffset": 48,
      "componentType": 5126,
      "count": 4,
      "max": [
        0.0,
        1.0,
        0.0
      ],
      "min": [
        0.0,
        1.0,
        0.0
      ],
      "type": "VEC3"
    },
    {
      "bufferView": 1,
      "componentType": 5126,
      "count": 4,
      "max": [
        1.0,
        1.0
      ],
      "min": [
        0.0,
        0.0
      ],
      "type": "VEC2"
    },
    {
      "bufferView": 0,
      "componentType": 5125,
      "count": 6,
      "type": "SCALAR"
    },
    {
      "bufferView": 2,
      "byteOffset": 96,
      "componentType": 5126,
      "count": 4,
      "max": [
        35.62945556640625,
        0.0,
        50.0
      ],
      "min": [
        -35.62945556640625,
        0.0,
        -50.0
      ],
      "type": "VEC3"
    },
    {
      "bufferView": 2,
      "byteOffset": 144,
      "componentType": 5126,
      "count": 4,
      "max": [
        0.0,
        1.0,
        0.0
      ],
      "min": [
        0.0,
        1.0,
        0.0
      ],
      "type": "VEC3"
    },
    {
      "bufferView": 1,
      "byteOffset": 32,
      "componentType": 5126,
      "count": 4,
      "max": [
        1.0,
        1.0
      ],
      "min": [
        0.0,
        0.0
      ],
      "type": "VEC2"
    },
    {
      "bufferView": 0,
      "byteOffset": 24,
      "componentType": 5125,
      "count": 6,
      "type": "SCALAR"
    },
    {
      "bufferView": 2,
      "byteOffset": 192,
      "componentType": 5126,
      "count": 72,
      "max": [
        64.42288208007813,
        1165.056396484375,
        64.42288208007813
      ],
      "min": [
        -64.42288208007813,
        -99.99999237060547,
        -64.42288208007813
      ],
      "type": "VEC3"
    },
    {
      "bufferView": 2,
      "byteOffset": 1056,
      "componentType": 5126,
      "count": 72,
      "max": [
        0.9943702220916748,
        1.0,
        0.9941484928131104
      ],
      "min": [
        -0.9944034814834595,
        -1.0,
        -0.9936520457267761
      ],
      "type": "VEC3"
    },
    {
      "bufferView": 1,
      "byteOffset": 64,
      "componentType": 5126,
      "count": 72,
      "max": [
        0.9973027110099792,
        0.9878354072570801
      ],
      "min": [
        0.0026973385829478502,
        0.002697251969948411
      ],
      "type": "VEC2"
    },
    {
      "bufferView": 0,
      "byteOffset": 48,
      "componentType": 5125,
      "count": 108,
      "type": "SCALAR"
    }
  ],
  "asset": {
    "extras": {
      "author": "RoyalGeek (https://sketchfab.com/RoyalGeek)",
      "license": "SKETCHFAB Standard (https://sketchfab.com/licenses)",
      "source": "https://sketchfab.com/3d-models/psx-tree-low-poly-no-black-background-7ac44f5eb88e4eb6a3fe9b20e626de35",
      "title": "Psx Tree Low Poly (No black Background)"
    },
    "generator": "Sketchfab-17.15.0",
    "version": "2.0"
  },
  "bufferViews": [
    {
      "buffer": 0,
      "byteLength": 480,
      "name": "floatBufferViews",
      "target": 34963
    },
    {
      "buffer": 0,
      "byteLength": 640,
      "byteOffset": 480,
      "byteStride": 8,
      "name": "floatBufferViews",
      "target": 34962
    },
    {
      "buffer": 0,
      "byteLength": 1920,
      "byteOffset": 1120,
      "byteStride": 12,
      "name": "floatBufferViews",
      "target": 34962
    }
  ],
  "buffers": [
    {
      "byteLength": 3040,
      "uri": "scene.bin"
    }
  ],
  "images": [
    {
      "uri": "textures/Winter-Pine-Tree-Snow-Covered-PNG_baseColor.png"
    },
    {
      "uri": "textures/Trunk_baseColor.jpeg"
    }
  ],
  "materials": [
    {
      "doubleSided": true,
      "name": "Winter-Pine-Tree-Snow-Covered-PNG",
      "pbrMetallicRoughness": {
        "baseColorTexture": {
          "index": 0
        },
        "metallicFactor": 0.0
      }
    },
    {
      "doubleSided": true,
      "name": "Trunk",
      "pbrMetallicRoughness": {
        "baseColorTexture": {
          "index": 1
        },
        "metallicFactor": 0.0
      }
    }
  ],
  "meshes": [
    {
      "name": "Leaves1_Winter-Pine-Tree-Snow-Covered-PNG_0",
      "primitives": [
        {
          "attributes": {
            "NORMAL": 1,
            "POSITION": 0,
            "TEXCOORD_0": 2
          },
          "indices": 3,
          "material": 0,
          "mode": 4
        }
      ]
    },
    {
      "name": "Leaves2_Winter-Pine-Tree-Snow-Covered-PNG_0",
      "primitives": [
        {
          "attributes": {
            "NORMAL": 5,
            "POSITION": 4,
            "TEXCOORD_0": 6
          },
          "indices": 7,
          "material": 0,
          "mode": 4
        }
      ]
    },
    {
      "name": "Trunk_Trunk_0",
      "primitives": [
        {
          "attributes": {
            "NORMAL": 9,
            "POSITION": 8,
            "TEXCOORD_0": 10
          },
          "indices": 11,
          "material": 1,
          "mode": 4
        }
      ]
    }
  ],
  "nodes": [
    {
      "children": [
        1
      ],
      "matrix": [
        1.0,
        0.0,
        0.0,
        0.0,
        0.0,
        2.220446049250313e-16,
        -1.0,
        0.0,
        0.0,
        1.0,
        2.220446049250313e-16,
        0.0,
        0.0,
        0.0,
        0.0,
        1.0
      ],
      "name": "Sketchfab_model"
    },
    {
      "children": [
        2
      ],
      "matrix": [
        0.009999999776482582,
        0.0,
        0.0,
        0.0,
        0.0,
        0.0,
        0.009999999776482582,
        0.0,
        0.0,
        -0.009999999776482582,
        0.0,
        0.0,
        0.0,
        0.0,
        0.0,
        1.0
      ],
      "name": "2d03689b5a134a6bb9e3df38369c3ed2.fbx"
    },
    {
      "children": [
        3,
        5,
        7
      ],
      "name": "RootNode"
    },
    {
      "children": [
        4
      ],
      "matrix": [
        5.775912284851074,
        0.0,
        0.0,
        0.0,
        0.0,
        -9.410155535555623e-07,
        5.775912284850998,
        0.0,
        0.0,
        -5.775912284850998,
        -9.410155535555623e-07,
        0.0,
        0.0,
        473.3811950683594,
        0.0,
        1.0
      ],
      "name": "Leaves1"
    },
    {
      "mesh": 0,
      "name": "Leaves1_Winter-Pine-Tree-Snow-Covered-PNG_0"
    },
    {
      "children": [
        6
      ],
      "matrix": [
        2.5247315485334624e-07,
        6.412550806856958e-16,
        -5.775912284851069,
        0.0,
        5.775912284851064,
        -2.5247315485334624e-07,
        2.524731551739738e-07,
        0.0,
        -2.524731551739738e-07,
        -5.775912284851069,
        -1.1542591452342525e-14,
        0.0,
        0.0,
        473.3811950683594,
        0.0,
        1.0
      ],
      "name": "Leaves2"
    },
    {
      "mesh": 1,
      "name": "Leaves2_Winter-Pine-Tree-Snow-Covered-PNG_0"
    },
    {
      "children": [
        8
      ],
      "matrix": [
        0.2590977455579595,
        0.0,
        -0.2590977568834825,
        0.0,
        0.0,
        0.36641955375671387,
        0.0,
        0.0,
        0.2590977568834825,
        0.0,
        0.2590977455579595,
        0.0,
        0.0,
        36.66667175292969,
        0.0,
        1.0
      ],
      "name": "Trunk"
    },
    {
      "mesh": 2,
      "name": "Trunk_Trunk_0"
    }
  ],
  "samplers": [
    {
      "magFilter": 9729,
      "minFilter": 9987,
      "wrapS": 33071,
      "wrapT": 33071
    },
    {
      "magFilter": 9729,
      "minFilter": 9987,
      "wrapS": 10497,
      "wrapT": 10497
    }
  ],
  "scene": 0,
  "scenes": [
    {
      "name": "Sketchfab_Scene",
      "nodes": [
        0
      ]
    }
  ],
  "textures": [
    {
      "sampler": 0,
      "source": 0
    },
    {
      "sampler": 1,
      "source": 1
    }
  ]
}
