{
  "accessors": [
    {
      "bufferView": 2,
      "componentType": 5126,
      "count": 65532,
      "max": [
        0.16353489458560944,
        0.12725777924060822,
        1.1944074630737305
      ],
      "min": [
        -0.16388611495494843,
        -0.1599542200565338,
        -0.8097726106643677
      ],
      "type": "VEC3"
    },
    {
      "bufferView": 2,
      "byteOffset": 786384,
      "componentType": 5126,
      "count": 65532,
      "max": [
        0.9999990463256836,
        1.0,
        0.9998579025268555
      ],
      "min": [
        -0.9999995231628418,
        -0.999998927116394,
        -0.9999834299087524
      ],
      "type": "VEC3"
    },
    {
      "bufferView": 1,
      "componentType": 5126,
      "count": 65532,
      "max": [
        0.99462890625,
        0.99853515625
      ],
      "min": [
        0.0013141632080078125,
        0.0013151168823242188
      ],
      "type": "VEC2"
    },
    {
      "bufferView": 0,
      "componentType": 5125,
      "count": 323289,
      "type": "SCALAR"
    },
    {
      "bufferView": 2,
      "byteOffset": 1572768,
      "componentType": 5126,
      "count": 48712,
      "max": [
        0.16229289770126343,
        0.3374057710170746,
        0.7121903896331787
      ],
      "min": [
        -0.1636081039905548,
        -0.1895362138748169,
        -0.8097726106643677
      ],
      "type": "VEC3"
    },
    {
      "bufferView": 2,
      "byteOffset": 2157312,
      "componentType": 5126,
      "count": 48712,
      "max": [
        0.9999995231628418,
        1.0,
        1.0
      ],
      "min": [
        -0.9999990463256836,
        -1.0,
        -0.9999973773956299
      ],
      "type": "VEC3"
    },
    {
      "bufferView": 1,
      "byteOffset": 524256,
      "componentType": 5126,
      "count": 48712,
      "max": [
        0.99462890625,
        0.99853515625
      ],
      "min": [
        0.0013141632080078125,
        0.0013141632080078125
      ],
      "type": "VEC2"
    },
    {
      "bufferView": 0,
      "byteOffset": 1293156,
      "componentType": 5125,
      "count": 191745,
      "type": "SCALAR"
    }
  ],
  "asset": {
    "extras": {
      "author": "AshCreations3D (https://sketchfab.com/Fancy_Models_Collections)",
      "license": "SKETCHFAB Standard (https://sketchfab.com/licenses)",
      "source": "https://sketchfab.com/3d-models/ultra-futuristic-luxury-yacht-c0de8d105f254e879ee25e52bd526de7",
      "title": "Ultra-Futuristic Luxury Yacht 🚤✨"
    },
    "generator": "Sketchfab-16.60.0",
    "version": "2.0"
  },
  "bufferViews": [
    {
      "buffer": 0,
      "byteLength": 2060136,
      "name": "floatBufferViews",
      "target": 34963
    },
    {
      "buffer": 0,
      "byteLength": 913952,
      "byteOffset": 2060136,
      "byteStride": 8,
      "name": "floatBufferViews",
      "target": 34962
    },
    {
      "buffer": 0,
      "byteLength": 2741856,
      "byteOffset": 2974088,
      "byteStride": 12,
      "name": "floatBufferViews",
      "target": 34962
    }
  ],
  "buffers": [
    {
      "byteLength": 5715944,
      "uri": "scene.bin"
    }
  ],
  "images": [
    {
      "uri": "textures/Material_0.014_baseColor.jpeg"
    }
  ],
  "materials": [
    {
      "doubleSided": true,
      "name": "Material_0.014",
      "pbrMetallicRoughness": {
        "baseColorTexture": {
          "index": 0
        },
        "metallicFactor": 0.0,
        "roughnessFactor": 0.8
      }
    }
  ],
  "meshes": [
    {
      "name": "Object_0",
      "primitives": [
        {
          "attributes": {
            "NORMAL": 1,
            "POSITION": 0,
            "TEXCOORD_0": 2
          },
          "indices": 3,
          "material": 0,
          "mode": 4
        }
      ]
    },
    {
      "name": "Object_1",
      "primitives": [
        {
          "attributes": {
            "NORMAL": 5,
            "POSITION": 4,
            "TEXCOORD_0": 6
          },
          "indices": 7,
          "material": 0,
          "mode": 4
        }
      ]
    }
  ],
  "nodes": [
    {
      "children": [
        1
      ],
      "matrix": [
        1.0,
        0.0,
        0.0,
        0.0,
        0.0,
        2.220446049250313e-16,
        -1.0,
        0.0,
        0.0,
        1.0,
        2.220446049250313e-16,
        0.0,
        0.0,
        0.0,
        0.0,
        1.0
      ],
      "name": "Sketchfab_model"
    },
    {
      "children": [
        2
      ],
      "name": "root"
    },
    {
      "children": [
        3
      ],
      "matrix": [
        1.0,
        0.0,
        0.0,
        0.0,
        0.0,
        2.220446049250313e-16,
        1.0,
        0.0,
        0.0,
        -1.0,
        2.220446049250313e-16,
        0.0,
        0.0,
        0.0,
        0.0,
        1.0
      ],
      "name": "GLTF_SceneRootNode"
    },
    {
      "children": [
        4,
        5
      ],
      "matrix": [
        23.242834091186523,
        0.0,
        0.0,
        0.0,
        0.0,
        23.242834091186523,
        0.0,
        0.0,
        0.0,
        0.0,
        23.242834091186523,
        0.0,
        62.27955627441406,
        1.4249060153961182,
        -4.493546962738037,
        1.0
      ],
      "name": "Model No12_0"
    },
    {
      "mesh": 0,
      "name": "Object_4"
    },
    {
      "mesh": 1,
      "name": "Object_5"
    }
  ],
  "samplers": [
    {
      "magFilter": 9729,
      "minFilter": 9987,
      "wrapS": 10497,
      "wrapT": 10497
    }
  ],
  "scene": 0,
  "scenes": [
    {
      "name": "Sketchfab_Scene",
      "nodes": [
        0
      ]
    }
  ],
  "textures": [
    {
      "sampler": 0,
      "source": 0
    }
  ]
}
