{
  "accessors": [
    {
      "bufferView": 2,
      "componentType": 5126,
      "count": 659,
      "max": [
        1.9519999027252197,
        0.9465126395225525,
        11.692000389099121
      ],
      "min": [
        -1.968000054359436,
        -0.9984869956970215,
        -0.0039997100830078125
      ],
      "type": "VEC3"
    },
    {
      "bufferView": 2,
      "byteOffset": 7908,
      "componentType": 5126,
      "count": 659,
      "max": [
        0.9921759366989136,
        0.9984291195869446,
        0.9586057662963867
      ],
      "min": [
        -0.9928295016288757,
        -0.9995542764663696,
        -0.9994131326675415
      ],
      "type": "VEC3"
    },
    {
      "bufferView": 1,
      "componentType": 5126,
      "count": 659,
      "max": [
        0.6610000133514404,
        -0.004000000189989805
      ],
      "min": [
        0.0,
        -0.9959999918937683
      ],
      "type": "VEC2"
    },
    {
      "bufferView": 0,
      "componentType": 5125,
      "count": 2262,
      "type": "SCALAR"
    },
    {
      "bufferView": 2,
      "byteOffset": 15816,
      "componentType": 5126,
      "count": 757,
      "max": [
        1.9519999027252197,
        0.9649238586425781,
        11.606000900268555
      ],
      "min": [
        -1.968000054359436,
        -1.074075698852539,
        0.0
      ],
      "type": "VEC3"
    },
    {
      "bufferView": 2,
      "byteOffset": 24900,
      "componentType": 5126,
      "count": 757,
      "max": [
        0.9921771883964539,
        0.998567521572113,
        0.9991864562034607
      ],
      "min": [
        -0.9984844923019409,
        -0.9921720027923584,
        -0.999611496925354
      ],
      "type": "VEC3"
    },
    {
      "bufferView": 1,
      "byteOffset": 5272,
      "componentType": 5126,
      "count": 757,
      "max": [
        0.6610000133514404,
        -0.004000000189989805
      ],
      "min": [
        0.0,
        -0.9959999918937683
      ],
      "type": "VEC2"
    },
    {
      "bufferView": 0,
      "byteOffset": 9048,
      "componentType": 5125,
      "count": 2322,
      "type": "SCALAR"
    },
    {
      "bufferView": 2,
      "byteOffset": 33984,
      "componentType": 5126,
      "count": 700,
      "max": [
        1.9639999866485596,
        1.12407648563385,
        11.511999130249023
      ],
      "min": [
        -1.9800001382827759,
        -1.12692391872406,
        0.0
      ],
      "type": "VEC3"
    },
    {
      "bufferView": 2,
      "byteOffset": 42384,
      "componentType": 5126,
      "count": 700,
      "max": [
        0.9937887787818909,
        0.9994702935218811,
        0.9940300583839417
      ],
      "min": [
        -0.9972841739654541,
        -0.9937016367912292,
        -0.9995707273483276
      ],
      "type": "VEC3"
    },
    {
      "bufferView": 1,
      "byteOffset": 11328,
      "componentType": 5126,
      "count": 700,
      "max": [
        0.6610000133514404,
        -0.004000000189989805
      ],
      "min": [
        0.0,
        -0.9919999837875366
      ],
      "type": "VEC2"
    },
    {
      "bufferView": 0,
      "byteOffset": 18336,
      "componentType": 5125,
      "count": 2334,
      "type": "SCALAR"
    },
    {
      "bufferView": 2,
      "byteOffset": 50784,
      "componentType": 5126,
      "count": 638,
      "max": [
        1.8979992866516113,
        0.9804248809814453,
        11.722997665405273
      ],
      "min": [
        -1.9680006504058838,
        -1.0625745058059692,
        -9.5367431640625e-07
      ],
      "type": "VEC3"
    },
    {
      "bufferView": 2,
      "byteOffset": 58440,
      "componentType": 5126,
      "count": 638,
      "max": [
        0.9998435974121094,
        0.9996843338012695,
        0.9999850392341614
      ],
      "min": [
        -0.9998407959938049,
        -0.9942911267280579,
        -0.9989843368530273
      ],
      "type": "VEC3"
    },
    {
      "bufferView": 1,
      "byteOffset": 16928,
      "componentType": 5126,
      "count": 638,
      "max": [
        0.6610000133514404,
        -0.004000000189989805
      ],
      "min": [
        0.0,
        -0.9959999918937683
      ],
      "type": "VEC2"
    },
    {
      "bufferView": 0,
      "byteOffset": 27672,
      "componentType": 5125,
      "count": 2400,
      "type": "SCALAR"
    }
  ],
  "asset": {
    "extras": {
      "author": "William Luque (https://sketchfab.com/luquewilliam230)",
      "license": "CC-BY-4.0 (http://creativecommons.org/licenses/by/4.0/)",
      "source": "https://sketchfab.com/3d-models/jill-valentine-resident-evil-3-ps1-3f1e642a93fc4fa697c83ff23d3f7f79",
      "title": "Jill Valentine - Resident evil 3 (PS1)"
    },
    "generator": "Sketchfab-17.8.0",
    "version": "2.0"
  },
  "bufferViews": [
    {
      "buffer": 0,
      "byteLength": 37272,
      "name": "floatBufferViews",
      "target": 34963
    },
    {
      "buffer": 0,
      "byteLength": 22032,
      "byteOffset": 37272,
      "byteStride": 8,
      "name": "floatBufferViews",
      "target": 34962
    },
    {
      "buffer": 0,
      "byteLength": 66096,
      "byteOffset": 59304,
      "byteStride": 12,
      "name": "floatBufferViews",
      "target": 34962
    }
  ],
  "buffers": [
    {
      "byteLength": 125400,
      "uri": "scene.bin"
    }
  ],
  "extensionsRequired": [
    "KHR_materials_pbrSpecularGlossiness"
  ],
  "extensionsUsed": [
    "KHR_materials_pbrSpecularGlossiness"
  ],
  "images": [
    {
      "uri": "textures/Material.001_diffuse.png"
    },
    {
      "uri": "textures/Material.003_diffuse.png"
    },
    {
      "uri": "textures/Material.004_diffuse.png"
    },
    {
      "uri": "textures/Material_diffuse.png"
    }
  ],
  "materials": [
    {
      "doubleSided": true,
      "extensions": {
        "KHR_materials_pbrSpecularGlossiness": {
          "diffuseFactor": [
            1.0,
            1.0,
            1.0,
            1.0
          ],
          "diffuseTexture": {
            "index": 0
          },
          "glossinessFactor": 0.6,
          "specularFactor": [
            0.0,
            0.0,
            0.0
          ]
        }
      },
      "name": "Material.001"
    },
    {
      "doubleSided": true,
      "extensions": {
        "KHR_materials_pbrSpecularGlossiness": {
          "diffuseFactor": [
            1.0,
            1.0,
            1.0,
            1.0
          ],
          "diffuseTexture": {
            "index": 1
          },
          "glossinessFactor": 0.6,
          "specularFactor": [
            0.0,
            0.0,
            0.0
          ]
        }
      },
      "name": "Material.003"
    },
    {
      "doubleSided": true,
      "extensions": {
        "KHR_materials_pbrSpecularGlossiness": {
          "diffuseFactor": [
            1.0,
            1.0,
            1.0,
            1.0
          ],
          "diffuseTexture": {
            "index": 2
          },
          "glossinessFactor": 0.6,
          "specularFactor": [
            0.0,
            0.0,
            0.0
          ]
        }
      },
      "name": "Material.004"
    },
    {
      "doubleSided": true,
      "extensions": {
        "KHR_materials_pbrSpecularGlossiness": {
          "diffuseFactor": [
            1.0,
            1.0,
            1.0,
            1.0
          ],
          "diffuseTexture": {
            "index": 3
          },
          "glossinessFactor": 0.6,
          "specularFactor": [
            0.0,
            0.0,
            0.0
          ]
        }
      },
      "name": "Material"
    }
  ],
  "meshes": [
    {
      "name": "Jill_Biker_Material.001_0",
      "primitives": [
        {
          "attributes": {
            "NORMAL": 1,
            "POSITION": 0,
            "TEXCOORD_0": 2
          },
          "indices": 3,
          "material": 0,
          "mode": 4
        }
      ]
    },
    {
      "name": "Jill_Original_Material.003_0",
      "primitives": [
        {
          "attributes": {
            "NORMAL": 5,
            "POSITION": 4,
            "TEXCOORD_0": 6
          },
          "indices": 7,
          "material": 1,
          "mode": 4
        }
      ]
    },
    {
      "name": "Jill_Police_Material.004_0",
      "primitives": [
        {
          "attributes": {
            "NORMAL": 9,
            "POSITION": 8,
            "TEXCOORD_0": 10
          },
          "indices": 11,
          "material": 2,
          "mode": 4
        }
      ]
    },
    {
      "name": "Jill_STARS_Material_0",
      "primitives": [
        {
          "attributes": {
            "NORMAL": 13,
            "POSITION": 12,
            "TEXCOORD_0": 14
          },
          "indices": 15,
          "material": 3,
          "mode": 4
        }
      ]
    }
  ],
  "nodes": [
    {
      "children": [
        1
      ],
      "matrix": [
        1.0,
        0.0,
        0.0,
        0.0,
        0.0,
        2.220446049250313e-16,
        -1.0,
        0.0,
        0.0,
        1.0,
        2.220446049250313e-16,
        0.0,
        0.0,
        0.0,
        0.0,
        1.0
      ],
      "name": "Sketchfab_model"
    },
    {
      "children": [
        2
      ],
      "matrix": [
        0.009999999776482582,
        0.0,
        0.0,
        0.0,
        0.0,
        0.0,
        0.009999999776482582,
        0.0,
        0.0,
        -0.009999999776482582,
        0.0,
        0.0,
        0.0,
        0.0,
        0.0,
        1.0
      ],
      "name": "Jill.fbx"
    },
    {
      "children": [
        3,
        5,
        7,
        9
      ],
      "name": "RootNode"
    },
    {
      "children": [
        4
      ],
      "matrix": [
        -99.99999999999885,
        1.2246469849340659e-14,
        1.5099579909783702e-05,
        0.0,
        1.5099579909783661e-05,
        7.549789993177569e-06,
        99.99999999999856,
        0.0,
        -1.127740100078761e-12,
        99.9999999999997,
        -7.549789970973109e-06,
        0.0,
        700.0,
        0.0,
        0.0,
        1.0
      ],
      "name": "Jill_Biker"
    },
    {
      "mesh": 0,
      "name": "Jill_Biker_Material.001_0"
    },
    {
      "children": [
        6
      ],
      "matrix": [
        -99.99999999999885,
        1.2246469849340659e-14,
        1.5099579909783702e-05,
        0.0,
        1.5099579909783661e-05,
        7.549789993177569e-06,
        99.99999999999856,
        0.0,
        -1.127740100078761e-12,
        99.9999999999997,
        -7.549789970973109e-06,
        0.0,
        250.0,
        0.0,
        0.0,
        1.0
      ],
      "name": "Jill_Original"
    },
    {
      "mesh": 1,
      "name": "Jill_Original_Material.003_0"
    },
    {
      "children": [
        8
      ],
      "matrix": [
        -99.99999999999885,
        1.2246469849340659e-14,
        1.5099579909783702e-05,
        0.0,
        1.5099579909783661e-05,
        7.549789993177569e-06,
        99.99999999999856,
        0.0,
        -1.127740100078761e-12,
        99.9999999999997,
        -7.549789970973109e-06,
        0.0,
        -250.0,
        0.0,
        0.0,
        1.0
      ],
      "name": "Jill_Police"
    },
    {
      "mesh": 2,
      "name": "Jill_Police_Material.004_0"
    },
    {
      "children": [
        10
      ],
      "matrix": [
        -99.99999999999885,
        1.2246469849340659e-14,
        1.5099579909783702e-05,
        0.0,
        1.5099579909783661e-05,
        7.549789993177569e-06,
        99.99999999999856,
        0.0,
        -1.127740100078761e-12,
        99.9999999999997,
        -7.549789970973109e-06,
        0.0,
        -700.0,
        0.0,
        0.0,
        1.0
      ],
      "name": "Jill_STARS"
    },
    {
      "mesh": 3,
      "name": "Jill_STARS_Material_0"
    }
  ],
  "samplers": [
    {
      "magFilter": 9729,
      "minFilter": 9987,
      "wrapS": 10497,
      "wrapT": 10497
    }
  ],
  "scene": 0,
  "scenes": [
    {
      "name": "Sketchfab_Scene",
      "nodes": [
        0
      ]
    }
  ],
  "textures": [
    {
      "sampler": 0,
      "source": 0
    },
    {
      "sampler": 0,
      "source": 1
    },
    {
      "sampler": 0,
      "source": 2
    },
    {
      "sampler": 0,
      "source": 3
    }
  ]
}
