{
  "accessors": [
    {
      "bufferView": 3,
      "componentType": 5126,
      "count": 768,
      "max": [
        37.133949279785156,
        191.01870727539063,
        13.443445205688477
      ],
      "min": [
        -37.133949279785156,
        0.06694111227989197,
        -18.576034545898438
      ],
      "type": "VEC3"
    },
    {
      "bufferView": 3,
      "byteOffset": 9216,
      "componentType": 5126,
      "count": 768,
      "max": [
        0.9968512654304504,
        0.9951498508453369,
        0.9999135732650757
      ],
      "min": [
        -0.9968512654304504,
        -0.9999529123306274,
        -0.9978670477867126
      ],
      "type": "VEC3"
    },
    {
      "bufferView": 2,
      "componentType": 5126,
      "count": 768,
      "max": [
        0.995311439037323,
        0.9934689998626709
      ],
      "min": [
        0.007247328758239746,
        0.0018010796047747135
      ],
      "type": "VEC2"
    },
    {
      "bufferView": 1,
      "componentType": 5125,
      "count": 2856,
      "type": "SCALAR"
    },
    {
      "bufferView": 5,
      "componentType": 5126,
      "count": 33,
      "max": [
        1.0000001192092896,
        0.009720440953969955,
        0.0015595030272379518,
        0.0,
        0.002362782135605812,
        1.0,
        0.009911095723509789,
        0.0,
        0.009806901216506958,
        0.009243982844054699,
        1.0,
        0.0,
        0.5858373641967773,
        1.4267936944961548,
        0.7711771726608276,
        1.0
      ],
      "min": [
        -0.009765065275132656,
        -0.009720440953969955,
        -0.0015595030272379518,
        0.0,
        -0.002362782135605812,
        -0.009970435872673988,
        -0.009244068525731564,
        0.0,
        -0.009806901216506958,
        -0.0019555240869522095,
        -0.009993436746299267,
        0.0,
        -0.5858373641967773,
        -1.6854045391082764,
        -1.5710898637771606,
        1.0
      ],
      "type": "MAT4"
    },
    {
      "bufferView": 0,
      "componentType": 5123,
      "count": 768,
      "type": "VEC4"
    },
    {
      "bufferView": 4,
      "componentType": 5126,
      "count": 768,
      "max": [
        1.0,
        0.5,
        0.0,
        0.0
      ],
      "min": [
        0.5,
        0.0,
        0.0,
        0.0
      ],
      "type": "VEC4"
    }
  ],
  "asset": {
    "extras": {
      "author": "vinrax (https://sketchfab.com/vinrax)",
      "license": "SKETCHFAB Standard (https://sketchfab.com/licenses)",
      "source": "https://sketchfab.com/3d-models/male-character-ps1-style-78640adbd76b48129e9316259695c742",
      "title": "Male Character PS1-Style"
    },
    "generator": "Sketchfab-17.8.0",
    "version": "2.0"
  },
  "bufferViews": [
    {
      "buffer": 0,
      "byteLength": 6144,
      "byteStride": 8,
      "name": "shortBufferViews",
      "target": 34962
    },
    {
      "buffer": 0,
      "byteLength": 11424,
      "byteOffset": 6144,
      "name": "floatBufferViews",
      "target": 34963
    },
    {
      "buffer": 0,
      "byteLength": 6144,
      "byteOffset": 17568,
      "byteStride": 8,
      "name": "floatBufferViews",
      "target": 34962
    },
    {
      "buffer": 0,
      "byteLength": 18432,
      "byteOffset": 23712,
      "byteStride": 12,
      "name": "floatBufferViews",
      "target": 34962
    },
    {
      "buffer": 0,
      "byteLength": 12288,
      "byteOffset": 42144,
      "byteStride": 16,
      "name": "floatBufferViews",
      "target": 34962
    },
    {
      "buffer": 0,
      "byteLength": 2112,
      "byteOffset": 54432,
      "name": "floatBufferViews"
    }
  ],
  "buffers": [
    {
      "byteLength": 56544,
      "uri": "scene.bin"
    }
  ],
  "extensionsUsed": [
    "KHR_materials_unlit"
  ],
  "images": [
    {
      "uri": "textures/hero_baseColor.png"
    }
  ],
  "materials": [
    {
      "doubleSided": true,
      "extensions": {
        "KHR_materials_unlit": {}
      },
      "name": "hero",
      "pbrMetallicRoughness": {
        "baseColorTexture": {
          "index": 0
        },
        "metallicFactor": 0.0
      }
    }
  ],
  "meshes": [
    {
      "name": "male_player_hero_0",
      "primitives": [
        {
          "attributes": {
            "JOINTS_0": 5,
            "NORMAL": 1,
            "POSITION": 0,
            "TEXCOORD_0": 2,
            "WEIGHTS_0": 6
          },
          "indices": 3,
          "material": 0,
          "mode": 4
        }
      ]
    }
  ],
  "nodes": [
    {
      "children": [
        1
      ],
      "matrix": [
        1.0,
        -1.608122622957729e-16,
        -1.6081226229577294e-16,
        0.0,
        -1.6081226229577292e-16,
        2.220446049250313e-16,
        -1.0,
        0.0,
        1.6081226229577292e-16,
        1.0,
        2.220446049250313e-16,
        0.0,
        0.0,
        0.0,
        0.0,
        1.0
      ],
      "name": "Sketchfab_model"
    },
    {
      "children": [
        2
      ],
      "matrix": [
        0.009999999776482582,
        0.0,
        0.0,
        0.0,
        0.0,
        0.0,
        0.009999999776482582,
        0.0,
        0.0,
        -0.009999999776482582,
        0.0,
        0.0,
        0.0,
        0.0,
        0.0,
        1.0
      ],
      "name": "hero.fbx"
    },
    {
      "children": [
        3
      ],
      "name": "RootNode"
    },
    {
      "children": [
        4
      ],
      "matrix": [
        100.0,
        0.0,
        0.0,
        0.0,
        0.0,
        -1.629206793918314e-05,
        -99.99999999999868,
        0.0,
        0.0,
        99.99999999999868,
        -1.629206793918314e-05,
        0.0,
        0.0,
        0.0,
        0.0,
        1.0
      ],
      "name": "rig"
    },
    {
      "children": [
        5,
        7,
        6
      ],
      "name": "Object_4"
    },
    {
      "children": [
        8
      ],
      "name": "_rootJoint"
    },
    {
      "matrix": [
        1.0000000707805157,
        0.0,
        0.0,
        0.0,
        0.0,
        1.00000004990628,
        -2.4319390945493073e-09,
        0.0,
        0.0,
        2.4319390792152995e-09,
        1.00000004360102,
        0.0,
        0.0,
        -1.1837758847832447e-05,
        -6.006346211506752e-07,
        1.0
      ],
      "name": "Object_6"
    },
    {
      "mesh": 0,
      "name": "Object_7",
      "skin": 0
    },
    {
      "children": [
        9,
        32,
        36
      ],
      "name": "pelvis_01",
      "rotation": [
        0.7904554605484009,
        0.0,
        0.0,
        0.6125195026397705
      ],
      "scale": [
        1.0,
        0.9999999403953552,
        0.9999999403953552
      ],
      "translation": [
        0.0,
        0.05305707827210426,
        0.9706945419311523
      ]
    },
    {
      "children": [
        10
      ],
      "name": "spine_02",
      "rotation": [
        -0.10133819282054901,
        1.1859562221161468e-07,
        -1.208045219414089e-08,
        0.9948521256446838
      ],
      "scale": [
        1.0,
        1.0,
        0.9999999403953552
      ],
      "translation": [
        0.0,
        0.14631012082099915,
        5.587935447692871e-09
      ]
    },
    {
      "children": [
        11,
        14,
        23
      ],
      "name": "chest_03",
      "rotation": [
        -0.07435400038957596,
        -1.1887934903143105e-07,
        -8.863685785343023e-09,
        0.9972319006919861
      ],
      "scale": [
        1.0,
        0.9999999403953552,
        1.0
      ],
      "translation": [
        -8.881784197001252e-16,
        0.22047501802444458,
        3.725290298461914e-09
      ]
    },
    {
      "children": [
        12
      ],
      "name": "neck_04",
      "rotation": [
        0.27884364128112793,
        -1.1448100423194774e-07,
        -3.3240759478303517e-08,
        0.9603365063667297
      ],
      "translation": [
        -8.470329472543003e-22,
        0.31334158778190613,
        -3.725290298461914e-09
      ]
    },
    {
      "children": [
        13
      ],
      "name": "head_05",
      "rotation": [
        -0.15708428621292114,
        -4.820961541757672e-14,
        3.745181942349518e-08,
        0.987585186958313
      ],
      "translation": [
        3.823895088512228e-15,
        0.06841825693845749,
        1.6763806343078613e-08
      ]
    },
    {
      "name": "head_end_026",
      "rotation": [
        -0.0,
        1.3234889800848443e-23,
        3.308722450212111e-24,
        1.0
      ],
      "translation": [
        1.3234889800848443e-23,
        0.199490025639534,
        5.551115123125783e-17
      ]
    },
    {
      "children": [
        15
      ],
      "name": "shoulder_left_06",
      "rotation": [
        -0.548248827457428,
        -0.38586997985839844,
        -0.504344642162323,
        0.5442097783088684
      ],
      "scale": [
        0.9999998807907104,
        0.9999999403953552,
        1.0
      ],
      "translation": [
        0.036345820873975754,
        0.2478097826242447,
        0.01197151467204094
      ]
    },
    {
      "children": [
        16
      ],
      "name": "upper_arm_left_07",
      "rotation": [
        -0.3957825303077698,
        0.6255666017532349,
        -0.3980857729911804,
        0.5418028831481934
      ],
      "scale": [
        0.9999999403953552,
        1.0000001192092896,
        1.0
      ],
      "translation": [
        -0.0004688464105129242,
        0.196027010679245,
        -0.016137564554810524
      ]
    },
    {
      "children": [
        17
      ],
      "name": "forearm_left_08",
      "rotation": [
        0.18051894009113312,
        0.09795449674129486,
        -0.019780445843935013,
        0.9784817695617676
      ],
      "scale": [
        1.0000001192092896,
        1.0000001192092896,
        1.0
      ],
      "translation": [
        -1.210719347000122e-08,
        0.26703956723213196,
        7.450580596923828e-09
      ]
    },
    {
      "children": [
        18,
        21
      ],
      "name": "hand_left_09",
      "rotation": [
        -0.05824553221464157,
        -0.12290994077920914,
        0.0038761007599532604,
        0.9906996488571167
      ],
      "scale": [
        1.0,
        0.9999999403953552,
        1.0
      ],
      "translation": [
        -1.816079020500183e-08,
        0.30301499366760254,
        -2.0489096641540527e-08
      ]
    },
    {
      "children": [
        19
      ],
      "name": "thumb.01.L_010",
      "rotation": [
        0.20150844752788544,
        0.9061054587364197,
        0.34664639830589294,
        -0.13492026925086975
      ],
      "scale": [
        1.0,
        0.9999997615814209,
        1.0
      ],
      "translation": [
        0.01573251001536846,
        0.04078191518783569,
        0.04017136991024017
      ]
    },
    {
      "children": [
        20
      ],
      "name": "thumb.02.L_011",
      "rotation": [
        0.24037128686904907,
        -0.07432889938354492,
        -0.026991065591573715,
        0.9674545526504517
      ],
      "scale": [
        1.0000001192092896,
        1.0000001192092896,
        1.0
      ],
      "translation": [
        3.725290298461914e-09,
        0.04093346744775772,
        1.4901161193847656e-08
      ]
    },
    {
      "name": "thumb.02.L_end_027",
      "rotation": [
        -1.4444474582904269e-34,
        -1.3877787807814457e-17,
        -1.0408340855860843e-17,
        1.0
      ],
      "translation": [
        -2.7755575615628914e-17,
        0.05492687225341797,
        0.0
      ]
    },
    {
      "children": [
        22
      ],
      "name": "f_middle.01.L_012",
      "rotation": [
        0.1807217001914978,
        0.9821286797523499,
        0.015550462529063225,
        -0.05021248757839203
      ],
      "scale": [
        1.0,
        0.9999997615814209,
        0.9999999403953552
      ],
      "translation": [
        1.7462298274040222e-08,
        0.09144064038991928,
        -3.166496753692627e-08
      ]
    },
    {
      "name": "f_middle.01.L_end_00",
      "rotation": [
        -1.3877787807814457e-17,
        -1.8958372890061853e-34,
        1.3660947373317356e-17,
        1.0
      ],
      "translation": [
        2.7755575615628914e-17,
        0.10084254294633865,
        0.0
      ]
    },
    {
      "children": [
        24
      ],
      "name": "shoulder_right_013",
      "rotation": [
        -0.548248827457428,
        0.38586997985839844,
        0.504344642162323,
        0.5442097783088684
      ],
      "scale": [
        0.9999998807907104,
        0.9999999403953552,
        1.0
      ],
      "translation": [
        -0.036345820873975754,
        0.2478097826242447,
        0.01197151467204094
      ]
    },
    {
      "children": [
        25
      ],
      "name": "upper_arm_right_014",
      "rotation": [
        -0.3957825303077698,
        -0.6255666017532349,
        0.3980857729911804,
        0.5418028831481934
      ],
      "scale": [
        0.9999999403953552,
        1.0000001192092896,
        1.0
      ],
      "translation": [
        0.0004688464105129242,
        0.196027010679245,
        -0.016137564554810524
      ]
    },
    {
      "children": [
        26
      ],
      "name": "forearm_right_015",
      "rotation": [
        0.18051894009113312,
        -0.09795449674129486,
        0.019780445843935013,
        0.9784817695617676
      ],
      "scale": [
        1.0000001192092896,
        1.0000001192092896,
        1.0
      ],
      "translation": [
        1.210719347000122e-08,
        0.26703956723213196,
        7.450580596923828e-09
      ]
    },
    {
      "children": [
        27,
        30
      ],
      "name": "hand_right_016",
      "rotation": [
        -0.05824553221464157,
        0.12290994077920914,
        -0.0038761007599532604,
        0.9906996488571167
      ],
      "scale": [
        1.0,
        0.9999999403953552,
        1.0
      ],
      "translation": [
        1.816079020500183e-08,
        0.30301499366760254,
        -2.0489096641540527e-08
      ]
    },
    {
      "children": [
        28
      ],
      "name": "thumb.01.R_017",
      "rotation": [
        -0.20150844752788544,
        0.9061054587364197,
        0.34664639830589294,
        0.13492026925086975
      ],
      "scale": [
        1.0,
        0.9999997615814209,
        1.0
      ],
      "translation": [
        -0.01573251001536846,
        0.04078191518783569,
        0.04017136991024017
      ]
    },
    {
      "children": [
        29
      ],
      "name": "thumb.02.R_018",
      "rotation": [
        0.24037128686904907,
        0.07432889938354492,
        0.026991065591573715,
        0.9674545526504517
      ],
      "scale": [
        1.0000001192092896,
        1.0000001192092896,
        1.0
      ],
      "translation": [
        -3.725290298461914e-09,
        0.04093346744775772,
        1.4901161193847656e-08
      ]
    },
    {
      "name": "thumb.02.R_end_028",
      "rotation": [
        2.7755575615628914e-17,
        -1.925929944387236e-34,
        -6.938893903907228e-18,
        1.0
      ],
      "translation": [
        2.7755575615628914e-17,
        0.05492687225341797,
        0.0
      ]
    },
    {
      "children": [
        31
      ],
      "name": "f_middle.01.R_019",
      "rotation": [
        -0.1807217001914978,
        0.9821286797523499,
        0.015550462529063225,
        0.05021248757839203
      ],
      "scale": [
        1.0,
        0.9999997615814209,
        0.9999999403953552
      ],
      "translation": [
        -1.7462298274040222e-08,
        0.09144064038991928,
        -3.166496753692627e-08
      ]
    },
    {
      "name": "f_middle.01.R_end_029",
      "rotation": [
        -1.3877787807814457e-17,
        -3.469446951953614e-18,
        -1.8431436932253575e-17,
        1.0
      ],
      "translation": [
        -5.551115123125783e-17,
        0.10084254294633865,
        0.0
      ]
    },
    {
      "children": [
        33
      ],
      "name": "thigh_left_020",
      "rotation": [
        0.9949550628662109,
        0.05040258169174194,
        -0.012434575706720352,
        0.08584640920162201
      ],
      "scale": [
        0.9999998211860657,
        1.0,
        0.999999463558197
      ],
      "translation": [
        0.09419552236795425,
        0.061010632663965225,
        -0.002444896847009659
      ]
    },
    {
      "children": [
        34
      ],
      "name": "shin.L_021",
      "rotation": [
        -0.022358359768986702,
        0.007742916699498892,
        0.017427489161491394,
        0.9995682239532471
      ],
      "translation": [
        -1.3271346688270569e-08,
        0.5184568762779236,
        0.0
      ]
    },
    {
      "children": [
        35
      ],
      "name": "foot_left_022",
      "rotation": [
        -0.570643424987793,
        -0.02170874923467636,
        0.024626825004816055,
        0.820541501045227
      ],
      "scale": [
        1.0,
        0.9999998807907104,
        0.9999999403953552
      ],
      "translation": [
        2.2584572434425354e-08,
        0.42443859577178955,
        -7.566995918750763e-09
      ]
    },
    {
      "name": "foot_left_end_030",
      "rotation": [
        -2.7755575615628914e-17,
        1.0842021724855044e-19,
        3.009265538105056e-36,
        1.0
      ],
      "translation": [
        2.7755575615628914e-17,
        0.20217788219451904,
        0.0
      ]
    },
    {
      "children": [
        37
      ],
      "name": "thigh_right_023",
      "rotation": [
        0.9949550628662109,
        -0.05040258169174194,
        0.012434575706720352,
        0.08584640920162201
      ],
      "scale": [
        0.9999998211860657,
        1.0,
        0.999999463558197
      ],
      "translation": [
        -0.09419552236795425,
        0.061010632663965225,
        -0.002444896847009659
      ]
    },
    {
      "children": [
        38
      ],
      "name": "shin.R_024",
      "rotation": [
        -0.022358359768986702,
        -0.007742916699498892,
        -0.017427489161491394,
        0.9995682239532471
      ],
      "translation": [
        1.3271346688270569e-08,
        0.5184568762779236,
        0.0
      ]
    },
    {
      "children": [
        39
      ],
      "name": "foot_right_025",
      "rotation": [
        -0.570643424987793,
        0.02170874923467636,
        -0.024626825004816055,
        0.820541501045227
      ],
      "scale": [
        1.0,
        0.9999998807907104,
        0.9999999403953552
      ],
      "translation": [
        -2.2584572434425354e-08,
        0.42443859577178955,
        -7.566995918750763e-09
      ]
    },
    {
      "name": "foot_right_end_031",
      "rotation": [
        -2.7755575615628914e-17,
        -1.0842021724855044e-19,
        -3.009265538105056e-36,
        1.0
      ],
      "translation": [
        -2.7755575615628914e-17,
        0.20217788219451904,
        0.0
      ]
    }
  ],
  "samplers": [
    {
      "magFilter": 9728,
      "minFilter": 9728,
      "wrapS": 10497,
      "wrapT": 10497
    }
  ],
  "scene": 0,
  "scenes": [
    {
      "name": "Sketchfab_Scene",
      "nodes": [
        0
      ]
    }
  ],
  "skins": [
    {
      "inverseBindMatrices": 4,
      "joints": [
        5,
        8,
        9,
        10,
        11,
        12,
        13,
        14,
        15,
        16,
        17,
        18,
        19,
        20,
        21,
        22,
        23,
        24,
        25,
        26,
        27,
        28,
        29,
        30,
        31,
        32,
        33,
        34,
        35,
        36,
        37,
        38,
        39
      ],
      "skeleton": 5
    }
  ],
  "textures": [
    {
      "sampler": 0,
      "source": 0
    }
  ]
}
