{
  "accessors": [
    {
      "bufferView": 3,
      "componentType": 5126,
      "count": 1066,
      "max": [
        8.509710311889648,
        41.217010498046875,
        22.317916870117188
      ],
      "min": [
        -8.509710311889648,
        0.02678070217370987,
        -20.81319236755371
      ],
      "type": "VEC3"
    },
    {
      "bufferView": 3,
      "byteOffset": 12792,
      "componentType": 5126,
      "count": 1066,
      "max": [
        0.9999988675117493,
        0.9997957944869995,
        0.9999998807907104
      ],
      "min": [
        -0.9999988675117493,
        -0.9999873638153076,
        -0.985318124294281
      ],
      "type": "VEC3"
    },
    {
      "bufferView": 4,
      "componentType": 5126,
      "count": 1066,
      "max": [
        1.0,
        0.9997782707214355,
        0.9981222748756409,
        1.0
      ],
      "min": [
        -0.9999504089355469,
        -0.9881900548934937,
        -0.9981222748756409,
        -1.0
      ],
      "type": "VEC4"
    },
    {
      "bufferView": 2,
      "componentType": 5126,
      "count": 1066,
      "max": [
        0.994343101978302,
        0.9470324516296387
      ],
      "min": [
        0.005553056485950947,
        0.017008736729621887
      ],
      "type": "VEC2"
    },
    {
      "bufferView": 1,
      "componentType": 5125,
      "count": 4974,
      "type": "SCALAR"
    },
    {
      "bufferView": 5,
      "componentType": 5126,
      "count": 30,
      "max": [
        1.0,
        0.706846296787262,
        1.0,
        0.0,
        1.0,
        1.0,
        0.42858660221099854,
        0.0,
        0.99405437707901,
        1.0,
        1.0,
        0.0,
        22.827695846557617,
        39.463382720947266,
        16.0535888671875,
        1.0
      ],
      "min": [
        -0.6234514117240906,
        -0.7068465352058411,
        -0.9998968243598938,
        0.0,
        -0.863613486289978,
        -0.9940543174743652,
        -0.42858660221099854,
        0.0,
        -0.9492318630218506,
        -0.7887799143791199,
        -0.8394265174865723,
        0.0,
        -32.80656814575195,
        -15.1536226272583,
        -16.053592681884766,
        1.0
      ],
      "type": "MAT4"
    },
    {
      "bufferView": 0,
      "componentType": 5123,
      "count": 1066,
      "type": "VEC4"
    },
    {
      "bufferView": 4,
      "byteOffset": 17056,
      "componentType": 5126,
      "count": 1066,
      "max": [
        1.0,
        0.5,
        0.32500001788139343,
        0.0
      ],
      "min": [
        0.34999996423721313,
        0.0,
        0.0,
        0.0
      ],
      "type": "VEC4"
    }
  ],
  "asset": {
    "extras": {
      "author": "Rigardas.Kusleika (https://sketchfab.com/Rigardas.Kusleika)",
      "license": "SKETCHFAB Standard (https://sketchfab.com/licenses)",
      "source": "https://sketchfab.com/3d-models/chicken-454d2b298a2f4fff855ad625ff1721d7",
      "title": "Chicken"
    },
    "generator": "Sketchfab-15.70.0",
    "version": "2.0"
  },
  "bufferViews": [
    {
      "buffer": 0,
      "byteLength": 8528,
      "byteStride": 8,
      "name": "shortBufferViews",
      "target": 34962
    },
    {
      "buffer": 0,
      "byteLength": 19896,
      "byteOffset": 8528,
      "name": "floatBufferViews",
      "target": 34963
    },
    {
      "buffer": 0,
      "byteLength": 8528,
      "byteOffset": 28424,
      "byteStride": 8,
      "name": "floatBufferViews",
      "target": 34962
    },
    {
      "buffer": 0,
      "byteLength": 25584,
      "byteOffset": 36952,
      "byteStride": 12,
      "name": "floatBufferViews",
      "target": 34962
    },
    {
      "buffer": 0,
      "byteLength": 34112,
      "byteOffset": 62536,
      "byteStride": 16,
      "name": "floatBufferViews",
      "target": 34962
    },
    {
      "buffer": 0,
      "byteLength": 1920,
      "byteOffset": 96648,
      "name": "floatBufferViews"
    }
  ],
  "buffers": [
    {
      "byteLength": 98568,
      "uri": "scene.bin"
    }
  ],
  "extensionsRequired": [
    "KHR_materials_pbrSpecularGlossiness"
  ],
  "extensionsUsed": [
    "KHR_materials_pbrSpecularGlossiness"
  ],
  "images": [
    {
      "uri": "textures/chicken_brown_diffuse.png"
    },
    {
      "uri": "textures/chicken_brown_specularGlossiness.png"
    },
    {
      "uri": "textures/chicken_brown_normal.png"
    }
  ],
  "materials": [
    {
      "doubleSided": true,
      "extensions": {
        "KHR_materials_pbrSpecularGlossiness": {
          "diffuseFactor": [
            1.0,
            1.0,
            1.0,
            1.0
          ],
          "diffuseTexture": {
            "index": 0
          },
          "glossinessFactor": 0.10702864035024488,
          "specularFactor": [
            0.05,
            0.05,
            0.05
          ],
          "specularGlossinessTexture": {
            "index": 1
          }
        }
      },
      "name": "chicken_brown",
      "normalTexture": {
        "index": 2
      }
    }
  ],
  "meshes": [
    {
      "name": "MESH_chicken_brown_1658_chicken_brown_0",
      "primitives": [
        {
          "attributes": {
            "JOINTS_0": 6,
            "NORMAL": 1,
            "POSITION": 0,
            "TANGENT": 2,
            "TEXCOORD_0": 3,
            "TEXCOORD_1": 3,
            "TEXCOORD_2": 3,
            "WEIGHTS_0": 7
          },
          "indices": 4,
          "material": 0,
          "mode": 4
        }
      ]
    }
  ],
  "nodes": [
    {
      "children": [
        1
      ],
      "matrix": [
        1.0,
        0.0,
        0.0,
        0.0,
        0.0,
        2.220446049250313e-16,
        -1.0,
        0.0,
        0.0,
        1.0,
        2.220446049250313e-16,
        0.0,
        0.0,
        0.0,
        0.0,
        1.0
      ],
      "name": "Sketchfab_model"
    },
    {
      "children": [
        2
      ],
      "matrix": [
        0.009999999776482582,
        0.0,
        0.0,
        0.0,
        0.0,
        0.0,
        0.009999999776482582,
        0.0,
        0.0,
        -0.009999999776482582,
        0.0,
        0.0,
        0.0,
        0.0,
        0.0,
        1.0
      ],
      "name": "Bird_Chicken_Brown_01.fbx"
    },
    {
      "children": [
        3
      ],
      "name": "RootNode"
    },
    {
      "children": [
        4,
        6,
        5
      ],
      "name": "Object_3"
    },
    {
      "children": [
        7
      ],
      "name": "_rootJoint"
    },
    {
      "matrix": [
        1.0,
        0.0,
        0.0,
        0.0,
        0.0,
        6.123233995736766e-17,
        -1.0,
        0.0,
        0.0,
        1.0000000000000002,
        6.123233995736767e-17,
        0.0,
        1.3552527156068805e-20,
        0.01929010078310967,
        8.43194848458751e-10,
        1.0
      ],
      "name": "Object_5"
    },
    {
      "mesh": 0,
      "name": "Object_6",
      "skin": 0
    },
    {
      "children": [
        8,
        36
      ],
      "name": "Bip01_00",
      "rotation": [
        -0.5000003576278687,
        -0.49999964237213135,
        -0.49999964237213135,
        0.5000003576278687
      ],
      "translation": [
        0.0,
        20.468957901000977,
        -4.19202995300293
      ]
    },
    {
      "children": [
        9
      ],
      "name": "chicken Pelvis_01",
      "rotation": [
        -0.5,
        -0.5,
        -0.4999993145465851,
        0.5000007152557373
      ]
    },
    {
      "children": [
        10,
        15,
        20,
        35
      ],
      "name": "chicken Spine_02",
      "rotation": [
        -2.0117809071962256e-06,
        -9.791571073947125e-07,
        0.6675010323524475,
        0.7446088790893555
      ],
      "translation": [
        1.5944099426269531,
        -0.00096893310546875,
        2.212469553342089e-06
      ]
    },
    {
      "children": [
        11
      ],
      "name": "chicken L Thigh_03",
      "rotation": [
        0.913705050945282,
        0.38560500741004944,
        0.10166694223880768,
        0.07820282131433487
      ],
      "scale": [
        1.0,
        1.0,
        0.9999999403953552
      ],
      "translation": [
        -0.17264270782470703,
        1.5850257873535156,
        4.0328850746154785
      ]
    },
    {
      "children": [
        12
      ],
      "name": "chicken L Calf_04",
      "rotation": [
        -9.445920349058458e-18,
        -1.016698609673012e-17,
        -0.6806502938270569,
        0.7326084971427917
      ],
      "scale": [
        0.9999999403953552,
        1.0,
        1.0
      ],
      "translation": [
        10.185142517089844,
        1.9073486328125e-06,
        -2.384185791015625e-07
      ]
    },
    {
      "children": [
        13,
        14
      ],
      "name": "chicken L Foot_05",
      "rotation": [
        0.05184914916753769,
        0.11370056867599487,
        -0.10960184782743454,
        0.9860888719558716
      ],
      "scale": [
        1.000000238418579,
        1.0000001192092896,
        1.000000238418579
      ],
      "translation": [
        9.34231185913086,
        4.76837158203125e-07,
        4.440892098500626e-16
      ]
    },
    {
      "name": "chicken L Toe0_06",
      "rotation": [
        0.9524039626121521,
        -0.27548113465309143,
        0.11911842226982117,
        0.05336536094546318
      ],
      "scale": [
        1.0000001192092896,
        1.000000238418579,
        1.0000001192092896
      ],
      "translation": [
        1.58559250831604,
        6.172469139099121,
        -0.022114992141723633
      ]
    },
    {
      "name": "chicken L Toe1_07",
      "rotation": [
        -0.08519665896892548,
        0.05247966945171356,
        0.907136082649231,
        0.4087683856487274
      ],
      "scale": [
        1.0000001192092896,
        1.0,
        1.000000238418579
      ],
      "translation": [
        1.5855919122695923,
        6.172469139099121,
        -0.008168220520019531
      ]
    },
    {
      "children": [
        16
      ],
      "name": "chicken R Thigh_08",
      "rotation": [
        0.9135830402374268,
        0.3858720660209656,
        -0.10166212916374207,
        -0.07831741869449615
      ],
      "scale": [
        1.0000001192092896,
        0.9999999403953552,
        1.0000001192092896
      ],
      "translation": [
        -0.17264270782470703,
        1.5850486755371094,
        -4.032876491546631
      ]
    },
    {
      "children": [
        17
      ],
      "name": "chicken R Calf_09",
      "rotation": [
        2.909377186700495e-17,
        1.0794326490735237e-17,
        -0.6830082535743713,
        0.7304106950759888
      ],
      "scale": [
        0.9999999403953552,
        1.0,
        1.0
      ],
      "translation": [
        10.185140609741211,
        9.5367431640625e-07,
        -2.384185791015625e-07
      ]
    },
    {
      "children": [
        18,
        19
      ],
      "name": "chicken R Foot_010",
      "rotation": [
        -0.05143135413527489,
        -0.1139647588133812,
        -0.10612953454256058,
        0.9864600300788879
      ],
      "scale": [
        1.0000001192092896,
        1.0,
        0.9999998211860657
      ],
      "translation": [
        9.342309951782227,
        -4.76837158203125e-07,
        4.76837158203125e-07
      ]
    },
    {
      "name": "chicken R Toe0_011",
      "rotation": [
        0.9524038434028625,
        -0.27548113465309143,
        -0.11911839991807938,
        -0.053365349769592285
      ],
      "scale": [
        1.0000001192092896,
        1.0000003576278687,
        1.0000001192092896
      ],
      "translation": [
        1.5855921506881714,
        6.1724700927734375,
        -0.009731531143188477
      ]
    },
    {
      "name": "chicken R Toe1_012",
      "rotation": [
        0.08941959589719772,
        -0.0550813227891922,
        0.9066700339317322,
        0.40855804085731506
      ],
      "scale": [
        1.000000238418579,
        1.0000007152557373,
        0.9999997019767761
      ],
      "translation": [
        1.5855929851531982,
        6.1724700927734375,
        -0.004156589508056641
      ]
    },
    {
      "children": [
        21,
        25,
        30
      ],
      "name": "chicken Neck_013",
      "rotation": [
        4.55699897033892e-14,
        9.512385190646455e-07,
        -0.3429616689682007,
        0.9393494129180908
      ],
      "translation": [
        8.978076934814453,
        4.212547302246094,
        7.683916919631884e-06
      ]
    },
    {
      "children": [
        22
      ],
      "name": "chicken Neck1_014",
      "rotation": [
        -4.256731889174491e-15,
        6.97145026151702e-07,
        -0.25135019421577454,
        0.9678962230682373
      ],
      "translation": [
        6.901481628417969,
        -0.004802703857421875,
        -1.3322278391569853e-08
      ]
    },
    {
      "children": [
        23
      ],
      "name": "chicken Neck2_015",
      "rotation": [
        -4.179166371688983e-14,
        -1.6059740914897702e-07,
        0.05790213495492935,
        0.9983223676681519
      ],
      "scale": [
        0.9999998807907104,
        0.9999998807907104,
        1.0
      ],
      "translation": [
        6.904787063598633,
        -0.005460262298583984,
        -1.51449057739228e-08
      ]
    },
    {
      "children": [
        24
      ],
      "name": "chicken Head_016",
      "rotation": [
        5.47545570082214e-13,
        -8.072628929767234e-07,
        0.2910516560077667,
        0.9567073583602905
      ],
      "translation": [
        6.9041595458984375,
        9.5367431640625e-07,
        -3.3881317890172014e-21
      ]
    },
    {
      "name": "chicken Mouth_017",
      "rotation": [
        7.501999238837542e-13,
        -1.0944320365524618e-06,
        0.3945896029472351,
        0.9188574552536011
      ],
      "translation": [
        2.0264816284179688,
        1.5249824523925781,
        1.2296877685002983e-06
      ]
    },
    {
      "children": [
        26
      ],
      "name": "chicken L Clavicle_018",
      "rotation": [
        0.5582636594772339,
        -0.14577582478523254,
        0.6774978637695313,
        -0.4561665654182434
      ],
      "scale": [
        0.9999999403953552,
        1.0,
        1.0
      ],
      "translation": [
        4.367120742797852,
        -1.8289756774902344,
        0.9354519248008728
      ]
    },
    {
      "children": [
        27
      ],
      "name": "chicken L UpperArm_019",
      "rotation": [
        -0.09619473665952682,
        0.6280102133750916,
        -0.36932510137557983,
        0.6781951785087585
      ],
      "scale": [
        0.9999999403953552,
        1.0000001192092896,
        0.9999999403953552
      ],
      "translation": [
        4.071108818054199,
        1.9073486328125e-06,
        -3.552713678800501e-15
      ]
    },
    {
      "children": [
        28
      ],
      "name": "chicken L Forearm_020",
      "rotation": [
        5.115108222249082e-17,
        2.5644655360146665e-17,
        -0.7585530877113342,
        0.6516112089157104
      ],
      "scale": [
        0.9999998807907104,
        1.0000001192092896,
        1.0
      ],
      "translation": [
        4.923614501953125,
        -8.881784197001252e-16,
        0.0
      ]
    },
    {
      "children": [
        29
      ],
      "name": "chicken L Hand_021",
      "rotation": [
        -0.03651949018239975,
        0.02372995764017105,
        0.7365661859512329,
        0.6749618649482727
      ],
      "scale": [
        0.9999999403953552,
        1.0,
        1.0000001192092896
      ],
      "translation": [
        5.820907115936279,
        0.0,
        0.0
      ]
    },
    {
      "name": "chicken L Finger0_022",
      "rotation": [
        -0.07506129890680313,
        0.12100794166326523,
        0.5177459716796875,
        0.8436007499694824
      ],
      "scale": [
        1.0000003576278687,
        1.0,
        0.9999997615814209
      ],
      "translation": [
        3.7906618118286133,
        4.76837158203125e-07,
        1.7763568394002505e-15
      ]
    },
    {
      "children": [
        31
      ],
      "name": "chicken R Clavicle_023",
      "rotation": [
        -0.5582647919654846,
        0.1457740068435669,
        0.6774982213973999,
        -0.4561649560928345
      ],
      "scale": [
        1.0,
        1.0,
        1.0000001192092896
      ],
      "translation": [
        4.367120742797852,
        -1.8289709091186523,
        -0.9354540705680847
      ]
    },
    {
      "children": [
        32
      ],
      "name": "chicken R UpperArm_024",
      "rotation": [
        0.09619476646184921,
        -0.6280102133750916,
        -0.36932507157325745,
        0.6781951785087585
      ],
      "scale": [
        0.9999999403953552,
        1.0000001192092896,
        1.0
      ],
      "translation": [
        4.071109771728516,
        9.5367431640625e-07,
        0.0
      ]
    },
    {
      "children": [
        33
      ],
      "name": "chicken R Forearm_025",
      "rotation": [
        5.115108222249082e-17,
        2.564465701450789e-17,
        -0.7585530877113342,
        0.6516112089157104
      ],
      "scale": [
        0.9999998807907104,
        1.0000001192092896,
        1.0
      ],
      "translation": [
        4.923616409301758,
        1.7763568394002505e-15,
        -9.5367431640625e-07
      ]
    },
    {
      "children": [
        34
      ],
      "name": "chicken R Hand_026",
      "rotation": [
        0.036519501358270645,
        -0.023729944601655006,
        0.7365661859512329,
        0.6749618649482727
      ],
      "scale": [
        0.9999999403953552,
        0.9999999403953552,
        1.0000001192092896
      ],
      "translation": [
        5.8209075927734375,
        -1.9073486328125e-06,
        0.0
      ]
    },
    {
      "name": "chicken R Finger0_027",
      "rotation": [
        0.07506128400564194,
        -0.12100792676210403,
        0.5177459716796875,
        0.8436007499694824
      ],
      "scale": [
        1.000000238418579,
        0.9999999403953552,
        0.9999999403953552
      ],
      "translation": [
        3.790663719177246,
        -1.7763568394002505e-15,
        0.0
      ]
    },
    {
      "name": "chicken Tail_028",
      "rotation": [
        3.3917428936547367e-06,
        -4.701033503806684e-06,
        0.9109295606613159,
        -0.41256192326545715
      ],
      "scale": [
        1.0000001192092896,
        1.0000001192092896,
        1.0
      ],
      "translation": [
        -5.135711669921875,
        -1.2677421569824219,
        5.583751772064716e-07
      ]
    },
    {
      "matrix": [
        1.370906829722962e-06,
        0.9999999999990603,
        1.1754943508211832e-38,
        0.0,
        -0.9999999999990603,
        1.370906829722962e-06,
        -6.525304467998525e-55,
        0.0,
        -1.6114932339735396e-44,
        -1.1754943508200786e-38,
        1.0,
        0.0,
        0.0,
        -8.470329472543003e-22,
        -15.657992362976074,
        1.0
      ],
      "name": "chicken Footsteps"
    }
  ],
  "samplers": [
    {
      "magFilter": 9729,
      "minFilter": 9987,
      "wrapS": 10497,
      "wrapT": 10497
    }
  ],
  "scene": 0,
  "scenes": [
    {
      "name": "Sketchfab_Scene",
      "nodes": [
        0
      ]
    }
  ],
  "skins": [
    {
      "inverseBindMatrices": 5,
      "joints": [
        4,
        7,
        8,
        9,
        10,
        11,
        12,
        13,
        14,
        15,
        16,
        17,
        18,
        19,
        20,
        21,
        22,
        23,
        24,
        25,
        26,
        27,
        28,
        29,
        30,
        31,
        32,
        33,
        34,
        35
      ],
      "skeleton": 4
    }
  ],
  "textures": [
    {
      "sampler": 0,
      "source": 0
    },
    {
      "sampler": 0,
      "source": 1
    },
    {
      "sampler": 0,
      "source": 2
    }
  ]
}
