{
  "accessors": [
    {
      "bufferView": 2,
      "componentType": 5126,
      "count": 1426,
      "max": [
        2.6907200813293457,
        0.7019878029823303,
        2.960862874984741
      ],
      "min": [
        -2.6907200813293457,
        -1.5756362676620483,
        0.02255461923778057
      ],
      "type": "VEC3"
    },
    {
      "bufferView": 2,
      "byteOffset": 17112,
      "componentType": 5126,
      "count": 1426,
      "max": [
        0.9999939203262329,
        0.9998739957809448,
        0.9999681711196899
      ],
      "min": [
        -0.9999938607215881,
        -0.9997832775115967,
        -0.9999377727508545
      ],
      "type": "VEC3"
    },
    {
      "bufferView": 1,
      "componentType": 5126,
      "count": 1426,
      "max": [
        0.4726780652999878,
        0.9687451720237732
      ],
      "min": [
        0.015603262931108475,
        0.5190392136573792
      ],
      "type": "VEC2"
    },
    {
      "bufferView": 1,
      "byteOffset": 11408,
      "componentType": 5126,
      "count": 1426,
      "max": [
        0.4726780652999878,
        0.9687451720237732
      ],
      "min": [
        0.015603262931108475,
        0.5190392136573792
      ],
      "type": "VEC2"
    },
    {
      "bufferView": 0,
      "componentType": 5125,
      "count": 5064,
      "type": "SCALAR"
    },
    {
      "bufferView": 2,
      "byteOffset": 34224,
      "componentType": 5126,
      "count": 144,
      "max": [
        3.1187527179718018,
        0.6978598833084106,
        3.149263381958008
      ],
      "min": [
        -3.118753671646118,
        -1.5576436519622803,
        1.3955552577972412
      ],
      "type": "VEC3"
    },
    {
      "bufferView": 2,
      "byteOffset": 35952,
      "componentType": 5126,
      "count": 144,
      "max": [
        1.0,
        1.0,
        1.0
      ],
      "min": [
        -1.0,
        -1.0,
        -1.0
      ],
      "type": "VEC3"
    },
    {
      "bufferView": 1,
      "byteOffset": 22816,
      "componentType": 5126,
      "count": 144,
      "max": [
        0.9914548397064209,
        0.4817332625389099
      ],
      "min": [
        0.5077083706855774,
        0.003860699012875557
      ],
      "type": "VEC2"
    },
    {
      "bufferView": 1,
      "byteOffset": 23968,
      "componentType": 5126,
      "count": 144,
      "max": [
        0.9914548397064209,
        0.4817332625389099
      ],
      "min": [
        0.5077083706855774,
        0.003860699012875557
      ],
      "type": "VEC2"
    },
    {
      "bufferView": 0,
      "byteOffset": 20256,
      "componentType": 5125,
      "count": 216,
      "type": "SCALAR"
    },
    {
      "bufferView": 2,
      "byteOffset": 37680,
      "componentType": 5126,
      "count": 24,
      "max": [
        1.0,
        1.0,
        1.0
      ],
      "min": [
        -1.0,
        -1.0,
        -1.0
      ],
      "type": "VEC3"
    },
    {
      "bufferView": 2,
      "byteOffset": 37968,
      "componentType": 5126,
      "count": 24,
      "max": [
        1.0,
        1.0,
        1.0
      ],
      "min": [
        -1.0,
        -1.0,
        -1.0
      ],
      "type": "VEC3"
    },
    {
      "bufferView": 1,
      "byteOffset": 25120,
      "componentType": 5126,
      "count": 24,
      "max": [
        0.875,
        1.0
      ],
      "min": [
        0.125,
        0.0
      ],
      "type": "VEC2"
    },
    {
      "bufferView": 0,
      "byteOffset": 21120,
      "componentType": 5125,
      "count": 36,
      "type": "SCALAR"
    },
    {
      "bufferView": 2,
      "byteOffset": 38256,
      "componentType": 5126,
      "count": 24,
      "max": [
        1.0,
        1.0,
        1.0
      ],
      "min": [
        -1.0,
        -1.0,
        -1.0
      ],
      "type": "VEC3"
    },
    {
      "bufferView": 2,
      "byteOffset": 38544,
      "componentType": 5126,
      "count": 24,
      "max": [
        1.0,
        1.0,
        1.0
      ],
      "min": [
        -1.0,
        -1.0,
        -1.0
      ],
      "type": "VEC3"
    },
    {
      "bufferView": 1,
      "byteOffset": 25312,
      "componentType": 5126,
      "count": 24,
      "max": [
        0.875,
        1.0
      ],
      "min": [
        0.125,
        0.0
      ],
      "type": "VEC2"
    },
    {
      "bufferView": 0,
      "byteOffset": 21264,
      "componentType": 5125,
      "count": 36,
      "type": "SCALAR"
    },
    {
      "bufferView": 2,
      "byteOffset": 38832,
      "componentType": 5126,
      "count": 24,
      "max": [
        -25.128355026245117,
        0.1706984043121338,
        -0.018422245979309082
      ],
      "min": [
        -27.128355026245117,
        -1.8293015956878662,
        -2.0184221267700195
      ],
      "type": "VEC3"
    },
    {
      "bufferView": 2,
      "byteOffset": 39120,
      "componentType": 5126,
      "count": 24,
      "max": [
        1.0,
        1.0,
        1.0
      ],
      "min": [
        -1.0,
        -1.0,
        -1.0
      ],
      "type": "VEC3"
    },
    {
      "bufferView": 1,
      "byteOffset": 25504,
      "componentType": 5126,
      "count": 24,
      "max": [
        0.875,
        1.0
      ],
      "min": [
        0.125,
        0.0
      ],
      "type": "VEC2"
    },
    {
      "bufferView": 0,
      "byteOffset": 21408,
      "componentType": 5125,
      "count": 36,
      "type": "SCALAR"
    },
    {
      "bufferView": 2,
      "byteOffset": 39408,
      "componentType": 5126,
      "count": 24,
      "max": [
        27.128355026245117,
        0.1706984043121338,
        -0.018422245979309082
      ],
      "min": [
        25.128355026245117,
        -1.8293015956878662,
        -2.0184221267700195
      ],
      "type": "VEC3"
    },
    {
      "bufferView": 2,
      "byteOffset": 39696,
      "componentType": 5126,
      "count": 24,
      "max": [
        1.0,
        1.0,
        1.0
      ],
      "min": [
        -1.0,
        -1.0,
        -1.0
      ],
      "type": "VEC3"
    },
    {
      "bufferView": 1,
      "byteOffset": 25696,
      "componentType": 5126,
      "count": 24,
      "max": [
        0.875,
        1.0
      ],
      "min": [
        0.125,
        0.0
      ],
      "type": "VEC2"
    },
    {
      "bufferView": 0,
      "byteOffset": 21552,
      "componentType": 5125,
      "count": 36,
      "type": "SCALAR"
    }
  ],
  "asset": {
    "extras": {
      "author": "BakaFoxAssets (https://sketchfab.com/BakaFoxAssets)",
      "license": "SKETCHFAB Standard (https://sketchfab.com/licenses)",
      "source": "https://sketchfab.com/3d-models/wooden-bench-cbba078d0dba47d89023c677a05b4c4d",
      "title": "Wooden bench"
    },
    "generator": "Sketchfab-17.15.0",
    "version": "2.0"
  },
  "bufferViews": [
    {
      "buffer": 0,
      "byteLength": 21696,
      "name": "floatBufferViews",
      "target": 34963
    },
    {
      "buffer": 0,
      "byteLength": 25888,
      "byteOffset": 21696,
      "byteStride": 8,
      "name": "floatBufferViews",
      "target": 34962
    },
    {
      "buffer": 0,
      "byteLength": 39984,
      "byteOffset": 47584,
      "byteStride": 12,
      "name": "floatBufferViews",
      "target": 34962
    }
  ],
  "buffers": [
    {
      "byteLength": 87568,
      "uri": "scene.bin"
    }
  ],
  "images": [
    {
      "uri": "textures/Material.001_baseColor.png"
    },
    {
      "uri": "textures/Material.002_metallicRoughness.png"
    }
  ],
  "materials": [
    {
      "doubleSided": true,
      "name": "Material.001",
      "pbrMetallicRoughness": {
        "baseColorTexture": {
          "index": 0
        },
        "metallicFactor": 0.0,
        "roughnessFactor": 0.8211145618000169
      }
    },
    {
      "doubleSided": true,
      "name": "Material",
      "pbrMetallicRoughness": {
        "baseColorTexture": {
          "index": 0
        },
        "metallicFactor": 0.0,
        "roughnessFactor": 0.8211145618000169
      }
    },
    {
      "alphaMode": "BLEND",
      "doubleSided": true,
      "name": "Material.002",
      "pbrMetallicRoughness": {
        "baseColorFactor": [
          0.8,
          0.8,
          0.8,
          0.0
        ],
        "metallicRoughnessTexture": {
          "index": 1
        }
      }
    },
    {
      "alphaMode": "BLEND",
      "doubleSided": true,
      "name": "Material.003",
      "pbrMetallicRoughness": {
        "baseColorFactor": [
          0.8,
          0.8,
          0.8,
          0.0
        ],
        "metallicRoughnessTexture": {
          "index": 1
        }
      }
    }
  ],
  "meshes": [
    {
      "name": "HighDetailedBench_Material.001_0",
      "primitives": [
        {
          "attributes": {
            "NORMAL": 1,
            "POSITION": 0,
            "TEXCOORD_0": 2,
            "TEXCOORD_1": 3
          },
          "indices": 4,
          "material": 0,
          "mode": 4
        }
      ]
    },
    {
      "name": "HighDetailedBench_Material_0",
      "primitives": [
        {
          "attributes": {
            "NORMAL": 6,
            "POSITION": 5,
            "TEXCOORD_0": 7,
            "TEXCOORD_1": 8
          },
          "indices": 9,
          "material": 1,
          "mode": 4
        }
      ]
    },
    {
      "name": "UCX_HighDetailedBench_00_Material.002_0",
      "primitives": [
        {
          "attributes": {
            "NORMAL": 11,
            "POSITION": 10,
            "TEXCOORD_0": 12
          },
          "indices": 13,
          "material": 2,
          "mode": 4
        }
      ]
    },
    {
      "name": "UCX_HighDetailedBench_01_Material.002_0",
      "primitives": [
        {
          "attributes": {
            "NORMAL": 15,
            "POSITION": 14,
            "TEXCOORD_0": 16
          },
          "indices": 17,
          "material": 2,
          "mode": 4
        }
      ]
    },
    {
      "name": "UCX_HighDetailedBench_02_Material.003_0",
      "primitives": [
        {
          "attributes": {
            "NORMAL": 19,
            "POSITION": 18,
            "TEXCOORD_0": 20
          },
          "indices": 21,
          "material": 3,
          "mode": 4
        }
      ]
    },
    {
      "name": "UCX_HighDetailedBench_03_Material.003_0",
      "primitives": [
        {
          "attributes": {
            "NORMAL": 23,
            "POSITION": 22,
            "TEXCOORD_0": 24
          },
          "indices": 25,
          "material": 3,
          "mode": 4
        }
      ]
    }
  ],
  "nodes": [
    {
      "children": [
        1
      ],
      "matrix": [
        1.0,
        0.0,
        0.0,
        0.0,
        0.0,
        2.220446049250313e-16,
        -1.0,
        0.0,
        0.0,
        1.0,
        2.220446049250313e-16,
        0.0,
        0.0,
        0.0,
        0.0,
        1.0
      ],
      "name": "Sketchfab_model"
    },
    {
      "children": [
        2
      ],
      "matrix": [
        0.009999999776482582,
        0.0,
        0.0,
        0.0,
        0.0,
        0.0,
        0.009999999776482582,
        0.0,
        0.0,
        -0.009999999776482582,
        0.0,
        0.0,
        0.0,
        0.0,
        0.0,
        1.0
      ],
      "name": "HighDetailedBench.fbx"
    },
    {
      "children": [
        3,
        6,
        8,
        10,
        12
      ],
      "name": "RootNode"
    },
    {
      "children": [
        4,
        5
      ],
      "matrix": [
        100.0,
        0.0,
        0.0,
        0.0,
        0.0,
        -1.629206793918314e-05,
        -99.99999999999868,
        0.0,
        0.0,
        99.99999999999868,
        -1.629206793918314e-05,
        0.0,
        2.384185791015625e-05,
        0.0,
        2.9802322387695313e-06,
        1.0
      ],
      "name": "HighDetailedBench"
    },
    {
      "mesh": 0,
      "name": "HighDetailedBench_Material.001_0"
    },
    {
      "mesh": 1,
      "name": "HighDetailedBench_Material_0"
    },
    {
      "children": [
        7
      ],
      "matrix": [
        311.2129821777344,
        -1.979052706238443e-15,
        -2.834608419621285e-17,
        0.0,
        7.167025405169332e-18,
        2.253701441215673,
        -78.66069158515086,
        0.0,
        6.807191249960726e-17,
        10.700156081822204,
        0.3065693511826133,
        0.0,
        0.0,
        150.90882873535156,
        79.32868957519531,
        1.0
      ],
      "name": "UCX_HighDetailedBench_00"
    },
    {
      "mesh": 2,
      "name": "UCX_HighDetailedBench_00_Material.002_0"
    },
    {
      "children": [
        9
      ],
      "matrix": [
        311.2129821777344,
        2.2533128335478288e-14,
        -3.777015967285232e-15,
        0.0,
        1.7622306238990512e-16,
        -4.73472366857959,
        -13.72650572074213,
        0.0,
        -5.75148276223165e-15,
        75.0939837639187,
        -25.902386924130777,
        0.0,
        3.5447559356689453,
        238.24139404296875,
        -39.308441162109375,
        1.0
      ],
      "name": "UCX_HighDetailedBench_01"
    },
    {
      "mesh": 3,
      "name": "UCX_HighDetailedBench_01_Material.002_0"
    },
    {
      "children": [
        11
      ],
      "matrix": [
        10.033959388732873,
        8.771966222091436e-07,
        -0.0,
        -0.0,
        -5.694577005773827e-13,
        6.513836582103285e-06,
        -86.278381347656,
        -0.0,
        6.2826759019238865e-06,
        -71.86543273925733,
        -5.4256892255662455e-06,
        -0.0,
        2.384185791015625e-05,
        0.0,
        -5.9604644775390625e-06,
        1.0
      ],
      "name": "UCX_HighDetailedBench_02"
    },
    {
      "mesh": 4,
      "name": "UCX_HighDetailedBench_02_Material.003_0"
    },
    {
      "children": [
        13
      ],
      "matrix": [
        10.033959388732873,
        8.771966222091436e-07,
        -0.0,
        -0.0,
        -5.694577005773827e-13,
        6.513836582103285e-06,
        -86.278381347656,
        -0.0,
        6.2826759019238865e-06,
        -71.86543273925733,
        -5.4256892255662455e-06,
        -0.0,
        2.384185791015625e-05,
        0.0,
        -5.9604644775390625e-06,
        1.0
      ],
      "name": "UCX_HighDetailedBench_03"
    },
    {
      "mesh": 5,
      "name": "UCX_HighDetailedBench_03_Material.003_0"
    }
  ],
  "samplers": [
    {
      "magFilter": 9729,
      "minFilter": 9987,
      "wrapS": 10497,
      "wrapT": 10497
    }
  ],
  "scene": 0,
  "scenes": [
    {
      "name": "Sketchfab_Scene",
      "nodes": [
        0
      ]
    }
  ],
  "textures": [
    {
      "sampler": 0,
      "source": 0
    },
    {
      "sampler": 0,
      "source": 1
    }
  ]
}
