{
  "accessors": [
    {
      "bufferView": 2,
      "componentType": 5126,
      "count": 4475,
      "max": [
        1.419469952583313,
        1.100950002670288,
        0.4013200104236603
      ],
      "min": [
        -1.5239700078964233,
        -1.2957299947738647,
        -0.014999999664723873
      ],
      "type": "VEC3"
    },
    {
      "bufferView": 2,
      "byteOffset": 53700,
      "componentType": 5126,
      "count": 4475,
      "max": [
        1.0,
        1.0,
        1.0
      ],
      "min": [
        -1.0,
        -1.0,
        -1.0
      ],
      "type": "VEC3"
    },
    {
      "bufferView": 3,
      "componentType": 5126,
      "count": 4475,
      "max": [
        1.0,
        1.0,
        1.0,
        1.0
      ],
      "min": [
        -1.0,
        -1.0,
        -1.0,
        -1.0
      ],
      "type": "VEC4"
    },
    {
      "bufferView": 1,
      "componentType": 5126,
      "count": 4475,
      "max": [
        1.0058599710464478,
        0.9995800256729126
      ],
      "min": [
        -0.0009800000116229057,
        0.0
      ],
      "type": "VEC2"
    },
    {
      "bufferView": 0,
      "componentType": 5125,
      "count": 11697,
      "type": "SCALAR"
    },
    {
      "bufferView": 2,
      "byteOffset": 107400,
      "componentType": 5126,
      "count": 116,
      "max": [
        0.5808299779891968,
        -0.06755000352859497,
        0.15463000535964966
      ],
      "min": [
        0.39482998847961426,
        -0.07254999876022339,
        -0.0
      ],
      "type": "VEC3"
    },
    {
      "bufferView": 2,
      "byteOffset": 108792,
      "componentType": 5126,
      "count": 116,
      "max": [
        1.0,
        1.0,
        1.0
      ],
      "min": [
        -1.0,
        -1.0,
        -1.0
      ],
      "type": "VEC3"
    },
    {
      "bufferView": 1,
      "byteOffset": 35800,
      "componentType": 5126,
      "count": 116,
      "max": [
        0.5120300054550171,
        0.12789000570774078
      ],
      "min": [
        0.0,
        0.0
      ],
      "type": "VEC2"
    },
    {
      "bufferView": 0,
      "byteOffset": 46788,
      "componentType": 5125,
      "count": 216,
      "type": "SCALAR"
    },
    {
      "bufferView": 2,
      "byteOffset": 110184,
      "componentType": 5126,
      "count": 34,
      "max": [
        0.9040799736976624,
        -0.08150999993085861,
        -0.007499999832361937
      ],
      "min": [
        -0.7451099753379822,
        -1.2186199426651,
        -0.007499999832361937
      ],
      "type": "VEC3"
    },
    {
      "bufferView": 2,
      "byteOffset": 110592,
      "componentType": 5126,
      "count": 34,
      "max": [
        0.0,
        0.6839606761932373,
        1.0
      ],
      "min": [
        -0.7204940319061279,
        0.0,
        0.5773903131484985
      ],
      "type": "VEC3"
    },
    {
      "bufferView": 1,
      "byteOffset": 36728,
      "componentType": 5126,
      "count": 34,
      "max": [
        0.8014799952507019,
        1.0
      ],
      "min": [
        0.3156299889087677,
        0.7650499939918518
      ],
      "type": "VEC2"
    },
    {
      "bufferView": 0,
      "byteOffset": 47652,
      "componentType": 5125,
      "count": 72,
      "type": "SCALAR"
    },
    {
      "bufferView": 2,
      "byteOffset": 111000,
      "componentType": 5126,
      "count": 4,
      "max": [
        1.1528700590133667,
        1.0,
        0.0
      ],
      "min": [
        -1.1835600137710571,
        -1.0,
        0.0
      ],
      "type": "VEC3"
    },
    {
      "bufferView": 2,
      "byteOffset": 111048,
      "componentType": 5126,
      "count": 4,
      "max": [
        0.0,
        0.0,
        1.0
      ],
      "min": [
        0.0,
        0.0,
        1.0
      ],
      "type": "VEC3"
    },
    {
      "bufferView": 1,
      "byteOffset": 37000,
      "componentType": 5126,
      "count": 4,
      "max": [
        0.0,
        0.0
      ],
      "min": [
        0.0,
        0.0
      ],
      "type": "VEC2"
    },
    {
      "bufferView": 0,
      "byteOffset": 47940,
      "componentType": 5125,
      "count": 6,
      "type": "SCALAR"
    },
    {
      "bufferView": 2,
      "byteOffset": 111096,
      "componentType": 5126,
      "count": 400,
      "max": [
        1.0,
        5.074999809265137,
        0.13750000298023224
      ],
      "min": [
        -1.0,
        0.0,
        -0.13750000298023224
      ],
      "type": "VEC3"
    },
    {
      "bufferView": 2,
      "byteOffset": 115896,
      "componentType": 5126,
      "count": 400,
      "max": [
        1.0,
        0.940312922000885,
        1.0
      ],
      "min": [
        -1.0,
        -0.940312922000885,
        -1.0
      ],
      "type": "VEC3"
    },
    {
      "bufferView": 3,
      "byteOffset": 71600,
      "componentType": 5126,
      "count": 400,
      "max": [
        1.0,
        0.9988805055618286,
        0.9434035420417786,
        1.0
      ],
      "min": [
        -1.0,
        -1.0,
        -0.9434035420417786,
        -1.0
      ],
      "type": "VEC4"
    },
    {
      "bufferView": 1,
      "byteOffset": 37032,
      "componentType": 5126,
      "count": 400,
      "max": [
        0.9999499917030334,
        0.9963099956512451
      ],
      "min": [
        0.0009800000116229057,
        3.9999998989515007e-05
      ],
      "type": "VEC2"
    },
    {
      "bufferView": 0,
      "byteOffset": 47964,
      "componentType": 5125,
      "count": 1260,
      "type": "SCALAR"
    }
  ],
  "asset": {
    "extras": {
      "author": "Jotrain Models (https://sketchfab.com/Jotrain)",
      "license": "SKETCHFAB Standard (https://sketchfab.com/licenses)",
      "source": "https://sketchfab.com/3d-models/hungry-jacks-restaurant-low-poly-690889caa5814304bba1a76e04eb3dc7",
      "title": "Hungry Jack's Restaurant (low Poly)"
    },
    "generator": "Sketchfab-16.72.0",
    "version": "2.0"
  },
  "bufferViews": [
    {
      "buffer": 0,
      "byteLength": 53004,
      "name": "floatBufferViews",
      "target": 34963
    },
    {
      "buffer": 0,
      "byteLength": 40232,
      "byteOffset": 53004,
      "byteStride": 8,
      "name": "floatBufferViews",
      "target": 34962
    },
    {
      "buffer": 0,
      "byteLength": 120696,
      "byteOffset": 93236,
      "byteStride": 12,
      "name": "floatBufferViews",
      "target": 34962
    },
    {
      "buffer": 0,
      "byteLength": 78000,
      "byteOffset": 213932,
      "byteStride": 16,
      "name": "floatBufferViews",
      "target": 34962
    }
  ],
  "buffers": [
    {
      "byteLength": 291932,
      "uri": "scene.bin"
    }
  ],
  "extensionsUsed": [
    "KHR_materials_clearcoat",
    "KHR_materials_specular"
  ],
  "images": [
    {
      "uri": "textures/Material.010_baseColor.png"
    },
    {
      "uri": "textures/Material.010_normal.png"
    },
    {
      "uri": "textures/Material.010_clearcoat.png"
    },
    {
      "uri": "textures/Material.010_clearcoat_normal.png"
    },
    {
      "uri": "textures/Material.004_baseColor.png"
    },
    {
      "uri": "textures/Material_baseColor.png"
    },
    {
      "uri": "textures/Material_metallicRoughness.png"
    },
    {
      "uri": "textures/Material_normal.png"
    }
  ],
  "materials": [
    {
      "doubleSided": true,
      "extensions": {
        "KHR_materials_clearcoat": {
          "clearcoatFactor": 1.0,
          "clearcoatNormalTexture": {
            "index": 3,
            "scale": 0.0
          },
          "clearcoatRoughnessFactor": 0.0,
          "clearcoatTexture": {
            "index": 2
          }
        },
        "KHR_materials_specular": {
          "specularColorFactor": [
            1.0,
            1.0,
            1.0
          ],
          "specularFactor": 0.0455625057220459
        }
      },
      "name": "Material.010",
      "normalTexture": {
        "index": 1
      },
      "pbrMetallicRoughness": {
        "baseColorTexture": {
          "index": 0
        },
        "metallicFactor": 0.0,
        "roughnessFactor": 0.0
      }
    },
    {
      "doubleSided": true,
      "extensions": {
        "KHR_materials_specular": {
          "specularColorFactor": [
            1.0,
            1.0,
            1.0
          ],
          "specularFactor": 0.0
        }
      },
      "name": "Material.004",
      "pbrMetallicRoughness": {
        "baseColorTexture": {
          "index": 4
        },
        "metallicFactor": 0.0,
        "roughnessFactor": 0.0
      }
    },
    {
      "doubleSided": true,
      "extensions": {
        "KHR_materials_specular": {
          "specularColorFactor": [
            1.0,
            1.0,
            1.0
          ],
          "specularFactor": 0.6518125057220459
        }
      },
      "name": "Material",
      "normalTexture": {
        "index": 7
      },
      "pbrMetallicRoughness": {
        "baseColorTexture": {
          "index": 5
        },
        "metallicFactor": 0.2330625057220459,
        "metallicRoughnessTexture": {
          "index": 6
        }
      }
    },
    {
      "doubleSided": true,
      "extensions": {
        "KHR_materials_specular": {
          "specularColorFactor": [
            1.0,
            1.0,
            1.0
          ],
          "specularFactor": 0.0330625057220459
        }
      },
      "name": "Material.002",
      "pbrMetallicRoughness": {
        "baseColorTexture": {
          "index": 5
        },
        "metallicFactor": 0.3705625057220459,
        "roughnessFactor": 0.0
      }
    },
    {
      "doubleSided": true,
      "extensions": {
        "KHR_materials_specular": {
          "specularColorFactor": [
            1.0,
            1.0,
            1.0
          ],
          "specularFactor": 0.0
        }
      },
      "name": "Material.005",
      "pbrMetallicRoughness": {
        "baseColorTexture": {
          "index": 5
        },
        "metallicFactor": 0.0,
        "roughnessFactor": 0.0
      }
    }
  ],
  "meshes": [
    {
      "name": "Plane.003_0",
      "primitives": [
        {
          "attributes": {
            "NORMAL": 1,
            "POSITION": 0,
            "TANGENT": 2,
            "TEXCOORD_0": 3
          },
          "indices": 4,
          "material": 2,
          "mode": 4
        }
      ]
    },
    {
      "name": "Plane.003_1",
      "primitives": [
        {
          "attributes": {
            "NORMAL": 6,
            "POSITION": 5,
            "TEXCOORD_0": 7
          },
          "indices": 8,
          "material": 3,
          "mode": 4
        }
      ]
    },
    {
      "name": "Plane.003_2",
      "primitives": [
        {
          "attributes": {
            "NORMAL": 10,
            "POSITION": 9,
            "TEXCOORD_0": 11
          },
          "indices": 12,
          "material": 4,
          "mode": 4
        }
      ]
    },
    {
      "name": "Plane_0",
      "primitives": [
        {
          "attributes": {
            "NORMAL": 14,
            "POSITION": 13,
            "TEXCOORD_0": 15
          },
          "indices": 16,
          "material": 1,
          "mode": 4
        }
      ]
    },
    {
      "name": "Plane.001_0",
      "primitives": [
        {
          "attributes": {
            "NORMAL": 18,
            "POSITION": 17,
            "TANGENT": 19,
            "TEXCOORD_0": 20
          },
          "indices": 21,
          "material": 0,
          "mode": 4
        }
      ]
    }
  ],
  "nodes": [
    {
      "children": [
        1
      ],
      "matrix": [
        8.869462966918945,
        0.0,
        0.0,
        0.0,
        0.0,
        1.9694164003867132e-15,
        -8.869462966918945,
        0.0,
        0.0,
        8.869462966918945,
        1.9694164003867132e-15,
        0.0,
        0.0,
        0.0,
        0.0,
        1.0
      ],
      "name": "Sketchfab_model"
    },
    {
      "children": [
        2,
        4,
        8,
        10
      ],
      "name": "Root"
    },
    {
      "children": [
        3
      ],
      "matrix": [
        0.8122,
        -0.5807700000000001,
        -0.05519000000000001,
        0.0,
        0.49011000000000005,
        0.6279700000000001,
        0.6045200000000001,
        0.0,
        -0.31643000000000004,
        -0.5180400000000001,
        0.7946700000000001,
        0.0,
        -3.1039600000000003,
        -3.04361,
        2.8242399999999996,
        1.0
      ],
      "name": "Lamp"
    },
    {
      "name": "Lamp"
    },
    {
      "children": [
        5,
        6,
        7
      ],
      "matrix": [
        2.0,
        0.0,
        0.0,
        0.0,
        0.0,
        2.0,
        -0.0,
        0.0,
        0.0,
        0.0,
        2.0,
        0.0,
        0.0,
        0.0,
        0.0,
        1.0
      ],
      "name": "Plane.003"
    },
    {
      "mesh": 0,
      "name": "Plane.003_0"
    },
    {
      "mesh": 1,
      "name": "Plane.003_1"
    },
    {
      "mesh": 2,
      "name": "Plane.003_2"
    },
    {
      "children": [
        9
      ],
      "matrix": [
        2.6,
        0.0,
        0.0,
        0.0,
        0.0,
        2.6,
        0.0,
        0.0,
        0.0,
        0.0,
        2.6,
        0.0,
        0.0,
        0.0,
        -0.016000000000000004,
        1.0
      ],
      "name": "Plane"
    },
    {
      "mesh": 3,
      "name": "Plane_0"
    },
    {
      "children": [
        11
      ],
      "matrix": [
        0.0,
        0.30000000000000004,
        0.0,
        0.0,
        0.0,
        -0.0,
        0.30000000000000004,
        0.0,
        0.30000000000000004,
        -0.0,
        -0.0,
        0.0,
        -1.74892,
        -2.09304,
        -0.0,
        1.0
      ],
      "name": "Plane.001"
    },
    {
      "mesh": 4,
      "name": "Plane.001_0"
    }
  ],
  "samplers": [
    {
      "magFilter": 9729,
      "minFilter": 9987,
      "wrapS": 10497,
      "wrapT": 10497
    }
  ],
  "scene": 0,
  "scenes": [
    {
      "name": "Sketchfab_Scene",
      "nodes": [
        0
      ]
    }
  ],
  "textures": [
    {
      "sampler": 0,
      "source": 0
    },
    {
      "sampler": 0,
      "source": 1
    },
    {
      "sampler": 0,
      "source": 2
    },
    {
      "sampler": 0,
      "source": 3
    },
    {
      "sampler": 0,
      "source": 4
    },
    {
      "sampler": 0,
      "source": 5
    },
    {
      "sampler": 0,
      "source": 6
    },
    {
      "sampler": 0,
      "source": 7
    }
  ]
}
