{
  "accessors": [
    {
      "bufferView": 2,
      "componentType": 5126,
      "count": 998,
      "max": [
        0.1159244030714035,
        0.07595434784889221,
        0.5263671875
      ],
      "min": [
        -0.13187870383262634,
        -0.07379888743162155,
        0.2675780951976776
      ],
      "type": "VEC3"
    },
    {
      "bufferView": 2,
      "byteOffset": 11976,
      "componentType": 5126,
      "count": 998,
      "max": [
        0.9947885870933533,
        0.998852014541626,
        1.0
      ],
      "min": [
        -0.9990742802619934,
        -0.9991596937179565,
        -1.0
      ],
      "type": "VEC3"
    },
    {
      "bufferView": 1,
      "componentType": 5126,
      "count": 998,
      "max": [
        0.9907531142234802,
        0.9830167293548584
      ],
      "min": [
        0.03624017909169197,
        0.016952749341726303
      ],
      "type": "VEC2"
    },
    {
      "bufferView": 0,
      "componentType": 5125,
      "count": 2748,
      "type": "SCALAR"
    },
    {
      "bufferView": 2,
      "byteOffset": 23952,
      "componentType": 5126,
      "count": 804,
      "max": [
        0.04857734963297844,
        0.12164849787950516,
        0.9189453125
      ],
      "min": [
        -0.035080891102552414,
        -0.038500189781188965,
        0.830078125
      ],
      "type": "VEC3"
    },
    {
      "bufferView": 2,
      "byteOffset": 33600,
      "componentType": 5126,
      "count": 804,
      "max": [
        0.9920523166656494,
        0.9808613061904907,
        0.9960162043571472
      ],
      "min": [
        -0.9950408935546875,
        -0.9674997329711914,
        -0.9456079006195068
      ],
      "type": "VEC3"
    },
    {
      "bufferView": 1,
      "byteOffset": 7984,
      "componentType": 5126,
      "count": 804,
      "max": [
        0.0298614501953125,
        1.1221309900283813
      ],
      "min": [
        -0.04071044921875,
        0.962127685546875
      ],
      "type": "VEC2"
    },
    {
      "bufferView": 0,
      "byteOffset": 10992,
      "componentType": 5125,
      "count": 1680,
      "type": "SCALAR"
    },
    {
      "bufferView": 2,
      "byteOffset": 43248,
      "componentType": 5126,
      "count": 3557,
      "max": [
        0.23296420276165009,
        0.08010494709014893,
        0.8798828125
      ],
      "min": [
        -0.24266380071640015,
        -0.0999469980597496,
        0.003779857885092497
      ],
      "type": "VEC3"
    },
    {
      "bufferView": 2,
      "byteOffset": 85932,
      "componentType": 5126,
      "count": 3557,
      "max": [
        0.9995648264884949,
        0.9997339248657227,
        0.9978641867637634
      ],
      "min": [
        -0.9999957084655762,
        -0.9999544024467468,
        -1.0
      ],
      "type": "VEC3"
    },
    {
      "bufferView": 1,
      "byteOffset": 14416,
      "componentType": 5126,
      "count": 3557,
      "max": [
        0.9938048124313354,
        0.9976767897605896
      ],
      "min": [
        0.008087282069027424,
        0.25192639231681824
      ],
      "type": "VEC2"
    },
    {
      "bufferView": 0,
      "byteOffset": 17712,
      "componentType": 5125,
      "count": 10896,
      "type": "SCALAR"
    },
    {
      "bufferView": 2,
      "byteOffset": 128616,
      "componentType": 5126,
      "count": 403,
      "max": [
        0.037802230566740036,
        0.03670800104737282,
        0.8862305283546448
      ],
      "min": [
        -0.04116841033101082,
        -0.07671838998794556,
        0.7578125
      ],
      "type": "VEC3"
    },
    {
      "bufferView": 2,
      "byteOffset": 133452,
      "componentType": 5126,
      "count": 403,
      "max": [
        0.9970939755439758,
        0.930168628692627,
        0.9900498986244202
      ],
      "min": [
        -0.9989728927612305,
        -0.9909120202064514,
        -0.999524712562561
      ],
      "type": "VEC3"
    },
    {
      "bufferView": 1,
      "byteOffset": 42872,
      "componentType": 5126,
      "count": 403,
      "max": [
        0.9951323866844177,
        0.9882352948188782
      ],
      "min": [
        0.006973372772336006,
        0.014450309798121452
      ],
      "type": "VEC2"
    },
    {
      "bufferView": 0,
      "byteOffset": 61296,
      "componentType": 5125,
      "count": 1149,
      "type": "SCALAR"
    },
    {
      "bufferView": 2,
      "byteOffset": 138288,
      "componentType": 5126,
      "count": 3058,
      "max": [
        0.23612919449806213,
        0.07735872268676758,
        0.7768555283546448
      ],
      "min": [
        -0.24697589874267578,
        -0.0748128890991211,
        0.41521820425987244
      ],
      "type": "VEC3"
    },
    {
      "bufferView": 2,
      "byteOffset": 174984,
      "componentType": 5126,
      "count": 3058,
      "max": [
        0.9996166229248047,
        0.9994051456451416,
        1.0
      ],
      "min": [
        -0.9998699426651001,
        -0.999233067035675,
        -1.0
      ],
      "type": "VEC3"
    },
    {
      "bufferView": 1,
      "byteOffset": 46096,
      "componentType": 5126,
      "count": 3058,
      "max": [
        0.9976959228515625,
        0.9949951171875
      ],
      "min": [
        0.0020904859993606806,
        0.0013275149976834655
      ],
      "type": "VEC2"
    },
    {
      "bufferView": 0,
      "byteOffset": 65892,
      "componentType": 5125,
      "count": 9126,
      "type": "SCALAR"
    },
    {
      "bufferView": 2,
      "byteOffset": 211680,
      "componentType": 5126,
      "count": 649,
      "max": [
        0.1409101039171219,
        0.06035168096423149,
        0.02833556942641735
      ],
      "min": [
        -0.15836499631404877,
        -0.10674230009317398,
        5.5491920647909865e-05
      ],
      "type": "VEC3"
    },
    {
      "bufferView": 2,
      "byteOffset": 219468,
      "componentType": 5126,
      "count": 649,
      "max": [
        0.9998648166656494,
        0.999488890171051,
        0.999975323677063
      ],
      "min": [
        -0.9989151954650879,
        -0.9845401048660278,
        -1.0
      ],
      "type": "VEC3"
    },
    {
      "bufferView": 1,
      "byteOffset": 70560,
      "componentType": 5126,
      "count": 649,
      "max": [
        0.9832913875579834,
        0.9671474099159241
      ],
      "min": [
        0.021576259285211563,
        0.04115360975265503
      ],
      "type": "VEC2"
    },
    {
      "bufferView": 0,
      "byteOffset": 102396,
      "componentType": 5125,
      "count": 1416,
      "type": "SCALAR"
    }
  ],
  "asset": {
    "extras": {
      "author": "ROCK FF 99 (https://sketchfab.com/amansoyal781)",
      "license": "SKETCHFAB Standard (https://sketchfab.com/licenses)",
      "source": "https://sketchfab.com/3d-models/free-fire-skull-bundle-824b6bdc2428491688639cd7146c7989",
      "title": "free fire skull bundle"
    },
    "generator": "Sketchfab-16.61.0",
    "version": "2.0"
  },
  "bufferViews": [
    {
      "buffer": 0,
      "byteLength": 108060,
      "name": "floatBufferViews",
      "target": 34963
    },
    {
      "buffer": 0,
      "byteLength": 75752,
      "byteOffset": 108060,
      "byteStride": 8,
      "name": "floatBufferViews",
      "target": 34962
    },
    {
      "buffer": 0,
      "byteLength": 227256,
      "byteOffset": 183812,
      "byteStride": 12,
      "name": "floatBufferViews",
      "target": 34962
    }
  ],
  "buffers": [
    {
      "byteLength": 411068,
      "uri": "scene.bin"
    }
  ],
  "images": [
    {
      "uri": "textures/Material_baseColor.png"
    },
    {
      "uri": "textures/Material_1_baseColor.png"
    },
    {
      "uri": "textures/Material_2_baseColor.png"
    },
    {
      "uri": "textures/Material_3_baseColor.png"
    },
    {
      "uri": "textures/Material_4_baseColor.png"
    },
    {
      "uri": "textures/Material_5_baseColor.png"
    }
  ],
  "materials": [
    {
      "doubleSided": true,
      "name": "Material",
      "pbrMetallicRoughness": {
        "baseColorTexture": {
          "index": 0
        },
        "metallicFactor": 0.0,
        "roughnessFactor": 0.6
      }
    },
    {
      "doubleSided": true,
      "name": "Material_1",
      "pbrMetallicRoughness": {
        "baseColorTexture": {
          "index": 1
        },
        "metallicFactor": 0.0,
        "roughnessFactor": 0.6
      }
    },
    {
      "doubleSided": true,
      "name": "Material_2",
      "pbrMetallicRoughness": {
        "baseColorTexture": {
          "index": 2
        },
        "metallicFactor": 0.0,
        "roughnessFactor": 0.6
      }
    },
    {
      "doubleSided": true,
      "name": "Material_3",
      "pbrMetallicRoughness": {
        "baseColorTexture": {
          "index": 3
        },
        "metallicFactor": 0.0,
        "roughnessFactor": 0.6
      }
    },
    {
      "doubleSided": true,
      "name": "Material_4",
      "pbrMetallicRoughness": {
        "baseColorTexture": {
          "index": 4
        },
        "metallicFactor": 0.0,
        "roughnessFactor": 0.6
      }
    },
    {
      "doubleSided": true,
      "name": "Material_5",
      "pbrMetallicRoughness": {
        "baseColorTexture": {
          "index": 5
        },
        "metallicFactor": 0.0,
        "roughnessFactor": 0.6
      }
    }
  ],
  "meshes": [
    {
      "name": "Object_0",
      "primitives": [
        {
          "attributes": {
            "NORMAL": 1,
            "POSITION": 0,
            "TEXCOORD_0": 2
          },
          "indices": 3,
          "material": 0,
          "mode": 4
        }
      ]
    },
    {
      "name": "Object_1",
      "primitives": [
        {
          "attributes": {
            "NORMAL": 5,
            "POSITION": 4,
            "TEXCOORD_0": 6
          },
          "indices": 7,
          "material": 1,
          "mode": 4
        }
      ]
    },
    {
      "name": "Object_2",
      "primitives": [
        {
          "attributes": {
            "NORMAL": 9,
            "POSITION": 8,
            "TEXCOORD_0": 10
          },
          "indices": 11,
          "material": 2,
          "mode": 4
        }
      ]
    },
    {
      "name": "Object_3",
      "primitives": [
        {
          "attributes": {
            "NORMAL": 13,
            "POSITION": 12,
            "TEXCOORD_0": 14
          },
          "indices": 15,
          "material": 3,
          "mode": 4
        }
      ]
    },
    {
      "name": "Object_4",
      "primitives": [
        {
          "attributes": {
            "NORMAL": 17,
            "POSITION": 16,
            "TEXCOORD_0": 18
          },
          "indices": 19,
          "material": 4,
          "mode": 4
        }
      ]
    },
    {
      "name": "Object_5",
      "primitives": [
        {
          "attributes": {
            "NORMAL": 21,
            "POSITION": 20,
            "TEXCOORD_0": 22
          },
          "indices": 23,
          "material": 5,
          "mode": 4
        }
      ]
    }
  ],
  "nodes": [
    {
      "children": [
        1
      ],
      "matrix": [
        1.0,
        0.0,
        0.0,
        0.0,
        0.0,
        2.220446049250313e-16,
        -1.0,
        0.0,
        0.0,
        1.0,
        2.220446049250313e-16,
        0.0,
        0.0,
        0.0,
        0.0,
        1.0
      ],
      "name": "Sketchfab_model"
    },
    {
      "children": [
        2
      ],
      "name": "root"
    },
    {
      "children": [
        3
      ],
      "matrix": [
        1.0,
        0.0,
        0.0,
        0.0,
        0.0,
        2.220446049250313e-16,
        1.0,
        0.0,
        0.0,
        -1.0,
        2.220446049250313e-16,
        0.0,
        0.0,
        0.0,
        0.0,
        1.0
      ],
      "name": "GLTF_SceneRootNode"
    },
    {
      "children": [
        4
      ],
      "matrix": [
        1.0,
        0.0,
        0.0,
        0.0,
        0.0,
        2.220446049250313e-16,
        -1.0,
        0.0,
        0.0,
        1.0,
        2.220446049250313e-16,
        0.0,
        0.0,
        0.0,
        0.0,
        1.0
      ],
      "name": "Sketchfab_model_0"
    },
    {
      "children": [
        5,
        7,
        9,
        11,
        13,
        15
      ],
      "name": "New Project 9.obj.cleaner.materialmerger.gles_1"
    },
    {
      "children": [
        6
      ],
      "name": "Object_2_2"
    },
    {
      "mesh": 0,
      "name": "Object_6"
    },
    {
      "children": [
        8
      ],
      "name": "Object_3_3"
    },
    {
      "mesh": 1,
      "name": "Object_8"
    },
    {
      "children": [
        10
      ],
      "name": "Object_4_4"
    },
    {
      "mesh": 2,
      "name": "Object_10"
    },
    {
      "children": [
        12
      ],
      "name": "Object_5_5"
    },
    {
      "mesh": 3,
      "name": "Object_12"
    },
    {
      "children": [
        14
      ],
      "name": "Object_6_6"
    },
    {
      "mesh": 4,
      "name": "Object_14"
    },
    {
      "children": [
        16
      ],
      "name": "Object_7_7"
    },
    {
      "mesh": 5,
      "name": "Object_16"
    }
  ],
  "samplers": [
    {
      "magFilter": 9729,
      "minFilter": 9987,
      "wrapS": 10497,
      "wrapT": 10497
    }
  ],
  "scene": 0,
  "scenes": [
    {
      "name": "Sketchfab_Scene",
      "nodes": [
        0
      ]
    }
  ],
  "textures": [
    {
      "sampler": 0,
      "source": 0
    },
    {
      "sampler": 0,
      "source": 1
    },
    {
      "sampler": 0,
      "source": 2
    },
    {
      "sampler": 0,
      "source": 3
    },
    {
      "sampler": 0,
      "source": 4
    },
    {
      "sampler": 0,
      "source": 5
    }
  ]
}
